<svg xmlns="http://www.w3.org/2000/svg" xmlns:xlink="http://www.w3.org/1999/xlink" width="96" height="96" viewBox="0 0 96 96">
  <defs>
    <clipPath id="clip-path">
      <rect id="Rectangle_196" data-name="Rectangle 196" width="50.432" height="33.559" transform="translate(0 0)" fill="#fff"/>
    </clipPath>
  </defs>
  <g id="ca" transform="translate(-612 -1285)">
    <circle id="Ellipse_96" data-name="Ellipse 96" cx="48" cy="48" r="48" transform="translate(612 1285)"/>
    <g id="Group_435" data-name="Group 435" transform="translate(635 1316)">
      <g id="Group_434" data-name="Group 434" clip-path="url(#clip-path)">
        <path id="Path_758" data-name="Path 758" d="M39.2,24.773a5.623,5.623,0,0,1-4.707,2.68c-2.61,0-4.778-1.188-4.778-4.008,0-4.172,6.083-5.64,10.744-5.92V18.76C40.481,21.464,40.435,22.909,39.2,24.773ZM30.53,9.788c.7-1.888,2.587-2.7,5.15-2.7,3.659,0,4.708,2.563,4.755,4.684l.023,1.025c-10.114.49-19.623,2.377-19.436,11.63.139,6.478,5.989,9.135,10.021,9.112,4.684,0,7.294-1.259,9.881-4.451a22.453,22.453,0,0,0,.443,3.822h9.066a15.341,15.341,0,0,1-.63-4.825V11.28c0-4.079-.769-6.363-2.959-8.344C44.769,1.049,41.367,0,36.776,0A18.474,18.474,0,0,0,26.312,2.773,11.662,11.662,0,0,1,30.53,9.788Z" fill="#fff"/>
        <path id="Path_759" data-name="Path 759" d="M20.508,24.074v.839a8.731,8.731,0,0,0,3.239,6.595,16.714,16.714,0,0,1-8.18,2.051C5.779,33.559,0,26.638,0,17.106,0,7.178,5.966,0,16.15,0,23.538,0,29.6,3.915,30.25,11.582H21.37c0-2.913-2.051-4.474-4.917-4.474-4.591,0-6.013,3.239-6.013,9.2,0,6.06,1.329,9.6,6.036,9.6A4.525,4.525,0,0,0,20.508,24.074Z" fill="#fff"/>
      </g>
    </g>
  </g>
</svg>
