<svg xmlns="http://www.w3.org/2000/svg" xmlns:xlink="http://www.w3.org/1999/xlink" width="96" height="96" viewBox="0 0 96 96">
  <defs>
    <clipPath id="clip-path">
      <rect id="Rectangle_59" data-name="Rectangle 59" width="48.327" height="48.161" fill="#fff"/>
    </clipPath>
  </defs>
  <g id="Active_Directory_Multi_Domain" data-name="Active Directory Multi Domain" transform="translate(-148 -572)">
    <circle id="Ellipse_39" data-name="Ellipse 39" cx="48" cy="48" r="48" transform="translate(148 572)" fill="#00aaf2"/>
    <g id="Group_127" data-name="Group 127" transform="translate(-97 162.774)">
      <g id="Group_126" data-name="Group 126" transform="translate(269 421.226)">
        <g id="Group_125" data-name="Group 125" clip-path="url(#clip-path)">
          <path id="Path_110" data-name="Path 110" d="M216.635,226.349v10.134c0,1.187-.365,1.43-1.491,1.248-7.547-1.126-15.186-2.161-22.794-3.226-1.369-.183-1.856-.669-1.856-2.161.122-5.386.061-10.8,0-16.251,0-1.187.365-1.552,1.552-1.552,7.791.061,15.46.061,23.1.061,1.248,0,1.552.487,1.552,1.613C216.574,219.623,216.635,222.971,216.635,226.349Z" transform="translate(-168.37 -189.624)" fill="#fff"/>
          <path id="Path_111" data-name="Path 111" d="M203.932,23.03c-3.834,0-7.669-.061-11.5,0-1.187,0-1.674-.243-1.674-1.613.061-5.508.061-10.925,0-16.373,0-1.065.365-1.43,1.37-1.613,7.852-1.126,15.7-2.222,23.555-3.408,1.37-.183,1.126.73,1.126,1.491,0,4.869.061,9.83,0,14.7,0,1.8-.061,3.591,0,5.387.061,1.126-.365,1.43-1.43,1.43C211.6,22.969,207.767,23.03,203.932,23.03Z" transform="translate(-168.6 0)" fill="#fff"/>
          <path id="Path_112" data-name="Path 112" d="M9.951,215.156h8.582c.913,0,1.309.3,1.309,1.248v16.92c0,.974-.426,1.065-1.309.974Q10,233.02,1.491,231.833C.365,231.651,0,231.285,0,230.1c.061-4.5.061-9.008,0-13.6,0-1.126.3-1.43,1.43-1.43C4.321,215.156,7.091,215.156,9.951,215.156Z" transform="translate(0 -190.087)" fill="#fff"/>
          <path id="Path_113" data-name="Path 113" d="M10.415,53.931H1.954c-1.065,0-1.43-.365-1.43-1.491.061-4.443.061-8.886,0-13.36,0-1.065.3-1.43,1.43-1.613Q10.491,36.372,19,35c1.309-.183,1.43.243,1.43,1.309V52.5c0,1.187-.487,1.369-1.552,1.369C16.044,53.87,13.184,53.931,10.415,53.931Z" transform="translate(-0.463 -30.901)" fill="#fff"/>
        </g>
      </g>
    </g>
    <text id="Active_Directory_Multi_Domain-2" data-name="Active Directory
Multi Domain" transform="translate(195 642)" fill="#fff" font-size="10" font-family="Rubik-Medium, Rubik Medium" font-weight="500"><tspan x="-39" y="0">Active Directory</tspan><tspan x="-31" y="12">Multi Domain</tspan></text>
  </g>
</svg>
