<svg xmlns="http://www.w3.org/2000/svg" width="96" height="96" viewBox="0 0 96 96">
  <g id="aha" transform="translate(-1044 -1285)">
    <circle id="Ellipse_98" data-name="Ellipse 98" cx="48" cy="48" r="48" transform="translate(1044 1285)" fill="#0173cf"/>
    <g id="Page-1" transform="translate(1052 1318)">
      <g id="aha-2" data-name="aha">
        <path id="XMLID_496_" d="M8.922,23.02,7.513,29.312c0,.188-.188.282-.376.282H.376c-.094,0-.282-.094-.282-.188A.345.345,0,0,1,0,29.124L8.922,2.077a1.261,1.261,0,0,1,.751-.657C11.645,1.044,14.744.575,16.9.2a.6.6,0,0,1,.657.376L26.3,29.312a.332.332,0,0,1-.376.376H21.975c-1.033,0-3.1.094-3.85.094-.188,0-.376-.094-.376-.282l-1.409-6.386Zm6.292-5.541c-.563-2.254-1.409-6.292-2.254-9.767-.563,2.442-1.878,7.419-2.536,9.767Z" transform="translate(0 -0.011)" fill="#fff"/>
        <path id="XMLID_492_" d="M36.97,10.8c4.789-3.287,8.828-2.536,10.8-.563,2.348,2.442,1.033,5.635,1.784,19.064a.332.332,0,0,1-.376.376c-.751,0-2.16-.094-2.817-.094-1.127,0-3.475.094-4.414.094a.332.332,0,0,1-.376-.376c.094-13.148.188-14.932-2.16-14.932a6.247,6.247,0,0,0-2.254.657c0,6.762.094,8.734.376,14.181,0,.094,0,.188-.094.188a.291.291,0,0,1-.188.094l-7.513.094c-.094,0-.188,0-.188-.094a.291.291,0,0,1-.094-.188c.188-19.627,0-23.666-.563-27.8-.282-.188.094-.188.094-.188C32.368.845,32.65.751,36.5,0c0,0,.376,0,.376.47C36.97,3.381,36.97,10.8,36.97,10.8Z" transform="translate(-1.753)" fill="#fff"/>
        <path id="XMLID_487_" d="M64.121,28.17a12.512,12.512,0,0,1-6.386,2.442c-3.475,0-5.635-2.536-5.635-6.292,0-5.822,6.856-7.513,11.739-8.17.094-.939.094-1.972-2.348-1.972a17.819,17.819,0,0,0-6.668,1.6c-.094.094-.282,0-.376,0a.488.488,0,0,1-.188-.376l.188-4.508c0-.188.094-.282.282-.376,4.414-1.315,11.927-2.348,15.026.563,1.972,1.784,1.878,4.038,1.784,7.795a97.015,97.015,0,0,0,.282,10.988.332.332,0,0,1-.376.376L64.5,30.33a.332.332,0,0,1-.376-.376Zm-.188-7.795c-1.784.188-4.508.376-4.508,2.723,0,2.066,2.254,2.723,4.508,1.315Z" transform="translate(-3.172 -0.561)" fill="#fff"/>
        <g id="exclamation" transform="translate(71.842 0.094)">
          <path id="XMLID_486_" d="M2,19.915a.4.4,0,0,1-.376-.376C1.157,9.3,1.063,8.176.5,1.79a.479.479,0,0,1,.376-.47L8.389.1a.565.565,0,0,1,.376.094c.094.094.094.188.094.376-.47,4.6-.939,13.335-1.033,18.876a.4.4,0,0,1-.376.376Z" transform="translate(-0.5 -0.1)" fill="#fff"/>
          <path id="Combined-Shape" d="M.7,30.071a.866.866,0,0,1,0-.094c0-1.274.032-2.58.04-3.712,0-.475-.015-.9-.04-1.25a.431.431,0,0,1,.031-.194c-.007-.234-.017-.45-.031-.646a.336.336,0,0,1,.38-.38,39.411,39.411,0,0,0,6.752-.1.336.336,0,0,1,.38.38q0,.378,0,.748a.858.858,0,0,1,0,.093v5.822a.332.332,0,0,1-.376.376,53.088,53.088,0,0,0-6.762.094A.332.332,0,0,1,.7,30.837C.7,30.584.7,30.328.7,30.071Z" transform="translate(-0.512 -1.537)" fill="#fff"/>
        </g>
      </g>
    </g>
  </g>
</svg>
