<svg xmlns="http://www.w3.org/2000/svg" xmlns:xlink="http://www.w3.org/1999/xlink" width="96" height="96" viewBox="0 0 96 96">
  <defs>
    <clipPath id="clip-path">
      <rect id="Rectangle_122" data-name="Rectangle 122" width="78.433" height="40" fill="#fff"/>
    </clipPath>
  </defs>
  <g id="alibaba" transform="translate(-782 -195)">
    <circle id="Ellipse_76" data-name="Ellipse 76" cx="48" cy="48" r="48" transform="translate(782 195)" fill="#f60"/>
    <g id="Group_277" data-name="Group 277" transform="translate(791 223)">
      <g id="Group_276" data-name="Group 276" clip-path="url(#clip-path)">
        <path id="Path_392" data-name="Path 392" d="M22.177,40.048a2.736,2.736,0,0,1-1.16-.6c-3.354-3.291.94-7.084,5.955-9.278V23.906a9.766,9.766,0,0,0,1.849.878l3.824-3.793-1.285-3.26c11.19-3.855,15.672-5.328,24.761-6.864l-1.63-1.536,2.664-1.5c6.112,2.006,11.879,2.539,10.876,7.679.251-3.479-4.075-4.8-10.657-6.645l-1.285.784,2.445,2.006a145.456,145.456,0,0,0-25.545,6.77l1.1,2.821-4.012,3.981a17.23,17.23,0,0,0,14.888-2.539s.157-.094.157-.157A8.593,8.593,0,0,0,43.8,21.242a3.5,3.5,0,0,1,3.26,3.949h-1a3.463,3.463,0,0,0-.282-1.755A18.973,18.973,0,0,1,28.1,26.194v4.858c-2.7.94-7.491,3.918-7.46,6.8a2.618,2.618,0,0,0,1.536,2.194" transform="translate(-13.613 -5.374)" fill="#fff"/>
        <path id="Path_393" data-name="Path 393" d="M31.511,33.068c-6.018,3.04-11.785,5.485-20.655,5.83C-.71,38.647-2.5,30.968,2.957,22.944c5.172-8.087,13.384-15.421,26.423-20A48.826,48.826,0,0,1,44.08,0c7.711-.063,15.2,2.319,14.7,9.716-.282,5.673-8.463,13.634-12.757,19.37-1.849,2.507-2.163,4.137,1,3.981,11.44-.752,21.784-4.7,31.406-8.808-6.519,4.419-40.151,21.063-40.276,9.717a8.907,8.907,0,0,1,1.787-4.608,45.693,45.693,0,0,1,4.075-5.046c2.288-2.6,7.993-8.87,9.9-12.631C57.15,4.671,49.941,4.326,43.7,2.132l-2.664,1.5,1.63,1.536c-9.09,1.5-13.572,3.009-24.761,6.864l1.285,3.26L15.4,19.057a8.827,8.827,0,0,1-1.849-.878v6.269C8.568,26.642,4.242,30.435,7.6,33.726a2.735,2.735,0,0,0,1.16.6c6.143,3.448,22.787-1.254,22.755-1.254" transform="translate(0 0.001)" fill="#fff"/>
        <path id="Path_394" data-name="Path 394" d="M214.519,115.819h.784a1.169,1.169,0,0,0,.376-.063.562.562,0,0,0,.219-.157.377.377,0,0,0,.063-.251.386.386,0,0,0-.157-.313.613.613,0,0,0-.439-.125h-.846Zm-.345,1.567V114.6h1.254a2.335,2.335,0,0,1,.564.063.666.666,0,0,1,.313.282.63.63,0,0,1,.125.407.712.712,0,0,1-.188.5.957.957,0,0,1-.6.251.673.673,0,0,1,.219.125,1.987,1.987,0,0,1,.313.376l.5.752h-.47l-.376-.564a1.519,1.519,0,0,0-.282-.407.532.532,0,0,0-.188-.188c-.063-.031-.094-.063-.157-.063h-.69v1.254Z" transform="translate(-147.044 -78.678)" fill="#fff"/>
        <path id="Path_395" data-name="Path 395" d="M211.893,115.946a2.664,2.664,0,1,0-2.664-2.664,2.662,2.662,0,0,0,2.664,2.664m-2.257-2.664a2.257,2.257,0,1,1,2.257,2.257,2.247,2.247,0,0,1-2.257-2.257" transform="translate(-143.649 -75.946)" fill="#fff"/>
      </g>
    </g>
  </g>
</svg>
