<svg xmlns="http://www.w3.org/2000/svg" width="96" height="96" viewBox="0 0 96 96">
  <g id="Allegro" transform="translate(-468 -584)">
    <circle id="Ellipse_28" data-name="Ellipse 28" cx="48" cy="48" r="48" transform="translate(468 584)" fill="#ff5a00"/>
    <path id="Allegro.pl_sklep" d="M78.993,9.706a7.268,7.268,0,0,0-11.485,0,7.54,7.54,0,0,0-1.365,4.439,7.54,7.54,0,0,0,1.365,4.439,7.268,7.268,0,0,0,11.485,0,7.546,7.546,0,0,0,1.365-4.439,7.546,7.546,0,0,0-1.365-4.439Zm-2.275,6.1a3.809,3.809,0,0,1-3.473,2.813,3.7,3.7,0,0,1-3.468-2.813,5.144,5.144,0,0,1,0-3.329,3.808,3.808,0,0,1,3.468-2.813,3.72,3.72,0,0,1,3.473,2.813,5.149,5.149,0,0,1,0,3.324ZM24.424,21.024a.411.411,0,0,1-.411.411H21.627a.411.411,0,0,1-.411-.411V1.411A.411.411,0,0,1,21.627,1h2.386a.411.411,0,0,1,.411.411Zm-5.6,0a.411.411,0,0,1-.411.411H16.023a.411.411,0,0,1-.411-.411V1.411A.411.411,0,0,1,16.018,1H18.4a.411.411,0,0,1,.411.411V21.024ZM65.6,7.708V9.373a.433.433,0,0,1-.555.472c-2.7-.555-4.356.644-4.356,3.135v8.045a.411.411,0,0,1-.411.411H57.9a.411.411,0,0,1-.411-.411V12.807a5.548,5.548,0,0,1,1.759-4.156,6.192,6.192,0,0,1,4.367-1.764,9.261,9.261,0,0,1,1.665.155c.283.094.327.261.327.688ZM55.39,14.139A7.441,7.441,0,0,0,54.025,9.7a7.268,7.268,0,0,0-11.485,0,7.807,7.807,0,0,0,0,8.878,7.063,7.063,0,0,0,5.743,2.813,7.324,7.324,0,0,0,4.089-1.232v1.753c0,2.38-2.081,2.813-3.412,2.9a15.68,15.68,0,0,1-2.741-.15c-.366-.055-.621,0-.621.394v2.108a.361.361,0,0,0,.377.344c3.09.266,5.171.211,6.736-.682a5.093,5.093,0,0,0,2.28-2.9,9.7,9.7,0,0,0,.394-2.9V14.139Zm-7.108,4.472A3.761,3.761,0,0,1,44.809,15.8a5.144,5.144,0,0,1,0-3.329,3.761,3.761,0,0,1,3.473-2.813c3.834,0,3.962,3.912,3.962,4.478S52.116,18.611,48.282,18.611ZM13.427,12.7a6.17,6.17,0,0,0-1.332-4.322A6.324,6.324,0,0,0,7.656,6.892,9.621,9.621,0,0,0,2.8,8.185a.305.305,0,0,0-.15.266l.128,2.086a.372.372,0,0,0,.61.216c2.081-1.282,4.577-1.52,5.848-.877a2.219,2.219,0,0,1,1.11,2v.305H6.879c-1.493,0-6.064.555-6.064,4.755v.044A4.073,4.073,0,0,0,2.3,20.359,5.859,5.859,0,0,0,6,21.418h7.019a.411.411,0,0,0,.411-.411V12.685Zm-3.079,6.153H6.2a2.563,2.563,0,0,1-1.47-.516,1.631,1.631,0,0,1-.694-1.365c0-.749.5-2.247,3.029-2.247h3.279ZM33.207,6.892a6.534,6.534,0,0,0-6.7,5.254,8.09,8.09,0,0,0-.244,1.986,7.546,7.546,0,0,0,1.365,4.439,7.285,7.285,0,0,0,5.743,2.813,9.092,9.092,0,0,0,4.994-.971.649.649,0,0,0,.277-.7V17.862c0-.377-.227-.555-.555-.327a7.241,7.241,0,0,1-4.616,1.11,3.779,3.779,0,0,1-3.706-3.368H39.2a.388.388,0,0,0,.388-.383c.166-2.58-.583-8-6.381-8Zm-3.39,5.831a3.207,3.207,0,0,1,3.4-3.057,2.852,2.852,0,0,1,3.018,3.057Z" transform="translate(475.191 618)" fill="#fff"/>
  </g>
</svg>
