<svg xmlns="http://www.w3.org/2000/svg" width="96" height="96" viewBox="0 0 96 96">
  <g id="Amplitude" transform="translate(183.6 -1464.075)">
    <circle id="Ellipse_109" data-name="Ellipse 109" cx="48" cy="48" r="48" transform="translate(-183.6 1464.075)" fill="#007fd2"/>
    <path id="Path_802" data-name="Path 802" d="M12.62,1648.915l-.02-.005c-.013,0-.026-.007-.039-.01l-.045-.005a2.182,2.182,0,0,0-.364-.038l-.323-.035c-7.71-.633-15.641-.882-23.081-1.053l-.015-.062c-3.621-15.581-8.145-31.511-14.244-31.511-5.683.03-10.807,10.5-15.231,31.115-3.126-.046-5.976-.1-8.662-.148-.153,0-.289,0-.411,0a6.912,6.912,0,0,0-.992.049,3.543,3.543,0,0,0-2.611,3.6,3.559,3.559,0,0,0,2.72,3.626l.031.037h8.476c-.787,4.125-1.476,8.2-2.052,12.135l-.252,1.73,0,.083a2.3,2.3,0,0,0,2.119,2.42,2.075,2.075,0,0,0,1.788-1.128l.06.055,4.167-15.3H-16.3c1.533,6.646,3.124,13.507,5.226,19.947,1.124,3.443,3.755,11.509,8.153,11.549h.05c6.806,0,9.459-12.611,11.216-20.959.377-1.8.7-3.347,1.011-4.487l.123-.471h0a1.342,1.342,0,0,0,.045-.349,1.14,1.14,0,0,0-1.055-1.21,1.071,1.071,0,0,0-.987.783h0l-.148.469c-.578,1.834-1.112,3.569-1.585,5.106l-.036.116c-2.946,9.571-4.291,13.939-6.925,13.94h-.065l-.037.006-.066,0c-3.372,0-6.547-15.723-7.742-21.641-.207-1.025-.4-1.967-.571-2.795h21.8a2.188,2.188,0,0,0,1.133-.321l.006,0c.034-.02.067-.043.1-.066s.073-.049.108-.075c.018-.013.034-.026.051-.04.053-.041.1-.085.153-.131l.01-.01a2.974,2.974,0,0,0,.9-2.166A2.724,2.724,0,0,0,12.62,1648.915Zm-45.153-1.495-2.434-.032c2.749-12.327,6.1-21.683,8.554-23.891a1.178,1.178,0,0,1,.665-.251,1.081,1.081,0,0,1,.868.589c.641,1.14,1.747,3.7,3.384,9.406,1.12,3.907,2.342,8.747,3.635,14.394C-22.766,1647.547-27.728,1647.482-32.534,1647.42Z" transform="translate(-116.378 -140.443)" fill="#fff" fill-rule="evenodd"/>
  </g>
</svg>
