<svg xmlns="http://www.w3.org/2000/svg" xmlns:xlink="http://www.w3.org/1999/xlink" width="96" height="96" viewBox="0 0 96 96">
  <defs>
    <clipPath id="clip-path">
      <rect id="Rectangle_191" data-name="Rectangle 191" width="74.741" height="74.741" fill="#fff"/>
    </clipPath>
  </defs>
  <g id="apache-directory" transform="translate(-756 -1285)">
    <circle id="Ellipse_97" data-name="Ellipse 97" cx="48" cy="48" r="48" transform="translate(756 1285)" fill="#0b0a0a"/>
    <g id="Group_426" data-name="Group 426" transform="translate(766.629 1295.629)">
      <g id="Group_425" data-name="Group 425" clip-path="url(#clip-path)">
        <g id="Group_424" data-name="Group 424">
          <g id="Group_423" data-name="Group 423" clip-path="url(#clip-path)">
            <path id="Path_747" data-name="Path 747" d="M38.131,1.144A36.987,36.987,0,0,0,13.79,10.32l.608.608A35.978,35.978,0,0,1,59.657,9.1l.576-.576A36.989,36.989,0,0,0,38.131,1.144Zm26,10.7-.575.575a36.07,36.07,0,0,1,1.836,49.5l.54.54a36.872,36.872,0,0,0-1.8-50.616ZM10.2,13.949A36.783,36.783,0,0,0,8.527,60.23l.591-.591a36.037,36.037,0,0,1,1.665-45.11Zm2.223,49.6-.573.573a36.892,36.892,0,0,0,50.476,1.957l-.57-.571a36.066,36.066,0,0,1-49.332-1.959Z" transform="translate(-0.76 -0.76)" fill="#fff"/>
            <g id="Group_422" data-name="Group 422" opacity="0">
              <g id="Group_421" data-name="Group 421">
                <g id="Group_420" data-name="Group 420" clip-path="url(#clip-path)">
                  <path id="Path_748" data-name="Path 748" d="M38.131,1.144A36.987,36.987,0,0,0,13.79,10.32l.608.608A35.978,35.978,0,0,1,59.657,9.1l.576-.576A36.989,36.989,0,0,0,38.131,1.144Zm26,10.7-.575.575a36.07,36.07,0,0,1,1.836,49.5l.54.54a36.872,36.872,0,0,0-1.8-50.616ZM10.2,13.949A36.783,36.783,0,0,0,8.527,60.23l.591-.591a36.037,36.037,0,0,1,1.665-45.11Zm2.223,49.6-.573.573a36.892,36.892,0,0,0,50.476,1.957l-.57-.571a36.066,36.066,0,0,1-49.332-1.959Z" transform="translate(-0.76 -0.76)" fill="#fff" stroke="#000" stroke-linecap="round" stroke-linejoin="round" stroke-width="2.288"/>
                </g>
              </g>
            </g>
            <path id="Path_749" data-name="Path 749" d="M50.7,78.927h-4.54l.709-1.852.71-1.852.05-4.422.05-4.422-.625-.957-.625-.957H45l-.953.5-.953.5-.844.9-.844.9-.82,1.335-.82,1.335-.011-.358-.011-.358.694-1.295.694-1.295-.782-.111-.782-.111,3.1-1.49,3.1-1.489-.512-.98-.511-.979-1.092-1.5-1.092-1.5H41.2l-1.135.956-1.136.956L38.1,62.157l-.828,1.778-.014-.529-.015-.529-.523.693-.524.692-.6,1.891-.6,1.892-.567.3-.568.3.852-1.723.853-1.723-.132-.4-.132-.4-1.033.812-1.033.813.268-.435.268-.435h-.441l-.771.41-.77.411.454-.55.453-.55,1.166-.219,1.166-.219.718-.788.718-.788.409-.794.409-.794H35.138L33.47,62.775,31.8,64.26l.441-.5.441-.5v-.582l-1,.515-1,.515-.428.516-.428.516-.714-.187-.714-.187,1.389-.622,1.389-.622.241-.389.241-.39-.462-.036-.462-.036,1.058-.3,1.058-.3,2.612-.7,2.613-.7.547-.547.547-.547-.338-.308-.338-.308-1.738-.576-1.738-.576h-1.5l-2.57,1.81-2.57,1.811.454-.727.454-.727.858-.391.858-.391-.221-.221-.221-.22,1.1-.671,1.1-.671-.312-.295-.312-.295-1.688-.564-1.688-.564H27.425l-.882-.882-.882-.882h.251l1.887.878,1.887.878.689,0,.689,0L29.67,53.8l-1.395-1.489,2.009,1.843L32.292,56l.813.306.814.306,2.469-.313,2.469-.313.842-.19.842-.19-1-1.042-1-1.042-3.429-1.762L31.686,50H28.452l.088-.4.088-.4-1.906-.674-1.907-.674-2.3-.215-2.3-.215.824-.305.824-.305,1.091.33,1.091.33.97.215.97.215v-.783l-.794-1.053-.794-1.053-.871-.943-.871-.943-.072-.472-.072-.472-.611-.674-.61-.675h.734l.62.97.62.97,1.976,2.437,1.976,2.437,1.766.822,1.766.823.683,0,.683,0-2.229-2.246-2.229-2.246.047-.223.047-.223H28.1l-.012.088-.012.088,2.569,2.7,2.569,2.7,1.67.713,1.67.713,1.186.9,1.185.9h.815v-.446l-.733-1.186-.733-1.186-.59-.344-.59-.344.672-.011.672-.011-.672-.754-.672-.754L34.325,45.9l-2.769-2.244-1.111-.025L29.333,43.6l-.706-.332-.705-.332,1.234.174,1.235.174.44-.279.44-.279-1.233-1.2L28.8,40.34v-.921L27.04,38.152l-1.764-1.267v-.326l.784.549.784.549H27.5l-.5-.637-.5-.637.882.9.882.9,1.18,1.408,1.18,1.408-.224-.882-.224-.882.912,1.829.912,1.829,2.173,2.012,2.173,2.011.124-.373.124-.373-.947-1.88-.947-1.88-1.326-1.448-1.326-1.448-.412-.845-.412-.845.637.781.637.781.582.806.581.806.238-.232.238-.232-.592-1.179-.592-1.179-2.344-2.449-2.344-2.449.583.435.583.435.184-.376.184-.376-.09.445-.09.445.91.955.91.955.447.108.447.108,3.962,3.81,3.962,3.81.8.559.8.559.152-.152.152-.152-1.353-2.038-1.353-2.038-1.028-.945-1.028-.945.349.265.349.264h.564v-.792l-2.91-2.988-2.91-2.988-1.5-.883-1.5-.883v-.264l.617.227.617.227-1.675-1.81-1.676-1.81v-.47l3.5,3.659,3.5,3.659,1.083.637,1.083.637V34.306l-.653-1.072-.654-1.071-2.014-2.175-2.013-2.175-.71-.225-.709-.225.2-.2.2-.2-.609-.734-.608-.734.5.441.5.441h.6l-1.1-1.676-1.1-1.675.91.991L30.57,25l.289-.179.29-.179,1.291,2.208,1.291,2.208.944.861.944.861-.182-.529-.182-.529-.622-1.94-.622-1.94-1.281-1.4-1.281-1.4.869.7.868.7.618.705.618.706,1.29,3.88,1.29,3.88,1.1,2.822,1.1,2.822.218-1.235.218-1.234.046,1.158.046,1.158.506,1.211.506,1.211.817.173.817.173,1.676.326,1.675.326v-.493l-1.295-1.563-1.3-1.563-1.6-1.671-1.6-1.671-.264.426-.263.426-.147-.519-.147-.519-.412-1.723-.412-1.723.154-.154.154-.154.23,1,.23,1,2.245,2.468,2.245,2.468.221-.221.221-.221-3.433-5.055-3.432-5.055-1.182-2.8-1.181-2.8.118-.355.118-.354.642,1.682.642,1.682.3-.479.3-.479.006.64.006.64.77,1.829.771,1.829,1.19,1.89,1.19,1.89.2-.2.2-.2-.57-1.674-.57-1.673-.792-.872-.792-.872.441.254.441.254V27.06l-.864-2.127-.864-2.127.186-.484.186-.484-.4-.738-.395-.738.433.093.433.093.955,1.94.955,1.94.579.705.578.706-.54-1.366-.541-1.366v-.443l.663,1.088.663,1.087.238,1.08L41.9,27l.739.654.74.654,1.357,2.083,1.357,2.083v-.7l-.656-1.907-.656-1.907L43.484,25.39l-1.292-2.566-1.3-1.49-1.3-1.49.895.794.895.794h.789l.239.752.239.752.309-.488.309-.488.021.882.021.882.485,1.058.485,1.058.071-1.411.072-1.411.287,1.94.287,1.94.383.882.383.882-.151-2.2-.151-2.2.319-.2.319-.2v2.863h.692l.241-.959.241-.959L46.5,22.676l-.763-2.128.025-.706.025-.706.3.706.3.706.08-.882.08-.882L46.5,17.9l-.055-.882.512,1.146.513,1.147h.443l-.2-1.147-.2-1.146.191.408.191.409.66,2.237.66,2.237.077-1.587.076-1.587.268,1.94.268,1.94.057,2.645.057,2.646.357-.882.358-.882.156-3.857.156-3.857.17-.17.17-.17v1.117l.4.135.4.135-.425.795-.425.795.11.723.11.722.97-.766.97-.766.05-2.532.05-2.532.241,1.94.241,1.94-.273,1.058-.273,1.058-.361,3-.361,3-.238,1.022-.237,1.022.4-.25.4-.249,0,.109,0,.109-.7,2.236-.7,2.236.029,8.7.029,8.7.633-1.357.633-1.357.421-2.7.421-2.7.769-3.88.769-3.88-.027-9.7-.027-9.7.135,1.94.135,1.94.293.3.293.3-.188,3.673-.188,3.673h.472l.387-.97.387-.97.478-1.587.478-1.587-.206,1.587-.205,1.587-.716,1.686-.716,1.686.2.2.2.2,1.065-2.064,1.065-2.064.017.288.017.288L57.553,29.44l-1.234,2.672v1.045l.529-.439.529-.439v-.666l.858-1.126.858-1.125.9-1.937.9-1.938,0-.794,0-.794h.705V22.883L62,22.642l.391-.242-.253.838-.253.838-2.023,4.257L57.84,32.59l-.2,2.269-.2,2.269L58.5,35.893l1.062-1.234-.709,1.411-.709,1.411-1.229,1.18-1.229,1.18-.427,1.527-.427,1.526.158.468.158.468.773-1.411.773-1.411-.211.794-.211.794h.369l1.428-2.4,1.428-2.4,1.2-2.976,1.2-2.976.642-3.881.642-3.88.138.669.137.668.312-.492.312-.492.006.629.006.63-.5.781-.5.781-.242,2.117L62.6,31.484l1.112-1.234,1.112-1.235-1.6,2.264-1.6,2.264-1.044,2.5-1.044,2.5L57.765,41.7l-1.775,3.157.148.148.148.148,1.163-.67,1.163-.67,1.1-2.181,1.1-2.181-.19-.19-.19-.19h.871l-.223-.794-.223-.794.339.49.339.49.552-1.019.552-1.019.014.272.014.272-1.415,2.814L59.84,42.6h1.08l1.139-1.639L63.2,39.317l2.2-2.979,2.2-2.979.011-.409.011-.409.872-.635.872-.635-1.412,2.016L66.549,35.3l.165.165.165.165.981-.609.981-.609,1.182-1.291,1.181-1.291-.232.441-.233.441h.638l.638-.706.639-.705h.7l-1.656,1.458-1.656,1.458-1.26,2.511-1.26,2.511L66.83,40.3l-.689,1.058,1.073-1.2,1.072-1.205,1.585-2.728,1.585-2.728,1.087-.774,1.087-.774-.2-.622-.2-.622.6-.491.6-.491-.265.441-.265.441h.868l.721-.617.722-.617-2.2,2.581-2.2,2.581-.481.946-.481.946L70.6,37.3l-.272.879.58-.481.58-.481V37.7l-.882,1.156-.882,1.156v.545l.783-.205.784-.2-.955.781-.955.781-.552,2.422-.552,2.423.2.2.2.2L70.1,45.57l1.425-1.388-.235.617-.235.617h.781l1.4-1.4,1.4-1.4.835-1.335.835-1.335.4-1.167.4-1.167-.782.221-.782.221-2.117,1.065-2.116,1.064.705-.669.706-.669,1.764-.745,1.764-.745.578-.178L77.406,37l.626-1.7.626-1.7.309-.349.309-.35-.554,1.568-.553,1.568.165.431.165.431-.481.4-.481.4-.362,1.038-.362,1.037h.4l1.282-1.344,1.282-1.343-.794.922-.794.922v.652l-2.9,2.918-2.9,2.918H75.5l.894-.794.894-.794-.445.583L76.4,45l.456.162.456.162-.194.213-.195.213-2.769.182-2.769.182-1.54.746L68.3,47.6l-.366.685-.366.684.2.643.2.642-.537.446-.537.446v1.311l.794.188.794.188,1.637.295,1.637.295.575-.321.574-.322-.1.463-.1.462.943.109.943.109,1.424-.726,1.424-.726.278.014.279.014-1.019.552-1.019.552.49.31.49.31,1.461.006,1.462.006.2.514.2.514-.89-.338-.89-.339-3.944-.354-3.943-.354L68.567,53.4l-2.039-.483-1.549,2.159-1.549,2.159.079.078.078.079,3.107.353,3.107.353.411.341.41.341,2.45.451,2.45.451-.87.212-.87.212,1.058.58,1.058.58-.278.014-.279.014-1.332-.679-1.332-.68-2.093-.759-2.093-.759-3-.168-3-.168-.483.332-.483.332,1.189,1.65,1.188,1.65.765.949.764.949,2.112-.077,2.112-.078.375.452.375.452-2.1-.152-2.1-.152v.8l1.087.661,1.087.661-.463.154-.462.154.638.974.638.974-.141.141-.141.141-2.072-2.817L64.3,63.408h-.57l0,.264,0,.265.384,1.382L64.5,66.7l.894,1.44.895,1.44-1.04-.975-1.04-.975-.3.269-.3.269.254-.441.254-.441-.285,0-.286,0-.09-2.13-.091-2.13L62.862,61.8l-.509-1.217-.907-.413-.907-.413-1.084,1.03-1.084,1.03-.735,1.023L56.9,63.867l.921.792.921.793-.173.173L58.4,65.8l1.7,1.345,1.695,1.345.353.325.353.325-.882-.451-.882-.451-1.2-.913-1.2-.913.189.879.189.879.241.705.241.706-1.289-2.6-1.29-2.6-.527.527-.527.527-.708,2.071-.708,2.07L53.945,73l-.187,3.42.74,1.254.74,1.254H50.7Zm2.809-13.4.7-.882.215-.8.214-.8L54.2,62.52,53.763,62h-.972l.008,2.2.007,2.2.7-.882Zm-6.414-4.072.121-.584-.225-1.2-.225-1.2H44.325v.395l1.323,1.586,1.323,1.586Zm7.8.192h.294l.232-.923.232-.923-.137-.137-.137-.137-.62.685-.62.686.232.375.232.375ZM59,59.376l2.079-1.734,1.7-1.615,1.7-1.615.346-.632.347-.632-2.473,1.245-2.473,1.245L59.018,56.7,57.8,57.77l-.23.966-.231.966-.211.7-.211.7Zm-5.938.5h.181l1.718-1.311,1.718-1.31.347-1.247.346-1.247,0-1.193,0-1.193.723-1.17.723-1.17,1.17-.723,1.17-.723h2.152l.692-1.147L64.7,46.3l.43-1.346.431-1.347-.2-.2-.2-.2-.881.577-.881.577-3.845,4.277-3.844,4.277-1.1,1.818L53.5,56.55l-.311,1.665-.311,1.665Zm-12.9-1.791,1.3.027.237-.383.237-.384-.364-.364-.364-.364-1.468.02-1.468.02-1.118.26-1.118.26,1.411.44,1.411.44Zm4.779-.326h1.5l0-.441,0-.441-1.167-1.468L44.1,53.944l-1.034-.86-1.033-.86-.77-.405-.771-.405h-.4v.77l1.672,2.79,1.672,2.79h1.5Zm3.2-1.544.111-1.323-1.078-2.3-1.078-2.3-1.111-1.4-1.111-1.4-1.958-1.447-1.959-1.447L37.2,41.951l-2.76-2.636-.174.174-.175.174,1.467,3.317L37.021,46.3l1.186,1.865,1.186,1.864.541.207.541.208.2-.2.2-.2L39.218,47.7l-1.665-2.333.176-.176.176-.176L39.6,47.421l1.692,2.4L43.6,52.295l2.315,2.469,1.055,1.389,1.055,1.389Zm10.207-.227.264-.007L61.059,54.4l2.448-1.586,1.318-.395,1.318-.395.22-.875.22-.875-.114-.114-.114-.114L64.7,49.957l-1.655-.086-.806.67-.805.67L59.758,52.8l-1.675,1.587V56Zm-4.32-2.814h.108l1.8-2.424,1.8-2.424.53-1.5.529-1.5V44.3l-1.422,1.126-1.421,1.126-.475.932-.475.932L54.457,50.8l-.538,2.381Zm-5.223-.84.07-.065-.357-2.634L48.16,47l-.595-1.212-.595-1.212-.894-.652-.894-.652L43.372,42.8l-1.811-.478L44.594,46.6l3.033,4.281.554.759.554.759ZM60.47,51.119l1.492-1.176v-.293h-.975l-1,1.323-1,1.323Zm5.372-1.591.882-.055.741-2.31.741-2.309.245-1.306.245-1.306-.9.41-.9.41-1.586,2.981-1.586,2.981v.221l.617.169.617.169Zm-6.234-2.575.576-.322,2.433-2.179,2.434-2.179,1.172-2.044L67.4,38.185l.794-1.676.794-1.675h-.369L67.036,35.92l-1.579,1.086-1.928,2.9L61.6,42.8l-1.054.623-1.054.623v.93l-.23,1.15-.23,1.15Zm-8.692-.915.16-.613-.153-.8-.153-.8-.008,1.411-.007,1.411Zm-1.948-1.856.254-1.411.02-1.114.02-1.114-2.028-4-2.028-4-1.94-1.158-1.94-1.158-.113.538L41.1,31.3l1.3,2.384,1.3,2.384,2.51,4.762,2.509,4.762Zm-21.046.529H28.1v-.353h-.353v.353Zm23.2-2.525.316-.826-.23-2.948-.23-2.948-.65-1.991-.65-1.991-1.228-2.751-1.228-2.751-.393,1.128-.393,1.128v3.033l1.145,3.105,1.145,3.1.191-1.587.191-1.587.425,1.411.425,1.411,0,1.12,0,1.119.421,1.824.421,1.824Zm14.85.408h.176l.218-.353.218-.353h-.353l-.218.353-.218.353ZM27.57,38.008h.176v-.353h-.353v.353Zm23.8-5.115.26-.706.245-2.762.244-2.762-.247-1.645-.247-1.645-.275.7-.275.7-.025,1.343-.025,1.343-.381,1.513-.381,1.513.423,1.554.423,1.553Zm-7.114-1.6.109.014-.26-.441-.259-.441-1.473-1.94L40.9,26.544,39.8,24.78l-1.1-1.764-.007.783-.007.784.863,1.95.862,1.95h.369l-.2-.529-.2-.529h.414l.715,1.4.715,1.4.968.525.968.525Zm-3.284-2.1h.176v-.353H40.8v.353ZM49.2,26.368l.112-2.293L48.7,22.053,48.1,20.03l-.651-.59-.651-.59,0,1.554,0,1.554.22.823.22.824.3-.471.3-.471.006,1.4.006,1.4.617,1.6.617,1.6Zm3.67-1.9.305-1.719-.2-.2-.2-.2-.384.384-.384.384.276,1.533.276,1.533Zm7.153,47.047h-.176v-.353H60.2v.353Zm-20.854-.705h-.176l.218-.353.218-.353h.353l-.218.353-.218.353Zm20.511,0h-.144l-.233-.376-.233-.376.168-.168.168-.168.209.544.209.545Zm-27.171-.706h-.176v-.353h.353v.353Zm1.722-.353h-.176l.218-.353.218-.353h.353l-.218.353-.218.353Zm3.745-.706h-.47l.235-.235.235-.235.235.235.235.235Zm1.205-.38-.676-.028.463-.185.463-.185.213.213.213.213Zm31.092-.678h-.156l-.252-.407-.252-.407.407.252.407.252v.311Zm-1.432-1.058h-.177v-.353h.353v.353ZM31.45,66.228h-.176v-.353h.353v.353Zm-3.528-1.411h-.176v-.353H28.1v.353Zm49.561-2.852-.529.019-.529-.342L75.9,61.3l.353.019.353.019.705.3.706.3Zm-4.409-.323H72.9V61.29h.353v.353Zm-.705-.353h-.176v-.353h.353v.353Zm8.466-.353h-.176v-.353h.353v.353Zm-54.323-.353h-.176v-.353h.353v.353Zm53.088,0h-.47l.235-.235.235-.235.235.235.235.235ZM27.893,60.2l-.676-.028.463-.185.463-.185.213.213.213.213Zm50.3.028h-.47L77.954,60l.235-.235.235.235.235.235ZM29.157,58.386H27.922l.617-.161.617-.161.617.161.617.161Zm43.388-.353H71.31l.617-.161.617-.161.617.161.617.161ZM23.933,55.258l-1.3-.035.882-.283.882-.283.638-.035.638-.035-.218.353-.218.353Zm57.783-.67h-.47l.235-.235.235-.235.235.235.235.235Zm-59.438-.706H22.1v-.353h.353v.353Zm2.822-.353h-.176v-.353h.353v.353Zm-.706-.353h-.176v-.353h.353v.353Zm49.385-.706H73.6v-.353h.353v.353Zm5.82-.056h-.882l.441-.178.441-.178.441.178.441.178ZM75.014,51.9l-.882.211,1.235-.594,1.234-.594-3.175-.277-3.175-.276-.882-.159-.882-.159,2.881.116,2.881.116.957-.5.957-.5-.467.563-.467.563.51-.073.51-.073.882.048.882.048-1.058.661-1.058.661Zm6.349.218h-.47l.235-.235.235-.235.235.235.235.235ZM22.807,51.06h-.47l.235-.235.235-.235.235.235.235.235Zm2.5-.377-1.558.025.147-.128.147-.128,2.117-.192,2.116-.192-.705.294-.706.295ZM22.631,50h-.176v-.353h.353V50Zm-1.411-.421-1.058-.013.624-.163.624-.162.435.175.434.176Zm15.5.065-.377,0-1.872-1.4-1.872-1.4-.22-.247-.22-.247.529.287.529.287.529.45.529.45.185-.063.185-.063,1.226.966,1.226.966-.377,0Zm42.531-.052h-.882l.441-.178.441-.178.441.178.441.178Zm1.94-2.414h-.176v-.353h.353v.353Zm-60.32-.353h-.176v-.353h.353v.353Zm10.935,0h-.176v-.353h.353v.353Zm47.533-.377-.265-.025-.705-.3-.706-.3.97-.025.97-.025v.706ZM27.57,46.122h-.176v-.353h.353v.353Zm-3.88-.353h-.176v-.353h.353v.353Zm3.175,0h-.176v-.353h.353v.353Zm-3.88-.363h-.353l-.529-.342-.529-.342h.706l.529.342.529.342Zm55.558-.51-.882.175.529-.229.529-.229.911-.459.911-.459v1.016l-.559,0-.559,0Zm2.646-.538h-.176v-.353h.353v.353ZM21.926,42.947h-.176v-.353H22.1v.353Zm5.468,0h-.47l.235-.235.235-.235.235.235.235.235Zm-6.173-.353h-.176v-.353H21.4v.353Zm5.291,0h-.176v-.353h.353v.353Zm-6-.353h-.176v-.353h.353v.353Zm5.291-.011h-.353l-.529-.342-.529-.342H25.1l.529.342.529.342Zm-1.764-.695h-.176v-.353h.353v.353Zm-1.058-.353h-.176v-.353h.353v.353Zm33.864-.353h-.176v-.353h.353v.353ZM28.1,40.095l-.529.019-.529-.342-.529-.342.353.019.353.019.705.3.706.3Zm50.619-.675h-.176v-.353h.353v.353Zm-52.912-.353H25.63v-.353h.353v.353Zm4.233,0h-.176v-.353h.353v.353Zm49.384,0h-.176v-.353H79.6v.353ZM36.8,38.714h-.122L36,37.921l-.672-.794.794.672.794.672v.243Zm43.665,0h-.55l.222-.358L80.354,38l.328.2.328.2v.311Zm-55.713-.353h-.176v-.353h.353v.353Zm5.014-.135-.165.165-.22-.573-.22-.573.011-.236.011-.236.374.644.374.644Zm43.312.135H72.9v-.353h.353v.353Zm-41.956-.706h-.156l-.252-.407-.252-.407.407.252.407.252v.311Zm42.277,0h-.122l.2-.529.2-.529h.716l-.439.529-.439.529Zm-11.9-.47-.235.235V36.48l.235.235.235.235ZM33.566,36.95H33.39V36.6h.353v.353ZM24.748,36.6h-.176v-.353h.353V36.6Zm4.233,0H28.8v-.353h.353V36.6Zm32.864-.47-.235.235v-.941l.235.235.235.235Zm1,.117h-.176v-.353h.353v.353Zm11.421,0h-.309v-.623l.725-.19.726-.19-.416.5-.416.5Zm-42.089-.353h-.155l-.252-.407-.252-.407.407.252.407.252v.311Zm1.113-.135-.165.165-.22-.573-.22-.573.011-.236.011-.236.374.644.374.644Zm29.883-.218H63l.377-.705.377-.706H64.1l-.377.706-.377.705ZM25.5,35.187h-.133l-.484-.617-.484-.617.617.484.617.484v.266Zm36.642-.353h-.176v-.353h.353v.353Zm12.346,0h-.176v-.353h.353v.353Zm-41.977-.706h-.176v-.353h.353v.353Zm32.123-.882-.583.705.866-1.779.866-1.779.6-2.052.6-2.052-.207-1.037-.207-1.037.317.2.317.2.2-.443.2-.443-.16,1.764-.16,1.764.955-2.028.955-2.028h.558l-.894,1.764-.894,1.764h.659l.724-.97.724-.97.011.272.011.272L68.625,26.9l-1.451,1.574-.98,2.034-.98,2.034Zm-36.709.176h-.176V33.07H28.1v.353Zm1.47-.47-.235.235v-.941l.235.235.235.235Zm38.743-1.294h-.176v-.353h.353v.353ZM70.5,29.94l-1.288,1.19.63-.756.63-.756.244-.882.244-.882.414.448.414.448ZM29.377,30.6h-.133l-.484-.617-.484-.617.617.484.617.484V30.6Zm39.112,0h-.176v-.353h.353V30.6Zm.412-.823-.235.235v-.941l.235.235.235.235Zm-3.981-.941h-.176l.218-.353.218-.353h.353l-.218.353-.218.353Zm4.333-.118-.235.235v-.941l.235.235.235.235Zm3.78-.941h-.176l.218-.353.218-.353h.353l-.218.353-.218.353ZM58.964,25.662h-.176V25.31h.353v.353ZM70.21,24.6h-.176l.218-.353.218-.353h.353l-.218.353-.218.353Zm-39.466-.353h-.176V23.9h.353v.353Zm3.234-.117-.235.235v-.941l.235.235.235.235Zm30.277.117h-.177V23.9h.353v.353Zm-.669-.448-.213.213.028-.676.028-.676.185.463.185.463Zm-33.548-.61h-.176V22.84h.353v.353Zm6.349,0h-.176V22.84h.353v.353Zm21.825-.029-.131.147V19.666h.749l-.243,1.675-.243,1.676Zm2.556.029h-.135l-.17-.89-.17-.89.305-.189.306-.189v2.158Zm7.014-.353h-.176v-.353h.353v.353Zm2.469,0h-.176v-.353h.353v.353ZM34.2,22.482l-.285-.006-.529-.342-.529-.342.6-.006.6-.005.218.353.218.353-.286-.006Zm5.77-.112-.235.235v-.941l.235.235.235.235Zm4.214.118h-.136l-.175-1.147L43.7,20.195l.3-.529.3-.529.011,1.675.011,1.676Zm-8.153-.353h-.176v-.353h.353v.353Zm1.411,0H37.27v-.353h.353v.353Zm26.456,0h-.176v-.353h.353v.353Zm1.058,0h-.176v-.353h.353v.353Zm-30.336-.705h-.176v-.353H34.8v.353Zm2.469,0h-.176v-.353h.353v.353Zm2.545-.135-.165.165-.22-.573-.22-.573.011-.236.011-.236.374.644.374.644Zm-3.956-.218h-.176v-.353h.353v.353Zm1.058-.353h-.176v-.353h.353v.353Zm4.938,0H41.5v-.353h.353v.353Zm1.117-.117-.235.235V19.9l.235.235.235.235Zm13.765-.323L56.4,20.9V18.431l.161.617.161.617Zm-19.468-.264h-.176v-.353h.353v.353Zm4.341-.167-.2.2L41,19.416l-.241-.632.438.435.438.435Zm-2.578-.186h-.176v-.353h.353v.353Zm4.586,0h-.176v-.353h.353v.353Zm8.877-.47-.235.235V18.49l.235.235.235.235Zm-9.389-.422-.335.207-.354-.661-.354-.661.3-.319.3-.318.192-.706.192-.705L42.7,17.2l-.179,1.587.368-.529.368-.529.006.42.006.42-.335.207Zm.864.187H43.62v-.353h.353v.353Zm1.764,0h-.176v-.972l-.529-.439-.529-.439v-.727l.706.813.705.814v.95Zm3.637-.648-.124.824-.243-.867-.243-.866.162-.162.162-.162.2.205.205.2Zm-8.223.295H40.8v-.353h.353v.353Zm17.99,0h-.176v-.353h.353v.353Zm-19.048-.353h-.176V17.9h.353v.353Zm10.619-.1-.213.213.028-.676.028-.676.185.463.185.463Zm-8.8-1.433-.235.235v-.941l.235.235.235.235Zm6.643.117h-.176v-.353h.353v.353Zm-2.117-.353h-.176v-.353h.353v.353Zm1.117-.118-.235.235v-.941l.235.235.235.235Zm-3.233-.235h-.176v-.353h.353v.353Zm3.88-.353h-.176v-.353h.353v.353Zm-2.117-.353h-.176V15.08h.353v.353Z" transform="translate(-13.397 -10.02)" fill="#fff"/>
          </g>
        </g>
      </g>
    </g>
  </g>
</svg>
