<svg xmlns="http://www.w3.org/2000/svg" width="96" height="96" viewBox="0 0 96 96">
  <g id="as400" transform="translate(-1214 -195)">
    <circle id="Ellipse_76" data-name="Ellipse 76" cx="48" cy="48" r="48" transform="translate(1214 195)" fill="#0f62fe"/>
    <g id="Group_282" data-name="Group 282" transform="translate(725 -456.426)">
      <g id="IBM_logo" transform="translate(502 677.426)">
        <g id="Group_279" data-name="Group 279">
          <path id="Rectangle-path" d="M0,373.217H13.559v1.941H0Z" transform="translate(0 -347.191)" fill="#fff"/>
          <path id="Rectangle-path_1_" d="M0,319.83H13.559v1.948H0Z" transform="translate(0 -297.527)" fill="#fff"/>
          <path id="Rectangle-path_2_" d="M55.468,266.541h5.816v1.948H55.468Z" transform="translate(-51.6 -247.954)" fill="#fff"/>
          <path id="Rectangle-path_3_" d="M55.468,213.253h5.816V215.2H55.468Z" transform="translate(-51.6 -198.382)" fill="#fff"/>
          <path id="Rectangle-path_4_" d="M55.468,159.964h5.816v1.948H55.468Z" transform="translate(-51.6 -148.809)" fill="#fff"/>
          <path id="Rectangle-path_5_" d="M55.468,106.577h5.816v1.948H55.468Z" transform="translate(-51.6 -99.145)" fill="#fff"/>
          <rect id="Rectangle-path_6_" width="13.559" height="1.948" transform="translate(0 3.716)" fill="#fff"/>
          <rect id="Rectangle-path_7_" width="13.559" height="1.948" fill="#fff"/>
        </g>
        <g id="Group_280" data-name="Group 280" transform="translate(15.493)">
          <path id="Shape_16_" d="M222.167,321.777H243.02a6.92,6.92,0,0,0,.774-1.948H222.167Z" transform="translate(-222.167 -297.526)" fill="#fff"/>
          <path id="Shape_17_" d="M293.089,213.253H277.734V215.2h16.978A7.793,7.793,0,0,0,293.089,213.253Z" transform="translate(-273.859 -198.382)" fill="#fff"/>
          <path id="Shape_18_" d="M277.734,159.964v1.948h15.355a7.247,7.247,0,0,0,1.623-1.948Z" transform="translate(-273.859 -148.809)" fill="#fff"/>
          <path id="Shape_19_" d="M243.02,53.288H222.167v1.948h21.626A8.43,8.43,0,0,0,243.02,53.288Z" transform="translate(-222.167 -49.572)" fill="#fff"/>
          <path id="Shape_20_" d="M236.61,0H222.167V1.948H241.59A7.332,7.332,0,0,0,236.61,0Z" transform="translate(-222.167)" fill="#fff"/>
          <rect id="Rectangle-path_8_" width="5.809" height="1.948" transform="translate(3.875 7.432)" fill="#fff"/>
          <path id="Shape_21_" d="M444.433,108.525h6.078a7.285,7.285,0,0,0,.262-1.948h-6.341v1.948Z" transform="translate(-428.933 -99.145)" fill="#fff"/>
          <path id="Rectangle-path_9_" d="M277.734,266.541h5.809v1.948h-5.809Z" transform="translate(-273.859 -247.954)" fill="#fff"/>
          <path id="Shape_22_" d="M444.433,266.541v1.948h6.341a7.284,7.284,0,0,0-.262-1.948Z" transform="translate(-428.933 -247.954)" fill="#fff"/>
          <path id="Shape_23_" d="M222.167,375.144l14.443.021a7.337,7.337,0,0,0,4.987-1.948h-19.43Z" transform="translate(-222.167 -347.191)" fill="#fff"/>
        </g>
        <g id="Group_281" data-name="Group 281" transform="translate(38.742)">
          <path id="Rectangle-path_10_" d="M555.567,373.217h9.684v1.941h-9.684Z" transform="translate(-555.567 -347.191)" fill="#fff"/>
          <path id="Rectangle-path_11_" d="M555.567,319.83h9.684v1.948h-9.684Z" transform="translate(-555.567 -297.527)" fill="#fff"/>
          <path id="Rectangle-path_12_" d="M611.034,266.541h5.816v1.948h-5.816Z" transform="translate(-607.166 -247.954)" fill="#fff"/>
          <path id="Rectangle-path_13_" d="M611.034,213.253h5.816V215.2h-5.816Z" transform="translate(-607.166 -198.382)" fill="#fff"/>
          <path id="Shape_24_" d="M567.945,53.288H555.567v1.948h13.048Z" transform="translate(-555.567 -49.572)" fill="#fff"/>
          <path id="Shape_25_" d="M566.66,0H555.567V1.948H567.33Z" transform="translate(-555.567)" fill="#fff"/>
          <path id="Rectangle-path_14_" d="M861.034,373.217h9.691v1.941h-9.691Z" transform="translate(-839.732 -347.191)" fill="#fff"/>
          <path id="Rectangle-path_15_" d="M861.034,319.83h9.691v1.948h-9.691Z" transform="translate(-839.732 -297.527)" fill="#fff"/>
          <path id="Rectangle-path_16_" d="M861.034,266.541h5.816v1.948h-5.816Z" transform="translate(-839.732 -247.954)" fill="#fff"/>
          <path id="Rectangle-path_17_" d="M861.034,213.253h5.816V215.2h-5.816Z" transform="translate(-839.732 -198.382)" fill="#fff"/>
          <path id="Shape_26_" d="M628.468,161.912h5.816v-1.948H623.2l-.546,1.575-.546-1.575H611.034v1.948h5.816v-1.789l.615,1.789h10.388l.615-1.789Z" transform="translate(-607.166 -148.809)" fill="#fff"/>
          <path id="Shape_27_" d="M804.838,106.577h-9.794l-.67,1.948h10.464Z" transform="translate(-777.721 -99.145)" fill="#fff"/>
          <path id="Shape_28_" d="M831.989,0l-.67,1.948h11.763V0Z" transform="translate(-812.089)" fill="#fff"/>
          <path id="Shape_29_" d="M768.8,375.144l.67-1.927h-1.34Z" transform="translate(-753.303 -347.191)" fill="#fff"/>
          <path id="Shape_30_" d="M750.189,321.778h2.569l.691-1.948H749.5Z" transform="translate(-735.981 -297.527)" fill="#fff"/>
          <path id="Shape_31_" d="M731.468,268.489h5.18l.684-1.948h-6.548Z" transform="translate(-718.565 -247.954)" fill="#fff"/>
          <path id="Shape_32_" d="M713.031,215.2h7.784l.663-1.948h-9.117Z" transform="translate(-701.427 -198.382)" fill="#fff"/>
          <path id="Shape_33_" d="M611.034,108.525H621.5l-.67-1.948h-9.794Z" transform="translate(-607.166 -99.145)" fill="#fff"/>
          <path id="Shape_34_" d="M812.9,55.236h13.048V53.288H813.559Z" transform="translate(-794.951 -49.572)" fill="#fff"/>
        </g>
      </g>
      <path id="Path_399" data-name="Path 399" d="M2.988-8.073l1.817-5h.03l1.787,5Zm1.066-6.291L-.12-3.644H1.336l1.2-3.228H7.072L8.243-3.644H9.82L5.631-14.365Zm13.018,3.138h1.351a3.779,3.779,0,0,0-.338-1.524,2.97,2.97,0,0,0-.841-1.059,3.468,3.468,0,0,0-1.239-.616,5.728,5.728,0,0,0-1.532-.2,5.5,5.5,0,0,0-1.434.188,3.943,3.943,0,0,0-1.246.571,2.888,2.888,0,0,0-.878.976,2.841,2.841,0,0,0-.33,1.4,2.344,2.344,0,0,0,.293,1.224,2.374,2.374,0,0,0,.781.8,4.538,4.538,0,0,0,1.1.5q.616.188,1.254.33l1.254.278a5.716,5.716,0,0,1,1.1.353,2.152,2.152,0,0,1,.781.563,1.345,1.345,0,0,1,.293.9,1.754,1.754,0,0,1-.24.961,1.748,1.748,0,0,1-.631.593,2.853,2.853,0,0,1-.878.308,5.325,5.325,0,0,1-.968.09,4.583,4.583,0,0,1-1.171-.15,2.914,2.914,0,0,1-1-.465,2.389,2.389,0,0,1-.691-.8,2.421,2.421,0,0,1-.263-1.164H10.255a3.77,3.77,0,0,0,.353,1.689,3.239,3.239,0,0,0,.961,1.171,4.209,4.209,0,0,0,1.411.683,6.286,6.286,0,0,0,1.7.225,6.518,6.518,0,0,0,1.479-.173,4.28,4.28,0,0,0,1.344-.556,3.151,3.151,0,0,0,.983-.991,2.692,2.692,0,0,0,.383-1.464,2.689,2.689,0,0,0-.293-1.321,2.608,2.608,0,0,0-.781-.871,4.135,4.135,0,0,0-1.1-.548q-.616-.2-1.254-.353t-1.254-.278a6.565,6.565,0,0,1-1.1-.323,2.171,2.171,0,0,1-.781-.5,1.118,1.118,0,0,1-.293-.8,1.741,1.741,0,0,1,.2-.878,1.576,1.576,0,0,1,.541-.563,2.352,2.352,0,0,1,.773-.3,4.361,4.361,0,0,1,.886-.09,3.027,3.027,0,0,1,1.824.518A2.234,2.234,0,0,1,17.072-11.227ZM23.6-14.62,19.174-3.4h1.081L24.7-14.62ZM29.52-7.263H25.946l3.544-5.21h.03Zm1.2,0V-14.29H29.7L24.85-7.368v1.231h4.67v2.492h1.2V-6.136h1.441V-7.263ZM34.76-8.884q0-.39.008-.863a7.526,7.526,0,0,1,.075-.946,7.03,7.03,0,0,1,.2-.923,2.447,2.447,0,0,1,.375-.788,1.934,1.934,0,0,1,.623-.548,1.85,1.85,0,0,1,.916-.21,1.85,1.85,0,0,1,.916.21,1.934,1.934,0,0,1,.623.548,2.448,2.448,0,0,1,.375.788,7.032,7.032,0,0,1,.2.923,7.527,7.527,0,0,1,.075.946q.008.473.008.863,0,.6-.038,1.344a5.658,5.658,0,0,1-.24,1.4,2.637,2.637,0,0,1-.653,1.1,1.705,1.705,0,0,1-1.261.45,1.705,1.705,0,0,1-1.261-.45,2.637,2.637,0,0,1-.653-1.1,5.658,5.658,0,0,1-.24-1.4Q34.76-8.284,34.76-8.884Zm-1.351.015q0,.586.03,1.216a8.276,8.276,0,0,0,.15,1.231,5.854,5.854,0,0,0,.345,1.134,3.052,3.052,0,0,0,.616.938,2.722,2.722,0,0,0,.983.638,3.883,3.883,0,0,0,1.419.233,3.87,3.87,0,0,0,1.426-.233,2.734,2.734,0,0,0,.976-.638,3.052,3.052,0,0,0,.616-.938,5.854,5.854,0,0,0,.345-1.134,8.276,8.276,0,0,0,.15-1.231q.03-.631.03-1.216t-.03-1.216a8.276,8.276,0,0,0-.15-1.231,6.037,6.037,0,0,0-.345-1.141,3.029,3.029,0,0,0-.616-.946,2.8,2.8,0,0,0-.983-.646,3.774,3.774,0,0,0-1.419-.24,3.774,3.774,0,0,0-1.419.24,2.8,2.8,0,0,0-.983.646,3.028,3.028,0,0,0-.616.946,6.037,6.037,0,0,0-.345,1.141,8.276,8.276,0,0,0-.15,1.231Q33.409-9.455,33.409-8.869Zm9.7-.015q0-.39.008-.863a7.527,7.527,0,0,1,.075-.946,7.032,7.032,0,0,1,.2-.923,2.447,2.447,0,0,1,.375-.788,1.934,1.934,0,0,1,.623-.548,1.85,1.85,0,0,1,.916-.21,1.85,1.85,0,0,1,.916.21,1.934,1.934,0,0,1,.623.548,2.447,2.447,0,0,1,.375.788,7.032,7.032,0,0,1,.2.923,7.526,7.526,0,0,1,.075.946q.008.473.008.863,0,.6-.038,1.344a5.658,5.658,0,0,1-.24,1.4,2.637,2.637,0,0,1-.653,1.1,1.705,1.705,0,0,1-1.261.45,1.705,1.705,0,0,1-1.261-.45,2.637,2.637,0,0,1-.653-1.1,5.658,5.658,0,0,1-.24-1.4Q43.108-8.284,43.108-8.884Zm-1.351.015q0,.586.03,1.216a8.275,8.275,0,0,0,.15,1.231,5.854,5.854,0,0,0,.345,1.134,3.052,3.052,0,0,0,.616.938,2.722,2.722,0,0,0,.983.638,3.883,3.883,0,0,0,1.419.233,3.87,3.87,0,0,0,1.426-.233A2.734,2.734,0,0,0,47.7-4.35a3.052,3.052,0,0,0,.616-.938,5.854,5.854,0,0,0,.345-1.134,8.277,8.277,0,0,0,.15-1.231q.03-.631.03-1.216t-.03-1.216a8.277,8.277,0,0,0-.15-1.231,6.037,6.037,0,0,0-.345-1.141A3.029,3.029,0,0,0,47.7-13.4a2.8,2.8,0,0,0-.983-.646,3.774,3.774,0,0,0-1.419-.24,3.774,3.774,0,0,0-1.419.24,2.8,2.8,0,0,0-.983.646,3.028,3.028,0,0,0-.616.946,6.037,6.037,0,0,0-.345,1.141,8.275,8.275,0,0,0-.15,1.231Q41.757-9.455,41.757-8.869Z" transform="translate(512.635 724.569)" fill="#fff"/>
    </g>
  </g>
</svg>
