<svg xmlns="http://www.w3.org/2000/svg" width="96" height="96" viewBox="0 0 96 96">
  <g id="AWS" transform="translate(-599 -383)">
    <circle id="Ellipse_1" data-name="Ellipse 1" cx="48" cy="48" r="48" transform="translate(599 383)" fill="#233040"/>
    <g id="Amazon_Web_Services_Logo" transform="translate(613.409 411.818)">
      <path id="Path_1" data-name="Path 1" d="M29.95,15.416a6.634,6.634,0,0,0,.241,1.951,11.736,11.736,0,0,0,.7,1.578.954.954,0,0,1,.153.5.868.868,0,0,1-.417.658l-1.381.921a1.051,1.051,0,0,1-.57.2,1.009,1.009,0,0,1-.658-.307,6.782,6.782,0,0,1-.789-1.03c-.219-.373-.438-.789-.68-1.293a8.1,8.1,0,0,1-6.445,3.025,6.007,6.007,0,0,1-4.385-1.578A5.632,5.632,0,0,1,14.1,15.832a5.644,5.644,0,0,1,2-4.516,7.975,7.975,0,0,1,5.371-1.71,17.358,17.358,0,0,1,2.324.175c.811.11,1.644.285,2.521.482v-1.6a4.858,4.858,0,0,0-1.03-3.508,5.046,5.046,0,0,0-3.573-1.008,9.975,9.975,0,0,0-2.368.285,17.469,17.469,0,0,0-2.368.745,6.291,6.291,0,0,1-.767.285,1.345,1.345,0,0,1-.351.066c-.307,0-.46-.219-.46-.68V3.775a1.387,1.387,0,0,1,.153-.767,1.642,1.642,0,0,1,.614-.46,12.621,12.621,0,0,1,2.762-.987,13.291,13.291,0,0,1,3.42-.417c2.609,0,4.516.592,5.744,1.776a7.255,7.255,0,0,1,1.82,5.393v7.1Zm-8.9,3.332a7.1,7.1,0,0,0,2.258-.395,4.885,4.885,0,0,0,2.083-1.4,3.48,3.48,0,0,0,.745-1.4,7.87,7.87,0,0,0,.219-1.907v-.921a18.309,18.309,0,0,0-2.017-.373,16.519,16.519,0,0,0-2.061-.132,5.054,5.054,0,0,0-3.267.877,3.056,3.056,0,0,0-1.074,2.521,2.829,2.829,0,0,0,3.113,3.135Zm17.6,2.368a1.224,1.224,0,0,1-.833-.219,1.787,1.787,0,0,1-.46-.855L32.209,3.1a3.84,3.84,0,0,1-.2-.877.481.481,0,0,1,.526-.548h2.148a1.215,1.215,0,0,1,.855.219,1.794,1.794,0,0,1,.438.855l3.683,14.513,3.42-14.513a1.538,1.538,0,0,1,.417-.855,1.508,1.508,0,0,1,.877-.219H46.13a1.319,1.319,0,0,1,.877.219,1.477,1.477,0,0,1,.417.855l3.464,14.689L54.68,2.744a1.88,1.88,0,0,1,.438-.855,1.43,1.43,0,0,1,.855-.219h2.039a.487.487,0,0,1,.548.548,2.187,2.187,0,0,1-.044.351,3.12,3.12,0,0,1-.153.548L53.079,20.064a1.681,1.681,0,0,1-.46.855,1.4,1.4,0,0,1-.833.219H49.9a1.319,1.319,0,0,1-.877-.219,1.554,1.554,0,0,1-.417-.877L45.209,5.9,41.833,20.02a1.711,1.711,0,0,1-.417.877,1.359,1.359,0,0,1-.877.219Zm28.171.592a14.508,14.508,0,0,1-3.376-.395,9.973,9.973,0,0,1-2.521-.877,1.58,1.58,0,0,1-.68-.614,1.547,1.547,0,0,1-.132-.614V18.09c0-.46.175-.68.5-.68a1.241,1.241,0,0,1,.395.066c.132.044.329.132.548.219a11.925,11.925,0,0,0,2.412.767,13.166,13.166,0,0,0,2.609.263,5.915,5.915,0,0,0,3.2-.723,2.361,2.361,0,0,0,1.14-2.083,2.135,2.135,0,0,0-.592-1.535,5.5,5.5,0,0,0-2.214-1.14l-3.179-.987a6.687,6.687,0,0,1-3.508-2.236,5.223,5.223,0,0,1-1.1-3.179,4.879,4.879,0,0,1,.592-2.433,5.637,5.637,0,0,1,1.578-1.8,6.958,6.958,0,0,1,2.28-1.14A9.555,9.555,0,0,1,67.549,1.1a11.006,11.006,0,0,1,1.469.088c.5.066.965.153,1.425.241.438.11.855.219,1.25.351a4.785,4.785,0,0,1,.921.395,1.9,1.9,0,0,1,.658.548,1.181,1.181,0,0,1,.2.723v1.03c0,.46-.175.7-.5.7a2.28,2.28,0,0,1-.833-.263,10.029,10.029,0,0,0-4.209-.855,5.659,5.659,0,0,0-2.916.614,2.117,2.117,0,0,0-1.03,1.951,2.07,2.07,0,0,0,.658,1.557,6.549,6.549,0,0,0,2.412,1.206l3.113.987a6.668,6.668,0,0,1,3.4,2.1,4.961,4.961,0,0,1,1.008,3.069,5.636,5.636,0,0,1-.57,2.543,5.9,5.9,0,0,1-1.6,1.929,7.067,7.067,0,0,1-2.433,1.228A10.425,10.425,0,0,1,66.825,21.708Z" transform="translate(-11.375 -1.1)" fill="#fff"/>
      <g id="Group_1" data-name="Group 1" transform="translate(0 24.574)">
        <path id="Path_2" data-name="Path 2" d="M61.262,124.527c-7.213,5.327-17.692,8.155-26.7,8.155a48.308,48.308,0,0,1-32.6-12.43c-.68-.614-.066-1.447.745-.965a65.745,65.745,0,0,0,32.622,8.66A65.1,65.1,0,0,0,60.21,122.86C61.416,122.312,62.446,123.65,61.262,124.527Z" transform="translate(-1.668 -117.838)" fill="#f90" fill-rule="evenodd"/>
        <path id="Path_3" data-name="Path 3" d="M255.022,116.46c-.921-1.184-6.095-.57-8.44-.285-.7.088-.811-.526-.175-.987,4.122-2.894,10.9-2.061,11.685-1.1.789.987-.219,7.761-4.078,11.005-.592.5-1.162.241-.9-.417C253.992,122.511,255.943,117.622,255.022,116.46Z" transform="translate(-192.424 -113.192)" fill="#f90" fill-rule="evenodd"/>
      </g>
    </g>
  </g>
</svg>
