<svg xmlns="http://www.w3.org/2000/svg" width="96" height="96" viewBox="0 0 96 96">
  <g id="Azure_AD" data-name="Azure AD" transform="translate(-1044 -15)">
    <circle id="Ellipse_30" data-name="Ellipse 30" cx="48" cy="48" r="48" transform="translate(1044 15)" fill="#00bef2"/>
    <g id="layer1" transform="translate(1008.948 -62.121)">
      <g id="g1016" transform="translate(39.052 78.121)">
        <path id="path1008" d="M146.859,166.3c.094,0,.188.117.328.328.117.188,9.992,12.032,21.953,26.316s21.719,26.034,21.672,26.1c-.023.07-9.546,7.881-21.156,17.333s-21.484,17.5-21.93,17.872c-.774.633-.821.657-1.1.375-.164-.164-10.062-8.256-22-17.99S102.953,218.885,103,218.768s9.851-11.821,21.836-26.034,21.789-25.964,21.836-26.152S146.789,166.3,146.859,166.3Z" transform="translate(-102.999 -166.3)" fill="#00bef2"/>
        <path id="path923" d="M190.1,303.718a7.67,7.67,0,0,1-3.682-3.213,7.479,7.479,0,0,1,.164-6.169c.727-1.5.727-1.548.258-1.9-.258-.188-3.377-1.923-6.9-3.823s-6.591-3.565-6.8-3.682c-.281-.164-.751,0-1.595.539a6.093,6.093,0,0,1-7.857-.539,6.5,6.5,0,0,1-.328-9.218,6.265,6.265,0,0,1,6.544-1.642c1.267.422,1.29.422,2.087-.188.938-.7,8.467-7.576,12.1-11.024l2.51-2.392-.751-1.571a7.055,7.055,0,0,1,1.923-8.8,6.338,6.338,0,0,1,4.621-1.5,7.083,7.083,0,0,1,6.45,9.687c-.493,1.267-.493,1.29-.023,2.064.4.68,7.177,8.866,10.766,13.041a4.324,4.324,0,0,0,1.571,1.313,8.587,8.587,0,0,0,1.783-.516,6.376,6.376,0,0,1,6.755,10.672,5.535,5.535,0,0,1-4.316,1.665,5.308,5.308,0,0,1-3.19-.891,4.184,4.184,0,0,0-2.158-.751c-.563.141-9.218,6.075-11.141,7.623-1.173.962-1.267,1.313-.657,2.744a6.93,6.93,0,0,1-.141,5,7.464,7.464,0,0,1-4.1,3.518,5.534,5.534,0,0,1-3.893-.047Zm.4-25.847V264.5l-.751-1.032a5.328,5.328,0,0,0-.891-1.032c-.3,0-15.456,13.768-15.456,14.049a15.713,15.713,0,0,0,.516,1.525,7.96,7.96,0,0,1,.469,2.51c-.023.633-.023,1.337-.023,1.571.023.539,5.09,3.776,12.689,8.162,2.087,1.22,2.815,1.525,3.073,1.313C190.426,291.311,190.5,288.707,190.5,277.871Zm6.427,11.821c10.038-6.309,11.915-7.576,12.032-8.045a17.964,17.964,0,0,0,.188-2.486l.07-1.97-5.113-6.075c-5.488-6.5-7.505-8.7-7.975-8.7a8.551,8.551,0,0,0-1.829,1.032l-1.548,1.032.07,13.346c.07,11.962.164,13.979.61,13.979.047.023,1.642-.938,3.495-2.111Z" transform="translate(-147.856 -229.297)" fill="#fff" stroke="#fff" stroke-linecap="round" stroke-linejoin="round" stroke-width="1.236"/>
      </g>
    </g>
  </g>
</svg>
