<svg id="beyondtrust" xmlns="http://www.w3.org/2000/svg" width="96" height="96" viewBox="0 0 96 96">
  <circle id="Ellipse_108" data-name="Ellipse 108" cx="48" cy="48" r="48" fill="#f50"/>
  <path id="Path_801" data-name="Path 801" d="M371.485,257l-6.058-6.058a.128.128,0,0,0-.173-.027.144.144,0,0,0-.093.147v42.539a.164.164,0,0,0,.093.147.12.12,0,0,0,.067.013.24.24,0,0,0,.12-.053l6.058-6.058a1.639,1.639,0,0,0,.414-1V258.019a1.829,1.829,0,0,0-.427-1.014m-32.371-9.647a.339.339,0,0,1-.334-.334V229.157a.164.164,0,0,0-.093-.147.159.159,0,0,0-.173.027l-6.058,6.058a1.689,1.689,0,0,0-.427,1v17.854a.177.177,0,0,0,.173.173h21.443a.339.339,0,0,1,.334.334v3.2a.837.837,0,0,1-.841.841H332.2a.24.24,0,0,0-.12.053.169.169,0,0,0-.053.12v22.764a4.761,4.761,0,0,0,4.75,4.75h16.346a.837.837,0,0,1,.841.841v3.2a.339.339,0,0,1-.334.334H336.779a9.14,9.14,0,0,1-9.127-9.127V240.285a.164.164,0,0,0-.093-.147.159.159,0,0,0-.173.027l-6.071,6.071a1.672,1.672,0,0,0-.414,1v36.174a13.924,13.924,0,0,0,13.9,13.917h25.78a.177.177,0,0,0,.173-.173l.027-49.611a.186.186,0,0,0-.173-.173l-21.5-.013Zm14.865,18.734v12.49a.837.837,0,0,1-.841.841H339.154a.339.339,0,0,1-.334-.334v-13a.837.837,0,0,1,.841-.841h13.464a.832.832,0,0,1,.854.841" transform="translate(-298.497 -216.684)" fill="#fff"/>
</svg>
