<svg xmlns="http://www.w3.org/2000/svg" width="96" height="96" viewBox="0 0 96 96">
  <g id="BlueJeans" transform="translate(-634 -601)">
    <circle id="Ellipse_28" data-name="Ellipse 28" cx="48" cy="48" r="48" transform="translate(634 601)" fill="#004dce"/>
    <path id="BlueJeans_logo" d="M8.8,6.475l.127-.105a3.4,3.4,0,0,0,1.417-2.733,3.435,3.435,0,0,0-.529-1.87A3.426,3.426,0,0,0,8.4.441,5.042,5.042,0,0,0,6.134,0H0V13.307H6.24a5.087,5.087,0,0,0,2.37-.484,3.643,3.643,0,0,0,1.459-1.366A3.537,3.537,0,0,0,10.6,9.586,3.41,3.41,0,0,0,8.948,6.559L8.8,6.474ZM2.22,1.85H6.155a2.059,2.059,0,0,1,1.481.526A1.634,1.634,0,0,1,8.228,3.7,1.668,1.668,0,0,1,7.657,5a2.058,2.058,0,0,1-1.48.526H2.22Zm5.627,8.892a2.39,2.39,0,0,1-1.649.526H2.22V7.4h4a2.616,2.616,0,0,1,1.163.21,1.744,1.744,0,0,1,1.079,1.7,1.807,1.807,0,0,1-.613,1.43ZM13.94,0H11.825V13.286H13.94ZM19.5,11.394a1.916,1.916,0,0,1-1.692-.883,2.453,2.453,0,0,1-.254-1.261V3.763H15.442V9.88a3.888,3.888,0,0,0,.254,1.577,3.358,3.358,0,0,0,1.311,1.408,3.493,3.493,0,0,0,1.862.547,3.361,3.361,0,0,0,2.348-.883l.211-.189v.946h2.115V3.763H21.429v5.36a2.755,2.755,0,0,1-.211,1.282,1.752,1.752,0,0,1-1.714.989Zm11.719-.862a2.7,2.7,0,0,1-2.051.883,2.383,2.383,0,0,1-1.651-.568,1.728,1.728,0,0,1-.656-1.408V9.25h6.219V7.757A4,4,0,0,0,31.9,4.814a4.1,4.1,0,0,0-2.983-1.177,4.243,4.243,0,0,0-2.961,1.135,3.6,3.6,0,0,0-1.227,2.754V9.186a4.017,4.017,0,0,0,.7,2.4,4.283,4.283,0,0,0,3.723,1.808,4.753,4.753,0,0,0,3.7-1.577l.042-.042-1.628-1.3-.042.063Zm-4.336-3.2A2.172,2.172,0,0,1,27.5,6.117a1.971,1.971,0,0,1,1.417-.526,1.95,1.95,0,0,1,1.438.547,1.724,1.724,0,0,1,.593,1.2l.021.126h-4.1Zm5.162,7.252h-.063v.063a11.468,11.468,0,0,0,.063,2.081h.021a4.445,4.445,0,0,0,3.681-1.808,4.593,4.593,0,0,0,.846-2.859V0H34.353V11.793a4.062,4.062,0,0,1-.19,1.514,2.112,2.112,0,0,1-2.115,1.282ZM42.053,3.658a4.24,4.24,0,0,0-2.961,1.135,3.6,3.6,0,0,0-1.227,2.754V9.208a4.017,4.017,0,0,0,.7,2.4,4.31,4.31,0,0,0,3.723,1.808,4.753,4.753,0,0,0,3.7-1.577l.042-.042-1.628-1.3-.042.042a2.708,2.708,0,0,1-2.052.883,2.38,2.38,0,0,1-1.649-.568A1.729,1.729,0,0,1,40,9.439V9.25H46.22V7.757a4,4,0,0,0-1.184-2.943,4.045,4.045,0,0,0-2.983-1.156ZM39.98,7.484,40,7.337a2.172,2.172,0,0,1,.613-1.219,1.988,1.988,0,0,1,1.439-.526,1.95,1.95,0,0,1,1.438.547,1.724,1.724,0,0,1,.593,1.2l.021.126-4.125.021ZM53.9,4.457a4.686,4.686,0,0,0-2.961-.8c-1.713,0-2.877.462-3.512,1.345l-.042.042,1.671,1.261.042-.063a1.133,1.133,0,0,1,.783-.546,5.046,5.046,0,0,1,1.036-.085,2.729,2.729,0,0,1,1.629.358,1.234,1.234,0,0,1,.275.925v.651H50.239a3.954,3.954,0,0,0-1.649.273A3.187,3.187,0,0,0,47.3,8.893a2.608,2.608,0,0,0-.486,1.555,2.642,2.642,0,0,0,1.036,2.144,4.09,4.09,0,0,0,2.644.819,2.977,2.977,0,0,0,2.094-.672l.211-.21v.757h2.137v-6.6A2.684,2.684,0,0,0,53.9,4.457ZM52.82,9.986c0,.694-.106.9-.19,1.009-.233.357-.825.526-1.819.526-1.312,0-1.967-.4-1.967-1.177a1.007,1.007,0,0,1,.571-.967,2.141,2.141,0,0,1,.867-.126H52.82Zm8.419-6.327A3.442,3.442,0,0,0,58.87,4.5l-.211.189v-.9H56.522v9.523h2.136V7.421a1.616,1.616,0,0,1,.593-1.24A1.891,1.891,0,0,1,60.6,5.634a1.779,1.779,0,0,1,1.333.547,1.676,1.676,0,0,1,.571,1.261v5.865h2.115V6.916A3.107,3.107,0,0,0,63.629,4.6a3.262,3.262,0,0,0-2.39-.946Zm11.211,4.2a7.594,7.594,0,0,0-2.877-.42c-.931-.021-1.375-.315-1.375-.862,0-.631.486-.925,1.5-.925a4.422,4.422,0,0,1,2.75.862l.042.042L73.8,4.919l-.042-.042a6.74,6.74,0,0,0-3.976-1.219,4.2,4.2,0,0,0-2.56.694A2.7,2.7,0,0,0,66.041,6.6a2.57,2.57,0,0,0,1.438,2.376,3.425,3.425,0,0,0,1.354.4c.317.042.8.063,1.417.085a2.975,2.975,0,0,1,1.291.231.712.712,0,0,1,.359.672c0,.715-.677,1.051-2.031,1.051a4.162,4.162,0,0,1-2.919-1.093l-.042-.042-1.523,1.43.042.042a6.138,6.138,0,0,0,4.442,1.66,5.025,5.025,0,0,0,3-.819,2.634,2.634,0,0,0,1.142-2.207A2.624,2.624,0,0,0,72.45,7.863Z" transform="translate(645 641)" fill="#fff"/>
  </g>
</svg>
