<svg xmlns="http://www.w3.org/2000/svg" width="96" height="96" viewBox="0 0 96 96">
  <g id="Box" transform="translate(-468 -904)">
    <circle id="Ellipse_47" data-name="Ellipse 47" cx="48" cy="48" r="48" transform="translate(468 904)" fill="#0071f7"/>
    <path id="Box__Inc._logo" data-name="Box,_Inc._logo" d="M49.226,23.807a1.909,1.909,0,0,1-.248,2.6,2.069,2.069,0,0,1-2.728-.248l-4.34-5.58-4.216,5.456a1.943,1.943,0,0,1-2.728.248,1.812,1.812,0,0,1-.372-2.6l4.96-6.448-4.96-6.448a2.084,2.084,0,0,1,.372-2.728,2.084,2.084,0,0,1,2.728.372l4.216,5.58L46.25,8.68a1.9,1.9,0,1,1,2.976,2.356L44.39,17.359Zm-22.567-.744a5.717,5.717,0,0,1-5.828-5.7,5.829,5.829,0,0,1,11.655,0A5.876,5.876,0,0,1,26.659,23.063Zm-17.111,0a5.717,5.717,0,0,1-5.828-5.7,5.829,5.829,0,0,1,11.655,0A5.717,5.717,0,0,1,9.548,23.063ZM26.659,7.936a9.6,9.6,0,0,0-8.432,4.96,9.652,9.652,0,0,0-8.556-4.96A10.192,10.192,0,0,0,3.844,9.8V1.86A1.907,1.907,0,0,0,1.984,0,1.935,1.935,0,0,0,0,1.86V17.483a9.5,9.5,0,0,0,9.548,9.3A9.76,9.76,0,0,0,18.1,21.7a9.712,9.712,0,0,0,8.432,5.084,9.579,9.579,0,0,0,9.672-9.548,9.344,9.344,0,0,0-9.548-9.3Z" transform="translate(491 939)" fill="#fff"/>
  </g>
</svg>
