<svg xmlns="http://www.w3.org/2000/svg" xmlns:xlink="http://www.w3.org/1999/xlink" width="96" height="96" viewBox="0 0 96 96">
  <defs>
    <clipPath id="clip-path">
      <rect id="Rectangle_183" data-name="Rectangle 183" width="81.202" height="57.02" fill="none"/>
    </clipPath>
    <clipPath id="clip-path-2">
      <path id="Path_730" data-name="Path 730" d="M0,94.358a4.291,4.291,0,1,0,4.291-4.291A4.291,4.291,0,0,0,0,94.358" transform="translate(0 -90.067)" fill="none"/>
    </clipPath>
    <radialGradient id="radial-gradient" cx="0.5" cy="0.5" r="0.501" gradientUnits="objectBoundingBox">
      <stop offset="0" stop-color="#d7ed35"/>
      <stop offset="0.03" stop-color="#d7ed35"/>
      <stop offset="0.2" stop-color="#d1e82e"/>
      <stop offset="0.45" stop-color="#c0da1b"/>
      <stop offset="0.71" stop-color="#a8c700"/>
      <stop offset="1" stop-color="#a8c700"/>
    </radialGradient>
  </defs>
  <g id="changepoint" transform="translate(-1465 -1122)">
    <circle id="Ellipse_90" data-name="Ellipse 90" cx="48" cy="48" r="48" transform="translate(1465 1122)" fill="#24315e"/>
    <g id="Group_413" data-name="Group 413" transform="translate(1472 1141)">
      <g id="Group_408" data-name="Group 408">
        <g id="Group_407" data-name="Group 407" clip-path="url(#clip-path)">
          <path id="Path_729" data-name="Path 729" d="M87.843,92.993a15.924,15.924,0,0,1-4.942.6,10.337,10.337,0,0,1-4.345-.842,7.924,7.924,0,0,1-2.987-2.363,10.116,10.116,0,0,1-1.738-3.612,18.585,18.585,0,0,1-.57-4.562,15.256,15.256,0,0,1,.733-4.942A9.942,9.942,0,0,1,76,73.739a7.935,7.935,0,0,1,3.069-2.091,10.153,10.153,0,0,1,3.8-.706,14.933,14.933,0,0,1,4.372.625,14.03,14.03,0,0,1,3.1,1.276l1.684-4.671c-.217-.109-.57-.326-1.086-.6a10.06,10.06,0,0,0-1.955-.76,22.86,22.86,0,0,0-2.77-.652,19.167,19.167,0,0,0-3.53-.3,16.339,16.339,0,0,0-6.029,1.086,13.657,13.657,0,0,0-4.888,3.2,15.091,15.091,0,0,0-3.286,5.133,18.612,18.612,0,0,0-1.195,6.979,21.02,21.02,0,0,0,1.032,6.979A14.339,14.339,0,0,0,71.3,94.378a12.625,12.625,0,0,0,4.78,3.177,17.485,17.485,0,0,0,6.355,1.086,28.13,28.13,0,0,0,3.395-.19,19.592,19.592,0,0,0,2.851-.543,22.95,22.95,0,0,0,2.2-.706,7.4,7.4,0,0,0,1.466-.733l-1.548-4.7a17.44,17.44,0,0,1-2.96,1.222" transform="translate(-49.009 -47.976)" fill="#fff"/>
        </g>
      </g>
      <g id="Group_410" data-name="Group 410" transform="translate(0 24.459)">
        <g id="Group_409" data-name="Group 409" clip-path="url(#clip-path-2)">
          <rect id="Rectangle_184" data-name="Rectangle 184" width="8.581" height="8.581" transform="translate(0 0)" fill="url(#radial-gradient)"/>
        </g>
      </g>
      <g id="Group_412" data-name="Group 412">
        <g id="Group_411" data-name="Group 411" clip-path="url(#clip-path)">
          <path id="Path_731" data-name="Path 731" d="M98.6,32.579A40.329,40.329,0,0,0,66.938.806,40.827,40.827,0,0,0,27.507,14.683a40.266,40.266,0,0,0-2.58,3.422l-.027.054v4.915l.272-.136L29.218,20.6c.435-.652.9-1.3,1.358-1.955l.027-.027c.38-.489.76-1,1.168-1.466A36.426,36.426,0,0,1,59.334,4.119c.435,0,.869-.027,1.3-.027a38.329,38.329,0,0,1,37.53,45.894c.136-.57.272-1.168.38-1.738A40.569,40.569,0,0,0,98.6,32.579" transform="translate(-18.138 0)" fill="#fff"/>
          <path id="Path_732" data-name="Path 732" d="M170.5,89.646a57.763,57.763,0,0,1,9.532-.679c4.535,0,7.875.923,10.048,2.661a9.014,9.014,0,0,1,3.34,7.224,9.709,9.709,0,0,1-2.906,7.387c-2.5,2.363-6.355,3.5-10.781,3.5a16.623,16.623,0,0,1-3.042-.217v12.3H170.5Zm6.165,15.18a13.375,13.375,0,0,0,3.042.272c4.644,0,7.5-2.227,7.5-6.029,0-3.585-2.634-5.513-6.952-5.513a19.681,19.681,0,0,0-3.612.272v11Z" transform="translate(-124.198 -64.807)" fill="#fff"/>
        </g>
      </g>
    </g>
  </g>
</svg>
