<svg xmlns="http://www.w3.org/2000/svg" xmlns:xlink="http://www.w3.org/1999/xlink" width="96" height="96" viewBox="0 0 96 96">
  <defs>
    <clipPath id="clip-path">
      <rect id="Rectangle_110" data-name="Rectangle 110" width="71.214" height="71.491" fill="#fff"/>
    </clipPath>
  </defs>
  <g id="Chef" transform="translate(-926 -16)">
    <circle id="Ellipse_70" data-name="Ellipse 70" cx="48" cy="48" r="48" transform="translate(926 16)" fill="#f38b00"/>
    <g id="Group_254" data-name="Group 254" transform="translate(938 28.254)">
      <g id="Group_253" data-name="Group 253" clip-path="url(#clip-path)">
        <path id="Path_330" data-name="Path 330" d="M163.3,179.372a16.1,16.1,0,1,1,15.464-20.567H185a22.147,22.147,0,1,0,0,8.937h-6.229A16.124,16.124,0,0,1,163.3,179.372" transform="translate(-127.556 -127.529)" fill="#fff"/>
        <path id="Path_331" data-name="Path 331" d="M258.372,441.1a15.31,15.31,0,0,0,10.853,4.5v-6.419a8.915,8.915,0,0,1-6.319-2.618Z" transform="translate(-233.478 -394.508)" fill="#fff"/>
        <path id="Path_332" data-name="Path 332" d="M211.647,226.972a15.277,15.277,0,0,0,1.3,6.179l5.871-2.582A8.934,8.934,0,0,1,227,218.036v-6.419a15.372,15.372,0,0,0-15.354,15.355" transform="translate(-191.255 -191.228)" fill="#fff"/>
        <path id="Path_333" data-name="Path 333" d="M406.949,222.479l-2.328,5.984a8.959,8.959,0,0,1,4.5,3.856h6.952a15.419,15.419,0,0,0-9.122-9.84" transform="translate(-365.636 -201.043)" fill="#fff"/>
        <path id="Path_334" data-name="Path 334" d="M404.649,421.209l2.327,5.984a15.427,15.427,0,0,0,9.123-9.841h-6.953a8.964,8.964,0,0,1-4.5,3.858" transform="translate(-365.661 -377.14)" fill="#fff"/>
        <path id="Path_335" data-name="Path 335" d="M7.339,379.562c-.1-.335-.2-.674-.288-1.015l-.017-.062c-.083-.316-.159-.632-.233-.951-.015-.065-.029-.13-.043-.2-.061-.273-.116-.549-.17-.825-.024-.123-.044-.247-.065-.37-.039-.22-.078-.439-.112-.663-.029-.19-.054-.378-.079-.568a29.254,29.254,0,0,1-.267-3.942H0a35.7,35.7,0,0,0,.261,4.3c0,.03.008.061.012.091.047.385.1.771.159,1.152.017.105.035.211.053.317.053.313.107.627.168.938.031.166.067.33.1.495.051.248.1.5.161.743.05.216.1.432.159.649.049.193.1.385.147.578.069.255.143.507.216.761.03.105.058.213.09.317h0a35.506,35.506,0,0,0,1.491,4.045l5.557-2.444A29.484,29.484,0,0,1,7.339,379.562Z" transform="translate(0 -335.228)" fill="#fff"/>
        <path id="Path_336" data-name="Path 336" d="M134,442.6a29.582,29.582,0,0,1-20.976-8.707l-4.3,4.3a35.739,35.739,0,0,0,60.738-20.8h-6.12A29.732,29.732,0,0,1,134,442.6" transform="translate(-98.254 -377.167)" fill="#fff"/>
        <path id="Path_337" data-name="Path 337" d="M58.536,6.063a29.513,29.513,0,0,1,17.745,5.9L79.914,7.1A35.75,35.75,0,0,0,25.219,22.78l5.657,2.2A29.727,29.727,0,0,1,58.536,6.063" transform="translate(-22.789 0)" fill="#fff"/>
        <path id="Path_338" data-name="Path 338" d="M636.453,189h6.119a35.509,35.509,0,0,0-5.141-14.46l-5.154,3.216A29.508,29.508,0,0,1,636.453,189" transform="translate(-571.358 -157.727)" fill="#fff"/>
        <path id="Path_339" data-name="Path 339" d="M471.3,113.617h6.14a29.024,29.024,0,0,0-18.1-22.5l-2.193,5.639A22.969,22.969,0,0,1,471.3,113.617" transform="translate(-413.098 -82.341)" fill="#fff"/>
        <path id="Path_340" data-name="Path 340" d="M118.089,76.7h0V70.649h0A28.983,28.983,0,0,0,91.121,89.094l5.634,2.193A22.93,22.93,0,0,1,118.089,76.7" transform="translate(-82.342 -63.842)" fill="#fff"/>
        <path id="Path_341" data-name="Path 341" d="M76.724,370.985H70.678A28.977,28.977,0,0,0,88.87,397.847l2.246-5.612a22.923,22.923,0,0,1-14.392-21.25" transform="translate(-63.868 -335.241)" fill="#fff"/>
        <path id="Path_342" data-name="Path 342" d="M371.015,435.775v6.047a28.986,28.986,0,0,0,28.593-24.471h-6.142a22.926,22.926,0,0,1-22.452,18.424" transform="translate(-335.268 -377.14)" fill="#fff"/>
      </g>
    </g>
  </g>
</svg>
