<svg xmlns="http://www.w3.org/2000/svg" width="96" height="96" viewBox="0 0 96 96">
  <g id="citrix" transform="translate(-1646 -195)">
    <circle id="Ellipse_76" data-name="Ellipse 76" cx="48" cy="48" r="48" transform="translate(1646 195)"/>
    <g id="Citrix-2" data-name="Citrix" transform="translate(1653.989 226.19)">
      <g id="g38907" transform="translate(1.011 0.81)">
        <g id="XMLID_1_">
          <g id="Group_285" data-name="Group 285">
            <path id="Path_531" data-name="Path 531" d="M647.373-143.308a1.963,1.963,0,0,1,1.96,1.96,1.963,1.963,0,0,1-1.96,1.96,1.963,1.963,0,0,1-1.966-1.96A1.963,1.963,0,0,1,647.373-143.308Zm1.7,1.96a1.705,1.705,0,0,0-1.7-1.7,1.7,1.7,0,0,0-1.7,1.7,1.7,1.7,0,0,0,1.7,1.7A1.7,1.7,0,0,0,649.074-141.347Z" transform="translate(-570.366 150.689)" fill="#fff"/>
            <path id="Path_532" data-name="Path 532" d="M648.727-139.933h-.359a1,1,0,0,1-.029-.273c0-.46-.143-.582-.539-.582h-.38v.854h-.345v-2.154h.725c.46,0,.926.1.926.625,0,.366-.281.488-.53.524a.576.576,0,0,1,.489.646A1.062,1.062,0,0,0,648.727-139.933Zm-.381-1.529c0-.251-.208-.366-.547-.366h-.38v.783h.38C648.153-141.046,648.346-141.183,648.346-141.463Z" transform="translate(-570.837 150.345)" fill="#fff"/>
            <path id="Path_533" data-name="Path 533" d="M631.908-135.782l5.629,8.738h-5.824l-2.7-4.768-3.418,4.768h-5.881l6.485-8.76-4.969-7.424h5.937l1.917,3.432,2.22-3.432h5.96Z" transform="translate(-563.122 150.666)" fill="#fff"/>
            <path id="Path_534" data-name="Path 534" d="M611.776-143.228h0Z" transform="translate(-560.883 150.666)" fill="#fff"/>
            <path id="Path_535" data-name="Path 535" d="M613.971-118.787a3.039,3.039,0,0,1,3.044,3.037,3.045,3.045,0,0,1-3.044,3.044,3.045,3.045,0,0,1-3.044-3.044A3.039,3.039,0,0,1,613.971-118.787Z" transform="translate(-560.643 143.775)" fill="#fff"/>
            <path id="Path_536" data-name="Path 536" d="M599.817-133.491l4.948,6.448h-6.118l-3.087-4.832v4.832h-4.854v-16.184h6.362a6.089,6.089,0,0,1,4.422,1.537,4.9,4.9,0,0,1,1.351,3.619A4.591,4.591,0,0,1,599.817-133.491Zm-1.321-4.337a1.682,1.682,0,0,0-.431-1.242,3.765,3.765,0,0,0-2.5-.661v3.813C597.635-135.94,598.5-136.492,598.5-137.828Z" transform="translate(-554.942 150.666)" fill="#fff"/>
            <path id="Path_537" data-name="Path 537" d="M584.079-143.228V-139h-3.691v11.955h-4.832V-139h-3.69v-4.229Z" transform="translate(-549.629 150.666)" fill="#fff"/>
            <path id="Path_538" data-name="Path 538" d="M568.139-143.228v16.184h-4.853v-16.184Z" transform="translate(-547.21 150.666)" fill="#fff"/>
            <path id="Path_539" data-name="Path 539" d="M565.471-153.588a3.044,3.044,0,0,1,3.043,3.037,3.052,3.052,0,0,1-3.043,3.052,3.048,3.048,0,0,1-3.044-3.052A3.039,3.039,0,0,1,565.471-153.588Z" transform="translate(-546.967 153.588)" fill="#fff"/>
            <path id="Path_540" data-name="Path 540" d="M555.494-141.146l-2.556,4.129a4.233,4.233,0,0,0-3.561-1.96,3.564,3.564,0,0,0-3.533,3.7,3.558,3.558,0,0,0,3.533,3.692,4.233,4.233,0,0,0,3.561-1.96l2.556,4.136a8.449,8.449,0,0,1-6.118,2.607,8.476,8.476,0,0,1-8.48-8.474,8.488,8.488,0,0,1,8.48-8.487A8.429,8.429,0,0,1,555.494-141.146Z" transform="translate(-540.896 150.818)" fill="#fff"/>
          </g>
        </g>
      </g>
      <path id="Path_541" data-name="Path 541" d="M76.753,11.169V27.353H71.9V11.169Z" transform="translate(-19.989 -2.921)" fill="#fff"/>
    </g>
  </g>
</svg>
