<svg xmlns="http://www.w3.org/2000/svg" xmlns:xlink="http://www.w3.org/1999/xlink" width="96" height="96" viewBox="0 0 96 96">
  <defs>
    <clipPath id="clip-path">
      <rect id="Rectangle_117" data-name="Rectangle 117" width="59.462" height="53.569" fill="none"/>
    </clipPath>
  </defs>
  <g id="concur" transform="translate(-206 -219)">
    <circle id="Ellipse_39" data-name="Ellipse 39" cx="48" cy="48" r="48" transform="translate(206 219)" fill="#0075c9"/>
    <g id="Group_266" data-name="Group 266" transform="translate(224 240)">
      <g id="Group_265" data-name="Group 265" clip-path="url(#clip-path)">
        <path id="Path_361" data-name="Path 361" d="M36.066,41.96a.588.588,0,0,0-.753-.292,23.335,23.335,0,0,1-7.332,1.488A16.633,16.633,0,0,1,11.214,26.671c0-9.45,6.763-16.4,15.646-16.4A20.161,20.161,0,0,1,38.66,13.6a.639.639,0,0,0,.983-.217,62.486,62.486,0,0,1,4.5-7.291c.224-.311.243-.64-.808-1.318A30.117,30.117,0,0,0,27.467.016C12.449-.51,0,11.033,0,26.86,0,41.38,12.247,53.683,27.992,53.567c4.5-.033,9.981-1.173,13.41-3.266,0,0,.624-.332.291-.8-.658-.914-3.494-3.008-5.627-7.546" transform="translate(0 0.001)" fill="#fff"/>
        <path id="Path_362" data-name="Path 362" d="M285.669,183.308a7.633,7.633,0,1,0-7.631,7.633,7.632,7.632,0,0,0,7.631-7.633" transform="translate(-226.207 -146.964)" fill="#fff"/>
      </g>
    </g>
  </g>
</svg>
