<svg xmlns="http://www.w3.org/2000/svg" xmlns:xlink="http://www.w3.org/1999/xlink" width="96" height="96" viewBox="0 0 96 96">
  <defs>
    <clipPath id="clip-path">
      <rect id="Rectangle_118" data-name="Rectangle 118" width="70.907" height="65.07" fill="none"/>
    </clipPath>
  </defs>
  <g id="coupa" transform="translate(-350 -195)">
    <circle id="Ellipse_39" data-name="Ellipse 39" cx="48" cy="48" r="48" transform="translate(350 195)" fill="#324587"/>
    <g id="Group_269" data-name="Group 269" transform="translate(363 210)">
      <g id="Group_268" data-name="Group 268" clip-path="url(#clip-path)">
        <path id="Path_363" data-name="Path 363" d="M56.935,30.281c-1.189-.576-2.3-1.074-3.376-1.5,1.113-.23,2.264-.5,3.376-.806,7.827-2.11,12.814-5.486,11.625-7.6-1.189-2.149-7.827-2.225-15.27-.46-1.074.269-2.11.537-3.108.844.537-.767,1.036-1.573,1.5-2.379,3.146-5.563,3.76-10.321,1.688-11.2s-6.331,2.225-9.975,7.443c-.537.806-1.036,1.573-1.5,2.379-.23-.882-.537-1.688-.844-2.609-2.11-5.908-5.525-9.975-7.75-9.63s-2.993,5.256-1.228,11.472c.269.921.537,1.842.882,2.724A30.732,30.732,0,0,0,29.963,17.5c-7.213-3.453-14.311-4.8-16.114-3.031s2.571,6.369,10.244,10.206c1.113.537,2.225,1.036,3.261,1.5q-1.9.345-3.913.806C13.35,29.4,4.526,33.7,4.6,36.65s9.706,3.031,20.641,0q2.187-.576,4.144-1.266c-.844,1.074-1.688,2.225-2.532,3.376-6.714,9.745-10.512,20.488-7.366,22.368s11.472-6.369,17.457-16.766c.767-1.343,1.42-2.609,2.033-3.837.269,1.3.614,2.686,1,4.105,3.108,11.126,8.863,20.334,12.316,18.915,3.415-1.42,2.455-12.086-1.343-22.445-.5-1.343-1-2.571-1.5-3.76,1.113.691,2.3,1.3,3.568,1.957,9.208,4.642,17.649,6.177,18.493,3.376.691-2.916-6.024-8.326-14.579-12.392" transform="translate(-2.837 -2.926)" fill="#fff"/>
        <path id="Path_364" data-name="Path 364" d="M38.1,79.7c-.959.345-2.033.652-3.108.959a46.906,46.906,0,0,1-8.939,1.573c-7.482,5.793-12.7,12.124-11.241,14.541S23.6,96.581,31.462,91.4a44.6,44.6,0,0,1,4.757-9.093c.652-.921,1.266-1.8,1.88-2.609" transform="translate(-8.977 -49.122)" fill="#fff"/>
        <path id="Path_365" data-name="Path 365" d="M33.667,53.081c-.844-.345-1.688-.729-2.571-1.189a30.821,30.821,0,0,1-6.023-3.837c-7.6-.23-13.927.959-14.848,3.108s3.952,4.451,11.318,5.678a45.58,45.58,0,0,1,9.093-3.146c1-.23,2.072-.422,3.031-.614" transform="translate(-6.233 -29.6)" fill="#fff"/>
        <path id="Path_366" data-name="Path 366" d="M61.98,25.73a20.118,20.118,0,0,1-.729-2.149,19.8,19.8,0,0,1-.844-5.6c-4.22-3.722-8.4-5.755-10.244-4.834S49.2,17.6,52.2,21.894a34.41,34.41,0,0,1,7.443,2.647A19.05,19.05,0,0,1,61.98,25.73" transform="translate(-30.326 -7.967)" fill="#fff"/>
        <path id="Path_367" data-name="Path 367" d="M118.1,33.343c.805-.269,1.688-.5,2.494-.691a30.475,30.475,0,0,1,6.714-.959c3.99-3.645,5.678-7.021,4.182-8.249s-5.295-.269-9.784,2.225a19.754,19.754,0,0,1-2.34,5.755c-.422.576-.844,1.3-1.266,1.918" transform="translate(-72.791 -14.122)" fill="#fff"/>
        <path id="Path_368" data-name="Path 368" d="M83.263,89.6c-.422.921-.959,1.88-1.5,2.839a45.784,45.784,0,0,1-5.563,7.712c-.883,9.822.613,18.263,3.913,18.493,3.338.23,6.369-7.4,7.827-16.613a39.545,39.545,0,0,1-3.99-9.361c-.23-1.113-.5-2.11-.69-3.069" transform="translate(-46.813 -55.223)" fill="#fff"/>
        <path id="Path_369" data-name="Path 369" d="M95.656,18.7a19.893,19.893,0,0,1,1.189-1.918,24.337,24.337,0,0,1,3.76-4.412c-.115-4.719-1.5-8.1-3.376-8.287S93.354,6.617,92.2,10.952a21.883,21.883,0,0,1,2.8,5.6c.23.691.46,1.42.652,2.149" transform="translate(-56.828 -2.512)" fill="#fff"/>
        <path id="Path_370" data-name="Path 370" d="M146.235,62.88c-.307-2.033-5.18-4.067-11.625-5.18a28.567,28.567,0,0,1-7.021,2.8c-.921.269-1.8.46-2.686.652.882.345,1.688.729,2.647,1.189a41.51,41.51,0,0,1,6.753,4.067c7.251.077,12.277-1.381,11.932-3.53" transform="translate(-76.982 -35.562)" fill="#fff"/>
        <path id="Path_371" data-name="Path 371" d="M115.9,83.5c.384.882.767,1.8,1.112,2.8a40.573,40.573,0,0,1,2.072,8.517c6.408,6.33,12.776,9.937,14.656,7.788s-1.266-8.134-6.408-14.388a37.615,37.615,0,0,1-8.67-3.261c-1-.5-1.918-.959-2.762-1.458" transform="translate(-71.435 -51.464)" fill="#fff"/>
        <path id="Path_372" data-name="Path 372" d="M74.142,40.565A39.958,39.958,0,0,0,67.274,36.5c-.882-.422-1.764-.844-2.647-1.189.882-.153,1.764-.384,2.686-.614a29.458,29.458,0,0,0,7.059-2.8c1.957-1.189,2.954-2.379,2.456-3.261-.461-.882-2.609-1.42-5.486-1.3a35.843,35.843,0,0,0-6.714.959,23.6,23.6,0,0,0-2.494.691c.422-.614.844-1.266,1.227-1.957A19.334,19.334,0,0,0,65.7,21.267c.384-1.842.153-3.146-.767-3.53-.882-.384-2.609.307-4.374,1.88a21.978,21.978,0,0,0-3.8,4.412c-.422.614-.806,1.266-1.189,1.957-.192-.691-.422-1.42-.652-2.149A22.478,22.478,0,0,0,52,18.2c-1.227-1.688-2.493-2.532-3.491-2.34s-1.688,1.688-1.688,3.913a21.054,21.054,0,0,0,.844,5.6c.23.729.46,1.458.729,2.149-.729-.422-1.5-.806-2.34-1.228a34.842,34.842,0,0,0-7.482-2.686c-2.571-.537-4.566-.5-5.295.269s.115,2.532,2.264,4.335a30.835,30.835,0,0,0,6.024,3.837c.844.422,1.688.806,2.571,1.189-.959.192-1.957.384-2.993.652a44.747,44.747,0,0,0-9.093,3.146c-2.993,1.458-4.873,2.993-4.757,4.182s2.762,1.88,6.561,1.688a47.059,47.059,0,0,0,8.9-1.573c1.074-.307,2.149-.614,3.108-.959-.614.806-1.228,1.688-1.842,2.571a43.706,43.706,0,0,0-4.757,9.093c-1.228,3.376-1.42,6.024-.153,6.714s4.144-.959,7.021-4.144A48.061,48.061,0,0,0,51.7,46.9c.537-.959,1.074-1.918,1.5-2.839.192.959.46,2,.767,3.031a40.369,40.369,0,0,0,3.913,9.285c1.8,2.993,3.683,4.719,5.026,4.182s1.918-3.568,1.419-7.52a40.6,40.6,0,0,0-2.071-8.517c-.345-1-.729-1.918-1.113-2.8.844.5,1.688,1,2.724,1.5a39.336,39.336,0,0,0,8.748,3.261c2.915.652,5.026.5,5.409-.652s-1.074-3.069-3.875-5.256" transform="translate(-16.82 -9.757)" fill="#324587"/>
      </g>
    </g>
  </g>
</svg>
