<svg xmlns="http://www.w3.org/2000/svg" width="96" height="96" viewBox="0 0 96 96">
  <g id="crowdstrike" transform="translate(-612 -1651)">
    <circle id="Ellipse_105" data-name="Ellipse 105" cx="48" cy="48" r="48" transform="translate(612 1651)" fill="#da1b1b"/>
    <g id="Group_452" data-name="Group 452" transform="translate(398.242 1612.479)">
      <path id="Path_803" data-name="Path 803" d="M234.887,58.575c-.1.1.038.559.165.559.064,0,.114.064.114.153a12.251,12.251,0,0,0,1.119,2.238.616.616,0,0,1,.153.28,13.749,13.749,0,0,0,1.627,2.34,34.71,34.71,0,0,0,4.476,4.158,7.621,7.621,0,0,1,.7.547,10.83,10.83,0,0,0,.89.687c.28.191.623.445.75.56a9.048,9.048,0,0,0,.763.572c.292.2.636.458.763.572a9.039,9.039,0,0,0,.763.572,6.444,6.444,0,0,1,.585.42c.038.038.47.381.954.763s.954.75,1.03.826.585.521,1.132,1.017a25.774,25.774,0,0,1,4.145,4.514,28.909,28.909,0,0,1,1.92,3.281c.394.788.979,1.831,1.272,2.327s.687,1.132.852,1.424a3.691,3.691,0,0,0,.483.7.579.579,0,0,1,.165.292.665.665,0,0,0,.127.28c.076.089.674.979,1.348,2a18.513,18.513,0,0,0,8,7.006c1.373.547,4.247.763,8.011.6a33.8,33.8,0,0,1,6.141.165,2.868,2.868,0,0,0,.826.114,4.184,4.184,0,0,1,1.043.191,3.122,3.122,0,0,0,.763.191,1.8,1.8,0,0,1,.623.191,1.648,1.648,0,0,0,.547.191,12.648,12.648,0,0,1,2.518,1.093,22.44,22.44,0,0,1,6.192,4.527c1.322,1.335,1.373,1.373,1.449,1.043a5.188,5.188,0,0,0-.191-2.047c-.064-.127-.254-.521-.42-.865a11.391,11.391,0,0,0-1.806-2.594,2.453,2.453,0,0,1-.585-1,2.708,2.708,0,0,0-1.081-1.767,14.94,14.94,0,0,0-3.344-1.691,1.791,1.791,0,0,1-.483-.191,1.766,1.766,0,0,0-.6-.191,1.214,1.214,0,0,1-.445-.114,10.445,10.445,0,0,0-1.17-.394,19.365,19.365,0,0,1-3.255-1.157,1.914,1.914,0,0,1-.814-1.36,7.268,7.268,0,0,1,.636-1.984.5.5,0,0,0,.127-.318,1.5,1.5,0,0,1,.178-.547,5.581,5.581,0,0,0,.331-1.233c.42-2.467-.915-4.043-5.213-6.192-.572-.28-1.615-.75-2.1-.954-.14-.051-.521-.216-.852-.356a3.077,3.077,0,0,0-.788-.267.358.358,0,0,1-.267-.127.328.328,0,0,0-.28-.127,1.9,1.9,0,0,1-.585-.178c-.229-.1-1.322-.483-2.441-.839s-2.123-.712-2.238-.763a3.168,3.168,0,0,0-.7-.2,1.967,1.967,0,0,1-.623-.178,1.774,1.774,0,0,0-.572-.178,4.312,4.312,0,0,1-.7-.2c-.14-.051-.509-.165-.827-.254s-.8-.2-1.081-.267-.623-.191-.763-.242a4.324,4.324,0,0,0-.7-.2,3.078,3.078,0,0,1-.636-.178c-.1-.051-.623-.229-1.144-.381s-1.043-.318-1.144-.369a2.881,2.881,0,0,0-.636-.2,2.352,2.352,0,0,1-.572-.178,8.113,8.113,0,0,0-1.081-.394,7.661,7.661,0,0,1-1.081-.381,7.986,7.986,0,0,0-.954-.381,5.083,5.083,0,0,1-.941-.407.623.623,0,0,0-.305-.1,30.587,30.587,0,0,1-4.476-2.022,42.344,42.344,0,0,1-4.514-2.454c-.064-.051-.585-.394-1.144-.763s-1.068-.712-1.144-.763-.661-.5-1.322-.992a44.077,44.077,0,0,1-7.057-6.8c-.267-.356-.5-.648-.509-.674s-.064.013-.1.051ZM291.749,97.1c1.3.432,1.717.763,2.022,1.539.305.75-.2.928-.826.28a5.007,5.007,0,0,0-.814-.661,5,5,0,0,1-.61-.432.579.579,0,0,0-.343-.165c-.165,0-.318-.267-.318-.585,0-.229.178-.229.89.025ZM225.758,66.585a20.243,20.243,0,0,0,1.272,2.5c.076.089.343.432.6.788a28.884,28.884,0,0,0,4.31,4.387c.483.42,1.806,1.411,2.225,1.678a5.256,5.256,0,0,1,.509.381,4.544,4.544,0,0,0,.687.483,5.108,5.108,0,0,1,.572.381c.076.1,3.827,2.327,5.022,2.988.941.534,1.958,1.043,5.531,2.785a39.616,39.616,0,0,1,4.031,2.162,26.006,26.006,0,0,1,3.942,3.077c.521.521.966.941.992.941s-.013-.14-.089-.318-.191-.318-.254-.318-.1-.076-.1-.165a1.044,1.044,0,0,0-.254-.483c-.14-.165-.292-.369-.343-.432a23.086,23.086,0,0,0-4.031-3.942c-.318-.28-2.416-1.7-3.395-2.314-.776-.5-2.34-1.373-3.929-2.225-.381-.216-.75-.432-.827-.483-.114-.089-.661-.381-2.479-1.373-1.144-.61-4.043-2.4-4.514-2.785a5.373,5.373,0,0,0-.636-.42c-.28-.165-.559-.356-.636-.407s-.75-.559-1.526-1.132-1.424-1.081-1.462-1.119a7.2,7.2,0,0,0-.7-.572,36.713,36.713,0,0,1-3.331-3.052,5.505,5.505,0,0,0-1.183-1.017ZM240.2,89.358a18.385,18.385,0,0,0,3.42,3.166c.7.521,1.335.992,1.4,1.043a10.383,10.383,0,0,0,1.577.916.649.649,0,0,1,.292.153,3.481,3.481,0,0,0,.61.381,15.557,15.557,0,0,0,2.594,1.119.362.362,0,0,1,.254.1,29.13,29.13,0,0,0,4.552,1.424,1.036,1.036,0,0,1,.458.127,3.694,3.694,0,0,0,.788.242,13.873,13.873,0,0,1,1.971.509c.14.064.687.242,1.208.407a7.082,7.082,0,0,1,1.081.394.538.538,0,0,0,.292.1,1.85,1.85,0,0,1,.572.178c2.085.9,2.645,1.119,2.721,1.055.038-.051-.089-.216-.292-.369-.318-.254-.877-.75-2.085-1.882-.191-.178-.534-.483-.763-.687-.636-.547-3.306-2.53-3.878-2.874a5.1,5.1,0,0,1-.572-.381.874.874,0,0,0-.254-.178c-.1-.051-.534-.28-.954-.521-.788-.458-2.4-1.259-3.306-1.64-.28-.114-.6-.267-.7-.318a2.312,2.312,0,0,0-.61-.191,1,1,0,0,1-.47-.216.514.514,0,0,0-.356-.114c-.28.013-.28.013-.025.153a1.28,1.28,0,0,1,.318.229,6.54,6.54,0,0,0,.636.42,6.932,6.932,0,0,1,1.907,1.691.549.549,0,0,1-.191.305c-.153.127-.521.114-1.844-.051a15.339,15.339,0,0,1-1.945-.331c-.153-.051-.6-.2-.979-.318a25.649,25.649,0,0,1-7.133-3.942c-.114-.1-.242-.153-.292-.1Z" transform="translate(0 0)" fill="#fff"/>
      <path id="Path_804" data-name="Path 804" d="M992.043,850.385c2.378,2.187,8.468,8.4,8.85,9.015.153.229-.025.483-.318.483a2.82,2.82,0,0,1-.776-.254,4.683,4.683,0,0,0-.6-.254,8.369,8.369,0,0,1-1.755-1.106c-.381-.356-.585-.381-.356-.051a32.02,32.02,0,0,0,3.369,3.344,18.492,18.492,0,0,0,2.378,1.628c.763.381.839.445.839.687,0,.216-.064.229-.7.153-.382-.038-.7-.038-.7.025a5.894,5.894,0,0,0,1.653.8,5.659,5.659,0,0,0,3.026-.051,1.371,1.371,0,0,1,.687-.191c.28.038.305.076.7.928.483,1.043,1.6,2.479,1.92,2.479a.447.447,0,0,1,.267.178,5.607,5.607,0,0,0,2,.547c.038-.038-.2-.267-.521-.521a2.713,2.713,0,0,1-1.335-1.933,2.034,2.034,0,0,1,.865-1.678,3.6,3.6,0,0,1,2.619-.839c1.017,0,1.221.025,1.666.305a3.134,3.134,0,0,1,.674.509,4.34,4.34,0,0,1,.661,1.539c0,.432.242.254.331-.242a3.77,3.77,0,0,0-.115-2.289,4.512,4.512,0,0,0-2.7-.725c-2.429-.153-3.662-.559-4.755-1.551-1.132-1.017-1.081-1.132.534-1.208a8.969,8.969,0,0,0,2.95-.61c.14-.064.547-.242.89-.381s1.094-.5,1.653-.763a11.32,11.32,0,0,1,5.633-1.322c1.589,0,2.009-.089,1.424-.267-.14-.038-.254-.14-.254-.2a.114.114,0,0,0-.114-.114,10.786,10.786,0,0,1-1.615-.979,16.01,16.01,0,0,0-1.894-1.017c-.483-.242-.992-.5-1.106-.559a1.063,1.063,0,0,0-.343-.115,1.9,1.9,0,0,1-.483-.153,17.641,17.641,0,0,0-2.39-.7,38.564,38.564,0,0,0-8.328,0,23.98,23.98,0,0,1-5.277.432,11.61,11.61,0,0,1-3.624-.623,10.732,10.732,0,0,1-1.92-.725,6.083,6.083,0,0,0-.661-.267,6.846,6.846,0,0,1-.915-.509c-.458-.28-.865-.509-.89-.509a18.231,18.231,0,0,1-1.793-1.233c-.865-.648-.547-.216.649.89Z" transform="translate(-730.111 -754.466)" fill="#fff"/>
    </g>
  </g>
</svg>
