<svg xmlns="http://www.w3.org/2000/svg" width="96" height="96" viewBox="0 0 96 96">
  <g id="Databricks" transform="translate(-560 -258)">
    <circle id="Ellipse_3" data-name="Ellipse 3" cx="48" cy="48" r="48" transform="translate(560 258)" fill="#ff3621"/>
    <g id="databricks-vector-logo-2022_2" data-name="databricks-vector-logo-2022 2" transform="translate(506.909 123.5)">
      <path id="Path_8" data-name="Path 8" d="M277.366,178.466l-20.993,11.9-22.3-12.676-1.043.562v9.2L256.4,200.769l20.993-11.9v4.894l-20.993,11.9-22.33-12.676-1.043.562V195.1L256.4,208.418,279.853,195.1v-9.2l-1.043-.562-22.437,12.676-20.913-11.9V181.3l20.913,11.82L279.826,179.8v-9.066l-1.2-.642-22.25,12.6-19.789-11.259,19.789-11.178,16.34,9.2,1.471-.776v-1.123L256.373,157.5,233,170.764v1.417L256.373,185.5l20.993-11.9Z" transform="translate(-154.909)" fill="#fff"/>
    </g>
  </g>
</svg>
