<svg xmlns="http://www.w3.org/2000/svg" width="96" height="96" viewBox="0 0 96 96">
  <g id="Docusign" transform="translate(-1070 -16)">
    <circle id="Ellipse_71" data-name="Ellipse 71" cx="48" cy="48" r="48" transform="translate(1070 16)" fill="#005cb9"/>
    <g id="docusign-ar21" transform="translate(1071 38.052)">
      <path id="Path_343" data-name="Path 343" d="M10,31.84h3.805c3.171,0,5.981-1.852,5.981-5.289,0-3.888-2.866-5.346-6.3-5.346H10V31.84m2.34-8.474h1.389c1.979,0,3.653.976,3.653,3.07,0,2.416-1.636,3.247-3.805,3.247H12.34Zm7.984,4.821a3.785,3.785,0,0,0,4.053,3.805,3.813,3.813,0,1,0,0-7.61,3.8,3.8,0,0,0-4.053,3.805m2.251,0a1.707,1.707,0,0,1,1.56-1.845h.241a1.707,1.707,0,0,1,1.8,1.845,1.8,1.8,0,1,1-3.6,0M35.729,25.34a3.653,3.653,0,0,0-2.6-.976,3.813,3.813,0,1,0,0,7.61,3.651,3.651,0,0,0,2.6-.976l-1.484-1.558a1.439,1.439,0,0,1-1.1.558,1.707,1.707,0,0,1-1.8-1.852,1.707,1.707,0,0,1,1.8-1.845,1.388,1.388,0,0,1,1.1.558l1.484-1.56m7.693-.723H41.164v3.634c0,.951-.178,1.865-1.35,1.865s-1.167-1.1-1.167-1.9v-3.6H36.389v4c0,1.953.418,3.456,2.708,3.456a2.36,2.36,0,0,0,2.131-1.173v.989h2.194V24.529" transform="translate(0 -1.356)" fill="#fff"/>
      <path id="Path_344" data-name="Path 344" d="M55.82,34.692h3.571v.742H55.82Zm5.233,0h3.571v.742H61.053Zm5.239,0h3.571v.742H66.291Zm5.231,0h3.571v.742H71.522Zm5.233,0h3.571v.742H76.755Zm5.231,0h3.571v.742H81.986Zm5.233,0H90.79v.742H87.22Zm5.231,0h3.571v.742H92.452Z" transform="translate(-11.821 -4.836)" fill="#fff"/>
      <path id="Path_345" data-name="Path 345" d="M76.051,28.766c-.386-.386,3.526-3.513,4.706-3.354-.45,1.358-4.319,3.742-4.706,3.354m4.6,1.3a22.008,22.008,0,0,0,2.017-4.858c0-.882-.8-1.345-1.662-1.345-2.834,0-7.408,4.833-8.371,4.833-1.1,0,.583-2.315.583-3.222,0-.6-.539-1.224-.971-1.224-.837,0-3.482,2.538-5.213,3.094a3.9,3.9,0,0,0,.583-1.738c0-3.094-8.771-1.9-8.771-3.653,0-1.56,5.486-4.249,8.7-4.249.45,0,3.412.2,3.412,1.224,0,.386-.634.513-.634.9s.324.45.71.45A1.046,1.046,0,0,0,72,19.119c0-2.625-2.283-3.171-4.123-3.171-4.75,0-10.376,4.123-10.376,5.993,0,2.449,7.991,2,7.991,4.192,0,2.639-8.568,5.023-8.568,5.669s.456.583.971.583c3.482,0,12.627-5.8,13.4-6.576a18.754,18.754,0,0,1-.508,3.215c0,.577.444,1.364,1.1,1.364s1.61-.971,3.031-1.738c-.063.45.324,1.161.837,1.161,1.1,0,4.439-2.708,5.074-3.171a7.643,7.643,0,0,1-1.395,3.171,4.148,4.148,0,0,0-1.1-.139c-1.332,0-5.01,3.894-5.01,5.708,0,.71.386,1.421,1.1,1.421.983,0,4.526-2.924,5.847-5.9.577.063,1.516.495,1.516.037s-.634-.761-1.128-.888m-5.923,5.213c-.229,0-.368-.1-.368-.634,0-1.655,3.45-4,4.649-4-.7,1.558-3.647,4.636-4.281,4.636M73.623,20.672a.805.805,0,1,1,.805.805.8.8,0,0,1-.805-.805M84.4,26.919c-.45.583-1.61,1.9-1.61,2.449s.26.837.634.837c.965,0,4.123-3.805,5.607-3.805,1.1,0-.7,3.933,1.681,3.933.862,0,3.747-1.9,3.747-3.013,0-.2-.2-.533-.463-.533-.152,0-2.124,2.385-2.968,2.385-.71,0,0-1.484,0-2.449s-.159-1.87-1.161-1.87c-1.35,0-3.292,1.738-3.735,2a1.719,1.719,0,0,0,.26-.837,1.3,1.3,0,0,0-1.16-1.1c-.444,0-2.829,1.224-2.829,2.79,0,.386,1.414-.983,1.992-.787" transform="translate(-12.107 0)" fill="#fff"/>
    </g>
  </g>
</svg>
