<svg id="logo-duo-auth" xmlns="http://www.w3.org/2000/svg" width="96" height="96" viewBox="0 0 96 96">
  <circle id="Ellipse_88" data-name="Ellipse 88" cx="48" cy="48" r="48" fill="#6fbf51"/>
  <path id="Path_591" data-name="Path 591" d="M45.363,23.563a12.371,12.371,0,0,0-24.713,0Z" transform="translate(42.03 23.708)" fill="#fff"/>
  <path id="Path_592" data-name="Path 592" d="M20.65,16.2a12.371,12.371,0,0,0,24.713,0Z" transform="translate(42.03 32.562)" fill="#fff" opacity="0.8"/>
  <path id="Path_593" data-name="Path 593" d="M27.536,23.554A12.342,12.342,0,0,0,15.224,11.8H3V23.554Z" transform="translate(5.816 23.717)" fill="#fff"/>
  <path id="Path_594" data-name="Path 594" d="M3,16.2V27.954H15.224A12.342,12.342,0,0,0,27.507,16.2Z" transform="translate(5.816 32.561)" fill="#fff" opacity="0.8"/>
  <path id="Path_595" data-name="Path 595" d="M23.651,11.77H11.75V24.2a12.4,12.4,0,0,0,11.9,12.371Z" transform="translate(23.618 23.816)" fill="#fff"/>
  <path id="Path_596" data-name="Path 596" d="M16.2,11.77H28.072V36.6H16.2Z" transform="translate(32.563 23.816)" fill="#fff" opacity="0.8"/>
</svg>
