<svg xmlns="http://www.w3.org/2000/svg" width="96" height="96" viewBox="0 0 96 96">
  <g id="EPIC" transform="translate(-434 -17)">
    <circle id="Ellipse_39" data-name="Ellipse 39" cx="48" cy="48" r="48" transform="translate(434 17)" fill="#ba0239"/>
    <g id="layer1" transform="translate(469.909 -37.348)">
      <path id="path24" d="M-4.437,116.419a1.332,1.332,0,0,1,.032-.513c.134-.7.647-3.128.867-4.1a3.461,3.461,0,0,0,.139-.969c-.036-.035-4.89-.074-10.787-.085l-10.723-.021,0-.409c0-.225.2-1.331.429-2.456.892-4.3,1.089-5.252,1.155-5.609.038-.2.257-1.29.488-2.416.66-3.224,1.55-7.582,1.822-8.921a12.708,12.708,0,0,1,.327-1.372c.076-.141.55-.148,10.921-.148,7.526,0,10.858.026,10.9.087a1.792,1.792,0,0,1-.072.635C.991,90.419.8,91.31.634,92.1S.3,93.669.258,93.838l-.076.307-7.3.021-7.3.021-.06.2c-.033.113-.139.647-.235,1.187s-.23,1.233-.3,1.54a1.982,1.982,0,0,0-.074.635c.029.047,2.5.077,6.384.077,3.74,0,6.355.031,6.382.075a9.221,9.221,0,0,1-.238,1.412c-.156.736-.344,1.632-.418,1.993a8.159,8.159,0,0,1-.206.839l-.072.184h-6.39c-3.236.048,0,0-6.418.034l-.68,3.71c7.232,0,4.732.01,7.232,0l7.18-.021.1-.491c.057-.27.219-1.026.361-1.679s.381-1.777.532-2.5c.344-1.651.913-4.338,1.066-5.036.064-.293.2-.91.3-1.372l.183-.839H3.255c1.669,0,3.079.03,3.134.065.078.049.052.284-.113,1.025a4.936,4.936,0,0,0-.166,1.009c.026.026.137-.021.245-.105A10.92,10.92,0,0,1,8.163,94.92a10.872,10.872,0,0,1,6.331-1.07,7.339,7.339,0,0,1,4.816,2.056,5.753,5.753,0,0,1,1.64,3.265c.027.175.078.285.114.246a17,17,0,0,0,.542-2.283,15.767,15.767,0,0,1,.714-2.923c.138-.087,6.132-.081,6.271.007.091.058.094.15.015.511l-.258,1.177c-.089.405-.286,1.326-.436,2.047s-.3,1.411-.333,1.535c-.1.4.1.247.406-.306a10.778,10.778,0,0,1,3.13-3.309c2.623-1.754,6.487-2.588,10.686-2.307a12.392,12.392,0,0,1,5.036,1.119,5.03,5.03,0,0,1,2.837,3.06,3.853,3.853,0,0,1,.251,1.518l.009.819H43.313l-.162-.487q-.517-1.552-2.867-1.756a6.156,6.156,0,0,0-5.065,1.529c-1.493,1.392-2.229,4.318-1.487,5.914.586,1.259,1.828,1.883,3.749,1.883a5.327,5.327,0,0,0,4.747-2.293l.378-.573h3.355c3.044,0,3.355.012,3.355.133a3.506,3.506,0,0,1-.342.757c-2.021,3.689-4.943,5.529-9.716,6.116a34.156,34.156,0,0,1-6.116-.073,10.927,10.927,0,0,1-3.519-1.109,6.219,6.219,0,0,1-2.513-2.468,6.818,6.818,0,0,1-.6-2c-.065-.475-.17-.417-.283.156-.044.224-.209,1.015-.366,1.758l-.417,1.965c-.071.338-.167.752-.211.921l-.081.307H22c-2.62,0-3.159-.019-3.2-.114a19.767,19.767,0,0,1,.541-2.916c.094-.428.208-.981.253-1.228s.1-.515.124-.594c.069-.238-.087-.161-.252.123a12,12,0,0,1-2.772,3.035,11.79,11.79,0,0,1-7.4,2.349c-2.458,0-4.115-.516-5.327-1.662-.238-.225-.458-.385-.487-.356a2.56,2.56,0,0,0-.163.565c-.06.281-.236,1.119-.392,1.863s-.36,1.7-.453,2.129-.229,1.054-.3,1.392-.156.725-.185.86l-.054.246-3.164.021a25.659,25.659,0,0,1-3.215-.061Zm14.96-9.9a4.862,4.862,0,0,0,3.54-3.644,4.722,4.722,0,0,0,.033-2.725,2.773,2.773,0,0,0-1.545-1.517A7,7,0,0,0,8.5,98.541a5.169,5.169,0,0,0-3.67,5.021,2.315,2.315,0,0,0,.216,1.351A3.1,3.1,0,0,0,7.6,106.68,9.955,9.955,0,0,0,10.523,106.518ZM22.736,91.88c.056-.406.6-2.955.7-3.3l.061-.2,3.141-.021c1.727-.012,3.173.011,3.212.05a9.8,9.8,0,0,1-.429,2.469c-.094.428-.2.907-.232,1.064l-.062.287-3.221.021-3.221.021Z" fill="#fff"/>
    </g>
  </g>
</svg>
