<svg id="GCP_Logo" data-name="GCP Logo" xmlns="http://www.w3.org/2000/svg" xmlns:xlink="http://www.w3.org/1999/xlink" width="96" height="96" viewBox="0 0 96 96">
  <defs>
    <clipPath id="clip-path">
      <rect id="Rectangle_146" data-name="Rectangle 146" width="77.817" height="62.625" fill="none"/>
    </clipPath>
  </defs>
  <circle id="Oval" cx="48" cy="48" r="48" fill="rgba(66,133,244,0.1)"/>
  <g id="Group_326" data-name="Group 326" transform="translate(9 17)">
    <g id="Group_325" data-name="Group 325" transform="translate(0 0)" clip-path="url(#clip-path)">
      <path id="Path_687" data-name="Path 687" d="M43.947,17.245H46.32l6.764-6.764.332-2.872A30.4,30.4,0,0,0,3.955,22.443,3.684,3.684,0,0,1,6.328,22.3L19.857,20.07S20.545,18.931,20.9,19a16.875,16.875,0,0,1,23.093-1.756Z" transform="translate(5.432 -0.001)" fill="#ea4335"/>
      <path id="Path_688" data-name="Path 688" d="M46.693,18.026a30.476,30.476,0,0,0-9.185-14.81L28.014,12.71A16.876,16.876,0,0,1,34.209,26.1v1.685a8.449,8.449,0,1,1,0,16.9H17.31l-1.685,1.709V56.523l1.685,1.685h16.9A21.978,21.978,0,0,0,46.693,18.026" transform="translate(21.459 4.416)" fill="#4285f4"/>
      <path id="Path_689" data-name="Path 689" d="M16.882,34.614h16.9V21.085h-16.9a8.387,8.387,0,0,1-3.489-.759l-2.373.736L4.208,27.826,3.615,30.2a21.856,21.856,0,0,0,13.267,4.415" transform="translate(4.965 27.915)" fill="#34a853"/>
      <path id="Path_690" data-name="Path 690" d="M21.847,7.856A21.977,21.977,0,0,0,8.58,47.255l9.8-9.8A8.45,8.45,0,1,1,29.561,26.274l9.8-9.8A21.958,21.958,0,0,0,21.847,7.856" transform="translate(0 10.788)" fill="#fbbc05"/>
    </g>
  </g>
</svg>
