<svg xmlns="http://www.w3.org/2000/svg" width="96" height="96" viewBox="0 0 96 96">
  <g id="GITHub" transform="translate(-1014 -759)">
    <circle id="Ellipse_45" data-name="Ellipse 45" cx="48" cy="48" r="48" transform="translate(1014 759)" fill="#1b1f23"/>
    <path id="Octicons-mark-github" d="M37.9,0A37.9,37.9,0,0,0,25.915,73.861c1.9.332,2.606-.805,2.606-1.8,0-.9-.047-3.885-.047-7.059-9.523,1.753-11.986-2.321-12.744-4.453-.426-1.09-2.274-4.453-3.885-5.354-1.327-.711-3.222-2.464-.047-2.511,2.985-.047,5.117,2.748,5.827,3.885,3.411,5.733,8.86,4.122,11.039,3.127a7.973,7.973,0,0,1,2.416-5.069c-8.433-.948-17.245-4.217-17.245-18.714a14.75,14.75,0,0,1,3.885-10.186A13.62,13.62,0,0,1,18.1,15.682s3.174-.995,10.423,3.885a35.734,35.734,0,0,1,18.951,0c7.249-4.927,10.423-3.885,10.423-3.885a13.62,13.62,0,0,1,.379,10.044,14.665,14.665,0,0,1,3.885,10.186c0,14.545-8.86,17.766-17.293,18.714,1.374,1.184,2.558,3.459,2.558,7.012,0,5.069-.047,9.144-.047,10.423,0,.995.711,2.179,2.606,1.8A37.922,37.922,0,0,0,37.9,0Z" transform="translate(1024 770)" fill="#fff" fill-rule="evenodd"/>
  </g>
</svg>
