<svg xmlns="http://www.w3.org/2000/svg" width="96" height="96" viewBox="0 0 96 96">
  <g id="gsuit" transform="translate(-206 -553)">
    <circle id="Ellipse_76" data-name="Ellipse 76" cx="48" cy="48" r="48" transform="translate(206 553)" fill="#ebf1ff"/>
    <g id="cdnlogo.com_google-icon" transform="translate(220.337 566.65)">
      <path id="Path_547" data-name="Path 547" d="M163.526,113.784a29.436,29.436,0,0,0-.725-7.023H130.55v12.748h18.931a16.786,16.786,0,0,1-7.023,11.145l-.064.427,10.2,7.9.706.071c6.488-5.992,10.229-14.809,10.229-25.266" transform="translate(-96.2 -78.67)" fill="#4285f4"/>
      <path id="Path_548" data-name="Path 548" d="M44.611,183.926c9.274,0,17.06-3.053,22.747-8.32l-10.839-8.4a20.33,20.33,0,0,1-11.908,3.435A20.679,20.679,0,0,1,25.07,156.37l-.4.034-10.6,8.206-.139.385a34.325,34.325,0,0,0,30.686,18.931" transform="translate(-10.261 -115.226)" fill="#34a853"/>
      <path id="Path_549" data-name="Path 549" d="M14.809,93.692A21.147,21.147,0,0,1,13.664,86.9,22.222,22.222,0,0,1,14.77,80.1l-.019-.455L4.015,71.312l-.351.167a34.278,34.278,0,0,0,0,30.839l11.145-8.626" transform="translate(0 -52.549)" fill="#fbbc05"/>
      <path id="Path_550" data-name="Path 550" d="M44.611,13.282A19.038,19.038,0,0,1,57.893,18.4l9.694-9.465A33,33,0,0,0,44.611,0,34.325,34.325,0,0,0,13.925,18.931l11.106,8.626a20.764,20.764,0,0,1,19.58-14.274" transform="translate(-10.261)" fill="#eb4335"/>
    </g>
  </g>
</svg>
