<svg id="Heat_Logo" xmlns="http://www.w3.org/2000/svg" width="96" height="96" viewBox="0 0 96 96">
  <circle id="Ellipse_81" data-name="Ellipse 81" cx="48" cy="48" r="48" fill="#303d51"/>
  <path id="Path_551" data-name="Path 551" d="M412.592,543.54l-2.068,15.474a9.552,9.552,0,0,0,9.347,10.816l2.462-35.171a10.254,10.254,0,0,0-9.741,8.88" transform="translate(-390.438 -506.835)" fill="#fff"/>
  <path id="Path_552" data-name="Path 552" d="M885.48,358.21h-9.461l-.468,19.05h10.4l-.468-19.05" transform="translate(-833.009 -340.48)" fill="#fff"/>
  <path id="Path_553" data-name="Path 553" d="M1316.638,559.015l-2.067-15.474a10.253,10.253,0,0,0-9.741-8.881l2.462,35.17a9.552,9.552,0,0,0,9.346-10.815" transform="translate(-1241.247 -506.835)" fill="#fff"/>
  <path id="Path_554" data-name="Path 554" d="M855.836,1013.14l-.646,26.263h12.1l-.646-26.263H855.836" transform="translate(-813.501 -962.018)" fill="#fff"/>
</svg>
