<svg xmlns="http://www.w3.org/2000/svg" xmlns:xlink="http://www.w3.org/1999/xlink" width="96" height="96" viewBox="0 0 96 96">
  <defs>
    <clipPath id="clip-path">
      <rect id="Rectangle_264" data-name="Rectangle 264" width="65.129" height="65.14" fill="none"/>
    </clipPath>
  </defs>
  <g id="Hootsuite" transform="translate(-757 -1834)">
    <circle id="Ellipse_122" data-name="Ellipse 122" cx="48" cy="48" r="48" transform="translate(757 1834)" fill="#ff4c46"/>
    <g id="Group_880" data-name="Group 880" transform="translate(772.936 1851.865)">
      <g id="Group_879" data-name="Group 879" transform="translate(0 0)" clip-path="url(#clip-path)">
        <path id="Path_914" data-name="Path 914" d="M46.284,52.067a10.925,10.925,0,0,1-8.779-.613.193.193,0,1,0-.234.306c1.208,1.3,3.371,3.605,4.678,4.7a.667.667,0,0,0,.9-.063l3.605-4a.2.2,0,0,0-.025-.279.2.2,0,0,0-.146-.045" transform="translate(-3.67 -5.072)" fill="#fff"/>
        <path id="Path_915" data-name="Path 915" d="M57.914,32.336c-1.947-4.209-4.84-8.112-9.239-8.635a3.667,3.667,0,0,0-2.28.5l-4.786,2.83a3.371,3.371,0,0,1-3.795-.243L33.65,23.566a12.353,12.353,0,0,0-4.7-2.271c-7.139-1.686-12,2.064-15.656,9.1-3.5,6.724-1.541,16.368,7.076,18.658,9.1,2.416,15.115-7.688,17.513-11.05a1.163,1.163,0,0,1,1.884,0c3.723,5.075,8.752,10.5,14.133,9.419C60.934,46,60.1,37.086,57.914,32.336M31.6,37.69a3.867,3.867,0,1,1,.969-5.382l.032.046a3.687,3.687,0,0,1-.75,5.159c-.084.062-.17.122-.26.177Zm18.6.352a3.867,3.867,0,1,1,.969-5.382l.032.046a3.687,3.687,0,0,1-.75,5.159c-.084.062-.17.122-.26.177Z" transform="translate(-1.149 -2.061)" fill="#fff"/>
        <path id="Path_916" data-name="Path 916" d="M42.13,42.734a.9.9,0,0,0-1.272-.089.927.927,0,0,0-.089.089l-3.813,4.507a.478.478,0,0,0,.055.673l.026.021a9.958,9.958,0,0,0,5.138,2.01,10.616,10.616,0,0,0,4.561-1.181.478.478,0,0,0,.2-.645.512.512,0,0,0-.065-.094Z" transform="translate(-3.635 -4.185)" fill="#fff"/>
        <path id="Path_917" data-name="Path 917" d="M32.429,8.978c-6.9-.045-14.557,4.191-20.163,10.5C8.2,24.048,3.091,36.694.549,43.292A8.465,8.465,0,0,0,1.874,51.6C6.29,57.01,15.493,65.906,33.3,66.024c16.314.117,24.625-7.148,28.527-12.484a11.815,11.815,0,0,0,1.8-10.275C61.9,37.307,58.226,27.041,52.295,19.884,45.535,11.826,39.315,9.023,32.429,8.978" transform="translate(0 -0.885)"/>
        <path id="Path_918" data-name="Path 918" d="M39.282,26.672c10.095-7.021,15.566-.9,18.64,5.841,2.217,4.876,3,14-4.2,15.4C48.2,48.989,43.1,43.41,39.3,38.182a1.2,1.2,0,0,0-1.929,0c-2.488,3.425-8.7,13.718-18.027,11.177-8.788-2.407-10.717-12.294-7.066-19.126,5.453-10.311,13.376-13.655,27-3.56" transform="translate(-1.039 -2.031)" fill="#fff"/>
        <path id="Path_919" data-name="Path 919" d="M36.431,51.893c1.154,1.271,3.605,3.867,5.011,5.1a.676.676,0,0,0,.9-.054l3.885-4.272a.135.135,0,0,0-.144-.225,11.193,11.193,0,0,1-9.527-.766.144.144,0,0,0-.171.216Z" transform="translate(-3.587 -5.097)" fill="#fff"/>
        <path id="Path_920" data-name="Path 920" d="M40.329,43.043l-3.966,4.6a.487.487,0,0,0-.005.689l.005.005a10.1,10.1,0,0,0,5.237,2.1,10.865,10.865,0,0,0,4.678-1.181.487.487,0,0,0,.208-.656v0l-.063-.1L41.6,43a.9.9,0,0,0-1.274-.023L40.3,43l-.045.045Z" transform="translate(-3.573 -4.215)" fill="#fff"/>
        <path id="Path_921" data-name="Path 921" d="M54.734,33.938A3.9,3.9,0,1,1,49.326,32.8a3.777,3.777,0,0,1,5.264.9Z" transform="translate(-4.692 -3.168)"/>
        <path id="Path_922" data-name="Path 922" d="M37.086,24.641a3.451,3.451,0,0,0,3.876.279L65.5,10.625a.676.676,0,0,0-.379-1.262l-26.562,2.2L8.262.043a.811.811,0,0,0-.784,1.388Z" transform="translate(-0.709 0)"/>
        <path id="Path_923" data-name="Path 923" d="M28.061,31.74a3.84,3.84,0,1,0,4.858,2.434.169.169,0,0,0,0-.1,3.669,3.669,0,0,0-4.507-2.452c-.126-.009-.2.054-.352.117" transform="translate(-2.509 -3.106)"/>
      </g>
    </g>
  </g>
</svg>
