<svg xmlns="http://www.w3.org/2000/svg" xmlns:xlink="http://www.w3.org/1999/xlink" width="96" height="96" viewBox="0 0 96 96">
  <defs>
    <clipPath id="clip-path">
      <rect id="Rectangle_111" data-name="Rectangle 111" width="78" height="78" fill="#fff"/>
    </clipPath>
  </defs>
  <g id="Hydra" transform="translate(-1214 -16)">
    <circle id="Ellipse_72" data-name="Ellipse 72" cx="48" cy="48" r="48" transform="translate(1214 16)" fill="#1a1818"/>
    <g id="Group_258" data-name="Group 258" transform="translate(1223.002 25.002)">
      <g id="Group_257" data-name="Group 257" transform="translate(-0.002 -0.002)" clip-path="url(#clip-path)">
        <path id="Path_346" data-name="Path 346" d="M47.147,10.351A36.795,36.795,0,1,0,83.941,47.146,36.795,36.795,0,0,0,47.147,10.351m0,3.679A33.116,33.116,0,1,0,80.263,47.146,33.116,33.116,0,0,0,47.147,14.03" transform="translate(-8.042 -8.041)" fill="#fff" fill-rule="evenodd"/>
        <path id="Path_347" data-name="Path 347" d="M139.686,66l.079.125c.185.418.282.646.151.987s-.445.7-.778.6c-.349-.1-.373-.56-.838-.657-.368-.077-.709.31-.818.592a.93.93,0,0,1-.753-.132,1.041,1.041,0,0,1-.349-.579,1.258,1.258,0,0,1,.15-.768c.118-.3.441-1.043.592-1.3l.331-.6a8.077,8.077,0,0,1,.62-1.026.135.135,0,0,1,.171.01c.051.127.1.135.194.32l.751,1.384c.034.066.036.1.077.171a1.279,1.279,0,0,1,.1.183l.048.141c.024.061.06.125.086.189a1.091,1.091,0,0,0,.19.352m-9.325-4.719a1.488,1.488,0,0,1,.863-1.1c1.253-.582,2.6.067,3.669.722.208.128.391.255.589.372l.905.578c.463.3.195.6-.14.845a8.078,8.078,0,0,1-3.307,1.518,4.578,4.578,0,0,1-2.416-1.078c-.169-.142-.164-.045-.164-.312Zm15.718,1.547c0,.293-.076.236-.236.371a5.859,5.859,0,0,1-1.133.691,2.167,2.167,0,0,1-1.953.169,9.358,9.358,0,0,1-2.776-1.525c-.515-.45.208-.77.517-.966,1.248-.79,2.819-1.962,4.383-1.515.513.147,1.2.647,1.2,1.229ZM127.6,55.218c-.053.08-.019.237,0,.442l.4,2.64a18.8,18.8,0,0,0,.442,1.847l.022.1a7.526,7.526,0,0,1,.365,1.665c.007.138-.014.076.031.148a1.139,1.139,0,0,1-.651,1.031c-.43.226-.737.354-.509,1.021.284.834.55,1.643.827,2.48.388,1.171.82.987,2.338.984a6.215,6.215,0,0,1,.745.075,4.152,4.152,0,0,1,.692.145c.459.146.929.3.909.731-.257.212-.482-.044-.906.279.022.132.522,1.658.545,1.7a9.577,9.577,0,0,0,1.049.621,2.251,2.251,0,0,0,.371.188c.012-.4-.1-1.28-.073-1.561l.36,0c.025.274.033.607.073.855.047.292,0,.579.062.869a9.907,9.907,0,0,0,1.244.536l.009-1.787.425.006c.039.293-.026,1.866.034,1.945a3.067,3.067,0,0,0,.768.258c.247.069.539.184.77.229.034-.21.011-1.224.012-1.571l0-.4c.035-.213.392-.095.392-.095l.051.031,0,2.027a11.86,11.86,0,0,0,1.563-.48c.029-.291.008-.687.008-.99,0-1.1-.106-.986.444-.966l0,1.78a14.487,14.487,0,0,0,1.373-.542l0-1.7.358.007c.01.293-.036.5-.036.739,0,.263,0,.526,0,.789l.741-.4c.107-.064.229-.122.358-.2.279-.167.235-.084.294-.235l.263-.817a6.284,6.284,0,0,0,.247-.841c-.346-.37-.834.021-.885-.341-.038-.268.2-.373.407-.476a5.761,5.761,0,0,1,2.546-.411c.648,0,1.238.034,1.518-.469.178-.319.851-2.457,1.025-2.972.29-.86-.2-.8-.659-1.143-.742-.554-.521-1.411-.3-2.217a30.684,30.684,0,0,0,.893-4.092l.231-2.236c.008-.156,0-.336,0-.494,0-.33.038-.606.036-.96,0-.184-.035-.3-.035-.494a4.646,4.646,0,0,0-.2-1.277,7,7,0,0,0-1.185-2.283l-.449-.539a1.723,1.723,0,0,0-.234-.261,6.935,6.935,0,0,0-.667-.6.693.693,0,0,1-.137-.112,11.569,11.569,0,0,0-2.112-1.351,13.093,13.093,0,0,0-1.4-.58c-.258-.093-.49-.163-.742-.247a7.455,7.455,0,0,0-1.728-.277,4.585,4.585,0,0,0-.485-.008c-.172-.006-.258-.041-.462-.039a17.866,17.866,0,0,0-1.964.018l-.912.064a5.349,5.349,0,0,0-1.681.307c-.264.082-.461.169-.73.258a12.317,12.317,0,0,0-3.213,1.772,8.484,8.484,0,0,0-2.281,2.7,6.738,6.738,0,0,0-.707,3.756c.006.168.041.254.04.463,0,.363.043.6.04.959" transform="translate(-99.078 -34.888)" fill="#fff" fill-rule="evenodd"/>
        <path id="Path_348" data-name="Path 348" d="M182.7,166.209c.07.081.044.045.137.089a.646.646,0,0,1,.084.041l2.977,1.324a3.386,3.386,0,0,0,1.266.06,2.886,2.886,0,0,0,.721-.179l2.6-1.169.02-.011,1.94-.835.018-.006.819-.312c.005,0,.06-.029.084-.039l.212-.082.016-.005.24-.1.019-.009.087-.026a.217.217,0,0,0,.055-.021l1.111-.436.021-.01.284-.087.019-.008,2.26-.806c.09-.023.143-.027.236-.043a2.815,2.815,0,0,1,.963.068c.158.034.261.087.432.124l1.14.362.016.007,1.746.813a7.474,7.474,0,0,1,1.331,1.176l.179.223a4.849,4.849,0,0,1,.609.752l.283.428c.165.3.36.573.5.894l.111.291a1.128,1.128,0,0,0,.045.109c.066.156.064.275.139.418-.211.111-.258.067-.249.307V171.1a2.6,2.6,0,0,1,.557.248.494.494,0,0,1-.025.223c-.086.285-.124.758-.187,1.115a.791.791,0,0,0-.035.24l-.672-.071c-.1.006-.122.066-.171.157l-.184.311c-.034.064-.063.1-.106.173l-.285.488a1.263,1.263,0,0,1-.1.18l.275.344.03.032.253.3c-.06.114-.192.2-.166.34a1.844,1.844,0,0,1-.211.3,5.007,5.007,0,0,1-.7.663c-.047.033,0,0-.063.042-.244-.157-.349-.365-.557-.521a11.744,11.744,0,0,0-1.28.53,8.152,8.152,0,0,0-.029,1.017,2.593,2.593,0,0,1-1.557.3c-.016-.066-.045-.333-.053-.419-.015-.152-.034-.242-.054-.4l-1.451-.215c-.085.122-.16.3-.239.442-.18.311-.17.45-.317.448-.121,0,.024.008-.048,0l-.089-.032-.539-.206a3.634,3.634,0,0,1-.706-.284c-.007-.179.2-.617.22-.826-.225-.163-.925-.835-1.1-.936-.124.044-.56.36-.712.447a8.613,8.613,0,0,1-.786-1.244,1.33,1.33,0,0,1,.311-.314,14.536,14.536,0,0,0-.392-1.419l-.742-.005a6.841,6.841,0,0,1-.011-.8c0-.287-.051-.437-.039-.735l.653-.056a11.142,11.142,0,0,0,.046-1.561c-.144-.141-.26-.2-.265-.464,0-.236.122-.4.119-.622a.72.72,0,0,0-.3.267,5.409,5.409,0,0,0-.65,1.02c-.665,1.382-1.077,1.9-.479,3.356.576,1.4,1.258,3.35,1.943,4.679l1.411,3.027a1.223,1.223,0,0,0,.2.5c.215.356-.015.323.574.45.1.022.217.047.307.061l1.1.227c.2.041.431.065.62.123s.432.058.623.117l.019.006.033.011.054.012a1.149,1.149,0,0,0,.479.05c.429.067.844.155,1.251.245a3.8,3.8,0,0,0,.668.089.791.791,0,0,0,.68-.409l2.517-2.959a13.78,13.78,0,0,0,2.92-5.833,23.724,23.724,0,0,0,.494-2.454c.074-.436.106-1.051.149-1.3a5.455,5.455,0,0,0,.07-.661c0-.271.042-.423.039-.682a21.415,21.415,0,0,0-.337-4.066,5.976,5.976,0,0,0-1.292-3.093,3.48,3.48,0,0,0-1.978-.933c-.415-.075-.881-.091-1.336-.151l-3.412-.229-1.415.045c-.2.029-.445.051-.63.069a12.535,12.535,0,0,0-2.464.449c-.189.051-.393.11-.576.17a3.629,3.629,0,0,1-.564.175c-.078-.179-.242-.372-.328-.582l-1.433.25c-.227.2.047.439-.247.585l-.841.367c-.281.127-.531-.351-.723-.382a13,13,0,0,0-1.291.683c-.01.121-.033.2-.041.3s.01.245-.007.333c-.029.152-.224.231-.346.3a7.824,7.824,0,0,1-.821.5c-.191-.136-.626-.531-.774-.608-.3.131-.865.58-1.208.736-.025.285,0,.519-.043.783-.123.744-1.175-.053-1.454-.232l-2.842-1.864c-.232-.148-.211-.208-.505-.059l-3.286,1.2,0,1.332c.142.12,3.51,1.447,3.944,1.642.09.041.165.071.237.1Z" transform="translate(-138.54 -124.156)" fill="#fff" fill-rule="evenodd"/>
        <path id="Path_349" data-name="Path 349" d="M37.887,173.289a6.182,6.182,0,0,0,.294,1.205l.408,1.108a.914.914,0,0,0,.07.147,3.322,3.322,0,0,0,.162.395l.172.385a2.036,2.036,0,0,0,.147.286l3.588,4.7a2.56,2.56,0,0,0,.433.446c.2.148.237.289.421.434a.815.815,0,0,0,.677.125c1.664-.293,3.288-.663,4.931-.976.375-.072.317-.01.486-.351l1.09-2.282c.179-.391.359-.77.538-1.169.658-1.47,1.137-2.587,1.75-4.122.079-.2.16-.455.236-.637.623-1.508.238-1.87-.365-3.183-.153-.333-.733-1.408-1.037-1.5-.05.1.1.408.1.587.01.3-.107.343-.262.494a7.358,7.358,0,0,0-.014.805c0,.051.051.724.061.755l.64.053a.712.712,0,0,1-.012.328l-.023.049a1.235,1.235,0,0,0-.031.391c0,.889.177.713-.8.713a1.875,1.875,0,0,1-.1.452l-.007.038c-.017.086.011-.018-.014.077l-.2.726c-.017.063-.018.026-.02.1,0,.2,0,.072.029.1a.824.824,0,0,1,.321.295,11.77,11.77,0,0,1-.785,1.244c-.21-.113-.486-.355-.712-.447-.156.084-.9.792-1.1.936l.235.821a12.037,12.037,0,0,1-1.466.551l-.481-.907-.843.119c-.149.03-.279.045-.427.061-.346.038-.092.139-.246.257l.013.027a2.554,2.554,0,0,1-.075.558,2.264,2.264,0,0,1-.87-.027,2.422,2.422,0,0,1-.678-.26l-.019-1.018a12.807,12.807,0,0,0-1.279-.53c-.229.153-.327.393-.557.521a4.671,4.671,0,0,1-1.213-1.317,5.67,5.67,0,0,1,.534-.681,2.869,2.869,0,0,0-.34-.654,5.377,5.377,0,0,0-.374-.614c-.149-.016-.52.056-.681.061-.116-.046-.021.027-.074-.086l-.266-1.584.586-.309v-1.622l-.267-.111c.035-.1.069-.267.1-.375a7.1,7.1,0,0,1,.419-.977,10.921,10.921,0,0,1,2.082-2.591A8.365,8.365,0,0,1,45.92,163.8a3.432,3.432,0,0,1,2.363-.179,5.181,5.181,0,0,1,.68.246c.3.08,1.363.5,1.754.635,1.342.47,3.667,1.441,4.986,2.037.353.159.743.335,1.073.5,1.388.7,2.248.924,3.608.3.524-.24,6.44-2.789,6.693-3.022l-.006-1.331c-.2-.076-.367-.17-.552-.248l-2.493-.966c-.266-.136-.28-.049-.5.1l-2.823,1.85c-1.653,1.138-1.431.236-1.477-.564-.257-.094-.9-.585-1.209-.734a4.872,4.872,0,0,0-.572.451l-.2.157a7.3,7.3,0,0,1-.842-.5c-.476-.289-.289-.206-.339-.655-.011-.1-.03-.145-.039-.272a14.565,14.565,0,0,0-1.287-.685c-.062.008-.435.364-.619.431-.364-.194-1.037-.381-1.087-.564s.043-.261-.089-.424a14.623,14.623,0,0,0-1.454-.253,3.529,3.529,0,0,1-.348.576c-.181-.035-.493-.162-.685-.225a17.477,17.477,0,0,0-5.252-.686c-.172,0-.211.041-.368.043l-1.362.041c-.155.018-.223.026-.4.034l-2.464.292a3.449,3.449,0,0,0-1.8.888,7.2,7.2,0,0,0-1.454,4.015c-.109.864-.1.843-.155,1.675a9.485,9.485,0,0,0-.02,1.783,3.09,3.09,0,0,1,.023.447l.128,1.229c.071.535.148,1.058.239,1.578.088.5.226,1,.323,1.492" transform="translate(-28.855 -124.15)" fill="#fff" fill-rule="evenodd"/>
        <path id="Path_350" data-name="Path 350" d="M177.908,190.214c0,.142-.008-.008.226.344a.617.617,0,0,0,.1.113l1.5,1.723c.076.1.084.145.221.181l3.174.627c.074.015.195.038.318.058l.464.1c.564.085,1.191.245,1.728.34a5.024,5.024,0,0,1,1.634.78c.092.074.143.094.234.169a10.462,10.462,0,0,1,1.02.991c.086.085.111.129.187.216a.506.506,0,0,1,.083.1l.6.819c.059.081.107.145.17.232l.038.054c.032.044.007.006.04.053l.233.386c.032.058.042.06.074.111a6.491,6.491,0,0,1,.4.795l.169.4c.045.1.049.21.091.311a4.713,4.713,0,0,1,.21,1,5.722,5.722,0,0,1,0,1.15c-.007.065,0,.119,0,.182a7.715,7.715,0,0,0-.093.8.968.968,0,0,1-.309.031,1.466,1.466,0,0,0-.108.17l-.528.926c-.052.084-.037.106-.089.19-.176.282-.138.123.029.432a.37.37,0,0,0,.171.2l-.6.791c-.042.055-.052.066-.095.122-.082.107-.078.047-.06.169-.034.091-.01.055-.079.124-.2-.023-.356-.276-.557-.314l-.9.591a2.858,2.858,0,0,0-.308.213l.19.716c-.111.064-1.39.578-1.483.579-.121-.2-.181-.547-.295-.721a3.219,3.219,0,0,0-.733-.024c-.25,0-.433-.044-.709-.04-.143.214-.26.607-.4.854a11.6,11.6,0,0,1-1.394-.368l.151-.831-1.077-.758a8.819,8.819,0,0,1-.743.539l-.959-1.208.562-.585a10.4,10.4,0,0,0-.483-1.2c-.323-.039-.621-.02-.935-.054l0-1.375a1.012,1.012,0,0,0,.375.03l.394-1.368c-.125-.179-.419-.328-.582-.526a7.074,7.074,0,0,1,.616-1.074l.5.086.564-.729c.051-.064.167-.208.191-.244.153-.231-.118-.515.065-.738a3.4,3.4,0,0,0,.383-.493,4.012,4.012,0,0,0-.777.092.541.541,0,0,0-.375.06l-.161.057a5.743,5.743,0,0,0-1.821,1.4l-.607.757a1.286,1.286,0,0,0-.069.64l.013,6.459c.011.059.055.182.074.261.027.11.04.207.064.307l.722,1.984.006.016.289.7c.036.084.036.052.078.138.091.187.157.338.257.517l.24.5c.075.134.093.092.235.136l3.514,1.044c.123.031.177.084.325.051a8.125,8.125,0,0,1,.923.264c.215.07.719.279.924.177a15.885,15.885,0,0,0,2.259-1.269c.227-.149.487-.323.69-.486l.971-.791c.121-.089.182-.178.29-.268l.615-.561c.263-.212,1.435-1.492,1.719-1.777l.293-.294c.107-.106.175-.2.274-.314a13.536,13.536,0,0,0,1.1-1.248,4.218,4.218,0,0,0,.888-1.435,1.487,1.487,0,0,0-.053-.992c-.576-1.977-1.11-3.3-1.834-5.157a36.216,36.216,0,0,0-1.934-3.913,3.835,3.835,0,0,1-.731-1.62c-.07-.255-.093-.17-.264-.323a2.775,2.775,0,0,0-.317-.252c-.09.056-.21.17-.315.243l-1.265-.63a7.063,7.063,0,0,0,.031-.809,8.03,8.03,0,0,0-.939-.329c-.351-.114-.538-.25-.7-.133-.106.079-.453.387-.557.386l-1.365-.507,0-.908c-.083-.066-1.324-.631-1.491-.685l-.611.6a4.472,4.472,0,0,1-1.737-1.294,10.825,10.825,0,0,1-.839-1.173c-.19-.3-.151-.344-.334-.409-.274-.1-1.522-.594-1.618-.6-.038.181-.012,2.407-.012,2.794a13.82,13.82,0,0,0,.047,2.05c.1.158.24.233.3.394" transform="translate(-137.962 -143.737)" fill="#fff" fill-rule="evenodd"/>
        <path id="Path_351" data-name="Path 351" d="M101.448,192.205c-.088.089-.056.059-.094.179a5.75,5.75,0,0,1-.474.855l-.476.824a1.066,1.066,0,0,1-.093.185.944.944,0,0,0-.089.158c-.038.081-.058.108-.1.182l-1.781,4.005a1.2,1.2,0,0,0-.076.172l-.209.562-.008.018-.056.184-.006.018-.4,1.146c-.042.12-.08.266-.124.384l-.053.14c-.029.084-.043.15-.065.217l-.3.96a1.744,1.744,0,0,0-.139.7,2.2,2.2,0,0,0,.029.253,1.344,1.344,0,0,0,.051.23,3.281,3.281,0,0,0,.546.968c.009.016.034.064.045.079.063.086.017.013.076.079s.053.082.1.146l.606.725.062.062.181.222c.618.613,1.192,1.256,1.811,1.871l.15.159.015.016.205.228a2.991,2.991,0,0,0,.515.537l.254.21c.3.3.624.552.936.827.032.029.034.042.077.077l.3.226c.108.084.187.159.287.239s.207.141.31.216l1.7,1.054c.167.087.482.32.656.286.5.152.162.3,1.305-.071.435-.14.848-.252,1.317-.388,1.072-.312,2.275-.706,3.292-.974.277-.073.206-.039.412-.452.1-.2.189-.38.278-.556a22.424,22.424,0,0,0,1.188-3.119,21.836,21.836,0,0,0,.094-3.3v-3.434c0-.792.074-.557-.264-1l-.393-.473a5.755,5.755,0,0,0-1.676-1.324,3.3,3.3,0,0,0-1.406-.327,3.061,3.061,0,0,0,.269.348c.063.077.3.278.131.414-.129.4-.014.5.221.782l.513.665c.039.033.045.064.162.036a1.174,1.174,0,0,1,.435-.078c.014.175.059.138.122.249l.4.772a1.439,1.439,0,0,0-.146.1,1.647,1.647,0,0,1-.442.331l.206.752a5.522,5.522,0,0,1,.2.764c.072,0,.147,0,.218,0h.186l0,1.293a7.341,7.341,0,0,0-.908.056c-.059.114-.464,1.058-.478,1.158.063.143.423.428.554.619a5.069,5.069,0,0,1-.47.617,4.253,4.253,0,0,1-.493.586,6.236,6.236,0,0,1-.646-.466c-.145-.1-.189-.016-.472.188l-.681.492.114.718-.017.011c.078.064.047-.029.054.113-.066.038-1.329.37-1.422.378l-.372-.862-1.446.053c-.115.159-.185.579-.311.733-.093-.01-1.394-.526-1.476-.581.043-.225.133-.5.186-.712-.131-.133-.988-.658-1.217-.822-.189.08-.37.284-.526.332a13.013,13.013,0,0,1-.894-1.212c.071-.134.191-.267.279-.4a13.436,13.436,0,0,0-.671-1.253c-.2-.347-.109-.139-.416-.232a9.19,9.19,0,0,1-.144-1.764,7.7,7.7,0,0,1,2.077-4.657,7.1,7.1,0,0,1,1.453-1.427,4.772,4.772,0,0,1,1.246-.675,10.125,10.125,0,0,1,1.575-.371c1.016-.2,2.239-.414,3.214-.63.251-.055.523-.111.789-.155.687-.115.572-.016,1.174-.756l.67-.782c.094-.115.13-.165.227-.267l.881-1.039c.069-.137.033-4.474.025-4.811-.122.008-1.263.455-1.46.533-.379.152-.311.152-.509.476-.145.238-.23.36-.409.612a6.121,6.121,0,0,1-.939,1.074,3.362,3.362,0,0,1-1.236.773l-.59-.578a14.943,14.943,0,0,0-1.5.656l-.006.934c-.288.1-.581.216-.9.33-.587.209-.39.255-.817-.067-.359-.271-.3-.239-.89-.031-.321.114-.628.232-.95.322,0,.726.078.788-.124.9-.063.034-.115.056-.167.082l-.93.463c-.329-.147-.194-.452-.789.138-.191.189-.146.434-.24.6" transform="translate(-75.297 -143.747)" fill="#fff" fill-rule="evenodd"/>
        <path id="Path_352" data-name="Path 352" d="M209.952,94.252a1.382,1.382,0,0,1,.275.358c-.033.117-.214.419-.283.578a5.828,5.828,0,0,0-.209.655,3.35,3.35,0,0,1-.712-.038.91.91,0,0,0-.123.006l-.1.017-.369,1.54a6.826,6.826,0,0,1,.631.477,2.994,2.994,0,0,1-.144.378,3.951,3.951,0,0,0-.283,1.173.836.836,0,0,1-.481.091c-.215,0-.315.038-.534.038-.092.306-.2.689-.313,1.016-.033.1-.057.177-.082.264-.045.155-.059.14.021.25a2.326,2.326,0,0,0,.167.179c.457.527.489.523.24,1.077a8.254,8.254,0,0,1-.734,1.277c-.407.567-.852.39-1.52.45a6.11,6.11,0,0,1-.649.035l-1.888.086a5.56,5.56,0,0,0-.37.694c-.213.43-1.05,1.92-1.092,2.147a6.071,6.071,0,0,0,1.692.375,3.278,3.278,0,0,0,.514.013,3.612,3.612,0,0,0,1.429-.052c.453-.2.944-.454,1.39-.685.468-.242.937-.441,1.395-.677,1.259-.648,2.226-.946,3.037-2.16a4.724,4.724,0,0,0,.378-.644,9.016,9.016,0,0,0,.55-1.519c.148-.566.266-1.08.4-1.681.124-.574.212-1.157.355-1.72a10.78,10.78,0,0,1,1.2-2.948,5.321,5.321,0,0,1,1-1.075,5.775,5.775,0,0,1,2.835-1.309,7.161,7.161,0,0,1,1.89-.058l.259.024.015.42,1.115.555.335-.326a10.92,10.92,0,0,1,1.019.765,1.029,1.029,0,0,1-.141.23c-.254.392-.08.159.1.638-.029.142.035.138.139.335a.947.947,0,0,0,.206.289c.022.013,0,.047.138,0a3.741,3.741,0,0,0,.549-.157c0,.145.013.081.061.218l.119.393.013.035.179.529a.518.518,0,0,0-.3.072l-.257.052V98.2l.434.216c.054.026.1.036.154.062a2.361,2.361,0,0,1-.088.478,4.005,4.005,0,0,0-.1.543,1.356,1.356,0,0,1-.416-.074c-.286-.06-.259-.142-.533.269l-.376.552a.6.6,0,0,0,0,.119.3.3,0,0,0,.093.049,1.621,1.621,0,0,1,.313.508l-.869.863a4.363,4.363,0,0,1-.433-.483,6.639,6.639,0,0,0-.984.371l-.009.774-1.146-.007v-.25c-.179-.056-.375-.1-.574-.163a1,1,0,0,0-.6-.094c-.062.007-.06,0-.131.126a.341.341,0,0,1-.148.163l.023.093c-.036.068.006.029-.055.066l-1.011-.489.079-.54-.749-.482c-.181-.1-.134-.008-.329,0a2.641,2.641,0,0,1-.264-.3,1.611,1.611,0,0,0-.268-.274c-.016.243-.008.509-.008.755s0,.2.266.458c.126.124.264.228.394.348l2.006,1.459c.074.056.032.009.086.085.016.044-.016.008.043.067l.257.176a4.552,4.552,0,0,0,.52.316,10.249,10.249,0,0,0,1.419.406c.311.054.661.134.973.172.195.024.316.029.5.057.2.031.286,0,.463.031l.743-.067c.052-.03.047-.028.1-.058l.04-.023.037-.025.018-.013,1.985-1.126.1-.039.182-.074.032-.012.033-.01.017,0,.07-.016c.076-.024.106-.042.2-.064a.591.591,0,0,0,.325-.165l.063-.053a.408.408,0,0,0,.13-.256,1.5,1.5,0,0,0,.068-.489c0-.42.045-2.117-.018-2.365-.033-.133,0-.2-.029-.341a25.32,25.32,0,0,0-1.226-3.262c-.053-.129-.125-.251-.177-.38s-.111-.239-.18-.377l-.382-.763c-.246-.493-.5-.974-.783-1.445-.212-.352-.4-.7-.632-1.039-.075-.107-.038-.068-.159-.119l-.105-.049c-.053-.026-.052-.025-.1-.052l-.187-.076-.017-.006-.142-.065a.769.769,0,0,1-.081-.044l-1.893-.83a.735.735,0,0,0-.078-.041l-.015-.007-.034-.014-.019-.008c-.053-.021-.071-.025-.112-.041l-.1-.051-.019-.012-.663-.3a1.19,1.19,0,0,0-.2-.074l-.122-.063a10,10,0,0,0-2.258-.094c-.157-.013-.34-.02-.53-.035-.22-.016-.153.038-.153.377a2.2,2.2,0,0,0-.393.009l-.331.1c-.152.033-.534.268-.606.26a.688.688,0,0,1-.211-.13c-.059-.041-.078-.093-.156-.126a.286.286,0,0,0-.275.046l-.1.057a5.084,5.084,0,0,0-.537.267,2.81,2.81,0,0,1-.61.318c0,.249.062.4.062.65-.062.032-.1.063-.157.09a.933.933,0,0,0-.162.086,2.19,2.19,0,0,0-.262.233l-.295.324-.013.018-.013.018-.013.017-.013.018-.047.077c-.054.107-.015,0-.045.11-.121-.029-.265-.058-.38-.084a.593.593,0,0,1-.1-.027c-.106-.037,0-.012-.09-.033a1.057,1.057,0,0,0-.238-.01c-.013.156-.109.213-.184.333l-.359.578c-.051.066-.291.36-.242.444.06.1.015.034.074.051" transform="translate(-156.502 -70.072)" fill="#fff" fill-rule="evenodd"/>
        <path id="Path_353" data-name="Path 353" d="M42.475,92.453a28.059,28.059,0,0,0-1.6,2.843c-.252.5-.486.986-.709,1.519-.392.937-.6,1.476-.923,2.419a30.137,30.137,0,0,0-.081,3.2c0,.665.209.778.684.923l.412.147c.334.115.808.41,1.12.551.161.072.188.187.384.189.348.123.72.547,1.083.574a11.428,11.428,0,0,0,2.9-.405,5.61,5.61,0,0,0,2.189-1.13c.23-.152,1.462-1.042,1.647-1.228a1.344,1.344,0,0,1,.23-.2c.137-.1.369-.294.383-.469a7.131,7.131,0,0,0-.01-.848c-.147.075-.453.557-.535.577-.2-.029-.128-.111-.292-.025l-.778.513c.007.126.068.372.071.491a7.076,7.076,0,0,1-1.013.516c-.138-.12-.229-.331-.371-.482l-1.107.3v.256l-1.145,0,0-.779a8.625,8.625,0,0,0-1-.374l-.43.484a7.915,7.915,0,0,1-.865-.886c.06-.1.1-.175.172-.29.238-.376.262-.252-.1-.74a3.4,3.4,0,0,0-.318-.415l-.68.148a4.5,4.5,0,0,1-.124-.559,2.269,2.269,0,0,1-.087-.585c.17-.105.413-.219.583-.305l0-1.122a2.07,2.07,0,0,0-.566-.171,12.114,12.114,0,0,1,.4-1.251l.692.164c.092-.17.2-.359.294-.514a3.163,3.163,0,0,0,.287-.518c-.069-.175-.213-.249-.255-.433a1.063,1.063,0,0,1,.349-.268l.057.056a.38.38,0,0,1,.128-.13c.063-.048.089-.077.151-.128l.25-.183c.032-.036.015.007.033-.06.211.141.279.436.564.256l.71-.374c.042-.02.063-.027.108-.047.318-.141.176-.1.161-.331s.06-.216.654-.216c.4,0,.75.016,1.114.031a3.684,3.684,0,0,1,.464.093l.646.157c.07.023.138.034.215.065l.983.44c.059.039.115.094.175.131l.3.2c.051.039.106.077.159.119l.467.4a4.935,4.935,0,0,1,1.03,1.384l.6,1.439a1.654,1.654,0,0,1,.071.21l.593,2.555c0,.005,0,.015,0,.02s0,.014,0,.018l.272,1.213a.491.491,0,0,0,.021.071l.087.343a.943.943,0,0,0,.065.214l.093.2c.058.049.366.889.45,1.056.067.134.109.184.176.314a4.829,4.829,0,0,0,2.079,1.882c1.32.607,2.682,1.329,4.017,1.952a2.934,2.934,0,0,0,.95.042c.259-.028.713-.015.924-.063.1-.022.333-.041.441-.053a4.248,4.248,0,0,0,.435-.072,8.009,8.009,0,0,0,.778-.24c-.027-.154-.725-1.489-.894-1.784-.119-.209-.508-1.025-.569-1.055-.426-.033-.869-.04-1.3-.045l-1.266-.078c-1.2-.036-1.3.026-2.01-1.289-.079-.146-.154-.314-.218-.459-.316-.718-.048-.584.424-1.25.061-.086.059-.082.021-.209a7.276,7.276,0,0,0-.429-1.281c0,.008-.019-.006-.026-.008l-.027-.007-.159-.025c-.22-.042-.684-.007-.76-.1l-.171-.822a4.552,4.552,0,0,1-.25-.768c.187-.115.457-.376.609-.444l-.373-1.563c-.338-.009-.577.047-.931.034-.3-1.367-.691-.937-.318-1.484.043-.063.083-.108.127-.181l-.8-1.265c-.282.014-.511.132-.755.163a2.24,2.24,0,0,0-1.034-1c0-.793.248-.539-.411-.9-1.119-.608-.844-.5-1.359-.16-.21-.077-.372-.2-.616-.278a2.29,2.29,0,0,0-.774-.121c0-.065.01-.323-.042-.367-.03-.016-1.912.018-2.158.018a1.465,1.465,0,0,0-.914.212Z" transform="translate(-30.427 -70.313)" fill="#fff" fill-rule="evenodd"/>
        <path id="Path_354" data-name="Path 354" d="M39.1,0A39.1,39.1,0,1,0,78.2,39.1,39.1,39.1,0,0,0,39.1,0m0,1.2A37.9,37.9,0,1,0,77,39.1,37.9,37.9,0,0,0,39.1,1.2" transform="translate(0.002 0.002)" fill="#fff" fill-rule="evenodd"/>
      </g>
    </g>
  </g>
</svg>
