<svg xmlns="http://www.w3.org/2000/svg" xmlns:xlink="http://www.w3.org/1999/xlink" width="96" height="96" viewBox="0 0 96 96">
  <defs>
    <clipPath id="clip-path">
      <rect id="Rectangle_201" data-name="Rectangle 201" width="77.845" height="61.654" fill="none"/>
    </clipPath>
  </defs>
  <g id="hydra" transform="translate(-756 -370)">
    <circle id="Ellipse_72" data-name="Ellipse 72" cx="48" cy="48" r="48" transform="translate(756 370)" fill="#1a1818"/>
    <g id="Group_443" data-name="Group 443" transform="translate(765 382)">
      <g id="Group_442" data-name="Group 442" clip-path="url(#clip-path)">
        <path id="Path_773" data-name="Path 773" d="M70.582,36.743a29.27,29.27,0,0,1-1.14,5.733,14.354,14.354,0,0,1-2.351,4.58,18.19,18.19,0,0,1-8.973,5.974c-.377.124-.749.27-1.134.36a.91.91,0,0,0-.751.665,5.268,5.268,0,0,1-1.994,2.251q-1.093.71-2.184,1.422a.881.881,0,0,1-.563.225,8.606,8.606,0,0,1-5.279.481,11.8,11.8,0,0,1-2.531-.71c-.178-.076-.346-.176-.53-.241A27.88,27.88,0,0,1,37,54.016a64.37,64.37,0,0,1-8.488-7.6,1.348,1.348,0,0,1-.337-.521c-1.957-2.149-3.882-4.325-5.678-6.611-.269-.343-.441-.3-.742-.065-.727.56-.74.547-1.309-.217-.874-1.173-1.733-2.357-2.624-3.517-.234-.3-.223-.449.1-.679q1.984-1.428,3.925-2.915c.323-.248.462-.183.679.117.943,1.3,1.9,2.6,2.877,3.876.251.327.237.486-.1.728-.778.561-.769.583-.134,1.346.975,1.171,1.89,2.392,2.976,3.467a48.632,48.632,0,0,0,3.983,4.335,46.139,46.139,0,0,0,9.248,7.463,15.107,15.107,0,0,0,6.189,2.257,5.679,5.679,0,0,0,3.777-.815,20.645,20.645,0,0,0,2.293-2.2,1.679,1.679,0,0,0,.627-1.048,27.014,27.014,0,0,0,.551-8.661c-.6-7.207-3.044-13.877-6.034-20.379a67.91,67.91,0,0,0-3.168-6.257,17.147,17.147,0,0,0-1.1-2.1c-1.2-2.178-2.47-4.311-3.75-6.44-.239-.4-.419-.5-.849-.251-.779.452-.795.423-1.218-.391-.674-1.3-1.337-2.6-2.029-3.884-.178-.332-.211-.5.184-.7Q39.029,1.266,41.176.1c.351-.19.48-.118.649.217Q42.91,2.473,44.051,4.6c.182.34.2.517-.2.715-.969.486-.962.51-.4,1.455,1.76,2.937,3.452,5.912,5.025,8.954.076.147.17.285.256.428.372.189.477.572.636.9a113.8,113.8,0,0,1,4.7,10.81,57.669,57.669,0,0,1,3.246,13.381,29.689,29.689,0,0,1,.194,5.315,1.15,1.15,0,0,0-.024.731c-.043.765-.082,1.532-.2,2.291-.054.357.067.456.409.319.521-.208,1.044-.409,1.544-.666.2-.1.378-.269.631-.217a.915.915,0,0,0,.576-.205,12.888,12.888,0,0,0,6.483-8.361c.424-1.6.619-3.241.892-4.867.1-.212-.012-.454.091-.666l.033-.59c.114-.248-.028-.527.1-.774q.017-.3.033-.609c.1-.208-.02-.446.091-.653l.033-.6c.1-.209-.017-.448.092-.656q.016-.3.033-.6c.1-.212-.013-.452.091-.663a24.574,24.574,0,0,1,.786-4.86.414.414,0,0,1,.377-.276,11.024,11.024,0,0,1,2.154,0c.319.031.494.2.342.551-.21,1.008-.456,2.009-.618,3.024" transform="translate(-11.558 0)" fill="#1c3bdd"/>
        <path id="Path_774" data-name="Path 774" d="M123.568,117.052a28.086,28.086,0,0,0,1.994-2.251,11.7,11.7,0,0,0,5.37,2.516,6.526,6.526,0,0,0,5.6-1.547,11.985,11.985,0,0,0,2-2.158,50.223,50.223,0,0,0,4.029-6.92,66.575,66.575,0,0,1,4.158-7.425c.427-.617.9-1.2,1.353-1.8a10.269,10.269,0,0,1,4.452-3.135c.445-.142.365-.474.331-.76-.072-.594.117-.791.742-.771,1.525.049,3.052.031,4.578.007.437-.007.572.121.565.562q-.037,2.352,0,4.7c.007.452-.153.561-.577.555-1.5-.021-3.011-.04-4.515.007-.627.02-.9-.138-.786-.787a3.934,3.934,0,0,0,0-.526,12.539,12.539,0,0,0-4.825,5.418,25.259,25.259,0,0,0-1.84,3.264,85.5,85.5,0,0,1-4.668,8.427,19.54,19.54,0,0,1-3.137,3.652,8.946,8.946,0,0,1-9.324,1.9,19.284,19.284,0,0,1-5.5-2.933" transform="translate(-80.888 -60.745)" fill="#6698fe"/>
        <path id="Path_775" data-name="Path 775" d="M133.881,58.927a10.178,10.178,0,0,1-2.813,1.271c.105-1.054.2-2.041.3-3.027a1.2,1.2,0,0,1,.085-.645,36.849,36.849,0,0,0,.4-8.865c-.237-3.376-.617-6.739-.875-10.112-.163-2.122-.309-4.251-.269-6.381a37.241,37.241,0,0,1,.356-4.556.769.769,0,0,1,.231-.563,32.05,32.05,0,0,1,1.269-4.7c.167-.423-.141-.331-.35-.341-.827-.039-.828-.037-.828-.843,0-1.506.01-3.012-.007-4.518,0-.372.1-.515.49-.51q2.415.028,4.832,0c.392,0,.5.139.494.512-.016,1.611-.019,3.222,0,4.832.006.413-.125.6-.532.522-.605-.113-.9.18-1.109.715a23.062,23.062,0,0,0-1.243,4.325,50.489,50.489,0,0,0-.088,12.691c.34,3.977.842,7.943.886,11.94a22.442,22.442,0,0,1-1.228,8.254" transform="translate(-85.557 -9.908)" fill="#6698fe"/>
        <path id="Path_776" data-name="Path 776" d="M32,158a14.558,14.558,0,0,0,5.06.9,18.579,18.579,0,0,0,2.873-.486,8.366,8.366,0,0,1-2.651,1.336,21.43,21.43,0,0,1-10.041,1.1,52.45,52.45,0,0,1-9.792-2.247,2.39,2.39,0,0,0-.844-.2A28.192,28.192,0,0,0,9.056,156.5a2.994,2.994,0,0,0-1.64.311c-.268.146-.39.245-.075.521.747.654.725.669.063,1.387-.963,1.044-1.926,2.09-2.872,3.149-.255.285-.42.358-.743.054-1.172-1.1-2.373-2.173-3.574-3.243-.249-.222-.306-.362-.045-.64,1.129-1.2,2.237-2.428,3.339-3.656.193-.215.329-.284.547-.046.154.168.353.295.516.456s.275.2.458.006c1.355-1.412,3.087-1.434,4.841-1.228a37.9,37.9,0,0,1,6.419,1.63c.1.03.2.042.3.063a4.854,4.854,0,0,1,1.869.43,50.4,50.4,0,0,0,7.288,1.813,22.959,22.959,0,0,0,4.175.349,8.169,8.169,0,0,1,1.438.028A4.152,4.152,0,0,1,32,158" transform="translate(0 -100.467)" fill="#6698fe"/>
        <path id="Path_777" data-name="Path 777" d="M77.448,90.913a5.154,5.154,0,0,1-2.293,2.2c-2.221-2.282-3.038-5.229-3.858-8.17-1.088-3.9-1.876-7.884-3.146-11.736a21.756,21.756,0,0,0-3.461-7.047,7.927,7.927,0,0,0-4.237-2.861c-.461-.12-.624-.048-.6.47.038.823,0,.824-.82.824-1.486,0-2.972-.013-4.457.008-.405.006-.54-.1-.534-.524q.037-2.417,0-4.834c-.007-.445.167-.512.549-.507,1.569.017,3.14.029,4.708-.006.493-.011.645.15.566.6-.109.62.132.82.774.913a9.851,9.851,0,0,1,6.7,4.438,29.788,29.788,0,0,1,3.942,8.759c1.148,3.756,1.935,7.608,3,11.386A23.914,23.914,0,0,0,75.8,89a3.9,3.9,0,0,0,1.644,1.917" transform="translate(-35.376 -38.442)" fill="#6698fe"/>
        <path id="Path_778" data-name="Path 778" d="M57.815,98.036a1.08,1.08,0,0,1,.952-1.18,1.113,1.113,0,0,1,.909,1.17,1.129,1.129,0,0,1-.929,1.215,1.1,1.1,0,0,1-.932-1.2" transform="translate(-37.846 -63.402)" fill="#fae503"/>
        <path id="Path_779" data-name="Path 779" d="M63.242,93.721a1.085,1.085,0,0,1,.911-1.215,1.232,1.232,0,0,1,.045,2.383c-.524.025-.947-.492-.956-1.168" transform="translate(-41.398 -60.555)" fill="#fae503"/>
        <path id="Path_780" data-name="Path 780" d="M55.255,105.593c0-.677.419-1.19.947-1.174a1.1,1.1,0,0,1,.907,1.163c.008.638-.433,1.22-.927,1.222a1.113,1.113,0,0,1-.927-1.212" transform="translate(-36.17 -68.353)" fill="#fae503"/>
        <path id="Path_781" data-name="Path 781" d="M57.815,113.262c.013-.672.446-1.186.97-1.155a1.117,1.117,0,0,1,.891,1.183c0,.638-.455,1.213-.948,1.2a1.128,1.128,0,0,1-.913-1.228" transform="translate(-37.846 -73.385)" fill="#fae503"/>
        <path id="Path_782" data-name="Path 782" d="M82.685,113.309c-.007.668-.437,1.2-.948,1.181a1.131,1.131,0,0,1-.9-1.183,1.1,1.1,0,0,1,.932-1.2c.523,0,.922.527.916,1.2" transform="translate(-52.917 -73.385)" fill="#fbe603"/>
        <path id="Path_783" data-name="Path 783" d="M63.24,117.64c0-.677.405-1.194.933-1.185a1.1,1.1,0,0,1,.921,1.214,1.133,1.133,0,0,1-.918,1.168c-.506.013-.935-.535-.936-1.2" transform="translate(-41.397 -76.232)" fill="#fae503"/>
        <path id="Path_784" data-name="Path 784" d="M82.689,98.049a1.076,1.076,0,0,1-.934,1.193,1.12,1.12,0,0,1-.91-1.228,1.087,1.087,0,0,1,.914-1.156c.52-.011.931.515.931,1.191" transform="translate(-52.921 -63.404)" fill="#fae603"/>
        <path id="Path_785" data-name="Path 785" d="M77.306,117.638c0,.67-.415,1.211-.925,1.2a1.1,1.1,0,0,1-.9-1.227,1.058,1.058,0,0,1,.9-1.155c.531-.011.928.494.929,1.181" transform="translate(-49.409 -76.234)" fill="#fbe603"/>
        <path id="Path_786" data-name="Path 786" d="M71.195,119.559c.009.679-.382,1.2-.905,1.21-.508.008-.9-.473-.919-1.126-.019-.708.4-1.27.93-1.254a1.088,1.088,0,0,1,.895,1.171" transform="translate(-45.409 -77.497)" fill="#fbe603"/>
        <path id="Path_787" data-name="Path 787" d="M85.27,105.677c-.025.635-.449,1.15-.933,1.134a1.134,1.134,0,0,1-.9-1.237c.015-.67.447-1.178.975-1.146s.886.57.859,1.249" transform="translate(-54.617 -68.358)" fill="#fbe603"/>
        <path id="Path_788" data-name="Path 788" d="M77.307,93.711c0,.677-.419,1.2-.938,1.18a1.238,1.238,0,0,1,.022-2.382c.518,0,.92.525.916,1.2" transform="translate(-49.409 -60.557)" fill="#fbe603"/>
        <path id="Path_789" data-name="Path 789" d="M71.192,91.7a1.1,1.1,0,0,1-.895,1.227c-.518.015-.929-.508-.932-1.185s.4-1.2.922-1.188a1.052,1.052,0,0,1,.9,1.147" transform="translate(-45.407 -59.275)" fill="#fbe603"/>
        <path id="Path_790" data-name="Path 790" d="M167.14,61.038c-.018-.161.006-.382-.224-.375a10.126,10.126,0,0,0-2.649.1c-.284-.265-.631-.112-.947-.126-.292-.013-.459-.046-.456-.406.016-1.689.012-3.38,0-5.07,0-.3.111-.4.4-.394q2.5.014,5.008,0c.347,0,.416.157.415.459-.008,1.648-.016,3.3,0,4.944.005.427-.2.462-.536.465-.378,0-.861-.192-1.019.4" transform="translate(-106.611 -35.853)" fill="#1b3bdd"/>
        <path id="Path_791" data-name="Path 791" d="M132.415,135.034l.134.133-.133.489a.474.474,0,0,1,0-.622" transform="translate(-86.603 -88.394)" fill="#1b33a0"/>
        <path id="Path_792" data-name="Path 792" d="M90.861,166.209,91.1,166l.378.2-.616.01" transform="translate(-59.478 -108.664)" fill="#27428b"/>
      </g>
    </g>
  </g>
</svg>
