<svg xmlns="http://www.w3.org/2000/svg" width="96" height="96" viewBox="0 0 96 96">
  <g id="Infor" transform="translate(-782 -16)">
    <circle id="Ellipse_69" data-name="Ellipse 69" cx="48" cy="48" r="48" transform="translate(782 16)" fill="#d71e25"/>
    <g id="g2156" transform="translate(787.237 27.728)">
      <path id="path1399" d="M108.709,171.455h5.419v17.559h-5.419Z" transform="translate(-101.946 -138.995)" fill="#fff"/>
      <path id="path1401" d="M111.3,171.754h5.2v1.613s.9-2.046,5.2-2.047c5.491,0,6.5,3.613,6.5,8.31v9.682h-5.419v-8.6c0-2.024-.036-4.624-2.818-4.624-2.818,0-3.252,2.2-3.252,4.48v8.743H111.3Z" transform="translate(-96.223 -139.293)" fill="#fff"/>
      <path id="path1403" d="M117.466,175.363c0-3.83.975-7.081,6.864-7.081a13.175,13.175,0,0,1,3.18.325l-.253,4.588a4.991,4.991,0,0,0-1.77-.361c-1.734,0-2.6.542-2.6,2.854v2.782h4.01v4.336h-4.01v13.223h-5.419Z" transform="translate(-82.59 -146.009)" fill="#fff"/>
      <path id="path1405" d="M130.378,171.32c5.418,0,9.755,3.612,9.755,9.212s-4.336,9.212-9.755,9.212-9.755-3.613-9.755-9.212,4.335-9.212,9.755-9.212m0,13.656a4.445,4.445,0,1,0-4.335-4.444,4.107,4.107,0,0,0,4.335,4.444" transform="translate(-75.613 -139.293)" fill="#fff"/>
      <path id="path1407" d="M127.362,171.774h5.419v1.535s1.414-2.218,6.937-1.981v4.757a8.356,8.356,0,0,0-2.312-.361c-4.118,0-4.625,2.963-4.625,6.467v7.142h-5.419Z" transform="translate(-60.719 -139.314)" fill="#fff"/>
      <path id="path1409" d="M108.709,172.209l5.419-3.713V175.1h-5.419Z" transform="translate(-101.946 -145.535)" fill="#fff"/>
    </g>
  </g>
</svg>
