<svg xmlns="http://www.w3.org/2000/svg" xmlns:xlink="http://www.w3.org/1999/xlink" width="96" height="96" viewBox="0 0 96 96">
  <defs>
    <linearGradient id="linear-gradient" x1="1.393" y1="-0.411" x2="0.589" y2="0.408" gradientUnits="objectBoundingBox">
      <stop offset="0" stop-color="#0052cc"/>
      <stop offset="0.877" stop-color="#fff"/>
      <stop offset="1" stop-color="#fff"/>
    </linearGradient>
    <linearGradient id="linear-gradient-2" x1="1.474" y1="-0.432" x2="0.554" y2="0.447" gradientUnits="objectBoundingBox">
      <stop offset="0" stop-color="#0052cc"/>
      <stop offset="0.89" stop-color="#fff"/>
      <stop offset="1" stop-color="#fff"/>
    </linearGradient>
  </defs>
  <g id="jira" transform="translate(-926 -195)">
    <circle id="Ellipse_76" data-name="Ellipse 76" cx="48" cy="48" r="48" transform="translate(926 195)" fill="#2684ff"/>
    <g id="jira-1" transform="translate(944 213)">
      <path id="Path_396" data-name="Path 396" d="M150.366,0H121.707a12.937,12.937,0,0,0,12.937,12.937h5.279v5.1a12.937,12.937,0,0,0,12.929,12.929V2.486A2.486,2.486,0,0,0,150.366,0Z" transform="translate(-93.338)" fill="#fff"/>
      <path id="Path_397" data-name="Path 397" d="M89.531,61.262H60.872A12.937,12.937,0,0,0,73.8,74.191H79.08V79.3a12.937,12.937,0,0,0,12.937,12.92V63.749a2.486,2.486,0,0,0-2.486-2.486Z" transform="translate(-46.683 -46.982)" fill="url(#linear-gradient)"/>
      <path id="Path_398" data-name="Path 398" d="M28.659,122.489H0a12.937,12.937,0,0,0,12.937,12.937h5.3v5.1a12.937,12.937,0,0,0,12.912,12.929V124.975A2.486,2.486,0,0,0,28.659,122.489Z" transform="translate(0 -93.938)" fill="url(#linear-gradient-2)"/>
    </g>
  </g>
</svg>
