<svg xmlns="http://www.w3.org/2000/svg" width="96" height="96" viewBox="0 0 96 96">
  <g id="Looker" transform="translate(-180 -1651)">
    <circle id="Ellipse_107" data-name="Ellipse 107" cx="48" cy="48" r="48" transform="translate(180 1651)" fill="#652b81"/>
    <path id="Path_800" data-name="Path 800" d="M669.685,32.689a18.465,18.465,0,0,0-7.9,1.752l4.055,4.976a11.586,11.586,0,0,1,3.842-.663c7.153,0,12.983,6.448,12.983,14.321,0,7.716-5.83,14.006-12.983,14.006-7.088,0-12.906-6.29-12.906-14.006a14.836,14.836,0,0,1,5.314-11.533l-3.964-4.853a20.71,20.71,0,0,0-7.762,16.386c0,11.088,8.424,20.148,19.32,20.148,10.961,0,19.317-9.061,19.317-20.148,0-11.243-8.356-20.385-19.317-20.385Zm-10.692-7.1a5.545,5.545,0,0,1-1.73,4.032L660.014,33a9.939,9.939,0,0,0,1.438-13.242l-3.314,2.865a5.562,5.562,0,0,1,.855,2.965Zm-5.56,5.582a5.582,5.582,0,0,1,0-11.164,5.52,5.52,0,0,1,2.943.853l3.379-2.919a9.807,9.807,0,0,0-6.321-2.3,9.951,9.951,0,0,0,0,19.9,9.789,9.789,0,0,0,3.886-.8l-2.976-3.65A6.147,6.147,0,0,1,653.433,31.173Zm17.352-23.9a4.189,4.189,0,0,1,0,8.378A4.119,4.119,0,0,1,667.74,14.3l-2.468,2.145a7.444,7.444,0,1,0,5.513-12.456,7.392,7.392,0,0,0-5.909,2.966L668.1,8.285a4.139,4.139,0,0,1,2.684-1.011Zm-4.167,4.189a4.146,4.146,0,0,1,.54-2.032l-3.044-1.249a7.451,7.451,0,0,0,.125,6.808l2.6-2.247A4.244,4.244,0,0,1,666.618,11.462Zm-11.41-1.291a4.942,4.942,0,0,0,4.638-3.291l-2.01-.82a2.761,2.761,0,1,1,.147-.9l2.089.853a4.8,4.8,0,0,0,.088-.818,4.958,4.958,0,1,0-4.951,4.975Z" transform="translate(-438.516 1661.781)" fill="#fff"/>
  </g>
</svg>
