<svg xmlns="http://www.w3.org/2000/svg" width="96" height="96" viewBox="0 0 96 96">
  <g id="Lotus_Domino" data-name="Lotus Domino" transform="translate(-758 -1461)">
    <circle id="Ellipse_60" data-name="Ellipse 60" cx="48" cy="48" r="48" transform="translate(758 1461)" fill="#ff7009"/>
    <g id="Group_223" data-name="Group 223" transform="translate(-1.954 -1.516)">
      <path id="Path_288" data-name="Path 288" d="M32.186,26.746A5.246,5.246,0,1,1,26.94,21.5a5.247,5.247,0,0,1,5.246,5.246" transform="translate(767.316 1466.949)" fill="#fff"/>
      <path id="Path_289" data-name="Path 289" d="M47.186,26.746A5.246,5.246,0,1,1,41.94,21.5a5.247,5.247,0,0,1,5.246,5.246" transform="translate(766.305 1466.949)" fill="#fff"/>
      <path id="Path_290" data-name="Path 290" d="M62.186,26.746A5.246,5.246,0,1,1,56.94,21.5a5.247,5.247,0,0,1,5.246,5.246" transform="translate(765.295 1466.949)" fill="#fff"/>
      <path id="Path_291" data-name="Path 291" d="M32.186,25.746A5.246,5.246,0,1,1,26.94,20.5a5.247,5.247,0,0,1,5.246,5.246" transform="translate(767.316 1467.016)" fill="#fff"/>
      <path id="Path_292" data-name="Path 292" d="M47.186,25.746A5.246,5.246,0,1,1,41.94,20.5a5.247,5.247,0,0,1,5.246,5.246" transform="translate(766.305 1467.016)" fill="#fff"/>
      <path id="Path_293" data-name="Path 293" d="M62.186,25.746A5.246,5.246,0,1,1,56.94,20.5a5.247,5.247,0,0,1,5.246,5.246" transform="translate(765.295 1467.016)" fill="#fff"/>
      <path id="Path_294" data-name="Path 294" d="M48.534,63.253q-.705-10.836-1.411-21.674c-.2-2.621-2.149-4.746-4.355-4.746H41.621c-2.207,0-4.157,2.125-4.355,4.746q-.705,10.836-1.411,21.674C35.656,65.874,38.125,68,41.37,68h1.649c3.245,0,5.714-2.125,5.516-4.746" transform="translate(766.363 1465.916)" fill="#fff"/>
      <path id="Path_295" data-name="Path 295" d="M26.74,35.6l-.017-.014c-.105-.08-.21-.159-.322-.228C23.793,33.681,16.53,32.5,13.26,31.552a3.076,3.076,0,0,0-3.811,1.922l-.37.893c-.729,1.758-.132,3.573,1.332,4.054L18.4,41.144q-1.971,9.44-3.941,18.882c-.563,2.568,1.584,5.019,4.795,5.474l1.633.231c3.212.455,5.956-1.3,6.127-3.926q.823-10.828,1.644-21.657A5.337,5.337,0,0,0,26.74,35.6" transform="translate(768.186 1466.281)" fill="#fff"/>
      <path id="Path_296" data-name="Path 296" d="M56.619,36.019,56.636,36c.105-.08.21-.159.322-.228,2.609-1.681,9.871-2.864,13.142-3.809a3.075,3.075,0,0,1,3.811,1.922l.371.893c.728,1.758.132,3.573-1.333,4.054L64.954,41.56Q66.926,51,68.9,60.442c.564,2.568-1.583,5.019-4.795,5.474l-1.633.231c-3.212.455-5.956-1.3-6.127-3.926Q55.519,51.394,54.7,40.565a5.337,5.337,0,0,1,1.922-4.546" transform="translate(765.094 1466.253)" fill="#fff"/>
      <path id="Path_297" data-name="Path 297" d="M48.534,62.253q-.705-10.836-1.411-21.674c-.2-2.621-2.149-4.746-4.355-4.746H41.621c-2.207,0-4.157,2.125-4.355,4.746q-.705,10.836-1.411,21.674C35.656,64.874,38.125,67,41.37,67h1.649c3.245,0,5.714-2.126,5.516-4.746" transform="translate(766.363 1465.983)" fill="#fff"/>
      <path id="Path_298" data-name="Path 298" d="M26.74,34.6l-.017-.014c-.105-.08-.21-.159-.322-.228C23.793,32.681,16.53,31.5,13.26,30.552a3.076,3.076,0,0,0-3.811,1.922l-.37.893c-.729,1.758-.132,3.573,1.332,4.054L18.4,40.144q-1.971,9.44-3.941,18.882c-.563,2.568,1.584,5.019,4.795,5.474l1.633.231c3.212.455,5.956-1.3,6.127-3.926q.823-10.828,1.644-21.657A5.337,5.337,0,0,0,26.74,34.6" transform="translate(768.186 1466.348)" fill="#fff"/>
      <path id="Path_299" data-name="Path 299" d="M56.619,35.019,56.636,35c.105-.08.21-.159.322-.228,2.609-1.681,9.871-2.864,13.142-3.809a3.075,3.075,0,0,1,3.811,1.922l.371.893c.728,1.758.132,3.573-1.333,4.054L64.954,40.56Q66.926,50,68.9,59.442c.564,2.568-1.583,5.019-4.795,5.474l-1.633.231c-3.212.455-5.956-1.3-6.127-3.926Q55.519,50.394,54.7,39.565a5.337,5.337,0,0,1,1.922-4.546" transform="translate(765.094 1466.32)" fill="#fff"/>
    </g>
  </g>
</svg>
