<svg xmlns="http://www.w3.org/2000/svg" width="96" height="96" viewBox="0 0 96 96">
  <g id="MySql" transform="translate(-1015 -918)">
    <circle id="Ellipse_49" data-name="Ellipse 49" cx="48" cy="48" r="48" transform="translate(1015 918)" fill="#00618a"/>
    <g id="MySQL-Logo.wine" transform="translate(1023.656 940)">
      <path id="Path_133" data-name="Path 133" d="M0,134.8H2.526V124.82l3.911,8.7a2.153,2.153,0,0,0,2.332,1.425,2.124,2.124,0,0,0,2.308-1.425l3.911-8.7V134.8h2.526v-9.96a1.518,1.518,0,0,0-1.19-1.684c-1.919-.6-3.207-.081-3.79,1.215L8.7,132.951,4.98,124.367c-.559-1.3-1.871-1.814-3.79-1.215A1.518,1.518,0,0,0,0,124.836Zm19.616-8.12h2.526v5.5c-.024.3.1,1,1.48,1.021.706.011,5.45,0,5.494,0V126.65h2.532c.012,0,0,8.925,0,8.963.014,2.2-2.731,2.679-4,2.716H19.671v-1.7c.014,0,7.972,0,7.992,0,1.626-.172,1.434-.98,1.434-1.252v-.663h-5.37c-2.5-.023-4.089-1.114-4.109-2.368,0-.116.054-5.615,0-5.67Z" transform="translate(0 -98.725)" fill="#fff"/>
      <path id="Path_134" data-name="Path 134" d="M170.757,135.743h7.263a5.6,5.6,0,0,0,2.332-.486,2.292,2.292,0,0,0,1.628-2.073v-1.846c0-.729-.607-1.409-1.8-1.862a6.21,6.21,0,0,0-2.162-.373h-3.061c-1.02,0-1.506-.308-1.627-.988a.721.721,0,0,1-.024-.227v-1.15a.671.671,0,0,1,.024-.211c.121-.518.389-.664,1.287-.745.073,0,.17-.016.243-.016h7.215v-1.684h-7.094a6.816,6.816,0,0,0-2.041.21c-1.506.47-2.162,1.215-2.162,2.51v1.474c0,1.134,1.288,2.105,3.45,2.332.243.016.486.032.729.032h2.624a1.341,1.341,0,0,1,.267.016c.8.065,1.142.211,1.385.5a.6.6,0,0,1,.194.453v1.474a.843.843,0,0,1-.364.6,1.792,1.792,0,0,1-1.069.356c-.1,0-.17.016-.267.016h-6.972v1.684Zm26.984-2.931c0,1.733,1.287,2.7,3.887,2.9.243.016.486.032.729.032h6.584v-1.684h-6.632c-1.482,0-2.041-.373-2.041-1.263v-8.713h-2.526v8.73Zm-14.148.088v-6c0-1.525,1.071-2.451,3.189-2.743a4.846,4.846,0,0,1,.682-.049h4.8a5.193,5.193,0,0,1,.706.049c2.118.292,3.189,1.217,3.189,2.743v6a2.193,2.193,0,0,1-1.5,2.332l2.489,2.246h-2.934l-2.013-1.817-2.027.128h-2.7a5.6,5.6,0,0,1-1.485-.211c-1.607-.438-2.386-1.282-2.386-2.678Zm2.727-.146a1.109,1.109,0,0,0,.049.26c.146.7.8,1.087,1.8,1.087h2.3l-2.108-1.9h2.933l1.839,1.66a1.2,1.2,0,0,0,.64-.812.833.833,0,0,0,.024-.243v-5.761a.782.782,0,0,0-.024-.227c-.146-.649-.8-1.022-1.777-1.022H188.17c-1.12,0-1.85.487-1.85,1.25v5.713Z" transform="translate(-137.163 -99.671)" fill="#e48e00"/>
      <path id="Path_135" data-name="Path 135" d="M269.091,21.617a8.888,8.888,0,0,0-3.753.53c-.288.122-.748.125-.795.486.158.166.183.414.309.618a4.871,4.871,0,0,0,1.016,1.192c.4.3.809.623,1.237.883.76.463,1.608.728,2.34,1.192.431.274.86.618,1.281.927.208.153.348.39.618.486v-.044c-.142-.181-.179-.429-.309-.618l-.574-.574a9.421,9.421,0,0,0-2.031-1.943c-.6-.434-1.956-1.019-2.208-1.722l-.044-.044a9.739,9.739,0,0,0,1.325-.309c.664-.178,1.257-.132,1.943-.309l.927-.265v-.177c-.347-.356-.594-.826-.972-1.148a28.307,28.307,0,0,0-3.179-2.385c-.616-.389-1.378-.642-2.031-.972-.22-.111-.606-.168-.751-.353a9.357,9.357,0,0,1-.795-1.5c-.554-1.067-1.1-2.233-1.59-3.356A18.111,18.111,0,0,0,260.083,10a19.5,19.5,0,0,0-7.507-7.242,8.995,8.995,0,0,0-2.473-.795l-1.457-.089a7.762,7.762,0,0,1-.883-.662c-1.108-.7-3.949-2.222-4.769-.221-.518,1.263.774,2.5,1.236,3.136a9.469,9.469,0,0,1,.971,1.457c.152.332.179.665.309,1.016a23.322,23.322,0,0,0,1.016,2.605,9.213,9.213,0,0,0,.707,1.192c.163.222.441.32.486.663a5.4,5.4,0,0,0-.441,1.457,8.458,8.458,0,0,0,.574,6.492c.308.494,1.034,1.555,2.031,1.148.873-.356.678-1.457.927-2.429.056-.22.022-.382.132-.53v.044l.795,1.59a10.821,10.821,0,0,0,2.517,2.606c.459.346.82.946,1.413,1.148v-.044h-.044c-.115-.179-.295-.253-.441-.4A10.118,10.118,0,0,1,254.165,21,26.86,26.86,0,0,1,252,17.466c-.309-.594-.578-1.25-.839-1.855-.1-.233-.1-.586-.309-.707a8.828,8.828,0,0,0-.927,1.325,11.34,11.34,0,0,0-.53,2.914c-.078.028-.043.009-.089.044-.615-.148-.831-.781-1.06-1.325a8.348,8.348,0,0,1-.177-5.167c.132-.409.727-1.7.486-2.076-.115-.377-.494-.6-.706-.883a6.952,6.952,0,0,1-.707-1.237c-.473-1.071-.694-2.273-1.192-3.356a9.8,9.8,0,0,0-.971-1.5,8.753,8.753,0,0,1-1.06-1.5c-.1-.219-.238-.57-.089-.795a.351.351,0,0,1,.265-.265c.256-.2.969.066,1.236.177a10.77,10.77,0,0,1,1.9.971c.288.191.579.56.927.663h.4c.622.143,1.318.044,1.9.221a11.477,11.477,0,0,1,2.782,1.325,17.222,17.222,0,0,1,6.05,6.624c.229.439.328.859.53,1.325.407.94.92,1.907,1.325,2.826a13.2,13.2,0,0,0,1.369,2.606c.3.4,1.46.616,1.987.839a11.7,11.7,0,0,1,1.325.53c.668.4,1.316.883,1.943,1.325.313.221,1.277.7,1.325,1.1Z" transform="translate(-195.091 0)" fill="#fff"/>
      <path id="Path_136" data-name="Path 136" d="M272.561,24.357a3.168,3.168,0,0,0-.8.088v.044h.044a6.033,6.033,0,0,0,.618.795l.442.927.044-.044a1.078,1.078,0,0,0,.4-.971c-.11-.115-.126-.26-.221-.4C272.965,24.615,272.72,24.511,272.561,24.357Z" transform="translate(-218.3 -19.565)" fill="#fff" fill-rule="evenodd"/>
      <path id="Path_137" data-name="Path 137" d="M370.87,166.948a1.862,1.862,0,1,0,1.862-1.862,1.837,1.837,0,0,0-1.862,1.862Zm3.307,0a1.445,1.445,0,1,1-1.445-1.475A1.441,1.441,0,0,1,374.177,166.948Zm-.943,1.062h.417l-.611-.933c.328-.035.576-.194.576-.581,0-.432-.273-.611-.8-.611h-.829v2.125h.357v-.918h.332l.556.919Zm-.889-1.216v-.611h.412c.214,0,.472.04.472.288,0,.3-.233.323-.5.323Z" transform="translate(-297.907 -132.608)" fill="#e48e00" fill-rule="evenodd"/>
    </g>
  </g>
</svg>
