<svg xmlns="http://www.w3.org/2000/svg" xmlns:xlink="http://www.w3.org/1999/xlink" width="96" height="96" viewBox="0 0 96 96">
  <defs>
    <clipPath id="clip-path">
      <rect id="Rectangle_115" data-name="Rectangle 115" width="62.048" height="57.544" fill="#fff"/>
    </clipPath>
  </defs>
  <g id="Namely" transform="translate(-1488 -16)">
    <circle id="Ellipse_73" data-name="Ellipse 73" cx="48" cy="48" r="48" transform="translate(1488 16)" fill="#276df6"/>
    <g id="Group_262" data-name="Group 262" transform="translate(1504.976 35.228)">
      <g id="Group_261" data-name="Group 261" clip-path="url(#clip-path)">
        <path id="Path_357" data-name="Path 357" d="M40.746,0l-7.22,15.154a7.6,7.6,0,0,0-.643-.786,12.813,12.813,0,0,0-3.86-2.645,11.246,11.246,0,0,0-4.646-.929,12.043,12.043,0,0,0-11.008,7.077L0,47.608l21.445,9.936,7.148-15.083c.286.357.286.5.572.858A12.291,12.291,0,0,0,33.1,45.964a11.822,11.822,0,0,0,4.718.929,11.184,11.184,0,0,0,6.434-1.93,13.147,13.147,0,0,0,4.432-5.218L62.048,10.008Z" fill="#fff"/>
      </g>
    </g>
  </g>
</svg>
