<svg xmlns="http://www.w3.org/2000/svg" xmlns:xlink="http://www.w3.org/1999/xlink" width="96" height="96" viewBox="0 0 96 96">
  <defs>
    <clipPath id="clip-path">
      <rect id="Rectangle_119" data-name="Rectangle 119" width="78.044" height="63.207" fill="none"/>
    </clipPath>
  </defs>
  <g id="NewRelic" transform="translate(-494 -195)">
    <circle id="Ellipse_75" data-name="Ellipse 75" cx="48" cy="48" r="48" transform="translate(494 195)" fill="#37808c"/>
    <g id="Group_271" data-name="Group 271" transform="translate(503 211)">
      <g id="Group_270" data-name="Group 270" clip-path="url(#clip-path)">
        <path id="Path_373" data-name="Path 373" d="M37.6,52.61A21.453,21.453,0,1,1,59.051,31.154,21.453,21.453,0,0,1,37.6,52.61M77.471,23.244C73.811,6.416,53.631-3.483,32.4,1.134S-3.087,23.136.573,39.963,24.412,66.69,45.647,62.073s35.482-22,31.824-38.829" transform="translate(0 0)" fill="#fff"/>
        <path id="Path_374" data-name="Path 374" d="M72.625,62.559a21.091,21.091,0,1,1,21.09-21.093,21.09,21.09,0,0,1-21.09,21.093M77.969,14.9a27.437,27.437,0,1,0,27.437,27.436A27.438,27.438,0,0,0,77.969,14.9" transform="translate(-35.127 -10.357)" fill="#9bd3cd"/>
        <path id="Path_375" data-name="Path 375" d="M86.24,71.357l-2.3-4.825a30.715,30.715,0,0,1-1.306-3.043l-.045.045c.074.861.089,1.945.1,2.85l.059,4.973H81.074V61.084H83L85.5,66.1a18.707,18.707,0,0,1,1.054,2.643L86.6,68.7c-.045-.519-.148-1.989-.148-2.924l-.03-4.691h1.618V71.357Z" transform="translate(-56.358 -42.462)" fill="#fff"/>
        <path id="Path_376" data-name="Path 376" d="M111.286,70.789c-.921,0-1.425.728-1.425,1.945h2.776c0-1.217-.534-1.945-1.351-1.945m-1.44,3.147v.119c0,1.039.386,2.138,1.856,2.138a2.77,2.77,0,0,0,1.871-.742l.638.995a4.057,4.057,0,0,1-2.7.994c-2.123,0-3.459-1.529-3.459-3.934a4.1,4.1,0,0,1,.935-2.939,2.857,2.857,0,0,1,2.3-1.009,2.9,2.9,0,0,1,2.063.772c.653.594.98,1.514.98,3.266v.341Z" transform="translate(-75.11 -48.352)" fill="#fff"/>
        <path id="Path_377" data-name="Path 377" d="M139.023,77.412h-1.529l-.92-3.459c-.237-.891-.49-2.049-.49-2.049h-.03s-.119.742-.49,2.123l-.906,3.385H133.13l-2.049-7.437,1.618-.223.816,3.637c.208.935.386,1.974.386,1.974h.045a20.365,20.365,0,0,1,.43-2.019l.965-3.474h1.6l.846,3.385c.312,1.217.475,2.138.475,2.138h.044s.178-1.143.371-2.019l.772-3.5h1.692Z" transform="translate(-91.12 -48.487)" fill="#fff"/>
        <path id="Path_378" data-name="Path 378" d="M80.042,105.838h-.935v3.251h.876a2.236,2.236,0,0,0,1.678-.43,1.73,1.73,0,0,0,.46-1.247c0-1.039-.564-1.573-2.078-1.573m2.375,8.892-.891-1.588a11.327,11.327,0,0,0-1.752-2.539.872.872,0,0,0-.668-.312v4.439H77.429V104.457h3.132c2.3,0,3.34,1.336,3.34,2.939a2.626,2.626,0,0,1-2.554,2.821,7.783,7.783,0,0,1,1.589,2.049l1.514,2.464Z" transform="translate(-53.824 -72.612)" fill="#fff"/>
        <path id="Path_379" data-name="Path 379" d="M105.157,114.162c-.92,0-1.425.728-1.425,1.945h2.776c0-1.217-.534-1.945-1.351-1.945m-1.44,3.147v.119c0,1.039.386,2.138,1.856,2.138a2.768,2.768,0,0,0,1.871-.742l.638.994a4.056,4.056,0,0,1-2.7.995c-2.123,0-3.459-1.529-3.459-3.934a4.1,4.1,0,0,1,.935-2.939,2.857,2.857,0,0,1,2.3-1.009,2.9,2.9,0,0,1,2.063.772c.653.594.98,1.514.98,3.266v.341Z" transform="translate(-70.849 -78.502)" fill="#fff"/>
        <path id="Path_380" data-name="Path 380" d="M128.453,113.4c-1.648,0-1.648-1.485-1.648-2.123v-6.4a12.166,12.166,0,0,0-.148-2.2l1.677-.371a9.071,9.071,0,0,1,.134,2.063v6.369c0,1.009.045,1.173.163,1.351a.46.46,0,0,0,.534.119l.267,1.009a2.557,2.557,0,0,1-.98.178" transform="translate(-88.044 -71.123)" fill="#fff"/>
        <path id="Path_381" data-name="Path 381" d="M138.629,113.511v-7.393l1.648-.3v7.69Zm.816-8.625a1.065,1.065,0,0,1-1.054-1.084,1.076,1.076,0,1,1,1.054,1.084" transform="translate(-96.201 -71.394)" fill="#fff"/>
        <path id="Path_382" data-name="Path 382" d="M152.637,120.779c-2.049,0-3.192-1.44-3.192-3.86,0-2.732,1.633-4.038,3.31-4.038a2.736,2.736,0,0,1,2.078.816l-.816,1.084a1.845,1.845,0,0,0-1.262-.579,1.276,1.276,0,0,0-1.188.757,5.08,5.08,0,0,0-.312,2.093,3.023,3.023,0,0,0,.5,2.049,1.319,1.319,0,0,0,.995.43,2.165,2.165,0,0,0,1.514-.742l.772.994a3.128,3.128,0,0,1-2.405.995" transform="translate(-103.885 -78.468)" fill="#fff"/>
        <path id="Path_383" data-name="Path 383" d="M169.957,132.154a.5.5,0,0,0-.139-.018h-.089v.335h.083c.107,0,.154-.012.187-.041a.174.174,0,0,0,.048-.124.145.145,0,0,0-.089-.151m.13,1.019c-.047-.083-.068-.116-.116-.2-.122-.222-.16-.284-.2-.3a.081.081,0,0,0-.039-.009v.516h-.243v-1.236h.459a.343.343,0,0,1,.365.362.317.317,0,0,1-.276.341.282.282,0,0,1,.051.053c.071.089.3.48.3.48Zm-.216-1.494a.887.887,0,1,0,.848.883.861.861,0,0,0-.848-.883m0,1.986a1.1,1.1,0,1,1,1.1-1.1,1.1,1.1,0,0,1-1.1,1.1" transform="translate(-117.322 -91.383)" fill="#fff"/>
      </g>
    </g>
  </g>
</svg>
