<svg xmlns="http://www.w3.org/2000/svg" xmlns:xlink="http://www.w3.org/1999/xlink" width="96" height="96" viewBox="0 0 96 96">
  <defs>
    <clipPath id="clip-path">
      <rect id="Rectangle_80" data-name="Rectangle 80" width="45" height="53.679" fill="#fff"/>
    </clipPath>
  </defs>
  <g id="Office365" transform="translate(-635 -1268)">
    <circle id="Ellipse_60" data-name="Ellipse 60" cx="48" cy="48" r="48" transform="translate(635 1268)" fill="#dc3e15"/>
    <g id="Group_165" data-name="Group 165" transform="translate(659.5 1289.16)">
      <g id="Group_164" data-name="Group 164" clip-path="url(#clip-path)">
        <path id="Path_203" data-name="Path 203" d="M28.892,47.035c.082-.516.1-37.806.025-38.619L9.9,12.946V39.232L.115,43.055a.58.58,0,0,1-.056-.03c-.014-.01-.032-.026-.034-.041a2.8,2.8,0,0,1-.024-.3Q0,26.756,0,10.849a.945.945,0,0,1,.5-.262Q14.465,5.355,28.436.129a1.435,1.435,0,0,1,.973-.075q7.665,2.225,15.338,4.42c.074.023.148.049.254.083V49.325c-1.468.408-2.923.816-4.38,1.218Q35.058,52.076,29.5,53.61a1.586,1.586,0,0,1-1.037-.038Q14.722,48.5.978,43.437a1.239,1.239,0,0,1-.51-.3Z" transform="translate(0 0)" fill="#fff"/>
      </g>
    </g>
  </g>
</svg>
