<svg xmlns="http://www.w3.org/2000/svg" xmlns:xlink="http://www.w3.org/1999/xlink" width="96" height="96" viewBox="0 0 96 96">
  <defs>
    <clipPath id="clip-path">
      <rect id="Rectangle_125" data-name="Rectangle 125" width="76.36" height="28.842" fill="#fff"/>
    </clipPath>
  </defs>
  <g id="OIM" transform="translate(-494 -374)">
    <circle id="Ellipse_75" data-name="Ellipse 75" cx="48" cy="48" r="48" transform="translate(494 374)" fill="#0033a0"/>
    <g id="Group_287" data-name="Group 287" transform="translate(504 408)">
      <g id="Group_286" data-name="Group 286" clip-path="url(#clip-path)">
        <path id="Path_544" data-name="Path 544" d="M49.17,9.566C49.17,4.541,45.315,0,39.09,0c-6.4,0-9.995,4.683-9.995,9.652a9.495,9.495,0,0,0,9.881,9.538C45.058,19.19,49.17,14.935,49.17,9.566Zm-17.305.086A7,7,0,0,1,39.2,2.513a7.022,7.022,0,0,1,7.225,7.025,7.858,7.858,0,0,1-1.856,4.94,7.683,7.683,0,0,1-5.454,2.227A6.988,6.988,0,0,1,31.865,9.652ZM52.311.257H55v18.7H52.311ZM68.56,11.623,74.328,4.4V18.933h2.684V.257H74.5L68.332,7.939,62.106.257H59.565V18.933h2.684V4.4l5.826,7.225ZM4.022,22.417a3.2,3.2,0,1,0-.057,6.4,3.209,3.209,0,0,0,3.4-3.2A3.158,3.158,0,0,0,4.022,22.417ZM5.85,27.243a2.59,2.59,0,0,1-1.828.742,2.357,2.357,0,1,1,.029-4.712,2.337,2.337,0,0,1,2.4,2.342,2.4,2.4,0,0,1-.6,1.628m7.682.086L9.305,22.5H8.591v6.225h.857v-4.8l4.169,4.8h.742V22.5h-.828Zm6.911-1.285a2.7,2.7,0,0,1-.171,1.171,1.678,1.678,0,0,1-1.6.828,1.882,1.882,0,0,1-1.4-.514c-.314-.314-.4-.628-.4-1.456V22.531h-.885v3.541a3.188,3.188,0,0,0,.343,1.685,2.652,2.652,0,0,0,2.342,1.085,2.824,2.824,0,0,0,1.97-.685,2.566,2.566,0,0,0,.714-2.113V22.5h-.885v3.541Zm7.967-1L26.325,22.5H25.5v6.225h.885V23.873l1.942,2.4H28.5l1.913-2.4v4.855h.885V22.5h-.828ZM33.064,22.5h.885v6.225h-.885Zm5.711,3.941h1.2v1.285a3.918,3.918,0,0,1-1.371.286,2.4,2.4,0,1,1-.086-4.8,4.312,4.312,0,0,1,2.2.657V22.96a5.2,5.2,0,0,0-2.2-.543,3.226,3.226,0,0,0-3.37,3.255,3.139,3.139,0,0,0,3.4,3.141,5.74,5.74,0,0,0,2.285-.514V25.672H38.747v.771Zm6.34-.685a1.521,1.521,0,0,0,1.028-1.542,1.637,1.637,0,0,0-.971-1.542,2.622,2.622,0,0,0-1.057-.2H42.545v6.254h.885V26.015h.228c.428,0,.742,0,1.342.8.2.257,1.057,1.628,1.285,1.942h1.057c-.428-.6-.571-.8-.857-1.256a4.892,4.892,0,0,0-1.371-1.742Zm-.457-.628a3.431,3.431,0,0,1-.857.086h-.343v-1.97h.286a2.366,2.366,0,0,1,1.057.143.949.949,0,0,1,.485.828,1.038,1.038,0,0,1-.628.914m5.626-2.684L47.6,28.728h.914l.8-1.828h2.656l.828,1.828h.914l-2.8-6.282Zm-.628,3.627.942-2.256,1,2.256ZM55,25.615a2.367,2.367,0,0,1,2.456-2.37,4.544,4.544,0,0,1,2.17.628V22.9a5.588,5.588,0,0,0-2.17-.514,3.252,3.252,0,0,0-3.37,3.2,3.165,3.165,0,0,0,3.341,3.2,4.467,4.467,0,0,0,2.256-.543v-.971a4.075,4.075,0,0,1-2.2.685A2.3,2.3,0,0,1,55,25.615ZM61.221,22.5h.885v6.225h-.885Zm4.969-.428h.485L68.16,20.7H66.875Zm.657.343a3.2,3.2,0,1,0,3.341,3.2A3.179,3.179,0,0,0,66.847,22.417Zm1.828,4.826a2.59,2.59,0,0,1-1.828.742,2.357,2.357,0,1,1,2.427-2.37,2.4,2.4,0,0,1-.6,1.628m7.482-4.74v4.826l-4.2-4.826h-.714v6.225h.828v-4.8l4.169,4.8h.771V22.5ZM10.476,7.825a.371.371,0,1,0-.371-.371.36.36,0,0,0,.371.371m4.341.286A.19.19,0,0,0,14.674,8H13.56a.157.157,0,0,0-.143.086l-.742,1.713h-.714l-.742-1.713A.157.157,0,0,0,11.076,8H9.933a.157.157,0,0,0-.143.086l-.771,1.8a.164.164,0,0,0,.057.2.1.1,0,0,0,.086.029.157.157,0,0,0,.143-.086l.685-1.6.057,1.542-.257,1.97a.157.157,0,0,0,.114.171h.057a.181.181,0,0,0,.171-.143l.257-1.885h.343l.257,1.885a.16.16,0,0,0,.171.143h.057a.178.178,0,0,0,.114-.171l-.257-1.97L10.99,8.453l.685,1.6v.057l.029.029h.228L11.7,11.251a.222.222,0,0,0,.057.228c.029.029.086.057.114.086v.457a.143.143,0,1,0,.286,0v-.457h.171v.457a.143.143,0,1,0,.286,0v-.457a.4.4,0,0,0,.114-.086.222.222,0,0,0,.057-.228l-.228-1.114h.228l.029-.029c.029-.029,0,0,0-.029v-.029L13.531,8.4l.143.685a.7.7,0,0,1,0,.343L13.1,12.165h2L14.445,9.4a.7.7,0,0,1,0-.343l.143-.685.543,1.342a.19.19,0,0,0,.143.114h.057a.157.157,0,0,0,.086-.2ZM14.1,7.825a.371.371,0,1,0-.371-.371.36.36,0,0,0,.371.371" transform="translate(-0.652)" fill="#fff"/>
        <path id="Path_545" data-name="Path 545" d="M270.718,219.232a.286.286,0,1,0-.286-.286.307.307,0,0,0,.286.286" transform="translate(-259.095 -209.494)" fill="#fff"/>
        <path id="Path_546" data-name="Path 546" d="M17.534,6.812c.514.485,1.228,1.314,1.228,1.314a11.781,11.781,0,0,1,3.027,7.539v.086h-3.17A9.609,9.609,0,0,0,9.338,6.812C4.2,6.812,0,11.238,0,16.721a13.861,13.861,0,0,0,3.57,8.767H5.54C5.026,25,4.312,24.174,4.312,24.174a11.782,11.782,0,0,1-3.027-7.539V16.55h3.17a9.609,9.609,0,0,0,9.281,8.938c5.14,0,9.338-4.426,9.338-9.909A13.861,13.861,0,0,0,19.5,6.812Zm-.228,8.938H15.678v-.029a5.769,5.769,0,0,0-.714-2.741h1.6a8.3,8.3,0,0,1,.742,2.77m-1.028-3.341H14.621a6.68,6.68,0,0,0-2.37-2.2,6.007,6.007,0,0,0,1.171-.885A7.824,7.824,0,0,1,16.277,12.409ZM9.709,8.126a7.668,7.668,0,0,1,3.284.942,5.3,5.3,0,0,1-3.284,1.4Zm0,2.827a6.207,6.207,0,0,0,1.942-.428,6.178,6.178,0,0,1,2.342,1.885H9.709ZM9.138,8.126v2.342a5.328,5.328,0,0,1-3.4-1.428,7.185,7.185,0,0,1,3.4-.914m0,2.827v1.456H4.769a5.919,5.919,0,0,1,2.342-1.885A6.749,6.749,0,0,0,9.138,10.953ZM5.283,9.3a6.537,6.537,0,0,0,1.228.914,6.68,6.68,0,0,0-2.37,2.2H2.37A8.042,8.042,0,0,1,5.283,9.3ZM1.342,15.95a9.266,9.266,0,0,1,.742-2.97H3.8a5.684,5.684,0,0,0-.714,2.741v.257H1.342Zm4.426.6H7.4v.029A5.769,5.769,0,0,0,8.11,19.32h-1.6a8.294,8.294,0,0,1-.742-2.77M6.8,19.891H8.453a6.68,6.68,0,0,0,2.37,2.2,6.008,6.008,0,0,0-1.171.885A8.243,8.243,0,0,1,6.8,19.891Zm6.568,4.283a7.668,7.668,0,0,1-3.284-.942,5.3,5.3,0,0,1,3.284-1.4Zm0-2.827a6.209,6.209,0,0,0-1.942.428,6.177,6.177,0,0,1-2.342-1.885h4.283ZM8.681,19.32a5.438,5.438,0,0,1-.771-2.741v-.6H3.6v-.257a5.437,5.437,0,0,1,.771-2.741H14.393a5.438,5.438,0,0,1,.771,2.741v.6H19.5v.257a5.438,5.438,0,0,1-.771,2.741Zm9.652.571a5.919,5.919,0,0,1-2.342,1.885,6,6,0,0,0-2.028-.457V19.862h4.369Zm-4.369,4.283V21.833a5.265,5.265,0,0,1,3.4,1.428,7.367,7.367,0,0,1-3.4.914M17.819,23a6.537,6.537,0,0,0-1.228-.914,6.68,6.68,0,0,0,2.37-2.2h1.77A8.488,8.488,0,0,1,17.819,23Zm3.17-3.684H19.276a5.684,5.684,0,0,0,.714-2.741v-.257h1.742a7.993,7.993,0,0,1-.742,3" transform="translate(0 -6.526)" fill="#fff"/>
      </g>
    </g>
  </g>
</svg>
