<svg xmlns="http://www.w3.org/2000/svg" width="96" height="96" viewBox="0 0 96 96">
  <g id="Okta" transform="translate(-642 -17)">
    <circle id="Ellipse_68" data-name="Ellipse 68" cx="48" cy="48" r="48" transform="translate(642 17)" fill="#007dc1"/>
    <g id="Okta_logo" transform="translate(651 52)">
      <g id="Group_249" data-name="Group 249">
        <g id="Group_248" data-name="Group 248" transform="translate(0 6.553)">
          <path id="Path_326" data-name="Path 326" d="M9.752,33.8A9.752,9.752,0,1,0,19.5,43.552,9.747,9.747,0,0,0,9.752,33.8Zm0,14.638a4.886,4.886,0,1,1,4.886-4.886A4.89,4.89,0,0,1,9.752,48.438Z" transform="translate(0 -33.8)" fill="#fff"/>
        </g>
        <path id="Path_327" data-name="Path 327" d="M118.063,19.582a.859.859,0,0,1,1.473-.6c2.443,2.482,6.476,6.747,6.5,6.766a.688.688,0,0,0,.349.233,1.326,1.326,0,0,0,.427.039h4.4a.855.855,0,0,0,.659-1.377l-7.29-7.464-.388-.388c-.834-.989-.737-1.377.213-2.385l5.778-6.456a.843.843,0,0,0-.679-1.357h-3.994a1.2,1.2,0,0,0-.388.039.732.732,0,0,0-.388.233c-.019.019-3.218,3.47-5.2,5.584a.874.874,0,0,1-1.512-.6V.776A.774.774,0,0,0,117.191,0h-3.257a.747.747,0,0,0-.834.7V25.243c0,.562.465.717.853.717h3.257a.787.787,0,0,0,.834-.737V19.582Z" transform="translate(-91.172)" fill="#fff"/>
        <path id="Path_328" data-name="Path 328" d="M226.969,25.127l-.349-3.257a.773.773,0,0,0-.911-.679,4.966,4.966,0,0,1-.756.058,4.886,4.886,0,0,1-4.866-4.614V12.37a.919.919,0,0,1,.911-.95h4.362a.814.814,0,0,0,.776-.834V7.5a.814.814,0,0,0-.737-.911H221a.907.907,0,0,1-.931-.872V.776A.788.788,0,0,0,219.233,0h-3.238a.742.742,0,0,0-.795.756V16.635a9.743,9.743,0,0,0,9.752,9.481,9.524,9.524,0,0,0,1.3-.1A.793.793,0,0,0,226.969,25.127Z" transform="translate(-173.477)" fill="#fff"/>
      </g>
      <g id="Group_250" data-name="Group 250" transform="translate(54.286 6.534)">
        <path id="Path_329" data-name="Path 329" d="M302.7,48.2c-2.753,0-3.18-.989-3.18-4.692V34.572a.836.836,0,0,0-.853-.834h-3.257a.855.855,0,0,0-.853.834v.407a9.628,9.628,0,0,0-4.808-1.28,9.752,9.752,0,1,0,6.34,17.158,5.256,5.256,0,0,0,4.692,2.346c.388,0,2.482.078,2.482-.911v-3.47A.614.614,0,0,0,302.7,48.2Zm-12.932.155a4.886,4.886,0,1,1,4.886-4.886A4.89,4.89,0,0,1,289.772,48.357Z" transform="translate(-280 -33.7)" fill="#fff"/>
      </g>
    </g>
  </g>
</svg>
