<svg id="onelogin" xmlns="http://www.w3.org/2000/svg" xmlns:xlink="http://www.w3.org/1999/xlink" width="96" height="96" viewBox="0 0 96 96">
  <defs>
    <clipPath id="clip-path">
      <rect id="Rectangle_198" data-name="Rectangle 198" width="96" height="96" fill="none"/>
    </clipPath>
  </defs>
  <g id="Group_438" data-name="Group 438" clip-path="url(#clip-path)">
    <path id="Path_764" data-name="Path 764" d="M48.065,0A48.065,48.065,0,1,1,0,48.065,48.065,48.065,0,0,1,48.065,0" fill="#1f1f1f"/>
    <path id="Path_765" data-name="Path 765" d="M912.636,855.746h-6.219a1.774,1.774,0,0,0-1.772,1.772v7.973a1.775,1.775,0,0,0,1.772,1.772h6.219v20.086a1.775,1.775,0,0,0,1.772,1.772h7.973a1.775,1.775,0,0,0,1.772-1.772V857.518a1.774,1.774,0,0,0-1.772-1.772Z" transform="translate(-869.859 -822.841)" fill="#fff"/>
  </g>
</svg>
