<svg xmlns="http://www.w3.org/2000/svg" xmlns:xlink="http://www.w3.org/1999/xlink" width="96" height="96" viewBox="0 0 96 96">
  <defs>
    <clipPath id="clip-path">
      <rect id="Rectangle_128" data-name="Rectangle 128" width="73.494" height="20.795" fill="#fff"/>
    </clipPath>
  </defs>
  <g id="openDJ" transform="translate(-638 -553)">
    <circle id="Ellipse_76" data-name="Ellipse 76" cx="48" cy="48" r="48" transform="translate(638 553)" fill="#618e59"/>
    <g id="Group_289" data-name="Group 289" transform="translate(649 591)">
      <g id="Group_288" data-name="Group 288" clip-path="url(#clip-path)">
        <path id="Path_555" data-name="Path 555" d="M537.122,14.411c-.526,2.418-1.776,3.487-4.259,3.567a4.852,4.852,0,0,1-3.754-1.233,4.079,4.079,0,0,1-1.026-1.9c-.058-.209-.045-.332.21-.39.788-.18,1.572-.38,2.355-.582.275-.071.371.046.482.291a1.444,1.444,0,0,0,1.5.912,1.393,1.393,0,0,0,1.211-1.189,5.474,5.474,0,0,0,.142-1.264c-.006-3.037.01-6.075-.016-9.112,0-.518.148-.652.644-.625.848.047,1.7.027,2.551.035a1.257,1.257,0,0,1,.058.654q.007,4.515.006,9.03" transform="translate(-463.738 -2.533)" fill="#fff"/>
        <path id="Path_556" data-name="Path 556" d="M327.69,44.519a4.179,4.179,0,0,1,4.285-1.687c1.618.222,2.653,1.456,2.731,3.428.08,2,.025,4.013.031,6.019,0,.644-.485.3-.755.361-.359.082-.548-.046-.543-.474.02-1.723.009-3.446.007-5.169a4.969,4.969,0,0,0-.16-1.443,2.106,2.106,0,0,0-2.192-1.645,3.23,3.23,0,0,0-3.285,3.345c-.064,1.6-.052,3.2-.015,4.8.013.565-.223.6-.675.608-.484.01-.654-.1-.656-.626-.008-2.877.1-5.755-.073-8.631-.015-.246.051-.355.328-.379.917-.077.942-.07.97.838.007.217,0,.435,0,.652" transform="translate(-286.636 -37.561)" fill="#fff"/>
        <path id="Path_557" data-name="Path 557" d="M422.866,7.216c-1.013-2.729-3.348-3.815-6.075-4.182-2.119-.285-4.252-.065-6.377-.149-.514-.02-.586.174-.582.619.02,2.249.009,4.5.009,6.748,0,2.269.014,4.539-.011,6.809-.005.461.123.595.576.569.667-.039,1.338,0,2.007-.011a24.481,24.481,0,0,0,4.908-.234c5.385-1.164,7.186-5.745,5.546-10.167m-2.82,3.093a4.051,4.051,0,0,1-3.771,4.165,23.613,23.613,0,0,1-2.726.129c-.343.008-.452-.1-.447-.443.018-1.315.007-2.631.007-3.947,0-1.275.017-2.55-.01-3.825-.008-.409.125-.522.516-.51a15.153,15.153,0,0,1,3.082.215,4.024,4.024,0,0,1,3.349,4.215" transform="translate(-359.912 -2.531)" fill="#fff"/>
        <path id="Path_558" data-name="Path 558" d="M8.3,0H6.826A7.291,7.291,0,0,0,0,6.825V8.544c.654,6.862,7.845,8.373,11.95,5.645A7.427,7.427,0,0,0,15.181,8.1,7.428,7.428,0,0,0,8.3,0m.527,14.038c-4.7.822-7.877-2.673-7.415-7.1A5.784,5.784,0,0,1,5.79,1.494C10.1.3,13.784,3.218,13.78,7.755a5.993,5.993,0,0,1-4.954,6.283" fill="#fff"/>
        <path id="Path_559" data-name="Path 559" d="M147.189,44.518a4.612,4.612,0,0,0-3.084-1.652,4.831,4.831,0,0,0-4.684,1.8,6.929,6.929,0,0,1,.007-.94c.091-.566-.165-.664-.675-.662-.491,0-.649.114-.647.633.021,4.9.014,9.8.015,14.7h1.3V51.12a5.231,5.231,0,0,0,7.412.485,5.388,5.388,0,0,0,.359-7.087m-3.926,7.236a3.917,3.917,0,0,1-3.963-3.9,3.97,3.97,0,0,1,3.991-3.9,3.771,3.771,0,0,1,3.8,3.96,3.71,3.71,0,0,1-3.826,3.844" transform="translate(-121.285 -37.603)" fill="#fff"/>
        <path id="Path_560" data-name="Path 560" d="M241.547,43.275a4.619,4.619,0,0,0-4.742-.326,5.011,5.011,0,0,0-2.6,5.844,4.357,4.357,0,0,0,3.412,3.632,5.037,5.037,0,0,0,5.216-1.466c.389-.428.1-.6-.177-.852-.3-.275-.47-.335-.8.041a3.719,3.719,0,0,1-3.974,1.143,3.409,3.409,0,0,1-2.47-2.872c-.087-.405.007-.578.472-.566,1.175.031,2.351.01,3.526.01h3.527c.247,0,.473.038.485-.349a4.545,4.545,0,0,0-1.874-4.24m-.3,3.462h-2.5c-.994,0-1.988,0-2.982,0-.267,0-.419-.035-.35-.375a3.644,3.644,0,0,1,2.889-2.707,3.412,3.412,0,0,1,3.542,1.825c.036.073.074.145.1.22.345.889.246,1.035-.706,1.035" transform="translate(-205.557 -37.278)" fill="#fff"/>
      </g>
    </g>
  </g>
</svg>
