<svg xmlns="http://www.w3.org/2000/svg" xmlns:xlink="http://www.w3.org/1999/xlink" width="96" height="96" viewBox="0 0 96 96">
  <defs>
    <clipPath id="clip-path">
      <rect id="Rectangle_62" data-name="Rectangle 62" width="56.932" height="62.526" fill="#fff"/>
    </clipPath>
  </defs>
  <g id="Oracle_Directory_Server_Enterprise_Edition" data-name="Oracle Directory Server Enterprise  Edition" transform="translate(-728 -139)">
    <circle id="Ellipse_21" data-name="Ellipse 21" cx="48" cy="48" r="48" transform="translate(728 139)" fill="#e31d1e"/>
    <g id="Group_134" data-name="Group 134" transform="translate(747.534 155.737)">
      <g id="Group_133" data-name="Group 133" clip-path="url(#clip-path)">
        <path id="Path_114" data-name="Path 114" d="M53.97,50.81V47.98a6.657,6.657,0,0,0-3.093-5.595l-3.291-2.04a2.927,2.927,0,0,1-1.448-2.567V34.751a6.6,6.6,0,0,0-6.582-6.582H30.21V20.4h9.083a1.489,1.489,0,0,0,1.514-1.514V5.2a1.489,1.489,0,0,0-1.514-1.514H28.7a1.5,1.5,0,0,1-1.251-.658L25.8.658A1.5,1.5,0,0,0,24.55,0H17.573A1.489,1.489,0,0,0,16.06,1.514V18.889A1.489,1.489,0,0,0,17.573,20.4h9.083v7.766H17.31a6.6,6.6,0,0,0-6.582,6.582v3.028A3.006,3.006,0,0,1,9.28,40.346l-3.291,2.04A6.428,6.428,0,0,0,2.9,47.981v2.83a4.673,4.673,0,1,0,3.554,0v-2.83A3.006,3.006,0,0,1,7.9,45.414l3.291-2.04a6.428,6.428,0,0,0,3.093-5.595V34.751a3.063,3.063,0,0,1,3.028-3.028h9.346v7.7l-4.739,2.962a6.428,6.428,0,0,0-3.093,5.595v5.528a4.673,4.673,0,1,0,3.554,0V47.98a3.006,3.006,0,0,1,1.448-2.567l4.673-2.9,4.871,2.962a2.927,2.927,0,0,1,1.448,2.567v5.463a4.673,4.673,0,1,0,3.554,0V48.046a6.488,6.488,0,0,0-3.159-5.595l-4.936-3.028v-7.7h9.346a3.063,3.063,0,0,1,3.028,3.028v3.028a6.657,6.657,0,0,0,3.093,5.595l3.291,2.04a2.927,2.927,0,0,1,1.448,2.567v2.83a4.682,4.682,0,1,0,6.45,4.344A4.779,4.779,0,0,0,53.97,50.81Z" fill="#fff"/>
      </g>
    </g>
  </g>
</svg>
