<svg xmlns="http://www.w3.org/2000/svg" xmlns:xlink="http://www.w3.org/1999/xlink" width="96" height="96" viewBox="0 0 96 96">
  <defs>
    <clipPath id="clip-path">
      <rect id="Rectangle_210" data-name="Rectangle 210" width="78.369" height="46.291" fill="#fff"/>
    </clipPath>
  </defs>
  <g id="oracle_idcs" transform="translate(-1332 -1468)">
    <path id="Path_659" data-name="Path 659" d="M35.244,3.344Z" transform="translate(1364.833 1469.234)" fill="#d7d8d9"/>
    <g id="Layer_1_2_" transform="translate(1332 1468)">
      <g id="Layer_1_3_">
        <g id="Group_311" data-name="Group 311">
          <circle id="Ellipse_89" data-name="Ellipse 89" cx="48" cy="48" r="48" fill="#ea1b22"/>
        </g>
      </g>
    </g>
    <g id="Group_447" data-name="Group 447" transform="translate(1341 1493)">
      <g id="Group_446" data-name="Group 446" clip-path="url(#clip-path)">
        <path id="Path_795" data-name="Path 795" d="M40.55.131a15.605,15.605,0,0,0-5.908,2.277,25.479,25.479,0,0,0-5.418,5.3l-.576.807-1.7-.605a13.024,13.024,0,0,0-12.969,2.334c-2.623,2.334-4.006,5.072-4.611,9.165l-.346,2.45-1.614.49a9.389,9.389,0,0,0-4.842,3.026A9.029,9.029,0,0,0,.029,31.833a8.417,8.417,0,0,0,.49,4.035,11.112,11.112,0,0,0,6.427,6.513,31.687,31.687,0,0,0,8.963.576l.98-.173-.836-2.479c-2.536-7.378.49-13.545,8.041-16.254a7.649,7.649,0,0,0,2.075-.98,22.509,22.509,0,0,0,1.124-2.536,15.7,15.7,0,0,1,12.22-10.26,15.243,15.243,0,0,1,13.4,3.833L54.7,15.723l2.623-.49,2.594-.461-.173-1.066A17.09,17.09,0,0,0,51.3,2.177C48.245.563,43.374-.359,40.55.131" transform="translate(0 0)" fill="#fff"/>
        <path id="Path_796" data-name="Path 796" d="M84.659,44.161c-5.879.778-9.77,4.294-11.269,10.2a7.778,7.778,0,0,1-.807,2.19,18.311,18.311,0,0,1-2.651.951c-4.409,1.268-6.225,2.911-7.378,6.629a10.362,10.362,0,0,0,4.265,11.9c2.853,1.672,1.96,1.643,27.177,1.585,25.88-.058,24.555.058,26.4-2.133a9.941,9.941,0,0,0,1.672-9.309,9.061,9.061,0,0,0-4.9-4.842,5.167,5.167,0,0,1-1.758-.836,7.741,7.741,0,0,1-.461-2.161,10.369,10.369,0,0,0-2.968-6.254,11.55,11.55,0,0,0-11.96-2.565c-1.614.548-2.219.375-3.343-1.009-2.594-3.228-7.378-4.957-12.018-4.352m20.549,8.646a14.6,14.6,0,0,1,7.522,9.453A16.669,16.669,0,0,1,111.4,72.894c-.807,1.643-1.239,1.96-1.931,1.441-.4-.317-.346-.605.605-2.8A13.44,13.44,0,0,0,109.07,58.4a9.337,9.337,0,0,0-8.271-4.726A8.937,8.937,0,0,0,94,56.524c-2.536,2.565-4.092,6.4-2.68,6.6.49.058.721-.2,1.268-1.729.922-2.507,3.545-5.159,5.764-5.822a7.165,7.165,0,0,1,4.842-.029c3.084.922,6.513,5.3,5.937,7.608a2.427,2.427,0,0,1-3.2,1.7,3.859,3.859,0,0,1-1.383-1.355,13.716,13.716,0,0,0-1.614-2.1c-.807-.836-1.268-1.1-2.017-1.1-2.392,0-4.006,2.248-4.006,5.591,0,4.755,3.718,7.263,6.427,4.265a8.007,8.007,0,0,0,1.038-1.96c.375-1.009.72-1.441,1.153-1.5.865-.144,1.038.576.49,2.133a6.233,6.233,0,0,1-3.285,3.92c-2.709,1.21-5.188.086-6.83-3.084-1.9-3.689-.519-8.963,2.8-10.692a5.961,5.961,0,0,1,4.237,0,7.826,7.826,0,0,1,2.882,3.285c.375.893,1.239,1.239,1.614.634.317-.519-.922-2.8-2.161-4.006A6.065,6.065,0,0,0,99.559,57.1a8,8,0,0,0-5.591,5.562c-.692,2.363-3.055,3.17-4.467,1.527-.951-1.066-.778-2.363.605-5.188a12.852,12.852,0,0,1,8.617-6.946,9.912,9.912,0,0,1,6.485.749m-2.94,9.943a5.843,5.843,0,0,1,.72,4.813c-.461,1.412-1.816,2.651-2.623,2.392a3.671,3.671,0,0,1-1.729-2.536c0-.807.893-.951,1.47-.231.288.346.663.576.807.461.519-.288.692-2.133.317-3.026l-.375-.865-.663.721c-1.412,1.527-2.19-.231-.807-1.844,1.009-1.21,1.9-1.153,2.882.115m-8.329,5.995a10.152,10.152,0,0,0,2.68,4.467,6.575,6.575,0,0,0,6.888.893c1.5-.663,2.133-.548,1.989.375-.144,1.038-2.421,2.017-4.64,2.046-4.006.029-7.407-2.824-8.7-7.378-.375-1.326-.4-1.758-.115-2.1.663-.807,1.239-.317,1.9,1.7m15.476-.49a8.327,8.327,0,0,1-1.989,4.726c-.4.317-.519.317-.922-.086-.432-.432-.4-.605.432-2.45a12.384,12.384,0,0,0,.922-2.334c0-.692.634-1.5,1.1-1.412.375.086.49.4.461,1.556" transform="translate(-44.195 -31.348)" fill="#fff"/>
      </g>
    </g>
  </g>
</svg>
