<svg xmlns="http://www.w3.org/2000/svg" width="96" height="96" viewBox="0 0 96 96">
  <g id="Oracle_Unified_Directory" data-name="Oracle Unified  Directory" transform="translate(-800 -25)">
    <circle id="Ellipse_20" data-name="Ellipse 20" cx="48" cy="48" r="48" transform="translate(800 25)" fill="#db1623"/>
    <g id="Group_17" data-name="Group 17" transform="translate(-18 11)">
      <circle id="Ellipse_13" data-name="Ellipse 13" cx="6" cy="6" r="6" transform="translate(861 30)" fill="#fff"/>
      <ellipse id="Ellipse_14" data-name="Ellipse 14" cx="6" cy="5.5" rx="6" ry="5.5" transform="translate(839 46)" fill="#fff"/>
      <ellipse id="Ellipse_16" data-name="Ellipse 16" cx="6" cy="6.5" rx="6" ry="6.5" transform="translate(832 62)" fill="#fff"/>
      <ellipse id="Ellipse_17" data-name="Ellipse 17" cx="6" cy="6.5" rx="6" ry="6.5" transform="translate(849 62)" fill="#fff"/>
      <ellipse id="Ellipse_18" data-name="Ellipse 18" cx="6" cy="6.5" rx="6" ry="6.5" transform="translate(871 62)" fill="#fff"/>
      <ellipse id="Ellipse_19" data-name="Ellipse 19" cx="6" cy="6.5" rx="6" ry="6.5" transform="translate(889 62)" fill="#fff"/>
      <ellipse id="Ellipse_15" data-name="Ellipse 15" cx="6" cy="5.5" rx="6" ry="5.5" transform="translate(880 46)" fill="#fff"/>
      <rect id="Rectangle_8" data-name="Rectangle 8" width="0.758" height="16.054" transform="matrix(0.616, -0.788, 0.788, 0.616, 870.339, 38.942)" fill="#fff"/>
      <rect id="Rectangle_9" data-name="Rectangle 9" width="0.758" height="17.545" transform="matrix(0.616, 0.788, -0.788, 0.616, 863.247, 37.992)" fill="#fff"/>
      <rect id="Rectangle_10" data-name="Rectangle 10" width="0.758" height="9.927" transform="matrix(0.921, 0.391, -0.391, 0.921, 842.973, 55.422)" fill="#fff"/>
      <rect id="Rectangle_12" data-name="Rectangle 12" width="0.758" height="9.927" transform="matrix(0.921, -0.391, 0.391, 0.921, 848.48, 56.729)" fill="#fff"/>
      <rect id="Rectangle_13" data-name="Rectangle 13" width="0.758" height="9.927" transform="matrix(0.921, -0.391, 0.391, 0.921, 888.62, 56.729)" fill="#fff"/>
      <rect id="Rectangle_11" data-name="Rectangle 11" width="0.758" height="13.902" transform="matrix(0.921, 0.391, -0.391, 0.921, 883.941, 53.795)" fill="#fff"/>
    </g>
    <text id="OUD" transform="translate(832 107)" fill="#fff" font-size="16" font-family="Rubik-Regular, Rubik"><tspan x="0" y="0">OUD</tspan></text>
  </g>
</svg>
