<svg xmlns="http://www.w3.org/2000/svg" xmlns:xlink="http://www.w3.org/1999/xlink" width="96" height="96" viewBox="0 0 96 96">
  <defs>
    <clipPath id="clip-path">
      <rect id="Rectangle_75" data-name="Rectangle 75" width="38.356" height="55.611" fill="#fff"/>
    </clipPath>
  </defs>
  <g id="PagerDuty" transform="translate(-1010 -1076)">
    <circle id="Ellipse_57" data-name="Ellipse 57" cx="48" cy="48" r="48" transform="translate(1010 1076)" fill="#06ac38"/>
    <g id="Group_152" data-name="Group 152" transform="translate(1039 1096)">
      <rect id="Rectangle_74" data-name="Rectangle 74" width="8.151" height="14.82" transform="translate(0 40.791)" fill="#fff"/>
      <g id="Group_151" data-name="Group 151">
        <g id="Group_150" data-name="Group 150" clip-path="url(#clip-path)">
          <path id="Path_197" data-name="Path 197" d="M30.7,2.717C26.324.388,23.289,0,16.126,0H0V33.734H16.055c6.387,0,11.15-.388,15.35-3.176,4.587-3.035,6.951-8.081,6.951-13.9,0-6.316-2.929-11.362-7.657-13.938M17.925,26.676H8.151V7.234l9.21-.071c8.4-.106,12.6,2.858,12.6,9.563,0,7.2-5.187,9.951-12.033,9.951" fill="#fff"/>
        </g>
      </g>
    </g>
  </g>
</svg>
