<svg xmlns="http://www.w3.org/2000/svg" xmlns:xlink="http://www.w3.org/1999/xlink" width="96" height="96" viewBox="0 0 96 96">
  <defs>
    <clipPath id="clip-path">
      <rect id="Rectangle_188" data-name="Rectangle 188" width="79.342" height="21.291" fill="#fff"/>
    </clipPath>
  </defs>
  <g id="pingone" transform="translate(-468 -1285)">
    <circle id="Ellipse_94" data-name="Ellipse 94" cx="48" cy="48" r="48" transform="translate(468 1285)" fill="#b8232f"/>
    <g id="Group_419" data-name="Group 419" transform="translate(476 1322)">
      <g id="Group_418" data-name="Group 418" clip-path="url(#clip-path)">
        <path id="Path_746" data-name="Path 746" d="M47.234,1.449c4.449,0,7.053,3.333,7.053,7.813,0,4.588-2.582,7.813-7.053,7.813s-7.053-3.225-7.053-7.813c0-4.48,2.6-7.813,7.053-7.813m0,13.721c3.38,0,4.828-2.9,4.828-5.909,0-3.072-1.595-5.93-4.828-5.908C44,3.332,42.407,6.189,42.407,9.261c0,3.009,1.448,5.909,4.828,5.909M55.4,5.778h1.911V7.53h.041a3.828,3.828,0,0,1,3.505-2.013c2.772,0,4.01,1.774,4.01,4.74v6.557H62.895V11.1c0-2.575-.546-3.831-2.266-3.939-2.247,0-3.254,1.862-3.254,4.546v5.107H55.4ZM74.755,16.36a8,8,0,0,1-3.38.714c-3.8,0-5.541-2.381-5.541-5.973,0-3.268,1.993-5.583,5.017-5.583,3.569,0,4.722,2.683,4.722,6.233h-7.64a3.557,3.557,0,0,0,3.526,3.679,6.193,6.193,0,0,0,3.3-1.1Zm-1.281-6.125c0-1.688-.966-3.074-2.665-3.074-1.932,0-2.73,1.646-2.876,3.074ZM4.179.936c2.7,0,3.519.275,4.411.778a4.461,4.461,0,0,1,2.282,4.115,4.874,4.874,0,0,1-2.74,4.613,6.627,6.627,0,0,1-3.175.523H3.2v5.849H0V.936ZM3.2,8.363H4.865c1.3,0,1.692-.163,2.123-.821a2.83,2.83,0,0,0,.389-1.651A2.084,2.084,0,0,0,5.229,3.519H3.2ZM15.375,1.9a1.885,1.885,0,1,1-3.77,0A1.911,1.911,0,0,1,13.523,0a1.87,1.87,0,0,1,1.852,1.9M15.007,4.84V16.814H11.95V5.323Zm4.134-.019a2.971,2.971,0,0,1,.434,1.46,13.931,13.931,0,0,1,1.351-.869,4.85,4.85,0,0,1,2.1-.5A2.9,2.9,0,0,1,25.836,6.6a4.7,4.7,0,0,1,.228,1.666v8.545H23.05V9.206c0-1.322-.229-1.712-1.031-1.712A3.577,3.577,0,0,0,19.9,8.544v8.271H16.835V8.339A8.406,8.406,0,0,0,16.424,5.6ZM39.407,6.4a2.912,2.912,0,0,1-2.148.868,7.108,7.108,0,0,1-.8-.066,2.812,2.812,0,0,1,.686,1.916c0,2.008-1.827,3.474-4.318,3.474a3.482,3.482,0,0,1-.458-.025c-.774.369-1.209.642-1.209.959,0,.161.183.278.5.278l1.646.02c1.78.023,2.719.3,3.541,1.05a3.2,3.2,0,0,1,1.005,2.493,3.319,3.319,0,0,1-.937,2.418A6.3,6.3,0,0,1,32.3,21.291a6.539,6.539,0,0,1-4.43-1.255,2.752,2.752,0,0,1-.959-2.081,2.349,2.349,0,0,1,.273-1.186h2.834a1.643,1.643,0,0,0-.139.755c0,.936.778,1.435,2.2,1.435a3.708,3.708,0,0,0,1.918-.383,1.433,1.433,0,0,0,.754-1.188c0-1.053-.938-1.372-2.149-1.394l-1.3-.026a8.341,8.341,0,0,1-2.811-.363,1.488,1.488,0,0,1-.891-1.528c0-.757.23-1.467,2.148-1.968A3.031,3.031,0,0,1,27.23,8.862c0-2.4,1.944-3.947,4.935-3.947a8.56,8.56,0,0,1,2.1.291,6.11,6.11,0,0,0,1.438.254,3.677,3.677,0,0,0,2.423-1.006ZM30.312,8.888c0,1.188.735,1.664,1.807,1.664,1.209,0,1.874-.591,1.874-1.664A1.646,1.646,0,0,0,32.14,7.149a1.628,1.628,0,0,0-1.828,1.738M79.342,4.64a1.885,1.885,0,1,1-1.879-1.834A1.843,1.843,0,0,1,79.342,4.64m-3.3,0a1.422,1.422,0,0,0,1.431,1.466,1.4,1.4,0,0,0,1.4-1.454,1.416,1.416,0,1,0-2.83-.012m1.131.961h-.426V3.768a3.647,3.647,0,0,1,.705-.057,1.149,1.149,0,0,1,.638.134.509.509,0,0,1,.178.4.469.469,0,0,1-.38.425V4.7a.54.54,0,0,1,.336.447,1.371,1.371,0,0,0,.134.458H77.9a1.529,1.529,0,0,1-.146-.447c-.033-.2-.145-.291-.38-.291h-.2Zm.011-1.04h.2c.236,0,.426-.079.426-.268,0-.168-.122-.28-.391-.28a1,1,0,0,0-.235.023Z" fill="#fff"/>
      </g>
    </g>
  </g>
</svg>
