<svg xmlns="http://www.w3.org/2000/svg" width="96" height="96" viewBox="0 0 96 96">
  <g id="Ping_DS" data-name="Ping DS" transform="translate(-872 -7)">
    <circle id="Ellipse_6" data-name="Ellipse 6" cx="48" cy="48" r="48" transform="translate(872 7)" fill="#ae2430"/>
    <g id="Group_8" data-name="Group 8" transform="translate(-42.095 -130.595)">
      <path id="Path_9" data-name="Path 9" d="M-5.361-3.9A1.456,1.456,0,0,0-3.9-5.361,1.456,1.456,0,0,0-5.361-6.817,1.456,1.456,0,0,0-6.817-5.361,1.456,1.456,0,0,0-5.361-3.9Z" transform="translate(977.601 182.354)" fill="#fff"/>
      <path id="Path_16" data-name="Path 16" d="M-7.458,0h3.186" transform="translate(987.847 164.822)" fill="#fff"/>
      <path id="Path_16_-_Outline" data-name="Path 16 - Outline" d="M-4.272-2.578H-7.458V-4.5h3.186Z" transform="translate(987.847 168.361)" fill="#fff"/>
      <path id="Path_17" data-name="Path 17" d="M-14.694,0h6.277" transform="translate(996.839 168.655)" fill="#fff"/>
      <path id="Path_17_-_Outline" data-name="Path 17 - Outline" d="M-8.417-2.578h-6.277V-4.5h6.277Z" transform="translate(996.839 172.193)" fill="#fff"/>
      <g id="Group_7" data-name="Group 7" transform="translate(935.095 162.595)">
        <path id="Path_10_-_Outline" data-name="Path 10 - Outline" d="M-58.646-15.434c-7.71,0-15.965-2.284-15.965-5.684,0-3.6,8.284-5.826,15.96-5.826,7.822,0,15.913,2.179,15.913,5.826C-42.738-17.768-51.122-15.434-58.646-15.434Zm0-9.588c-8.249,0-14.038,2.533-14.038,3.9,0,1.117,5.45,3.762,14.042,3.762,8.872,0,13.986-2.855,13.986-3.762C-44.661-22.458-50.109-25.022-58.651-25.022Z" transform="translate(85.089 26.944)" fill="#fff"/>
        <path id="Path_11_-_Outline" data-name="Path 11 - Outline" d="M-27.339-13.3c-5.984,0-10.787-.244-18.127-3.4l-.582-.25.007-7.949,1.922,0-.006,6.677c6.685,2.782,11.018,3,16.786,3Z" transform="translate(56.222 58.102)" fill="#fff"/>
        <path id="Path_12_-_Outline" data-name="Path 12 - Outline" d="M-24.019-13.265a38.051,38.051,0,0,1-15.651-3.37l-.583-.25.007-7.949,1.922,0-.006,6.677a35.9,35.9,0,0,0,14.31,2.968Z" transform="translate(50.425 46.609)" fill="#fff"/>
        <path id="Path_13_-_Outline" data-name="Path 13 - Outline" d="M-59.953-13.656A38.255,38.255,0,0,1-75.6-17.04l-.584-.249.007-7.913,1.922,0-.006,6.638a36.068,36.068,0,0,0,14.311,2.984,35,35,0,0,0,14.389-2.947l0-6.993h1.922v8.062l-.549.418A36.755,36.755,0,0,1-59.953-13.656Z" transform="translate(86.368 35.498)" fill="#fff"/>
        <path id="Path_14" data-name="Path 14" d="M-20.944,0H-12" transform="translate(20.944 45.911)" fill="#fff"/>
        <path id="Path_14_-_Outline" data-name="Path 14 - Outline" d="M-12-2.578h-8.947V-4.5H-12Z" transform="translate(20.944 49.449)" fill="#fff"/>
        <path id="Path_15" data-name="Path 15" d="M-7.778,0h3.323" transform="translate(11.267 42.05)" fill="#fff"/>
        <path id="Path_15_-_Outline" data-name="Path 15 - Outline" d="M-4.455-2.578H-7.778V-4.5h3.323Z" transform="translate(11.267 45.589)" fill="#fff"/>
        <path id="Path_18_-_Outline" data-name="Path 18 - Outline" d="M-41.911-53.294A11.4,11.4,0,0,1-30.528-41.911,11.4,11.4,0,0,1-41.911-30.528,11.4,11.4,0,0,1-53.294-41.911,11.4,11.4,0,0,1-41.911-53.294Zm0,20.844a9.472,9.472,0,0,0,9.461-9.461,9.472,9.472,0,0,0-9.461-9.461,9.472,9.472,0,0,0-9.461,9.461A9.472,9.472,0,0,0-41.911-32.45Z" transform="translate(82.104 75.668)" fill="#fff"/>
      </g>
      <path id="Path_19_-_Outline" data-name="Path 19 - Outline" d="M-16.16-20.549a4.394,4.394,0,0,1,4.389,4.389,4.394,4.394,0,0,1-4.389,4.389,4.394,4.394,0,0,1-4.389-4.389A4.394,4.394,0,0,1-16.16-20.549Zm0,6.856a2.47,2.47,0,0,0,2.467-2.467,2.47,2.47,0,0,0-2.467-2.467,2.47,2.47,0,0,0-2.467,2.467A2.47,2.47,0,0,0-16.16-13.693Z" transform="translate(991.668 209.325)" fill="#fff"/>
      <path id="Path_20_-_Outline" data-name="Path 20 - Outline" d="M-18.961-11.914l-1.921-.069a5,5,0,0,0-1.367-3.695,5.2,5.2,0,0,0-3.789-1.56,5.048,5.048,0,0,0-5.133,5.3h-1.922a6.984,6.984,0,0,1,7.055-7.224,7.1,7.1,0,0,1,5.172,2.148A6.9,6.9,0,0,1-18.961-11.914Z" transform="translate(1001.307 217.167)" fill="#fff"/>
    </g>
  </g>
</svg>
