<svg xmlns="http://www.w3.org/2000/svg" xmlns:xlink="http://www.w3.org/1999/xlink" width="96" height="96" viewBox="0 0 96 96">
  <defs>
    <clipPath id="clip-path">
      <rect id="Rectangle_131" data-name="Rectangle 131" width="68.684" height="70.836" fill="none"/>
    </clipPath>
  </defs>
  <g id="postgress" transform="translate(-926 -553)">
    <circle id="Ellipse_49" data-name="Ellipse 49" cx="48" cy="48" r="48" transform="translate(926 553)"/>
    <g id="Group_298" data-name="Group 298" transform="translate(940 566)">
      <g id="Group_297" data-name="Group 297" transform="translate(0 0)" clip-path="url(#clip-path)">
        <path id="Path_565" data-name="Path 565" d="M51.479,51.721c.451-3.764.317-4.315,3.12-3.706l.711.063a16.209,16.209,0,0,0,6.632-1.116c3.566-1.654,5.68-4.416,2.164-3.691-8.021,1.654-8.572-1.062-8.572-1.062C64,29.643,67.544,13.691,64.488,9.786c-8.335-10.65-22.764-5.614-23-5.483l-.077.013a28.7,28.7,0,0,0-5.351-.557A13.221,13.221,0,0,0,27.583,6.3S1.843-4.308,3.04,19.631c.255,5.093,7.3,38.536,15.7,28.435,3.071-3.694,6.039-6.817,6.039-6.817a7.786,7.786,0,0,0,5.088,1.3l.143-.121a5.538,5.538,0,0,0,.058,1.438c-2.164,2.419-1.529,2.843-5.856,3.734-4.379.9-1.806,2.509-.127,2.929,2.035.509,6.745,1.231,9.929-3.225l-.127.509c.85.678.792,4.882.912,7.886a28.364,28.364,0,0,0,.934,7.458c.612,1.652,1.334,5.909,7.022,4.69,4.753-1.019,8.388-2.485,8.719-16.123" transform="translate(-0.113 -0.113)"/>
        <path id="Path_566" data-name="Path 566" d="M51.479,51.721c.451-3.764.317-4.315,3.12-3.706l.711.063a16.209,16.209,0,0,0,6.632-1.116c3.566-1.654,5.68-4.416,2.164-3.691-8.021,1.654-8.572-1.062-8.572-1.062C64,29.643,67.544,13.691,64.488,9.786c-8.335-10.65-22.764-5.614-23-5.483l-.077.013a28.7,28.7,0,0,0-5.351-.557A13.221,13.221,0,0,0,27.583,6.3S1.843-4.308,3.04,19.631c.255,5.093,7.3,38.536,15.7,28.435,3.071-3.694,6.039-6.817,6.039-6.817a7.786,7.786,0,0,0,5.088,1.3l.143-.121a5.538,5.538,0,0,0,.058,1.438c-2.164,2.419-1.529,2.843-5.856,3.734-4.379.9-1.806,2.509-.127,2.929,2.035.509,6.745,1.231,9.929-3.225l-.127.509c.85.678.792,4.882.912,7.886a28.364,28.364,0,0,0,.934,7.458c.612,1.652,1.334,5.909,7.022,4.69,4.753-1.019,8.388-2.485,8.719-16.123" transform="translate(-0.113 -0.113)" fill="none" stroke="#000" stroke-width="6"/>
        <path id="Path_567" data-name="Path 567" d="M64.107,43.271c-8.022,1.654-8.573-1.062-8.573-1.062C64,29.642,67.543,13.69,64.489,9.786,56.153-.864,41.724,4.172,41.483,4.3l-.078.014a28.594,28.594,0,0,0-5.352-.558A13.219,13.219,0,0,0,27.582,6.3S1.842-4.308,3.039,19.631c.255,5.093,7.3,38.536,15.7,28.435,3.072-3.694,6.039-6.817,6.039-6.817a7.8,7.8,0,0,0,5.088,1.3l.143-.122a5.63,5.63,0,0,0,.058,1.439c-2.164,2.419-1.528,2.843-5.856,3.734-4.378.9-1.806,2.509-.127,2.929,2.036.509,6.747,1.23,9.93-3.225l-.127.508c.848.679,1.444,4.419,1.344,7.809s-.166,5.718.5,7.536,1.334,5.908,7.023,4.689c4.754-1.018,7.217-3.658,7.56-8.061.243-3.131.794-2.668.829-5.466l.442-1.325c.509-4.244.081-5.613,3.009-4.977l.711.063a16.229,16.229,0,0,0,6.633-1.115C65.507,45.307,67.621,42.545,64.107,43.271Z" transform="translate(-0.113 -0.113)" fill="#336791"/>
        <path id="Path_568" data-name="Path 568" d="M35.584,47.371c-.22,7.9.056,15.847.828,17.779s2.428,5.692,8.117,4.472c4.753-1.018,6.483-2.99,7.233-7.343.552-3.2,1.618-12.1,1.754-13.918" transform="translate(-1.335 -1.781)" fill="none" stroke="#fff" stroke-linecap="round" stroke-linejoin="round" stroke-width="2"/>
        <path id="Path_569" data-name="Path 569" d="M27.54,6.151S1.782-4.377,2.98,19.564C3.234,24.657,10.28,58.1,18.683,48c3.071-3.694,5.849-6.591,5.849-6.591" transform="translate(-0.111 -0.145)" fill="none" stroke="#fff" stroke-linecap="round" stroke-linejoin="round" stroke-width="2"/>
        <path id="Path_570" data-name="Path 570" d="M42.957,4.193c-.891.279,14.328-5.564,22.977,5.489,3.055,3.9-.485,19.856-8.955,32.424" transform="translate(-1.614 -0.109)" fill="none" stroke="#fff" stroke-linecap="round" stroke-linejoin="round" stroke-width="2"/>
        <path id="Path_571" data-name="Path 571" d="M56.18,42.136s.551,2.717,8.574,1.061c3.515-.726,1.4,2.037-2.165,3.693-2.926,1.358-9.484,1.705-9.591-.17-.276-4.841,3.452-3.37,3.183-4.583-.243-1.092-1.91-2.164-3.013-4.838-.962-2.334-13.2-20.228,3.4-17.571C57.169,19.6,52.233,3.94,36.7,3.685s-15.02,19.1-15.02,19.1" transform="translate(-0.815 -0.139)" fill="none" stroke="#fff" stroke-linecap="round" stroke-linejoin="bevel" stroke-width="2"/>
        <path id="Path_572" data-name="Path 572" d="M30.747,45.323c-2.165,2.419-1.528,2.843-5.856,3.734-4.379.9-1.806,2.509-.127,2.929,2.036.51,6.746,1.231,9.929-3.226.969-1.357-.006-3.521-1.337-4.074A1.966,1.966,0,0,0,30.747,45.323Z" transform="translate(-0.845 -1.671)" fill="none" stroke="#fff" stroke-linecap="round" stroke-linejoin="round" stroke-width="2"/>
        <path id="Path_573" data-name="Path 573" d="M30.564,44.378c-.218-1.422.467-3.114,1.2-5.094,1.1-2.97,3.65-5.941,1.613-15.363-1.519-7.021-11.7-1.461-11.71-.509a47.8,47.8,0,0,1-.17,9.336c-.823,5.887,3.746,10.865,9.007,10.355" transform="translate(-0.805 -0.768)" fill="none" stroke="#fff" stroke-linecap="round" stroke-linejoin="round" stroke-width="2"/>
        <path id="Path_574" data-name="Path 574" d="M28.4,23.365c-.046.325.6,1.192,1.431,1.309a1.542,1.542,0,0,0,1.595-.886c.045-.325-.595-.683-1.432-.8S28.448,23.04,28.4,23.365Z" transform="translate(-1.068 -0.863)" fill="#fff"/>
        <path id="Path_575" data-name="Path 575" d="M28.4,23.365c-.046.325.6,1.192,1.431,1.309a1.542,1.542,0,0,0,1.595-.886c.045-.325-.595-.683-1.432-.8S28.448,23.04,28.4,23.365Z" transform="translate(-1.068 -0.863)" fill="none" stroke="#fff" stroke-width="0.5"/>
        <path id="Path_576" data-name="Path 576" d="M54.7,22.676c.045.325-.595,1.192-1.431,1.309a1.543,1.543,0,0,1-1.6-.886c-.044-.325.6-.683,1.432-.8S54.656,22.351,54.7,22.676Z" transform="translate(-1.943 -0.837)" fill="#fff"/>
        <path id="Path_577" data-name="Path 577" d="M54.7,22.676c.045.325-.595,1.192-1.431,1.309a1.543,1.543,0,0,1-1.6-.886c-.044-.325.6-.683,1.432-.8S54.656,22.351,54.7,22.676Z" transform="translate(-1.943 -0.837)" fill="none" stroke="#fff" stroke-width="0.5"/>
        <path id="Path_578" data-name="Path 578" d="M57.855,20.354c.138,2.55-.55,4.287-.636,7-.128,3.947,1.881,8.464-1.146,12.987" transform="translate(-2.108 -0.765)" fill="none" stroke="#fff" stroke-linecap="round" stroke-linejoin="round" stroke-width="2"/>
      </g>
    </g>
  </g>
</svg>
