<svg xmlns="http://www.w3.org/2000/svg" xmlns:xlink="http://www.w3.org/1999/xlink" width="96" height="96" viewBox="0 0 96 96">
  <defs>
    <clipPath id="clip-path">
      <rect id="Rectangle_123" data-name="Rectangle 123" width="61.52" height="50.866" transform="translate(0 0)" fill="none"/>
    </clipPath>
  </defs>
  <g id="qad" transform="translate(-1502 -195)">
    <circle id="Ellipse_76" data-name="Ellipse 76" cx="48" cy="48" r="48" transform="translate(1502 195)" fill="#3eb4ed"/>
    <g id="Group_284" data-name="Group 284" transform="translate(1519 217.998)">
      <g id="Group_283" data-name="Group 283" transform="translate(0 0.002)" clip-path="url(#clip-path)">
        <path id="Path_401" data-name="Path 401" d="M7.76,0h46a7.783,7.783,0,0,1,7.76,7.761v35.91a7.757,7.757,0,0,1-4.939,7.2L30.76,25.047,4.868,50.869A7.7,7.7,0,0,1,0,43.673V7.762A7.738,7.738,0,0,1,7.715,0Z" transform="translate(0 -0.002)" fill="#fff" fill-rule="evenodd"/>
        <path id="Path_402" data-name="Path 402" d="M304.166,171.217a18.214,18.214,0,0,1,13.192,30.76l-13.192-13.193L290.9,201.977a18.214,18.214,0,0,1,13.263-30.76M297.6,181.658h0Z" transform="translate(-273.406 -163.739)" fill="#00acec" fill-rule="evenodd"/>
        <path id="Path_403" data-name="Path 403" d="M297.6,181.658h23.017a18.2,18.2,0,0,1-3.263,20.318l-13.192-13.193L290.9,201.977a18.228,18.228,0,1,1,29.719-20.318Z" transform="translate(-273.406 -163.739)" fill="#00acec" fill-rule="evenodd"/>
        <path id="Path_404" data-name="Path 404" d="M297.6,181.658h23.017a18.2,18.2,0,0,1-3.263,20.318l-13.192-13.193L290.9,201.977a18.228,18.228,0,1,1,29.719-20.318Z" transform="translate(-273.406 -163.739)" fill="#00aded" fill-rule="evenodd"/>
        <path id="Path_405" data-name="Path 405" d="M297.6,181.658h23.017a18.2,18.2,0,0,1-3.263,20.318l-13.192-13.193L290.9,201.977a18.228,18.228,0,1,1,29.719-20.318Z" transform="translate(-273.406 -163.739)" fill="#00aded" fill-rule="evenodd"/>
        <path id="Path_406" data-name="Path 406" d="M297.6,181.658h23.017a18.2,18.2,0,0,1-3.263,20.318l-13.192-13.193L290.9,201.977a18.228,18.228,0,1,1,29.719-20.318Z" transform="translate(-273.406 -163.739)" fill="#00aded" fill-rule="evenodd"/>
        <path id="Path_407" data-name="Path 407" d="M297.6,181.658h23.017a18.2,18.2,0,0,1-3.263,20.318l-13.192-13.193L290.9,201.977a18.228,18.228,0,1,1,29.719-20.318Z" transform="translate(-273.406 -163.739)" fill="#00aded" fill-rule="evenodd"/>
        <path id="Path_408" data-name="Path 408" d="M297.6,181.658h23.017a18.2,18.2,0,0,1-3.263,20.318l-13.192-13.193L290.9,201.977a18.228,18.228,0,1,1,29.719-20.318Z" transform="translate(-273.406 -163.739)" fill="#00aeed" fill-rule="evenodd"/>
        <path id="Path_409" data-name="Path 409" d="M297.6,181.658h23.017a18.2,18.2,0,0,1-3.263,20.318l-13.192-13.193L290.9,201.977a18.228,18.228,0,1,1,29.719-20.318Z" transform="translate(-273.406 -163.739)" fill="#00aeed" fill-rule="evenodd"/>
        <path id="Path_410" data-name="Path 410" d="M297.6,181.658h23.017a18.2,18.2,0,0,1-3.263,20.318l-13.192-13.193L290.9,201.977a18.228,18.228,0,1,1,29.719-20.318Z" transform="translate(-273.406 -163.739)" fill="#00aeed" fill-rule="evenodd"/>
        <path id="Path_411" data-name="Path 411" d="M297.6,181.658h23.017a18.2,18.2,0,0,1-3.263,20.318l-13.192-13.193L290.9,201.977a18.228,18.228,0,1,1,29.719-20.318Z" transform="translate(-273.406 -163.739)" fill="#00afed" fill-rule="evenodd"/>
        <path id="Path_412" data-name="Path 412" d="M297.6,181.658h23.017a18.2,18.2,0,0,1-3.263,20.318l-13.192-13.193L290.9,201.977a18.228,18.228,0,1,1,29.719-20.318Z" transform="translate(-273.406 -163.739)" fill="#00afed" fill-rule="evenodd"/>
        <path id="Path_413" data-name="Path 413" d="M297.6,181.658h23.017a18.2,18.2,0,0,1-3.263,20.318l-13.192-13.193L290.9,201.977a18.228,18.228,0,1,1,29.719-20.318Z" transform="translate(-273.406 -163.739)" fill="#00afed" fill-rule="evenodd"/>
        <path id="Path_414" data-name="Path 414" d="M297.6,181.658h23.017a18.2,18.2,0,0,1-3.263,20.318l-13.192-13.193L290.9,201.977a18.228,18.228,0,1,1,29.719-20.318Z" transform="translate(-273.406 -163.739)" fill="#00b0ed" fill-rule="evenodd"/>
        <path id="Path_415" data-name="Path 415" d="M297.6,181.658h23.017a18.2,18.2,0,0,1-3.263,20.318l-13.192-13.193L290.9,201.977a18.228,18.228,0,1,1,29.719-20.318Z" transform="translate(-273.406 -163.739)" fill="#00b0ed" fill-rule="evenodd"/>
        <path id="Path_416" data-name="Path 416" d="M297.6,181.658h23.017a18.2,18.2,0,0,1-3.263,20.318l-13.192-13.193L290.9,201.977a18.228,18.228,0,1,1,29.719-20.318Z" transform="translate(-273.406 -163.739)" fill="#16b0ed" fill-rule="evenodd"/>
        <path id="Path_417" data-name="Path 417" d="M297.6,181.658h23.017a18.2,18.2,0,0,1-3.263,20.318l-13.192-13.193L290.9,201.977a18.228,18.228,0,1,1,29.719-20.318Z" transform="translate(-273.406 -163.739)" fill="#16b0ed" fill-rule="evenodd"/>
        <path id="Path_418" data-name="Path 418" d="M297.6,181.658h23.017a18.2,18.2,0,0,1-2.593,19.579q-.345.359-.7.706l-13.158-13.159L290.9,201.977a18.228,18.228,0,1,1,29.719-20.318Z" transform="translate(-273.406 -163.739)" fill="#1fb1ee" fill-rule="evenodd"/>
        <path id="Path_419" data-name="Path 419" d="M297.6,181.658h23.017a18.217,18.217,0,0,1-.859,17.173,28.312,28.312,0,0,1-2.613,2.936l-12.983-12.983L290.9,201.977a18.228,18.228,0,1,1,29.719-20.318Z" transform="translate(-273.406 -163.739)" fill="#1fb1ee" fill-rule="evenodd"/>
        <path id="Path_420" data-name="Path 420" d="M297.6,181.658h23.017a18.034,18.034,0,0,1,1.747,7.761,18.234,18.234,0,0,1-1.766,7.853,28.01,28.01,0,0,1-3.63,4.318l-12.806-12.806L290.9,201.977a18.228,18.228,0,1,1,29.719-20.318Z" transform="translate(-273.406 -163.739)" fill="#25b2ee" fill-rule="evenodd"/>
        <path id="Path_421" data-name="Path 421" d="M297.6,181.658h23.017a18.034,18.034,0,0,1,1.747,7.761,18.257,18.257,0,0,1-1.147,6.391,27.733,27.733,0,0,1-4.425,5.6l-12.63-12.63L290.9,201.977a18.228,18.228,0,1,1,29.719-20.318Z" transform="translate(-273.406 -163.739)" fill="#2ab2ee" fill-rule="evenodd"/>
        <path id="Path_422" data-name="Path 422" d="M297.6,181.658h23.017a18.034,18.034,0,0,1,1.747,7.761,18.351,18.351,0,0,1-.77,5.269,27.421,27.421,0,0,1-4.979,6.549l-12.453-12.453L290.9,201.977a18.228,18.228,0,1,1,29.719-20.318Z" transform="translate(-273.406 -163.739)" fill="#2ab2ee" fill-rule="evenodd"/>
        <path id="Path_423" data-name="Path 423" d="M297.6,181.658h23.017a18.034,18.034,0,0,1,1.747,7.761,18.327,18.327,0,0,1-.453,4.062,27.2,27.2,0,0,1-5.472,7.581l-12.277-12.277L290.9,201.977a18.228,18.228,0,1,1,29.719-20.318Z" transform="translate(-273.406 -163.739)" fill="#2fb3ee" fill-rule="evenodd"/>
        <path id="Path_424" data-name="Path 424" d="M297.6,181.658h23.017a18.034,18.034,0,0,1,1.747,7.761,18.472,18.472,0,0,1-.23,2.911,26.881,26.881,0,0,1-5.889,8.538l-12.084-12.084L290.9,201.977a18.228,18.228,0,1,1,29.719-20.318Z" transform="translate(-273.406 -163.739)" fill="#33b3ee" fill-rule="evenodd"/>
        <path id="Path_425" data-name="Path 425" d="M297.6,181.658h23.017a18.034,18.034,0,0,1,1.747,7.761,18.5,18.5,0,0,1-.114,2.054,26.578,26.578,0,0,1-6.181,9.217l-11.907-11.906L290.9,201.977a18.228,18.228,0,1,1,29.719-20.318Z" transform="translate(-273.406 -163.739)" fill="#33b3ee" fill-rule="evenodd"/>
        <path id="Path_426" data-name="Path 426" d="M297.6,181.658h23.017a18.035,18.035,0,0,1,1.717,8.808,26.371,26.371,0,0,1-6.441,10.049l-11.731-11.731L290.9,201.977a18.228,18.228,0,1,1,29.719-20.318Z" transform="translate(-273.406 -163.739)" fill="#37b4ee" fill-rule="evenodd"/>
        <path id="Path_427" data-name="Path 427" d="M297.6,181.658h23.017a18.034,18.034,0,0,1,1.744,8.067,26,26,0,0,1-6.632,10.625l-11.567-11.567L290.9,201.977a18.228,18.228,0,1,1,29.719-20.318Z" transform="translate(-273.406 -163.739)" fill="#37b4ee" fill-rule="evenodd"/>
        <path id="Path_428" data-name="Path 428" d="M297.6,181.658h23.017a18.019,18.019,0,0,1,1.735,7.151,25.809,25.809,0,0,1-6.8,11.366l-11.391-11.391L290.9,201.977a18.228,18.228,0,1,1,29.719-20.318Z" transform="translate(-273.406 -163.739)" fill="#3bb5ee" fill-rule="evenodd"/>
        <path id="Path_429" data-name="Path 429" d="M297.6,181.658h23.017a18.021,18.021,0,0,1,1.7,6.458A25.5,25.5,0,0,1,315.38,200l-11.214-11.214L290.9,201.977a18.228,18.228,0,1,1,29.719-20.318Z" transform="translate(-273.406 -163.739)" fill="#3bb5ee" fill-rule="evenodd"/>
        <path id="Path_430" data-name="Path 430" d="M297.6,181.658h23.017a18.039,18.039,0,0,1,1.618,5.608,25.32,25.32,0,0,1-7.036,12.556l-11.038-11.038L290.9,201.977a18.228,18.228,0,1,1,29.719-20.318Z" transform="translate(-273.406 -163.739)" fill="#3eb5ee" fill-rule="evenodd"/>
        <path id="Path_431" data-name="Path 431" d="M297.6,181.658h23.017a18.018,18.018,0,0,1,1.534,4.978,25.007,25.007,0,0,1-7.127,13.009l-10.861-10.862L290.9,201.977a18.228,18.228,0,1,1,29.719-20.318Z" transform="translate(-273.406 -163.739)" fill="#3eb5ee" fill-rule="evenodd"/>
        <path id="Path_432" data-name="Path 432" d="M297.6,181.658h23.017a18.038,18.038,0,0,1,1.393,4.194,24.822,24.822,0,0,1-7.163,13.618l-10.685-10.685L290.9,201.977a18.228,18.228,0,1,1,29.719-20.318Z" transform="translate(-273.406 -163.739)" fill="#42b6ef" fill-rule="evenodd"/>
        <path id="Path_433" data-name="Path 433" d="M297.6,181.658h23.017a18.043,18.043,0,0,1,1.225,3.44,24.519,24.519,0,0,1-7.188,14.177l-10.492-10.492L290.9,201.977a18.228,18.228,0,1,1,29.719-20.318Z" transform="translate(-273.406 -163.739)" fill="#45b7ef" fill-rule="evenodd"/>
        <path id="Path_434" data-name="Path 434" d="M297.6,181.658h23.017a18.121,18.121,0,0,1,1.082,2.892,24.325,24.325,0,0,1-7.2,14.567l-10.333-10.333L290.9,201.977a18.228,18.228,0,1,1,29.719-20.318Z" transform="translate(-273.406 -163.739)" fill="#45b7ef" fill-rule="evenodd"/>
        <path id="Path_435" data-name="Path 435" d="M297.6,181.658h23.017a17.978,17.978,0,0,1,.871,2.193,24.023,24.023,0,0,1-7.187,15.072l-10.138-10.139L290.9,201.977a18.228,18.228,0,1,1,29.719-20.318Z" transform="translate(-273.406 -163.739)" fill="#48b7ef" fill-rule="evenodd"/>
        <path id="Path_436" data-name="Path 436" d="M297.6,181.658h23.017a17.954,17.954,0,0,1,.7,1.688,23.707,23.707,0,0,1-7.193,15.4l-9.962-9.962L290.9,201.977a18.228,18.228,0,1,1,29.719-20.318Z" transform="translate(-273.406 -163.739)" fill="#4bb8ef" fill-rule="evenodd"/>
        <path id="Path_437" data-name="Path 437" d="M297.6,181.658h23.017q.242.51.454,1.036a23.5,23.5,0,0,1-7.11,15.89l-9.8-9.8L290.9,201.977a18.228,18.228,0,1,1,29.719-20.318Z" transform="translate(-273.406 -163.739)" fill="#4bb8ef" fill-rule="evenodd"/>
        <path id="Path_438" data-name="Path 438" d="M297.6,181.658h23.017c.09.188.176.377.258.568a23.189,23.189,0,0,1-7.091,16.18l-9.622-9.622L290.9,201.977a18.228,18.228,0,1,1,29.719-20.318Z" transform="translate(-273.406 -163.739)" fill="#4eb9ef" fill-rule="evenodd"/>
        <path id="Path_439" data-name="Path 439" d="M297.6,181.658h23v-.038a18.232,18.232,0,1,0-29.7,20.356l13.263-13.193,9.446,9.447a23.026,23.026,0,0,0,6.993-16.572Z" transform="translate(-273.406 -163.739)" fill="#51b9ef" fill-rule="evenodd"/>
        <path id="Path_440" data-name="Path 440" d="M297.6,181.658h22.788c0-.16,0-.318-.006-.478a18.232,18.232,0,1,0-29.484,20.8l13.263-13.193,9.269,9.269a22.7,22.7,0,0,0,6.957-16.4Z" transform="translate(-273.406 -163.739)" fill="#51b9ef" fill-rule="evenodd"/>
        <path id="Path_441" data-name="Path 441" d="M297.6,181.658H320.11c0-.349-.009-.7-.024-1.039A18.23,18.23,0,1,0,290.9,201.977l13.263-13.193,9.094,9.094a22.532,22.532,0,0,0,6.85-16.219Z" transform="translate(-273.406 -163.739)" fill="#54baf0" fill-rule="evenodd"/>
        <path id="Path_442" data-name="Path 442" d="M297.592,181.646h22.294c0-.487-.018-.97-.049-1.451a18.229,18.229,0,1,0-28.948,21.769l13.264-13.193,8.916,8.916a22.209,22.209,0,0,0,6.816-16.042H297.592Z" transform="translate(-273.394 -163.726)" fill="#54baf0" fill-rule="evenodd"/>
        <path id="Path_443" data-name="Path 443" d="M297.592,181.658H319.6c0-.667-.031-1.326-.089-1.978a18.229,18.229,0,1,0-28.625,22.3l13.264-13.193,8.741,8.741a22.046,22.046,0,0,0,6.709-15.866Z" transform="translate(-273.394 -163.739)" fill="#56bbf0" fill-rule="evenodd"/>
        <path id="Path_444" data-name="Path 444" d="M297.592,181.658h21.73a21.954,21.954,0,0,0-.143-2.485,18.228,18.228,0,1,0-28.289,22.8l13.264-13.193,8.546,8.546a21.761,21.761,0,0,0,6.622-15.673H297.592Z" transform="translate(-273.394 -163.739)" fill="#56bbf0" fill-rule="evenodd"/>
        <path id="Path_445" data-name="Path 445" d="M297.592,181.658H319.11a21.457,21.457,0,0,0-.19-2.853,18.227,18.227,0,1,0-28.03,23.171l13.264-13.193,8.37,8.37a21.438,21.438,0,0,0,6.588-15.5Z" transform="translate(-273.394 -163.739)" fill="#59bbf0" fill-rule="evenodd"/>
        <path id="Path_446" data-name="Path 446" d="M297.592,181.658h21.236a21.257,21.257,0,0,0-.261-3.326,18.226,18.226,0,1,0-27.795,23.52l.183.059,13.2-13.127,8.194,8.194a21.265,21.265,0,0,0,6.481-15.32H297.592Z" transform="translate(-273.394 -163.739)" fill="#59bbf0" fill-rule="evenodd"/>
        <path id="Path_447" data-name="Path 447" d="M297.6,181.658h21.024a21.036,21.036,0,0,0-.322-3.672,18.227,18.227,0,1,0-27.914,23.433c.263.1.53.185.8.271l12.975-12.906,8.017,8.017a20.943,20.943,0,0,0,6.446-15.143H297.6Z" transform="translate(-273.406 -163.739)" fill="#5cbcf0" fill-rule="evenodd"/>
        <path id="Path_448" data-name="Path 448" d="M297.592,181.646h20.742a20.68,20.68,0,0,0-.412-4.117,18.226,18.226,0,0,0-27.837,23.533q.623.241,1.265.443l12.8-12.734,7.842,7.842a20.776,20.776,0,0,0,6.338-14.967Z" transform="translate(-273.394 -163.726)" fill="#5ebdf0" fill-rule="evenodd"/>
        <path id="Path_449" data-name="Path 449" d="M297.6,181.658h20.53a20.389,20.389,0,0,0-.489-4.443,18.227,18.227,0,0,0-27.906,23.418q.9.373,1.848.662l12.578-12.511,7.665,7.664a20.456,20.456,0,0,0,6.3-14.79Z" transform="translate(-273.406 -163.739)" fill="#5ebdf0" fill-rule="evenodd"/>
        <path id="Path_450" data-name="Path 450" d="M297.592,181.658H317.84a20.119,20.119,0,0,0-.592-4.854,18.226,18.226,0,0,0-27.79,23.475,20.19,20.19,0,0,0,2.291.841l12.4-12.337,7.489,7.489a20.286,20.286,0,0,0,6.2-14.615Z" transform="translate(-273.394 -163.739)" fill="#61bdf0" fill-rule="evenodd"/>
        <path id="Path_451" data-name="Path 451" d="M297.592,181.658h20.036a19.958,19.958,0,0,0-.672-5.151,18.227,18.227,0,0,0-27.823,23.321,19.9,19.9,0,0,0,2.843,1.069l12.178-12.113,7.312,7.311a19.967,19.967,0,0,0,6.163-14.437Z" transform="translate(-273.394 -163.739)" fill="#63bef1" fill-rule="evenodd"/>
        <path id="Path_452" data-name="Path 452" d="M297.591,181.658h19.754a19.822,19.822,0,0,0-.779-5.524,18.227,18.227,0,0,0-27.679,23.334,19.65,19.65,0,0,0,3.262,1.255l12-11.939,7.15,7.149a19.8,19.8,0,0,0,6.043-14.275Z" transform="translate(-273.393 -163.739)" fill="#63bef1" fill-rule="evenodd"/>
        <path id="Path_453" data-name="Path 453" d="M297.591,181.658h19.542a19.514,19.514,0,0,0-.878-5.808A18.227,18.227,0,0,0,288.6,199.01a19.388,19.388,0,0,0,3.783,1.486l11.774-11.712,6.972,6.972a19.481,19.481,0,0,0,6.009-14.1Z" transform="translate(-273.393 -163.739)" fill="#66bff1" fill-rule="evenodd"/>
        <path id="Path_454" data-name="Path 454" d="M297.591,181.658h19.26a19.281,19.281,0,0,0-1-6.162,18.228,18.228,0,0,0-27.475,23.147,19.211,19.211,0,0,0,4.18,1.676l11.6-11.536,6.8,6.8a19.315,19.315,0,0,0,5.9-13.922Z" transform="translate(-273.393 -163.739)" fill="#66bff1" fill-rule="evenodd"/>
        <path id="Path_455" data-name="Path 455" d="M297.591,181.658H316.57a19.037,19.037,0,0,0-1.135-6.5,18.229,18.229,0,0,0-27.324,23.022,18.94,18.94,0,0,0,4.672,1.914l11.369-11.309,6.6,6.6a19.034,19.034,0,0,0,5.814-13.729Z" transform="translate(-273.393 -163.739)" fill="#68bff1" fill-rule="evenodd"/>
        <path id="Path_456" data-name="Path 456" d="M297.6,181.658h18.767a18.743,18.743,0,0,0-1.253-6.756,18.229,18.229,0,0,0-27.241,22.81,18.672,18.672,0,0,0,5.15,2.149l11.138-11.078,6.426,6.426a18.715,18.715,0,0,0,5.78-13.551Z" transform="translate(-273.406 -163.739)" fill="#68bff1" fill-rule="evenodd"/>
        <path id="Path_457" data-name="Path 457" d="M297.6,181.658h18.485a18.5,18.5,0,0,0-1.394-7.069,18.23,18.23,0,0,0-27,22.744,18.482,18.482,0,0,0,5.516,2.351l10.958-10.9,6.25,6.25a18.54,18.54,0,0,0,5.674-13.376H297.6Z" transform="translate(-273.406 -163.739)" fill="#6ac0f1" fill-rule="evenodd"/>
        <path id="Path_458" data-name="Path 458" d="M297.592,181.646h18.272a18.2,18.2,0,0,0-1.52-7.3,18.23,18.23,0,0,0-26.884,22.508,18.192,18.192,0,0,0,5.967,2.589l10.726-10.668,6.073,6.073a18.22,18.22,0,0,0,5.638-13.2H297.592Z" transform="translate(-273.394 -163.726)" fill="#6dc1f1" fill-rule="evenodd"/>
        <path id="Path_459" data-name="Path 459" d="M297.6,181.646h17.99a17.946,17.946,0,0,0-1.671-7.588,18.066,18.066,0,0,0-9.758-2.854,18.226,18.226,0,0,0-16.86,25.262,17.982,17.982,0,0,0,6.315,2.794l10.546-10.489,5.9,5.9a18.05,18.05,0,0,0,5.532-13.023H297.6Z" transform="translate(-273.406 -163.726)" fill="#6dc1f1" fill-rule="evenodd"/>
        <path id="Path_460" data-name="Path 460" d="M297.592,181.658h17.779a17.662,17.662,0,0,0-1.806-7.8,18.069,18.069,0,0,0-9.412-2.638A18.226,18.226,0,0,0,287.1,196a17.711,17.711,0,0,0,6.742,3.034l10.309-10.254,5.72,5.72a17.724,17.724,0,0,0,5.5-12.845Z" transform="translate(-273.394 -163.739)" fill="#6fc2f1" fill-rule="evenodd"/>
        <path id="Path_461" data-name="Path 461" d="M297.6,181.658h17.5a17.428,17.428,0,0,0-1.965-8.064,18.061,18.061,0,0,0-8.97-2.378,18.227,18.227,0,0,0-17.184,24.432,17.467,17.467,0,0,0,7.052,3.213l10.132-10.078,5.545,5.544a17.559,17.559,0,0,0,5.391-12.67Z" transform="translate(-273.406 -163.739)" fill="#71c2f2" fill-rule="evenodd"/>
        <path id="Path_462" data-name="Path 462" d="M297.6,181.658H314.89a17.16,17.16,0,0,0-2.109-8.262,18.06,18.06,0,0,0-8.615-2.18A18.226,18.226,0,0,0,286.827,195.2a17.185,17.185,0,0,0,7.446,3.423l9.893-9.841,5.38,5.38a17.215,17.215,0,0,0,5.344-12.506Z" transform="translate(-273.406 -163.739)" fill="#71c2f2" fill-rule="evenodd"/>
        <path id="Path_463" data-name="Path 463" d="M297.592,181.646h17a16.907,16.907,0,0,0-2.275-8.5,18.057,18.057,0,0,0-8.166-1.946,18.225,18.225,0,0,0-17.463,23.6,16.991,16.991,0,0,0,7.753,3.629l9.71-9.658,5.205,5.2a17.049,17.049,0,0,0,5.235-12.331Z" transform="translate(-273.394 -163.726)" fill="#73c3f2" fill-rule="evenodd"/>
        <path id="Path_464" data-name="Path 464" d="M297.6,181.658h16.72a16.645,16.645,0,0,0-2.445-8.716,18.057,18.057,0,0,0-7.714-1.725,18.224,18.224,0,0,0-17.6,23.116A16.7,16.7,0,0,0,294.7,198.2l9.467-9.417,5.01,5.01a16.762,16.762,0,0,0,5.148-12.136Z" transform="translate(-273.406 -163.739)" fill="#73c3f2" fill-rule="evenodd"/>
        <path id="Path_465" data-name="Path 465" d="M297.6,181.646h16.509a16.405,16.405,0,0,0-2.6-8.885,18.059,18.059,0,0,0-7.347-1.557,18.224,18.224,0,0,0-17.709,22.724A16.514,16.514,0,0,0,294.885,198l9.281-9.231,4.852,4.852a16.56,16.56,0,0,0,5.095-11.978H297.6Z" transform="translate(-273.406 -163.726)" fill="#76c4f2" fill-rule="evenodd"/>
        <path id="Path_466" data-name="Path 466" d="M297.6,181.658h16.227a16.153,16.153,0,0,0-2.778-9.081,18.059,18.059,0,0,0-6.887-1.36,18.222,18.222,0,0,0-17.824,22.241,16.219,16.219,0,0,0,8.79,4.312l9.034-8.986,4.658,4.658a16.275,16.275,0,0,0,5.008-11.784Z" transform="translate(-273.406 -163.739)" fill="#78c5f2" fill-rule="evenodd"/>
        <path id="Path_467" data-name="Path 467" d="M297.592,181.658h16.015a15.913,15.913,0,0,0-2.942-9.231,18.058,18.058,0,0,0-6.512-1.211,18.225,18.225,0,0,0-17.927,21.757,15.93,15.93,0,0,0,9.144,4.547l8.784-8.737,4.481,4.481a15.951,15.951,0,0,0,4.973-11.607Z" transform="translate(-273.394 -163.739)" fill="#78c5f2" fill-rule="evenodd"/>
        <path id="Path_468" data-name="Path 468" d="M297.592,181.658h15.733a15.649,15.649,0,0,0-3.126-9.4,18.062,18.062,0,0,0-6.046-1.038,18.221,18.221,0,0,0-18,21.36,15.747,15.747,0,0,0,9.406,4.755l8.594-8.548,4.306,4.305a15.782,15.782,0,0,0,4.866-11.431Z" transform="translate(-273.394 -163.739)" fill="#7ac5f2" fill-rule="evenodd"/>
        <path id="Path_469" data-name="Path 469" d="M297.592,181.658h15.52a15.428,15.428,0,0,0-3.295-9.533,18.252,18.252,0,0,0-23.938,17.294,18.449,18.449,0,0,0,.194,2.67,15.456,15.456,0,0,0,9.739,4.989l8.339-8.294,4.128,4.127a15.459,15.459,0,0,0,4.831-11.253Z" transform="translate(-273.394 -163.739)" fill="#7ac5f2" fill-rule="evenodd"/>
        <path id="Path_470" data-name="Path 470" d="M297.6,181.658h15.238a15.164,15.164,0,0,0-3.483-9.681,18.078,18.078,0,0,0-5.194-.76,18.262,18.262,0,0,0-18.273,18.2,18.555,18.555,0,0,0,.141,2.271,15.267,15.267,0,0,0,9.986,5.2l8.146-8.1,3.953,3.953a15.292,15.292,0,0,0,4.724-11.079Z" transform="translate(-273.406 -163.739)" fill="#7cc6f2" fill-rule="evenodd"/>
        <path id="Path_471" data-name="Path 471" d="M297.592,181.658h15.027a14.943,14.943,0,0,0-3.66-9.793,18.256,18.256,0,0,0-23.079,17.553q0,.9.087,1.782a14.976,14.976,0,0,0,10.3,5.427l7.885-7.843,3.775,3.775a14.966,14.966,0,0,0,4.691-10.9H297.592Z" transform="translate(-273.394 -163.739)" fill="#7cc6f2" fill-rule="evenodd"/>
        <path id="Path_472" data-name="Path 472" d="M297.592,181.658h14.745a14.684,14.684,0,0,0-3.855-9.917,18.259,18.259,0,0,0-22.6,17.678c0,.465.019.926.052,1.382a14.8,14.8,0,0,0,10.533,5.63l7.688-7.647,3.6,3.6a14.8,14.8,0,0,0,4.584-10.726H297.592Z" transform="translate(-273.394 -163.739)" fill="#7ec7f3" fill-rule="evenodd"/>
        <path id="Path_473" data-name="Path 473" d="M297.592,181.658h14.534a14.476,14.476,0,0,0-4.036-10.009,18.26,18.26,0,0,0-22.209,17.77c0,.3.008.593.022.887a14.5,14.5,0,0,0,10.83,5.859l7.421-7.381,3.422,3.422a14.48,14.48,0,0,0,4.551-10.548Z" transform="translate(-273.394 -163.739)" fill="#80c8f3" fill-rule="evenodd"/>
        <path id="Path_474" data-name="Path 474" d="M297.6,181.658h14.251a14.206,14.206,0,0,0-4.238-10.11,18.261,18.261,0,0,0-21.724,17.871c0,.163,0,.324.007.485a14.314,14.314,0,0,0,11.047,6.06l7.219-7.18,3.247,3.246a14.309,14.309,0,0,0,4.443-10.373H297.6Z" transform="translate(-273.406 -163.739)" fill="#80c8f3" fill-rule="evenodd"/>
        <path id="Path_475" data-name="Path 475" d="M297.6,181.658h13.969a13.934,13.934,0,0,0-4.442-10.2,18.259,18.259,0,0,0-21.238,17.946,14.018,14.018,0,0,0,11.327,6.285l6.945-6.908,3.052,3.053a14.023,14.023,0,0,0,4.356-10.178H297.6Z" transform="translate(-273.406 -163.739)" fill="#82c8f3" fill-rule="evenodd"/>
        <path id="Path_476" data-name="Path 476" d="M297.791,181.646h13.757a13.709,13.709,0,0,0-4.6-10.254,18.257,18.257,0,0,0-20.862,17.5,13.721,13.721,0,0,0,11.6,6.505l6.666-6.63,2.874,2.874a13.7,13.7,0,0,0,4.322-10Z" transform="translate(-273.593 -163.726)" fill="#84c9f3" fill-rule="evenodd"/>
        <path id="Path_477" data-name="Path 477" d="M298.113,181.646h13.475a13.43,13.43,0,0,0-4.775-10.314,18.259,18.259,0,0,0-20.388,17.16,13.54,13.54,0,0,0,11.688,6.7h.108l6.453-6.419,2.713,2.713a13.54,13.54,0,0,0,4.2-9.839H298.113Z" transform="translate(-273.915 -163.726)" fill="#84c9f3" fill-rule="evenodd"/>
        <path id="Path_478" data-name="Path 478" d="M298.832,181.658H312.1a13.231,13.231,0,0,0-4.97-10.357q-.864-.083-1.732-.084A18.271,18.271,0,0,0,287.177,188a13.245,13.245,0,0,0,11.656,6.919c.133,0,.266,0,.4-.007l6.164-6.131,2.536,2.535a13.222,13.222,0,0,0,4.166-9.661Z" transform="translate(-274.634 -163.739)" fill="#87caf3" fill-rule="evenodd"/>
        <path id="Path_479" data-name="Path 479" d="M299.614,181.658h12.981a12.94,12.94,0,0,0-5.187-10.4q-.616-.042-1.233-.044A18.275,18.275,0,0,0,287.994,187.6a13.065,13.065,0,0,0,11.62,7.112c.207,0,.414-.006.619-.015l5.943-5.911,2.36,2.36a13.051,13.051,0,0,0,4.06-9.486Z" transform="translate(-275.415 -163.739)" fill="#87caf3" fill-rule="evenodd"/>
        <path id="Path_480" data-name="Path 480" d="M300.891,181.658h12.77a12.748,12.748,0,0,0-5.387-10.421c-.272-.012-.547-.02-.822-.02a18.279,18.279,0,0,0-18.122,15.87,12.766,12.766,0,0,0,11.561,7.34c.31,0,.617-.012.921-.034l5.64-5.61,2.181,2.182a12.729,12.729,0,0,0,4.027-9.308Z" transform="translate(-276.693 -163.739)" fill="#89cbf4" fill-rule="evenodd"/>
        <path id="Path_481" data-name="Path 481" d="M302.144,181.658h12.487a12.457,12.457,0,0,0-5.616-10.437c-.1,0-.206,0-.309,0a18.283,18.283,0,0,0-18.066,15.466,12.591,12.591,0,0,0,11.5,7.534c.389,0,.774-.019,1.154-.054l5.407-5.378,2.006,2.007a12.559,12.559,0,0,0,3.919-9.133Z" transform="translate(-277.946 -163.739)" fill="#89cbf4" fill-rule="evenodd"/>
        <path id="Path_482" data-name="Path 482" d="M304.017,181.683h12.276a12.272,12.272,0,0,0-5.823-10.44,18.287,18.287,0,0,0-17.871,14.95,12.275,12.275,0,0,0,12.891,7.676l5.089-5.061,1.83,1.829a12.243,12.243,0,0,0,3.884-8.955H304.017Z" transform="translate(-279.818 -163.764)" fill="#8bccf4" fill-rule="evenodd"/>
        <path id="Path_483" data-name="Path 483" d="M305.741,181.932h11.993a11.977,11.977,0,0,0-6.062-10.429A18.29,18.29,0,0,0,294.4,186.034a12.042,12.042,0,0,0,13.062,7.837l4.839-4.813,1.655,1.655a12.073,12.073,0,0,0,3.777-8.78Z" transform="translate(-281.543 -164.012)" fill="#8bccf4" fill-rule="evenodd"/>
        <path id="Path_484" data-name="Path 484" d="M308.3,182.5h11.711a11.677,11.677,0,0,0-6.311-10.4,18.294,18.294,0,0,0-16.623,13.984,11.778,11.778,0,0,0,13.286,8.019l4.5-4.473,1.46,1.46a11.787,11.787,0,0,0,3.69-8.586H308.3Z" transform="translate(-284.098 -164.582)" fill="#8dcdf4" fill-rule="evenodd"/>
        <path id="Path_485" data-name="Path 485" d="M310.517,183.2h11.5a11.5,11.5,0,0,0-6.528-10.371A18.3,18.3,0,0,0,299.4,186.371a11.636,11.636,0,0,0,11.122,8.4,11.409,11.409,0,0,0,2.335-.241l4.227-4.2,1.3,1.3a11.585,11.585,0,0,0,3.637-8.427Z" transform="translate(-286.318 -165.278)" fill="#8fcdf4" fill-rule="evenodd"/>
        <path id="Path_486" data-name="Path 486" d="M313.741,184.413h11.218a11.2,11.2,0,0,0-6.8-10.316,18.3,18.3,0,0,0-15.4,12.963,11.271,11.271,0,0,0,10.975,8.64,11.149,11.149,0,0,0,2.712-.334l3.849-3.829,1.107,1.107a11.3,11.3,0,0,0,3.55-8.233H313.741Z" transform="translate(-289.543 -166.493)" fill="#8fcdf4" fill-rule="evenodd"/>
        <path id="Path_487" data-name="Path 487" d="M317.4,185.665h11.006a11.022,11.022,0,0,0-7.022-10.258,18.31,18.31,0,0,0-14.791,12.371,10.917,10.917,0,0,0,10.808,8.894,11.093,11.093,0,0,0,3.1-.441l3.457-3.439.943.942a10.955,10.955,0,0,0,3.5-8.068H317.4Z" transform="translate(-293.202 -167.746)" fill="#93cff5" fill-rule="evenodd"/>
        <path id="Path_488" data-name="Path 488" d="M320.538,187.612h10.723a10.72,10.72,0,0,0-7.312-10.169A18.317,18.317,0,0,0,309.874,189.3a10.793,10.793,0,0,0,14.1,8.537l3.121-3.1.768.767a10.784,10.784,0,0,0,3.394-7.893H320.538Z" transform="translate(-296.34 -169.693)" fill="#95d0f5" fill-rule="evenodd"/>
        <path id="Path_489" data-name="Path 489" d="M325.165,189.46h10.512a10.547,10.547,0,0,0-7.553-10.085,18.325,18.325,0,0,0-13.412,11.212,10.525,10.525,0,0,0,14.362,8.636l2.652-2.637.59.589a10.463,10.463,0,0,0,3.362-7.715Z" transform="translate(-300.966 -171.541)" fill="#97d1f5" fill-rule="evenodd"/>
        <path id="Path_490" data-name="Path 490" d="M329.021,192.325h10.23a10.242,10.242,0,0,0-7.87-9.954,18.334,18.334,0,0,0-12.636,10.649,10.263,10.263,0,0,0,10.276,9.606,10.157,10.157,0,0,0,4.345-.971l2.216-2.2.415.415a10.3,10.3,0,0,0,3.254-7.541Z" transform="translate(-304.823 -174.406)" fill="#99d1f5" fill-rule="evenodd"/>
        <path id="Path_491" data-name="Path 491" d="M334.715,194.905h10.019a10.066,10.066,0,0,0-8.13-9.836,18.342,18.342,0,0,0-11.905,9.952,10.022,10.022,0,0,0,15,8.576l1.575-1.566.236.236a9.976,9.976,0,0,0,3.221-7.363H334.715Z" transform="translate(-310.517 -176.986)" fill="#9bd2f5" fill-rule="evenodd"/>
        <path id="Path_492" data-name="Path 492" d="M339.323,198.874h9.737a9.759,9.759,0,0,0-8.488-9.655,18.349,18.349,0,0,0-11.048,9.323,9.785,9.785,0,0,0,9.425,10.132q.187.007.375.006a9.656,9.656,0,0,0,5.823-1.946l.739-.734.062.062a9.8,9.8,0,0,0,3.113-7.187h-9.737Z" transform="translate(-315.125 -180.955)" fill="#9dd3f6" fill-rule="evenodd"/>
        <path id="Path_493" data-name="Path 493" d="M345.491,202.4h9.524a9.58,9.58,0,0,0-8.78-9.494,18.356,18.356,0,0,0-10.22,8.544q-.047.473-.047.949a9.485,9.485,0,0,0,9.445,9.524h.079a9.529,9.529,0,0,0,9.524-9.524h-9.524Z" transform="translate(-321.293 -184.478)" fill="#9fd4f6" fill-rule="evenodd"/>
        <path id="Path_494" data-name="Path 494" d="M350.12,207.941h9.242a9.273,9.273,0,0,0-9.2-9.241,18.37,18.37,0,0,0-9.24,7.807,9.21,9.21,0,0,0-.113,1.434,9.277,9.277,0,1,0,18.554,0Z" transform="translate(-325.922 -190.021)" fill="#a1d5f6" fill-rule="evenodd"/>
        <path id="Path_495" data-name="Path 495" d="M356.3,214.105h8.959a8.972,8.972,0,0,0-8.959-8.959c-.243,0-.483.01-.721.028a18.381,18.381,0,0,0-8.055,6.812,9.018,9.018,0,0,0,8.719,11.149h.056a8.987,8.987,0,0,0,8.959-9.03Z" transform="translate(-332.098 -196.186)" fill="#a6d7f6" fill-rule="evenodd"/>
        <path id="Path_496" data-name="Path 496" d="M360.936,218.732h8.748a8.757,8.757,0,0,0-10.1-8.645,18.384,18.384,0,0,0-7.04,5.955,8.592,8.592,0,0,0-.431,2.69,8.784,8.784,0,1,0,17.567,0Z" transform="translate(-336.738 -200.813)" fill="#a8d8f7" fill-rule="evenodd"/>
        <path id="Path_497" data-name="Path 497" d="M367.113,224.909h8.466a8.491,8.491,0,0,0-8.466-8.466,8.614,8.614,0,0,0-2.293.31,18.4,18.4,0,0,0-5.467,4.629,8.366,8.366,0,0,0-.777,3.527,8.5,8.5,0,1,0,17,0Z" transform="translate(-342.914 -206.99)" fill="#aad8f7" fill-rule="evenodd"/>
        <path id="Path_498" data-name="Path 498" d="M373.288,229.548h8.255a8.311,8.311,0,0,0-8.255-8.254,8.2,8.2,0,0,0-3.243.663,18.422,18.422,0,0,0-3.635,3.036,8.247,8.247,0,0,0,6.807,12.81h.07a8.265,8.265,0,0,0,8.255-8.255Z" transform="translate(-349.09 -211.629)" fill="#acd9f7" fill-rule="evenodd"/>
        <path id="Path_499" data-name="Path 499" d="M377.928,235.725H385.9a8.007,8.007,0,1,0-7.971,8.043,8.009,8.009,0,0,0,7.971-8.043Z" transform="translate(-353.73 -217.806)" fill="#aedaf7" fill-rule="evenodd"/>
        <path id="Path_500" data-name="Path 500" d="M384.1,240.363h7.76a7.76,7.76,0,0,0-15.521,0,7.738,7.738,0,0,0,7.715,7.761h.045a7.783,7.783,0,0,0,7.76-7.761Z" transform="translate(-359.906 -222.444)" fill="#b0dbf7" fill-rule="evenodd"/>
        <path id="Path_501" data-name="Path 501" d="M388.744,246.54h7.478a7.514,7.514,0,0,0-15.027,0,7.514,7.514,0,1,0,15.027,0Z" transform="translate(-364.546 -228.621)" fill="#b2dcf8" fill-rule="evenodd"/>
        <path id="Path_502" data-name="Path 502" d="M394.921,251.179h7.267a7.256,7.256,0,0,0-7.246-7.266h-.021a7.257,7.257,0,0,0-7.267,7.246v.02a7.257,7.257,0,0,0,7.246,7.267h.02a7.257,7.257,0,0,0,7.267-7.246v-.02Z" transform="translate(-370.722 -233.26)" fill="#b5ddf8" fill-rule="evenodd"/>
        <path id="Path_503" data-name="Path 503" d="M399.559,257.356h6.985a7.02,7.02,0,0,0-14.04,0,7.02,7.02,0,1,0,14.04,0Z" transform="translate(-375.361 -239.437)" fill="#b9dff8" fill-rule="evenodd"/>
        <path id="Path_504" data-name="Path 504" d="M405.736,261.982h6.772a6.773,6.773,0,1,0-6.772,6.773,6.774,6.774,0,0,0,6.772-6.773Z" transform="translate(-381.538 -244.062)" fill="#bbe0f8" fill-rule="evenodd"/>
        <path id="Path_505" data-name="Path 505" d="M410.363,268.159h6.491a6.526,6.526,0,0,0-13.052,0,6.526,6.526,0,1,0,13.052,0Z" transform="translate(-386.164 -250.239)" fill="#bde1f9" fill-rule="evenodd"/>
        <path id="Path_506" data-name="Path 506" d="M416.552,274.346h6.208a6.172,6.172,0,0,0-6.136-6.208h-.072a6.244,6.244,0,1,0,6.208,6.208Z" transform="translate(-392.354 -256.426)" fill="#bfe2f9" fill-rule="evenodd"/>
        <path id="Path_507" data-name="Path 507" d="M422.729,278.975h6a6,6,0,1,0-6,6,5.992,5.992,0,0,0,6-6Z" transform="translate(-398.53 -261.055)" fill="#c1e3f9" fill-rule="evenodd"/>
        <path id="Path_508" data-name="Path 508" d="M427.368,285.151h5.715a5.691,5.691,0,0,0-5.668-5.715h-.047a5.751,5.751,0,0,0-5.785,5.715,5.812,5.812,0,0,0,5.785,5.785,5.751,5.751,0,0,0,5.715-5.785Z" transform="translate(-403.17 -267.231)" fill="#c6e5fa" fill-rule="evenodd"/>
        <path id="Path_509" data-name="Path 509" d="M433.545,289.791h5.5a5.5,5.5,0,1,0-5.5,5.5,5.51,5.51,0,0,0,5.5-5.5Z" transform="translate(-409.346 -271.871)" fill="#c8e6fa" fill-rule="evenodd"/>
        <path id="Path_510" data-name="Path 510" d="M438.183,295.967H443.4a5.209,5.209,0,0,0-5.2-5.221h-.024a5.269,5.269,0,0,0-5.291,5.221,5.33,5.33,0,0,0,5.291,5.292,5.269,5.269,0,0,0,5.221-5.292Z" transform="translate(-413.985 -278.047)" fill="#cae7fa" fill-rule="evenodd"/>
        <path id="Path_511" data-name="Path 511" d="M444.36,300.606h5.009a5.009,5.009,0,1,0-5.009,5.009,5.028,5.028,0,0,0,5.009-5.009Z" transform="translate(-420.162 -282.686)" fill="#cce8fa" fill-rule="evenodd"/>
        <path id="Path_512" data-name="Path 512" d="M448.986,306.783h4.727a4.762,4.762,0,1,0-4.727,4.8,4.727,4.727,0,0,0,4.727-4.8Z" transform="translate(-424.788 -288.863)" fill="#cee8fa" fill-rule="evenodd"/>
        <path id="Path_513" data-name="Path 513" d="M455.163,311.409h4.515a4.547,4.547,0,0,0-4.515-4.515,4.5,4.5,0,0,0-4.515,4.487q0,.014,0,.028a4.515,4.515,0,0,0,9.031.028q0-.014,0-.028Z" transform="translate(-430.964 -293.489)" fill="#d0e9fb" fill-rule="evenodd"/>
        <path id="Path_514" data-name="Path 514" d="M459.8,317.586h4.233a4.269,4.269,0,1,0-4.287,4.3h.054a4.261,4.261,0,0,0,4.233-4.3Z" transform="translate(-435.602 -299.667)" fill="#d3eafb" fill-rule="evenodd"/>
        <path id="Path_515" data-name="Path 515" d="M465.979,323.776h3.951a3.944,3.944,0,0,0-3.938-3.951h-.012a3.986,3.986,0,1,0,3.951,3.951Z" transform="translate(-441.781 -305.856)" fill="#d5ebfb" fill-rule="evenodd"/>
        <path id="Path_516" data-name="Path 516" d="M470.617,328.4h3.739a3.775,3.775,0,1,0-3.771,3.81h.031a3.779,3.779,0,0,0,3.739-3.81Z" transform="translate(-446.419 -310.483)" fill="#d9edfb" fill-rule="evenodd"/>
        <path id="Path_517" data-name="Path 517" d="M476.794,334.591h3.457a3.492,3.492,0,1,0-3.457,3.527,3.462,3.462,0,0,0,3.457-3.527Z" transform="translate(-452.596 -316.671)" fill="#dbeefc" fill-rule="evenodd"/>
        <path id="Path_518" data-name="Path 518" d="M482.971,339.217h3.245a3.283,3.283,0,0,0-3.245-3.245,3.237,3.237,0,0,0-3.245,3.228v.017a3.193,3.193,0,0,0,3.245,3.245,3.237,3.237,0,0,0,3.245-3.228v-.017Z" transform="translate(-458.773 -321.298)" fill="#ddeffc" fill-rule="evenodd"/>
        <path id="Path_519" data-name="Path 519" d="M487.609,345.407h2.963a3,3,0,0,0-6,0,3.011,3.011,0,0,0,2.988,3.033h.046a3,3,0,0,0,2.963-3.033Z" transform="translate(-463.41 -327.487)" fill="#e0f0fc" fill-rule="evenodd"/>
        <path id="Path_520" data-name="Path 520" d="M493.787,350.033h2.751a2.8,2.8,0,0,0-2.751-2.751,2.755,2.755,0,0,0-2.751,2.751,2.711,2.711,0,0,0,2.751,2.751,2.754,2.754,0,0,0,2.751-2.751Z" transform="translate(-469.589 -332.114)" fill="#e2f1fc" fill-rule="evenodd"/>
        <path id="Path_521" data-name="Path 521" d="M498.414,356.21h2.469a2.5,2.5,0,0,0-5.009,0,2.529,2.529,0,0,0,2.518,2.54h.022a2.515,2.515,0,0,0,2.469-2.54Z" transform="translate(-474.215 -338.291)" fill="#e4f2fc" fill-rule="evenodd"/>
        <path id="Path_522" data-name="Path 522" d="M504.59,360.848h2.257a2.321,2.321,0,0,0-2.257-2.257,2.273,2.273,0,0,0-2.258,2.257,2.229,2.229,0,0,0,2.258,2.257,2.273,2.273,0,0,0,2.257-2.257Z" transform="translate(-480.392 -342.929)" fill="#e6f3fd" fill-rule="evenodd"/>
        <path id="Path_523" data-name="Path 523" d="M509.229,367.025H511.2a2.011,2.011,0,0,0-4.021,0,2.011,2.011,0,1,0,4.021,0Z" transform="translate(-485.031 -349.106)" fill="#e8f4fd" fill-rule="evenodd"/>
        <path id="Path_524" data-name="Path 524" d="M515.4,371.664h1.764A1.842,1.842,0,0,0,515.4,369.9a1.792,1.792,0,0,0-1.764,1.763,1.746,1.746,0,0,0,1.729,1.763h.035a1.792,1.792,0,0,0,1.764-1.763Z" transform="translate(-491.206 -353.745)" fill="#edf6fd" fill-rule="evenodd"/>
        <path id="Path_525" data-name="Path 525" d="M520.045,377.841h1.482a1.517,1.517,0,0,0-3.034,0,1.517,1.517,0,1,0,3.034,0Z" transform="translate(-495.847 -359.922)" fill="#eff7fd" fill-rule="evenodd"/>
        <path id="Path_526" data-name="Path 526" d="M526.222,384.018h1.2a1.189,1.189,0,0,0-1.2-1.2,1.207,1.207,0,0,0-1.27,1.2,1.264,1.264,0,0,0,1.27,1.27,1.252,1.252,0,0,0,1.2-1.27Z" transform="translate(-502.024 -366.099)" fill="#f1f9fe" fill-rule="evenodd"/>
        <path id="Path_527" data-name="Path 527" d="M530.86,388.657h.988a.964.964,0,0,0-.988-.987.99.99,0,1,0,0,1.975.965.965,0,0,0,.988-.988Z" transform="translate(-506.662 -370.738)" fill="#f3fafe" fill-rule="evenodd"/>
        <path id="Path_528" data-name="Path 528" d="M537.037,394.834h.706a.666.666,0,0,0-.706-.705.725.725,0,0,0-.776.705.783.783,0,0,0,.776.776.726.726,0,0,0,.706-.776Z" transform="translate(-512.839 -376.915)" fill="#f6fbfe" fill-rule="evenodd"/>
        <path id="Path_529" data-name="Path 529" d="M543.214,399.457h.494a.482.482,0,0,0-.47-.494h-.024a.494.494,0,1,0,.494.518c0-.008,0-.016,0-.024Z" transform="translate(-519.016 -381.538)" fill="#f8fcfe" fill-rule="evenodd"/>
        <path id="Path_530" data-name="Path 530" d="M547.853,405.649h.212a.187.187,0,0,0-.212-.211c-.141,0-.282.07-.282.211a.3.3,0,0,0,.282.282c.141,0,.212-.141.212-.282Z" transform="translate(-523.655 -387.73)" fill="#fbfdff" fill-rule="evenodd"/>
      </g>
    </g>
  </g>
</svg>
