<svg xmlns="http://www.w3.org/2000/svg" xmlns:xlink="http://www.w3.org/1999/xlink" width="96" height="96" viewBox="0 0 96 96">
  <defs>
    <clipPath id="clip-path">
      <rect id="Rectangle_212" data-name="Rectangle 212" width="60.091" height="71.545" fill="none"/>
    </clipPath>
  </defs>
  <g id="qualys" transform="translate(-36 -1651)">
    <circle id="Ellipse_107" data-name="Ellipse 107" cx="48" cy="48" r="48" transform="translate(36 1651)"/>
    <g id="Group_451" data-name="Group 451" transform="translate(54 1663)">
      <g id="Group_450" data-name="Group 450" clip-path="url(#clip-path)">
        <path id="Path_798" data-name="Path 798" d="M30.041,0c19.566,0,29.4,10.469,29.4,10.469s1.125,7.749.407,23.351c-1.084,23.569-29.8,37.724-29.806,37.726S1.325,57.389.24,33.82c-.718-15.6.407-23.351.407-23.351S10.476,0,30.041,0" transform="translate(0)" fill="#ed2e26" fill-rule="evenodd"/>
        <path id="Path_799" data-name="Path 799" d="M40.406,57.644A14.921,14.921,0,0,1,55.092,42.53a14.715,14.715,0,0,1,14.7,14.7c0,6.47-5.562,11.793-9.849,14.529a25.8,25.8,0,0,0,8.847,2.267,21.212,21.212,0,0,0,8.261-16.8,21.957,21.957,0,0,0-43.915,0,24.28,24.28,0,0,0,8.8,18.786c5.385,4.654,13.263,7.76,22.232,9.23a25.542,25.542,0,0,0,6.513-6.1c-7.491-.963-14.58-2.79-19.333-5.283-7.263-3.81-10.946-9.267-10.946-16.218" transform="translate(-25.047 -26.662)" fill="#fff" fill-rule="evenodd"/>
      </g>
    </g>
  </g>
</svg>
