<svg xmlns="http://www.w3.org/2000/svg" xmlns:xlink="http://www.w3.org/1999/xlink" width="96" height="96" viewBox="0 0 96 96">
  <defs>
    <clipPath id="clip-path">
      <rect id="Rectangle_76" data-name="Rectangle 76" width="66.43" height="58.128" transform="translate(0 0)" fill="#fff"/>
    </clipPath>
  </defs>
  <g id="RealPage_REST" transform="translate(-1244 -1071)">
    <circle id="Ellipse_58" data-name="Ellipse 58" cx="48" cy="48" r="48" transform="translate(1244 1071)" fill="#eb6113"/>
    <g id="Group_156" data-name="Group 156" transform="translate(1259 1090)">
      <g id="Group_155" data-name="Group 155" clip-path="url(#clip-path)">
        <path id="Path_198" data-name="Path 198" d="M66.43,48.857a9.267,9.267,0,1,1-9.269-9.268,9.269,9.269,0,0,1,9.269,9.268m-47.894,0a9.268,9.268,0,1,1-9.27-9.268,9.269,9.269,0,0,1,9.27,9.268M41.666,9.271A9.268,9.268,0,1,1,32.4,0a9.267,9.267,0,0,1,9.268,9.271" fill="#fff"/>
      </g>
    </g>
  </g>
</svg>
