<svg xmlns="http://www.w3.org/2000/svg" width="96" height="96" viewBox="0 0 96 96">
  <g id="SalesForce" transform="translate(-1255 -759)">
    <circle id="Ellipse_46" data-name="Ellipse 46" cx="48" cy="48" r="48" transform="translate(1255 759)" fill="#00a1e0"/>
    <g id="Salesforce.com_logo" transform="translate(1268.287 781.977)">
      <path id="Path_119" data-name="Path 119" d="M28.849,5.882a12.253,12.253,0,0,1,8.862-3.8A12.377,12.377,0,0,1,48.5,8.476a14.9,14.9,0,0,1,6.088-1.3A15.207,15.207,0,1,1,51.608,37.3a11.012,11.012,0,0,1-14.436,4.542,12.561,12.561,0,0,1-23.35-.565,11.585,11.585,0,0,1-2.4.25A11.731,11.731,0,0,1-.24,29.733,11.849,11.849,0,0,1,5.591,19.509,13.577,13.577,0,0,1,28.851,5.9" transform="translate(0 0)" fill="#fff" fill-rule="evenodd"/>
      <path id="Path_120" data-name="Path 120" d="M39.354,82.777c-.044.115.016.138.03.159a4.42,4.42,0,0,0,.4.241,4.27,4.27,0,0,0,2.091.488c1.433,0,2.325-.763,2.325-1.991V81.65c0-1.135-1.007-1.549-1.947-1.844l-.123-.04c-.712-.231-1.325-.432-1.325-.9v-.024c0-.4.36-.7.914-.7a4.142,4.142,0,0,1,1.821.465s.139.09.19-.044c.027-.073.267-.714.293-.786a.133.133,0,0,0-.07-.161,4.06,4.06,0,0,0-2.055-.552h-.143A2,2,0,0,0,39.523,79v.024c0,1.2,1.012,1.588,1.957,1.857l.152.047c.688.212,1.284.4,1.284.879v.024c0,.444-.388.776-1.01.776a3.385,3.385,0,0,1-1.847-.532c-.1-.059-.158-.1-.236-.149a.115.115,0,0,0-.189.065l-.283.786m20.987,0c-.044.115.016.138.03.159a4.349,4.349,0,0,0,.4.241,4.27,4.27,0,0,0,2.091.488c1.433,0,2.325-.763,2.325-1.991v-.024c0-1.135-1-1.549-1.947-1.844l-.123-.04c-.712-.231-1.325-.432-1.325-.9v-.024c0-.4.36-.7.914-.7a4.151,4.151,0,0,1,1.821.465s.139.09.19-.044c.027-.073.267-.714.29-.786a.133.133,0,0,0-.069-.161,4.06,4.06,0,0,0-2.055-.552h-.143A2,2,0,0,0,60.507,79v.024c0,1.2,1.012,1.588,1.957,1.857l.152.047c.691.212,1.284.4,1.284.879v.024c0,.444-.388.776-1.01.776a3.379,3.379,0,0,1-1.847-.532c-.1-.059-.16-.1-.237-.149a.122.122,0,0,0-.188.065l-.283.786m14.334-2.4A2.974,2.974,0,0,1,74.288,82a1.474,1.474,0,0,1-2.327,0,3.684,3.684,0,0,1,0-3.249,1.274,1.274,0,0,1,1.161-.563,1.29,1.29,0,0,1,1.166.563,2.921,2.921,0,0,1,.383,1.621m1.2-1.287a2.891,2.891,0,0,0-.545-1.04,2.608,2.608,0,0,0-.92-.7,3.339,3.339,0,0,0-2.569,0,2.641,2.641,0,0,0-.92.7,2.9,2.9,0,0,0-.545,1.04,4.788,4.788,0,0,0,0,2.574,2.883,2.883,0,0,0,.545,1.04,2.588,2.588,0,0,0,.92.694,3.4,3.4,0,0,0,2.566,0,2.58,2.58,0,0,0,.92-.694,2.9,2.9,0,0,0,.545-1.04,4.794,4.794,0,0,0,0-2.574M85.7,82.373a.114.114,0,0,0-.153-.072,2.746,2.746,0,0,1-.557.159,4.263,4.263,0,0,1-.655.047,1.822,1.822,0,0,1-1.369-.514,2.282,2.282,0,0,1-.514-1.636,2.54,2.54,0,0,1,.46-1.577,1.566,1.566,0,0,1,1.328-.586,4.017,4.017,0,0,1,1.266.181s.094.041.139-.083c.105-.29.183-.5.3-.817a.108.108,0,0,0-.075-.141,4.659,4.659,0,0,0-.8-.2,6.027,6.027,0,0,0-.9-.06,3.257,3.257,0,0,0-1.333.257,2.759,2.759,0,0,0-.963.7,2.969,2.969,0,0,0-.583,1.04,4.136,4.136,0,0,0-.2,1.29,3.449,3.449,0,0,0,.8,2.384,3.023,3.023,0,0,0,2.363.889,4.853,4.853,0,0,0,1.7-.3A.109.109,0,0,0,86,83.184l-.3-.812M87.8,79.7a2.332,2.332,0,0,1,.329-.956,1.29,1.29,0,0,1,1.159-.588,1.256,1.256,0,0,1,1.135.588,1.985,1.985,0,0,1,.267.956h-2.9Zm4.033-.848a2.539,2.539,0,0,0-.519-.948,2.367,2.367,0,0,0-.771-.586,2.954,2.954,0,0,0-1.161-.236,3.186,3.186,0,0,0-1.338.259,2.668,2.668,0,0,0-.932.712,2.927,2.927,0,0,0-.55,1.053,4.553,4.553,0,0,0-.178,1.292,4.37,4.37,0,0,0,.184,1.295A2.6,2.6,0,0,0,88.174,83.4a4.063,4.063,0,0,0,1.472.238,4.2,4.2,0,0,0,2.04-.406c.045-.025.087-.069.034-.194l-.265-.742a.117.117,0,0,0-.153-.071,3.881,3.881,0,0,1-1.665.3A1.658,1.658,0,0,1,87.781,80.7l4.059,0a.119.119,0,0,0,.118-.105,4.335,4.335,0,0,0-.121-1.744ZM55.354,79.7a2.336,2.336,0,0,1,.329-.956,1.29,1.29,0,0,1,1.159-.588,1.256,1.256,0,0,1,1.135.588,1.99,1.99,0,0,1,.267.956h-2.9Zm4.033-.848a2.535,2.535,0,0,0-.519-.948,2.367,2.367,0,0,0-.771-.586,2.954,2.954,0,0,0-1.161-.236,3.186,3.186,0,0,0-1.338.259,2.668,2.668,0,0,0-.932.712,2.935,2.935,0,0,0-.55,1.053,4.562,4.562,0,0,0-.177,1.292,4.345,4.345,0,0,0,.184,1.295A2.593,2.593,0,0,0,55.728,83.4a4.053,4.053,0,0,0,1.472.238,4.2,4.2,0,0,0,2.04-.406c.045-.025.087-.069.034-.194l-.265-.742a.118.118,0,0,0-.153-.071,3.881,3.881,0,0,1-1.665.3A1.658,1.658,0,0,1,55.335,80.7l4.059,0a.119.119,0,0,0,.118-.105,4.332,4.332,0,0,0-.121-1.744ZM46.595,82.347a.791.791,0,0,1-.234-.24.969.969,0,0,1-.122-.527A.887.887,0,0,1,46.6,80.8a1.823,1.823,0,0,1,1.176-.293,8.22,8.22,0,0,1,1.1.094v1.842h0a8.188,8.188,0,0,1-1.094.146,1.819,1.819,0,0,1-1.187-.237ZM48.208,79.5c-.164-.012-.378-.018-.632-.018a3.826,3.826,0,0,0-1,.128,2.6,2.6,0,0,0-.845.393,1.891,1.891,0,0,0-.805,1.6,2.112,2.112,0,0,0,.186.925,1.68,1.68,0,0,0,.529.634,2.217,2.217,0,0,0,.825.357,4.849,4.849,0,0,0,1.074.109,7.42,7.42,0,0,0,1.23-.1q.512-.088,1.02-.2c.135-.031.285-.072.285-.072a.128.128,0,0,0,.092-.133l0-3.7a2.264,2.264,0,0,0-.645-1.788,2.755,2.755,0,0,0-1.86-.56,6.68,6.68,0,0,0-1.087.1,3.9,3.9,0,0,0-1.248.457.126.126,0,0,0-.036.161l.288.771a.1.1,0,0,0,.133.066.521.521,0,0,0,.067-.033,4.11,4.11,0,0,1,1.765-.411,1.638,1.638,0,0,1,1,.262c.221.17.334.426.334.966v.171c-.347-.05-.668-.079-.668-.079Zm32.623-2.088a.11.11,0,0,0-.061-.146,3.567,3.567,0,0,0-.678-.115,2.01,2.01,0,0,0-1.045.168,1.8,1.8,0,0,0-.683.506v-.493a.117.117,0,0,0-.116-.123H77.209a.117.117,0,0,0-.116.123v6.037a.123.123,0,0,0,.123.123h1.063a.123.123,0,0,0,.123-.123V80.332a3.553,3.553,0,0,1,.134-1.063,1.525,1.525,0,0,1,.354-.6,1.23,1.23,0,0,1,.5-.3,1.973,1.973,0,0,1,.545-.077,2.277,2.277,0,0,1,.444.054c.078.009.122-.039.148-.109.07-.185.267-.74.306-.85" transform="translate(-29.411 -56.859)" fill="#00a1e0" fill-rule="evenodd"/>
      <path id="Path_121" data-name="Path 121" d="M106.049,67.149a3.408,3.408,0,0,0-.4-.1,3.139,3.139,0,0,0-.551-.043,2.32,2.32,0,0,0-1.716.616,3.348,3.348,0,0,0-.814,1.838l-.05.275h-.92a.136.136,0,0,0-.136.118l-.151.843c-.011.081.024.131.132.13h.9L101.43,75.9a6.366,6.366,0,0,1-.243,1,2.049,2.049,0,0,1-.283.576.751.751,0,0,1-.371.286,1.5,1.5,0,0,1-.477.069,1.846,1.846,0,0,1-.325-.036.967.967,0,0,1-.219-.071.112.112,0,0,0-.146.065c-.034.086-.272.742-.3.824a.121.121,0,0,0,.062.162,3.03,3.03,0,0,0,.37.108,2.447,2.447,0,0,0,.594.057,2.962,2.962,0,0,0,.995-.154,1.862,1.862,0,0,0,.749-.523,2.687,2.687,0,0,0,.527-.906A7.736,7.736,0,0,0,102.719,76l.913-5.166h1.335a.137.137,0,0,0,.136-.118l.151-.843c.011-.081-.024-.131-.132-.13h-1.3a5.5,5.5,0,0,1,.214-.914,1.176,1.176,0,0,1,.284-.432.841.841,0,0,1,.339-.211,1.408,1.408,0,0,1,.435-.063,1.692,1.692,0,0,1,.333.034c.126.027.174.041.207.051.132.04.15,0,.176-.063l.31-.851a.108.108,0,0,0-.074-.141m-18.1,8.764a.117.117,0,0,1-.116.123H86.755a.118.118,0,0,1-.116-.123V67.264a.117.117,0,0,1,.116-.122H87.83a.117.117,0,0,1,.116.122v8.649" transform="translate(-64.562 -49.387)" fill="#00a1e0" fill-rule="evenodd"/>
    </g>
  </g>
</svg>
