<svg xmlns="http://www.w3.org/2000/svg" xmlns:xlink="http://www.w3.org/1999/xlink" width="96" height="96" viewBox="0 0 96 96">
  <defs>
    <clipPath id="clip-path">
      <rect id="Rectangle_145" data-name="Rectangle 145" width="62.89" height="27.577" fill="none"/>
    </clipPath>
  </defs>
  <g id="SAP" transform="translate(-706 -397)">
    <circle id="DocuSign_oval" data-name="DocuSign oval" cx="48" cy="48" r="48" transform="translate(706 397)" fill="#1976d2"/>
    <g id="Group_324" data-name="Group 324" transform="translate(723 431)">
      <g id="Group_322" data-name="Group 322" clip-path="url(#clip-path)">
        <path id="Path_686" data-name="Path 686" d="M50.775.608H42.121L42.15,20.96,34.615.6H27.143l-6.432,17c-.684-4.327-5.157-5.82-8.677-6.938C9.71,9.919,7.243,8.821,7.268,7.607c.019-1,1.32-1.92,3.9-1.782a14.114,14.114,0,0,1,6.312,1.7l3-5.221A23.3,23.3,0,0,0,10.711,0h-.019A11.86,11.86,0,0,0,2.065,3.15,7.269,7.269,0,0,0,0,8.181,6.757,6.757,0,0,0,2.962,14.2a20.171,20.171,0,0,0,5.866,2.682c2.394.742,4.349,1.387,4.325,2.761a2.034,2.034,0,0,1-.568,1.347,3.793,3.793,0,0,1-2.779.873,11.915,11.915,0,0,1-7.14-2.038L0,25.115a18.522,18.522,0,0,0,9.42,2.462l.782-.006a11.756,11.756,0,0,0,7.434-2.35c.112-.09.212-.18.316-.272l-.327,1.688,7.3-.023,1.31-3.354a14.326,14.326,0,0,0,4.606.73,14.477,14.477,0,0,0,4.5-.69l.913,3.313,13.1.013.032-7.646H52.17c6.738,0,10.721-3.429,10.721-9.179,0-6.4-3.874-9.194-12.115-9.194Zm-19.933,17.4a7.829,7.829,0,0,1-2.762-.484L30.811,8.9h.053l2.687,8.65a8.089,8.089,0,0,1-2.71.459ZM51.281,13.05h-1.9V6.1h1.9c2.533,0,4.556.844,4.556,3.431,0,2.678-2.023,3.521-4.556,3.521" fill="#fff" fill-rule="evenodd"/>
      </g>
    </g>
  </g>
</svg>
