<svg xmlns="http://www.w3.org/2000/svg" xmlns:xlink="http://www.w3.org/1999/xlink" width="96" height="96" viewBox="0 0 96 96">
  <defs>
    <clipPath id="clip-path">
      <rect id="Rectangle_209" data-name="Rectangle 209" width="63.276" height="74.817" fill="none"/>
    </clipPath>
  </defs>
  <g id="SAP_litmos" transform="translate(-1188 -1468)">
    <circle id="Ellipse_96" data-name="Ellipse 96" cx="48" cy="48" r="48" transform="translate(1188 1468)"/>
    <g id="Group_445" data-name="Group 445" transform="translate(1204 1479)">
      <g id="Group_444" data-name="Group 444" transform="translate(0 0)" clip-path="url(#clip-path)">
        <path id="Path_792" data-name="Path 792" d="M63.251,36.732h0A2.167,2.167,0,0,0,61.2,34.49a8.919,8.919,0,0,1-1.685-.434c-.191-.069-.382-.122-.573-.174-.052-.174-.1-.347-.174-.521l-1.025-2.9a.36.36,0,0,1-.035-.1A24.51,24.51,0,0,0,44.99,15.882,10.52,10.52,0,0,1,41.5,13.554c-2-2.293-2.867-5.212-2.832-9.452V3.963C38.718,1.5,37.606.958,36.615.923c-.886,0-1.564.625-2.38,1.616a12.817,12.817,0,0,0-2.554,8.67v.069A18.8,18.8,0,0,1,29.666,4.12c-.017-.174-.052-.382-.069-.591l-.017-.139a11.2,11.2,0,0,0-.347-2.137A1.76,1.76,0,0,0,27.615,0c-1.407-.069-2.085,1.407-2.849,3.093l-.087.191A21.722,21.722,0,0,0,22.942,13.45a13.751,13.751,0,0,1-2.328-4.934,1.7,1.7,0,0,0-1.2-1.216,1.64,1.64,0,0,0-1.633.469,4.831,4.831,0,0,0-1.216,2.311,12.313,12.313,0,0,0,.156,7.176A24.76,24.76,0,0,0,5.376,30.442L4.386,33.2l-.261.782c-.122.035-.226.069-.347.1a9.082,9.082,0,0,1-1.7.434,2.167,2.167,0,0,0-2.05,2.241A2.044,2.044,0,0,0,1.71,39.286c.5.087.521.1.591.4L3.4,48.216a6.088,6.088,0,0,0,1.633,3.405L6.974,65.973a1.79,1.79,0,0,0,.678,1.147,41.233,41.233,0,0,0,48.458-.347,1.657,1.657,0,0,0,.678-1.164l1.6-14.143A5.926,5.926,0,0,0,59.9,48.2l1.095-8.514c.069-.33.087-.33.591-.434a2.049,2.049,0,0,0,1.668-2.519M19.918,16.282a9.529,9.529,0,0,1-.434-1.946,18.425,18.425,0,0,0,4.083,4.517,1.672,1.672,0,0,0,.73.347,1.948,1.948,0,0,0,1.755-.521,2.856,2.856,0,0,0,.434-2.745,1.2,1.2,0,0,1-.035-.226,24.568,24.568,0,0,1,.313-8.375,14.787,14.787,0,0,0,3.944,8.114l.087.087a3.987,3.987,0,0,1,.417.382,8.91,8.91,0,0,0,2.45,1.7,1.677,1.677,0,0,0,2.172-2.293,12.507,12.507,0,0,1-.851-4.378,10.224,10.224,0,0,1,.434-3.614,14.829,14.829,0,0,0,3.51,8.392,13.7,13.7,0,0,0,4.552,3.145,21,21,0,0,1,11.05,12.666.415.415,0,0,0,.052.122l.469,1.32a80.03,80.03,0,0,0-17.044-1.373,4.252,4.252,0,0,0-3.788,1.876c-.087.139-.191.3-.278.434a1.063,1.063,0,0,1-.434.4,6.944,6.944,0,0,0-1.876-.278h-.017a5.836,5.836,0,0,0-1.911.278c-.069-.017-.208-.122-.417-.4-.1-.139-.208-.3-.3-.434A4.252,4.252,0,0,0,25.2,31.606,79.549,79.549,0,0,0,7.947,33.014l.5-1.425.035-.069a21.535,21.535,0,0,1,9.869-11.432,2.844,2.844,0,0,0,1.564-3.805m6.846,21.7a33.683,33.683,0,0,1-2,8.479c-1.077,3.127-3.683,3.3-6.446,3.475-.347.017-.678.052-1.008.069-.643.052-1.7.069-2.415.069-.33,0-.556,0-.73.017H12.916c-4.639.069-5.89-.417-6.5-5.091-.1-.73-.243-1.6-.382-2.519-.243-1.546-.521-3.284-.625-4.622-.052-.695.069-.938.869-1.147a63.845,63.845,0,0,1,14.3-1.564c1.2,0,2.328.035,3.371.1,1.373.1,2.085.313,2.45.73a2.779,2.779,0,0,1,.365,2M8.781,53.411l.139.017c.243.017.469.035.695.035h.122c3.614.156,7.037.33,10.616.139,3.961-.191,6.272-1.807,7.94-5.56a35.274,35.274,0,0,0,1.737-5.49c.1-.417.208-.834.33-1.234.313-1.164.8-1.911,1.286-2.015.5.1.973.851,1.286,2.015.1.4.208.817.33,1.234A35.274,35.274,0,0,0,35,48.043c1.668,3.753,3.979,5.369,7.94,5.56,3.579.174,6.985.017,10.616-.139h.122c.226-.017.469-.017.695-.035l.156-.017c.087-.017.191-.017.278-.035l-1.251,11.1a37.939,37.939,0,0,1-43.349.3L8.66,53.394a.339.339,0,0,1,.122.017m40.326-3.3h0c-.174-.017-.4-.017-.73-.017-.712,0-1.772-.017-2.415-.069-.33-.035-.678-.052-1.008-.069-2.763-.174-5.369-.347-6.446-3.475a34.639,34.639,0,0,1-2-8.479,2.72,2.72,0,0,1,.347-1.981c.365-.417,1.077-.625,2.45-.73a64.96,64.96,0,0,1,17.67,1.442c.8.208.921.452.869,1.147-.1,1.32-.382,3.075-.625,4.622-.139.921-.278,1.79-.382,2.519-.608,4.674-1.842,5.178-6.5,5.091H49.108Z" transform="translate(0 -0.001)" fill="#f0ab00"/>
        <path id="Path_793" data-name="Path 793" d="M12.438,22.481a2.831,2.831,0,0,0-2.085.851,2.949,2.949,0,1,0,2.085-.851" transform="translate(6.994 16.578)" fill="#f0ab00"/>
        <path id="Path_794" data-name="Path 794" d="M26.558,22.481a2.887,2.887,0,0,0-2.085.851,2.949,2.949,0,1,0,2.085-.851" transform="translate(17.407 16.578)" fill="#f0ab00"/>
      </g>
    </g>
  </g>
</svg>
