<svg xmlns="http://www.w3.org/2000/svg" width="96" height="96" viewBox="0 0 96 96">
  <g id="saviynt" transform="translate(-1189 -1651)">
    <circle id="Ellipse_112" data-name="Ellipse 112" cx="48" cy="48" r="48" transform="translate(1189 1651)" fill="#147fc0"/>
    <path id="Path_808" data-name="Path 808" d="M55.889,54.012c-.5-3.566-2.239-7.2-5.473-11.424-1.618-2.126-3.426-4.162-5.171-6.137A64.735,64.735,0,0,1,39.08,28.8a11.337,11.337,0,0,1-2.1-6.169c.232-8.857,13.8-11.868,13.941-11.894H46.986c-1.045,0-3.692,0-6.876,0H38.08l0,0-15.268.021-.148.156c-.226.224-5.49,5.654-5.438,15.931a31.376,31.376,0,0,0,.322,4.231c.5,3.563,2.244,7.2,5.476,11.429,1.621,2.12,3.423,4.158,5.179,6.129A63.951,63.951,0,0,1,34.345,56.3a11.246,11.246,0,0,1,2.108,6.169c-.232,8.857-13.807,11.868-13.944,11.9l3.947,0c1.042.007,3.684,0,6.866,0h2.044l15.26-.024.148-.155c.226-.226,5.5-5.654,5.438-15.932a31.394,31.394,0,0,0-.322-4.233" transform="translate(1200.778 1656.264)" fill="#fff"/>
  </g>
</svg>
