<svg xmlns="http://www.w3.org/2000/svg" xmlns:xlink="http://www.w3.org/1999/xlink" width="96" height="96" viewBox="0 0 96 96">
  <defs>
    <clipPath id="clip-path">
      <rect id="Rectangle_121" data-name="Rectangle 121" width="82.289" height="16.772" fill="none"/>
    </clipPath>
  </defs>
  <g id="site24_7" data-name="site24*7" transform="translate(-638 -195)">
    <circle id="Ellipse_75" data-name="Ellipse 75" cx="48" cy="48" r="48" transform="translate(638 195)"/>
    <g id="Group_275" data-name="Group 275" transform="translate(645 235)">
      <g id="Group_274" data-name="Group 274" clip-path="url(#clip-path)">
        <path id="Path_384" data-name="Path 384" d="M.744,13.534a9.413,9.413,0,0,0,4.048.991c1.652,0,2.561-.661,2.561-1.735,0-.991-.744-1.57-2.726-2.231C1.983,9.651.165,8.164.165,5.768.165,3.041,2.479.893,6.279.893a10.365,10.365,0,0,1,4.131.826L9.584,4.693A7.435,7.435,0,0,0,6.2,3.867c-1.57,0-2.313.744-2.313,1.57,0,.991.909,1.487,2.974,2.231,2.809,1.074,4.214,2.561,4.214,4.792,0,2.726-2.065,4.957-6.527,4.957A10.6,10.6,0,0,1,0,16.425Z" transform="translate(0 -0.81)" fill="#7aa72d"/>
        <path id="Path_385" data-name="Path 385" d="M135.139,1.818a1.827,1.827,0,0,1-1.983,1.818,1.8,1.8,0,0,1-1.9-1.818A1.758,1.758,0,0,1,133.156,0a1.827,1.827,0,0,1,1.983,1.818M131.421,5.04h3.635V16.689h-3.635Z" transform="translate(-119.111)" fill="#7aa72d"/>
        <path id="Path_386" data-name="Path 386" d="M185.57,15.179v3.3h2.644v2.644H185.57v4.214c0,1.4.331,2.066,1.4,2.066.413,0,.826-.083,1.074-.083v2.726a7.85,7.85,0,0,1-2.4.33,3.9,3.9,0,0,1-2.727-.991,4.838,4.838,0,0,1-.991-3.47V21.21h-1.57V18.566h1.57V16.005Z" transform="translate(-163.676 -13.774)" fill="#7aa72d"/>
        <path id="Path_387" data-name="Path 387" d="M273.043,57.19c.083,1.487,1.57,2.231,3.3,2.231a9.774,9.774,0,0,0,3.222-.5l.5,2.479a10.97,10.97,0,0,1-4.214.744c-3.966,0-6.2-2.313-6.2-5.949,0-2.974,1.818-6.2,5.866-6.2,3.8,0,5.205,2.974,5.205,5.866,0,.661-.083,1.157-.083,1.4Zm4.3-2.479a2.143,2.143,0,0,0-2.065-2.4,2.35,2.35,0,0,0-2.231,2.4Z" transform="translate(-244.705 -45.375)" fill="#7aa72d"/>
        <path id="Path_388" data-name="Path 388" d="M396.447,25.6V23.372l1.983-1.818c3.387-3.057,5.04-4.792,5.122-6.61,0-1.239-.744-2.231-2.561-2.231a5.433,5.433,0,0,0-3.3,1.322l-.991-2.644a8.4,8.4,0,0,1,5.122-1.57c3.553,0,5.453,2.065,5.453,4.874,0,2.644-1.9,4.709-4.131,6.692l-1.4,1.157v.083H407.6V25.6Z" transform="translate(-359.764 -8.913)" fill="#fff"/>
        <path id="Path_389" data-name="Path 389" d="M525.63,27.222V23.5h-6.857v-2.4l5.866-9.5H529.1V20.7h1.818V23.5h-1.9v3.718Zm0-6.444V17.39c0-.909.083-1.9.083-2.892h-.083c-.5.991-.909,1.9-1.4,2.892l-2.065,3.387v.083h3.47Z" transform="translate(-470.771 -10.533)" fill="#fff"/>
        <path id="Path_390" data-name="Path 390" d="M644.338,53.657l1.157,1.9.991,1.735h.083c.331-.661.578-1.239.909-1.818l.991-1.9h3.966l-3.883,5.618,3.883,6.114H648.3l-1.157-2.066a17.468,17.468,0,0,1-.909-1.735h-.083a11.479,11.479,0,0,1-.909,1.735l-1.074,2.066h-3.966l3.966-5.949-3.883-5.7Z" transform="translate(-580.969 -48.617)" fill="#fff"/>
        <path id="Path_391" data-name="Path 391" d="M781.56,12.5v2.313l-6.444,13.219h-3.883l6.444-12.476v-.083h-7.105V12.5Z" transform="translate(-699.27 -11.344)" fill="#fff"/>
      </g>
    </g>
  </g>
</svg>
