<svg xmlns="http://www.w3.org/2000/svg" width="96" height="96" viewBox="0 0 96 96">
  <g id="snowflake" transform="translate(-315 -1448)">
    <circle id="Ellipse_103" data-name="Ellipse 103" cx="48" cy="48" r="48" transform="translate(315 1448)" fill="#29b5e8"/>
    <g id="Page-1" transform="translate(329.502 1463.469)">
      <g id="Group" transform="translate(-0.002 0.531)">
        <path id="Path" d="M44.471,36.215,30.293,28.024a4.166,4.166,0,0,0-6.229,4.014V48.045a4.15,4.15,0,0,0,8.3,0v-9.2l7.943,4.587a4.164,4.164,0,1,0,4.165-7.213" transform="translate(13.107 14.974)" fill="#fff"/>
        <path id="Path2" d="M22.317,26.118a4.083,4.083,0,0,0-2.034-3.6L6.105,14.336a4.07,4.07,0,1,0-4.068,7.05L10.21,26.1,2.037,30.82A4.072,4.072,0,0,0,.546,36.379,4.074,4.074,0,0,0,6.105,37.87l14.178-8.184a4.091,4.091,0,0,0,2.034-3.567" transform="translate(0 7.519)" fill="#fff"/>
        <path id="Path3" d="M6.769,16.055,20.947,24.24a4.269,4.269,0,0,0,6.338-3.682V4.153a4.15,4.15,0,1,0-8.3,0V13.49L10.934,8.842a4.164,4.164,0,1,0-4.165,7.213" transform="translate(2.553 0)" fill="#fff"/>
        <path id="Combined-Shape" d="M32.113,25.176a1.608,1.608,0,0,1-.4.978L26.09,31.773a1.594,1.594,0,0,1-.978.4h-1.43a1.594,1.594,0,0,1-.978-.4l-5.625-5.619a1.608,1.608,0,0,1-.4-.978v-1.43a1.58,1.58,0,0,1,.4-.978L22.7,17.143a1.594,1.594,0,0,1,.978-.4h1.43a1.594,1.594,0,0,1,.978.4l5.619,5.625a1.58,1.58,0,0,1,.4.978ZM27.1,24.488v-.06a1.191,1.191,0,0,0-.3-.718l-1.66-1.654a1.135,1.135,0,0,0-.718-.3h-.06a1.163,1.163,0,0,0-.718.3L21.991,23.71a1.162,1.162,0,0,0-.3.718v.06a1.162,1.162,0,0,0,.3.718l1.654,1.66a1.191,1.191,0,0,0,.718.3h.06a1.162,1.162,0,0,0,.718-.3l1.66-1.66A1.162,1.162,0,0,0,27.1,24.488Z" transform="translate(9.09 9.125)" fill="#fff"/>
        <path id="Path4" d="M30.292,24.24,44.47,16.055a4.164,4.164,0,1,0-4.165-7.213L32.363,13.43V4.153a4.15,4.15,0,1,0-8.3,0V20.232a4.162,4.162,0,0,0,6.229,4.008" transform="translate(13.108 0)" fill="#fff"/>
        <path id="Path5" d="M23.79,27.542a4.132,4.132,0,0,0-2.843.483L6.769,36.215a4.164,4.164,0,1,0,4.165,7.213l8.052-4.648v9.265a4.15,4.15,0,0,0,8.3,0V31.64a4.15,4.15,0,0,0-3.495-4.1" transform="translate(2.553 14.974)" fill="#fff"/>
        <path id="Path6" d="M50.743,15.815a4.16,4.16,0,0,0-5.692-1.527L30.874,22.472a4.264,4.264,0,0,0,0,7.327L45.052,37.99a4.167,4.167,0,1,0,4.165-7.219l-8.028-4.635L49.216,21.5a4.153,4.153,0,0,0,1.527-5.686" transform="translate(15.695 7.483)" fill="#fff"/>
      </g>
    </g>
  </g>
</svg>
