<svg xmlns="http://www.w3.org/2000/svg" xmlns:xlink="http://www.w3.org/1999/xlink" width="96" height="96" viewBox="0 0 96 96">
  <defs>
    <clipPath id="clip-path">
      <path id="Path_561" data-name="Path 561" d="M32.325,418.582c-.186-.011-2.762-.373-4.33-.6-2.729-.417-7.312-1.217-8.463-1.48l-.263-.055,1.633-.373c3.508-.789,5.2-1.217,6.906-1.743a48.794,48.794,0,0,0,6.457-2.488,5.3,5.3,0,0,1,.7-.285h.011c.044.11-1.732,5.043-2.379,6.6-.135.332-.191.428-.261.428h-.012m-15.808-2.8c-.395-.11-3.168-1.085-3.9-1.381a27.119,27.119,0,0,1-2.554-1.173,10.677,10.677,0,0,1-1.885-1.195c.022-.011,1.524-.417,3.333-.91,4.8-1.3,7.465-2.061,9.208-2.609a4.417,4.417,0,0,1,.6-.164c.011.011-.767,1.261-2.127,3.409-.581.91-1.228,1.94-1.458,2.3s-.548.9-.734,1.206l-.318.559Zm1.03.241a7.934,7.934,0,0,1,.581-.734,65.042,65.042,0,0,0,4.451-5.985c.362-.548.669-1,.669-1.009s.493.164,1.085.384a35.1,35.1,0,0,0,4.067,1.26,45.016,45.016,0,0,0,6.15,1.063c.241.022.373.044.329.077-.077.044-1.688.581-2.872.954-1.886.592-7.641,2.291-12.333,3.639-.866.252-1.611.46-1.655.471a.2.2,0,0,1-.039,0c-.138,0-.432-.084-.432-.124M7.3,411.5l-.2-.143.318-.46c1.03-1.491,2.324-3.124,5.141-6.523l1.94-2.335.351.395a20.584,20.584,0,0,0,5.141,4.209,2.876,2.876,0,0,1,.592.384c-.077.055-6.775,2.433-9.877,3.508-1.743.614-3.179,1.107-3.19,1.107A1.882,1.882,0,0,1,7.3,411.5m-1.239-.987a18.274,18.274,0,0,1-2.039-2.083A9,9,0,0,1,2.19,404.89c-.121-.526-.121-.789-.011-.822.164-.044,3.091-.735,5.832-1.37,1.524-.351,3.289-.767,3.924-.921s1.151-.274,1.162-.274c.022.022-1.37,2.028-3.322,4.758-.68.954-1.469,2.072-1.765,2.488s-.745,1.074-1,1.469l-.461.713ZM38.1,400.65h0m0,0h0m0,0h0m0,0h0m-2.971,9.975a45.815,45.815,0,0,1-8.912-2.51c-.768-.307-1.864-.8-1.929-.855a12.794,12.794,0,0,1,1.469-.691c4.988-2.182,10.162-4.659,11.938-5.722a1.43,1.43,0,0,1,.406-.2c.011.252-.548,2.51-1.009,4.144-.384,1.37-.713,2.445-1.315,4.341-.263.833-.493,1.524-.5,1.524a.72.72,0,0,1-.143-.033M21.79,405.9a22.542,22.542,0,0,1-5.733-4.878l-.2-.241,1-.274a71.551,71.551,0,0,0,9.625-3.321c.428-.175.778-.318.789-.318a3.154,3.154,0,0,1-.186.5,69.419,69.419,0,0,1-3.8,7.663c-.406.724-.745,1.3-.757,1.3s-.34-.2-.734-.439m3.168-.471c0-.011.2-.395.449-.866a54.1,54.1,0,0,0,3.453-7.86c.088-.208.143-.395.154-.406a4.4,4.4,0,0,1,.592.318A33.025,33.025,0,0,0,38,399.88l.252.055-.351.2c-1.458.811-6.248,2.806-11.148,4.637-.713.263-1.414.526-1.546.581a1.127,1.127,0,0,1-.246.079s-.006,0-.006,0M2.124,403.136a11.518,11.518,0,0,1,3.19-5.492,14.18,14.18,0,0,1,3.607-2.763c1.118-.636,2.839-1.589,2.971-1.633,0-.011.011-.011.022-.011.044,0,.033.088-.033.482-.044.285-.1.811-.12,1.173a8.112,8.112,0,0,0,.965,4.407,9.113,9.113,0,0,1,.384.833c-.077.066-7.334,2.193-9.614,2.817-.68.186-1.271.351-1.316.362a.165.165,0,0,1-.042.008c-.037,0-.038-.039-.013-.184m35.507-3.847a28.289,28.289,0,0,1-5.043-2.159,22.323,22.323,0,0,1-2.565-1.579c.011-.011.471-.252,1.008-.537a64.545,64.545,0,0,0,6-3.519c.669-.45,1.677-1.173,1.9-1.37l.175-.132v.461a59.626,59.626,0,0,1-.647,8.244c-.066.427-.121.778-.131.789s-.318-.087-.691-.2m-23.1-.625a10.052,10.052,0,0,1-.844-2.543,10.238,10.238,0,0,1,.055-3.267c.142-.68.132-.669.46-.833,1.4-.713,5.942-2.839,5.985-2.8a24.529,24.529,0,0,1-1.074,2.269c-1.063,2.072-2.225,4.111-3.782,6.588-.263.427-.515.822-.548.866-.016.023-.029.037-.044.037-.037,0-.084-.081-.208-.322m2.686-.219a61.651,61.651,0,0,0,4.33-8.726c.186-.482.373-.965.406-1.074a.4.4,0,0,1,.241-.285,1.062,1.062,0,0,1,.186-.044.041.041,0,0,1,.033.011,2.065,2.065,0,0,1,.164.395,14.817,14.817,0,0,0,1.82,3.256,18.559,18.559,0,0,0,2.532,2.73c.263.219.5.427.537.46.066.066.088.055-1.7.735-2.072.789-4.33,1.578-6.917,2.412q-.927.3-1.852.6a.124.124,0,0,1-.035.008c-.048,0,.012-.1.254-.479m8.967-6.2a14.832,14.832,0,0,1-2.017-2.938,9.241,9.241,0,0,1-.614-1.491c.175-.121,5.952-2.357,6-2.313a23.628,23.628,0,0,1-.066,3.19,27.9,27.9,0,0,1-1.008,4.769,7.335,7.335,0,0,1-.252.767l0,0a20.361,20.361,0,0,1-2.035-1.986m3.606,1.5a32.318,32.318,0,0,0,1.173-7.706c.011-1.1.011-1.1.11-1.129-.022.011-.011.011,0,.011a3.642,3.642,0,0,1,.954.515,67.957,67.957,0,0,0,6.643,3.694c.405.175.449.109-.482.745a47.774,47.774,0,0,1-7.531,4.045c-.537.241-.986.427-1,.427a2.854,2.854,0,0,1,.131-.6m6.117-6.851c-1.1-.691-3.179-2.072-3.508-2.335-.11-.077-.1-.088.8-.395,1.524-.515,5.141-1.677,5.262-1.677a35.5,35.5,0,0,1,.57,5.492,2.936,2.936,0,0,1-.011.745c-.088,0-1.853-1.041-3.113-1.831m-8.638-1.612-12.617,5.569-3.53.932c-.9.855-1.842,1.721-2.861,2.6-1.118.965-2.16,1.842-2.96,2.477a22.087,22.087,0,0,0-2.872,2.85A12.923,12.923,0,0,0,.3,403.3a6.037,6.037,0,0,0,.855,5.427,19.222,19.222,0,0,0,7.926,5.952,50.362,50.362,0,0,0,6.972,2.335,92.317,92.317,0,0,0,14.865,2.116c.389.016.844.024,1.213.025h.059a4.15,4.15,0,0,0,.646-.025,26.128,26.128,0,0,0,1.414-2.686,67.9,67.9,0,0,0,5.141-13.6,64.476,64.476,0,0,0,1.315-9.427c.077-1.063.11-4.626.044-5.832a40.945,40.945,0,0,0-.548-5.141,1.181,1.181,0,0,1-.033-.449,18.88,18.88,0,0,1,1.962-.592l-.362-.855h0Z" transform="translate(0 -380.543)" fill="none"/>
    </clipPath>
    <linearGradient id="linear-gradient" x1="0.128" y1="0.854" x2="0.129" y2="0.854" gradientUnits="objectBoundingBox">
      <stop offset="0" stop-color="#909ca9"/>
      <stop offset="1" stop-color="#ededee"/>
    </linearGradient>
    <clipPath id="clip-path-2">
      <path id="Path_562" data-name="Path 562" d="M142.261,12.2c-3.716-.6-4.911-.8-4.911-.822a1.141,1.141,0,0,1,.252-.164A21.4,21.4,0,0,0,140.946,8.9c.252-.208.482-.406.526-.439.011-.022.033-.033.044-.022.044,0,.1.1.23.395.373.822,1.535,3.037,1.82,3.464.039.063.091.1,0,.1-.112,0-.446-.059-1.306-.2M128.745,9.845c-1.195-.274-1.688-.406-2.423-.636l-.6-.2V8.858c.011-.735.943-1.831,2.521-2.949l.143-.1,1.546,1.929c.844,1.063,1.7,2.1,1.886,2.335a3.6,3.6,0,0,1,.329.428.028.028,0,0,1-.013,0c-.189,0-2.265-.406-3.385-.659m6.2,1.151-.438-.066-1.1-1.074c-1.929-1.874-3.442-3.321-4.023-3.87l-.57-.515.428.142a65.347,65.347,0,0,0,11.39,2.171c.362.033.669.066.679.066a5.067,5.067,0,0,1-.691.362c-1.557.778-3.267,1.732-4.451,2.467a4.55,4.55,0,0,1-.712.395c-.044,0-.274-.044-.515-.077M140.5,6.852c-1.118-.307-6.128-1.173-9.756-1.677-.581-.077-1.074-.153-1.074-.164-.044-.044,2.62-1.436,3.793-1.984,1.5-.691,5.624-2.412,5.93-2.467h.011c.011.011.055.318.1.679a22.9,22.9,0,0,0,1.063,4.615c.289.86.372,1.073.225,1.073a1.408,1.408,0,0,1-.291-.076M139.554,0c-.323,0-4.152,1.383-6.633,2.39a41.485,41.485,0,0,0-7.641,3.837,5.8,5.8,0,0,0-1.48,1.48,1.026,1.026,0,0,0-.066.373L125.2,9.472l3.5,1.118,8.32,1.491,9.515,1.633.1-.822c-.033,0-.055-.011-.087-.011l-1.25-.2-.252-.449c-1.294-2.28-2.719-5.108-3.552-7.016A36.251,36.251,0,0,1,139.893.8c-.186-.745-.208-.789-.329-.8h-.01Z" transform="translate(-123.735)" fill="none"/>
    </clipPath>
    <linearGradient id="linear-gradient-2" x1="-0.48" y1="5.281" x2="-0.476" y2="5.281" gradientUnits="objectBoundingBox">
      <stop offset="0" stop-color="#939fab"/>
      <stop offset="1" stop-color="#dcdee1"/>
    </linearGradient>
    <clipPath id="clip-path-3">
      <path id="Path_564" data-name="Path 564" d="M110.046,98.418h0M70.406,118.972c.724-.778,1.272-1.436,1.9-2.247a3.705,3.705,0,0,1,1.1-1.042c1.611-1.162,5.328-3.683,5.371-3.639a23.178,23.178,0,0,1-2.061,2.324A36.355,36.355,0,0,1,69.9,119.86c-.329.208-.625.395-.658.417a.05.05,0,0,1-.018.008,16.177,16.177,0,0,1,1.18-1.312m.581,1.359c0-.011.34-.263.756-.57a44.2,44.2,0,0,0,8.244-7.6c.23-.274.439-.526.46-.537h.022c.055-.011.121.088.416.526a7.908,7.908,0,0,1,1.228,3.19l.022.219-1.5.581c-2.686,1.041-5.163,2.072-6.841,2.839-.471.219-1.293.614-1.83.877s-.954.472-.975.472h0m3.179-6.216a20.209,20.209,0,0,0,1.469-2.532,20.421,20.421,0,0,0,.921-2.291,1.862,1.862,0,0,1,.219-.559,4.846,4.846,0,0,1,.57.285,12.037,12.037,0,0,1,1.885,1.272,3.27,3.27,0,0,1-.636.526c-1.041.745-2.62,1.94-3.541,2.675a8.544,8.544,0,0,1-.926.707c-.015,0,.005-.033.038-.083m8.7.712a9.188,9.188,0,0,0-.932-3.946c-.252-.5-.3-.625-.241-.68.208-.186,3.4-2.006,5.415-3.091,1.359-.723,3.486-1.8,3.519-1.776s-1.48,2.138-2.379,3.332c-1.074,1.425-2.982,3.815-4.3,5.371-.548.647-1.019,1.184-1.041,1.195h0c-.031,0-.041-.162-.041-.406m2.3-1.009a48.119,48.119,0,0,0,7.367-8.463l.384-.592.537.351a41.667,41.667,0,0,1,3.782,2.8c.625.515,1.83,1.6,2.072,1.864l.131.143-.888.252c-5.021,1.392-8.9,2.631-13.429,4.3-.5.186-.932.34-.965.34h-.017c-.048,0,0-.045,1.026-.987M80.228,108.6a8.052,8.052,0,0,0-2.039-1.5,2.947,2.947,0,0,1-.526-.307c0-.088,1.874-1.787,3.311-3.015,1.03-.888,3.2-2.631,3.234-2.6a20.927,20.927,0,0,1-.57,2.116,26.993,26.993,0,0,1-1.94,4.451c-.176.307-.439.756-.581,1.008l-.274.439Zm3.058-1.37a22.89,22.89,0,0,0,2.225-6.04c.044-.164.088-.274.12-.274.154.033,1.579.7,2.653,1.239.987.493,2.467,1.283,2.543,1.348.011.011-.515.285-1.162.6-2.061,1.03-3.826,2.006-5.668,3.124-.526.318-.965.581-.976.581-.044,0-.033-.044.263-.581m26.759-8.814a2.525,2.525,0,0,1,.625.307,37.184,37.184,0,0,1,7.334,5.5c.581.57,2.017,2.061,1.995,2.072,0,0-.5.044-1.1.088a108.045,108.045,0,0,0-16.2,2.7c-.384.088-.723.164-.745.164s.406-.427.943-.943a28.049,28.049,0,0,0,6.654-8.858c.252-.537.471-1,.493-1.03h0m-9.8,10.721a22.654,22.654,0,0,0-4.44-4.9c-.329-.274-.69-.57-.811-.658a1.224,1.224,0,0,1-.219-.186c0-.033,1.863-.833,3.278-1.4,2.478-1.009,5.854-2.214,8.386-2.993,1.326-.416,2.741-.822,2.763-.8a21.056,21.056,0,0,1-1.162,1.809c-.658.943-1.623,2.193-3.8,4.933-1.151,1.447-2.445,3.08-2.872,3.628s-.8,1.008-.811,1.008a3.775,3.775,0,0,1-.307-.438m-22.856-3.782a24.711,24.711,0,0,0-.153-6.61c-.033-.307-.066-.57-.055-.581.033-.033,1.557.329,2.379.559,1.25.351,3.9,1.239,3.9,1.3,0,.011-.3.263-.646.57-1.436,1.195-2.817,2.455-4.473,4.056-.493.472-.91.855-.932.855s-.033-.066-.022-.154m17.463-4.078a22.2,22.2,0,0,0,2.116-7.3c.011-.208.044-.373.077-.373h0c.1,0,2.094.548,3.135.855a64.681,64.681,0,0,1,7.465,2.73l.8.362-.559.131A81.726,81.726,0,0,0,95.247,101.6c-.318.132-.6.241-.625.241a2.825,2.825,0,0,1,.23-.559m-2.762.373a35.7,35.7,0,0,0-4.3-2.1c-.438-.186-.822-.34-.833-.361-.077-.066,3.453-2.4,5.317-3.519,1.48-.9,3.892-2.236,3.935-2.192a8.239,8.239,0,0,1-.241,1.447,27.487,27.487,0,0,1-2.762,6.336,7.215,7.215,0,0,1-.461.745h0a5.3,5.3,0,0,1-.655-.351m-6.215-4.166a15.311,15.311,0,0,0-1.184-5.963,1.664,1.664,0,0,1-.131-.351c.033-.033,4.538.745,6.588,1.14,1.524.3,3.738.756,3.87.811.066.022-.165.153-.9.482a47.587,47.587,0,0,0-7.18,3.9c-.559.373-1.03.68-1.041.68a6.016,6.016,0,0,1-.022-.7m-1.82.68c-1.173-.373-3.08-.932-4.714-1.392-.932-.252-1.688-.482-1.688-.5a25.9,25.9,0,0,1,1.94-1.94A50.883,50.883,0,0,1,83.8,91.062a4.212,4.212,0,0,1,.395,1.217,17.945,17.945,0,0,1,.526,5.021,9.442,9.442,0,0,1-.066.943l-.033.109Zm-9.745-8.912a4.3,4.3,0,0,1,.592.1c1.864.416,5.207,1.052,7.345,1.414a2.683,2.683,0,0,1,.647.142,1.108,1.108,0,0,1-.3.186c-.361.186-1.82,1.052-2.3,1.381a21,21,0,0,0-3.1,2.477c-.318.318-.592.581-.592.581s-.066-.186-.121-.417a35.52,35.52,0,0,0-1.962-5.371c-.108-.226-.2-.435-.216-.491a.017.017,0,0,1,.008,0m.8,5.327a22.817,22.817,0,0,0-5.657-6.391,4.675,4.675,0,0,1-.537-.427,3.051,3.051,0,0,1,.416.131c.417.142.954.307,1.59.482q.722.2,1.447.384c.658.164,1.206.318,1.217.318.077.077,1.184,3.617,1.557,4.977.142.515.252.954.241.954h0a2.465,2.465,0,0,1-.273-.428m-9.033-8.605a4.332,4.332,0,0,0,1.03,1.217s4.878,4.757,5.47,5.437a15.24,15.24,0,0,1,3.979,10.414,16.862,16.862,0,0,1-1.732,7.882c-2.28,4.977-7.093,10.469-14.514,16.564l1.085-.362a34.865,34.865,0,0,1,3.891-2.313,138.73,138.73,0,0,1,18.1-8.1c10.26-3.859,27.132-8.375,36.734-9.844l1-.154-.154-.241a33.778,33.778,0,0,0-2.2-3.1,26.34,26.34,0,0,0-7.783-6.479c-4.3-2.4-9.855-4.275-16.893-5.667-1.326-.263-4.242-.767-6.61-1.129-5.021-.778-8.266-1.315-11.839-1.929-1.283-.219-3.2-.548-4.473-.822a28.378,28.378,0,0,1-2.9-.778c-.789-.307-1.929-.614-2.171-1.546a1.092,1.092,0,0,0-.011.954" transform="translate(-60.31 -85.022)" fill="none"/>
    </clipPath>
    <radialGradient id="radial-gradient" cx="0.453" cy="0.457" r="0.09" gradientUnits="objectBoundingBox">
      <stop offset="0" stop-color="#fff"/>
      <stop offset="1" stop-color="#fff"/>
    </radialGradient>
  </defs>
  <g id="sqlserver" transform="translate(-1070 -553)">
    <circle id="Ellipse_83" data-name="Ellipse 83" cx="48" cy="48" r="48" transform="translate(1070 553)"/>
    <g id="Group_296" data-name="Group 296" transform="translate(1084.672 565.263)">
      <g id="Group_291" data-name="Group 291" transform="translate(0 33.808)">
        <g id="Group_290" data-name="Group 290" clip-path="url(#clip-path)">
          <rect id="Rectangle_129" data-name="Rectangle 129" width="56.176" height="54.829" transform="translate(-17.209 9.992) rotate(-30.578)" fill="url(#linear-gradient)"/>
        </g>
      </g>
      <g id="Group_293" data-name="Group 293" transform="translate(10.993)">
        <g id="Group_292" data-name="Group 292" clip-path="url(#clip-path-2)">
          <rect id="Rectangle_130" data-name="Rectangle 130" width="22.9" height="13.714" transform="translate(0)" fill="url(#linear-gradient-2)"/>
        </g>
      </g>
      <g id="Group_295" data-name="Group 295" transform="translate(5.358 7.553)">
        <g id="Group_294" data-name="Group 294" clip-path="url(#clip-path-3)">
          <path id="Path_563" data-name="Path 563" d="M55.077,44.832l-65.758-9.878L-3.017-15.5,62.741-5.618Z" transform="translate(4.374 6.566)" fill="url(#radial-gradient)"/>
        </g>
      </g>
    </g>
  </g>
</svg>
