<svg xmlns="http://www.w3.org/2000/svg" xmlns:xlink="http://www.w3.org/1999/xlink" width="97" height="97" viewBox="0 0 97 97">
  <defs>
    <clipPath id="clip-path">
      <circle id="DocuSign_oval" data-name="DocuSign oval" cx="48" cy="48" r="48" transform="translate(706 397)" fill="#1976d2"/>
    </clipPath>
    <clipPath id="clip-path-2">
      <rect id="Rectangle_145" data-name="Rectangle 145" width="36.822" height="16.146" fill="none"/>
    </clipPath>
  </defs>
  <g id="SAP_SuccessFactor" data-name="SAP SuccessFactor" transform="translate(-613.5 -736.5)">
    <g id="Group_28" data-name="Group 28">
      <g id="Group_21" data-name="Group 21" transform="translate(-92 340)">
        <circle id="DocuSign_oval-2" data-name="DocuSign oval" cx="48" cy="48" r="48" transform="translate(706 397)" fill="#1976d2" stroke="#1976d2" stroke-miterlimit="10" stroke-width="1"/>
        <g id="Mask_Group_1" data-name="Mask Group 1" clip-path="url(#clip-path)">
          <rect id="Rectangle_15" data-name="Rectangle 15" width="105" height="148" transform="matrix(0.839, 0.545, -0.545, 0.839, 790.219, 380.958)" fill="#fff"/>
        </g>
        <g id="Group_323" data-name="Group 323" transform="translate(712.267 426.865)">
          <g id="Group_322" data-name="Group 322" clip-path="url(#clip-path-2)">
            <path id="Path_686" data-name="Path 686" d="M29.728.356H24.662l.017,11.916L20.267.351H15.892l-3.766,9.956c-.4-2.533-3.019-3.407-5.08-4.062-1.361-.437-2.805-1.08-2.79-1.791.011-.583.773-1.124,2.286-1.043a8.263,8.263,0,0,1,3.7,1l1.754-3.057A13.641,13.641,0,0,0,6.271,0H6.26A6.944,6.944,0,0,0,1.209,1.844,4.256,4.256,0,0,0,0,4.79,3.956,3.956,0,0,0,1.734,8.316a11.81,11.81,0,0,0,3.434,1.57c1.4.434,2.546.812,2.532,1.616a1.191,1.191,0,0,1-.333.788,2.221,2.221,0,0,1-1.627.511A6.976,6.976,0,0,1,1.56,11.608L0,14.7a10.844,10.844,0,0,0,5.515,1.441l.458,0a6.883,6.883,0,0,0,4.353-1.376c.065-.052.124-.105.185-.159l-.192.988,4.275-.014.767-1.964a8.388,8.388,0,0,0,2.7.427,8.476,8.476,0,0,0,2.632-.4l.535,1.94,7.67.007.019-4.477h1.632c3.945,0,6.277-2.008,6.277-5.374,0-3.75-2.268-5.383-7.093-5.383ZM18.058,10.542a4.584,4.584,0,0,1-1.617-.283l1.6-5.05h.031l1.573,5.064a4.736,4.736,0,0,1-1.587.269Zm11.967-2.9H28.912V3.57h1.114c1.483,0,2.668.494,2.668,2.009,0,1.568-1.184,2.061-2.668,2.061" fill="#fff" fill-rule="evenodd"/>
          </g>
        </g>
      </g>
      <g id="Group_23" data-name="Group 23" transform="translate(672.966 764.743)">
        <g id="Group_321" data-name="Group 321">
          <path id="Path_63" data-name="Path 63" d="M16.034,32.514,10.5,26.978C4.836,21.379,0,16.543,0,10.5,0,4.39,4.327,0,10.244,0a9.443,9.443,0,0,1,5.79,1.909A9.864,9.864,0,0,1,21.824,0c5.917,0,10.244,4.454,10.244,10.5s-4.9,10.88-10.5,16.479ZM10.244,3.5c-4.009,0-6.681,2.8-6.681,7,0,4.581,4.39,8.908,9.417,13.934l3.054,3.054,3.054-3.054c5.09-5.027,9.417-9.417,9.417-13.934,0-4.2-2.672-7-6.681-7a6.169,6.169,0,0,0-4.517,1.972L16.034,6.808,14.762,5.472A6.275,6.275,0,0,0,10.244,3.5" fill="#fdb913"/>
        </g>
      </g>
      <g id="Group_27" data-name="Group 27" transform="translate(647 800.886)">
        <path id="Path_65" data-name="Path 65" d="M0,4.379l.911-.543a1.634,1.634,0,0,0,1.492.93c.562,0,.949-.213.949-.639,0-.407-.388-.6-1.1-.794C1.259,3.061.233,2.809.233,1.647.233.62,1.027,0,2.209,0A2.5,2.5,0,0,1,4.4,1.124l-.833.639A1.637,1.637,0,0,0,2.209.988c-.5,0-.794.213-.794.543,0,.446.407.6,1.124.794.969.252,2,.562,2,1.705,0,.891-.659,1.666-2.189,1.666A2.359,2.359,0,0,1,0,4.379m5.115.174V1.666h1.2V4.2c0,.349.136.543.465.543a1.309,1.309,0,0,0,.853-.407V1.666h1.2V5.638h-1.2v-.62a1.694,1.694,0,0,1-1.376.7A1.036,1.036,0,0,1,5.115,4.553m4.359-.891a1.9,1.9,0,0,1,2-2.073,1.648,1.648,0,0,1,1.724,1.2l-1.008.329c-.155-.5-.388-.659-.736-.659-.484,0-.794.407-.794,1.2,0,.7.233,1.2.775,1.2.31,0,.6-.174.775-.7l.988.349a1.772,1.772,0,0,1-1.783,1.2A1.856,1.856,0,0,1,9.475,3.662m4.127,0a1.893,1.893,0,0,1,2-2.054,1.644,1.644,0,0,1,1.724,1.2l-1.008.329c-.155-.5-.388-.659-.736-.659-.484,0-.794.407-.794,1.2,0,.7.213,1.2.775,1.2.31,0,.6-.174.775-.7l.988.349a1.772,1.772,0,0,1-1.783,1.2A1.873,1.873,0,0,1,13.6,3.662m4.011,0a1.962,1.962,0,0,1,2-2.073c.814,0,1.821.407,1.821,2.209v.174H18.814c.058.659.426.911.911.911A1.828,1.828,0,0,0,20.906,4.4l.465.717a2.592,2.592,0,0,1-1.724.6,1.863,1.863,0,0,1-2.034-2.054m2.732-.387c-.058-.562-.31-.833-.756-.833-.368,0-.7.252-.775.833Zm1.4,1.821.484-.659a2.181,2.181,0,0,0,1.376.5c.368,0,.639-.136.639-.388,0-.271-.213-.388-.756-.484-.756-.136-1.55-.31-1.55-1.24,0-.794.659-1.259,1.531-1.259a2.575,2.575,0,0,1,1.744.562l-.465.678a2.15,2.15,0,0,0-1.163-.426c-.349,0-.543.136-.543.349,0,.232.213.329.7.426.775.136,1.608.31,1.608,1.2,0,.949-.833,1.337-1.744,1.337a2.636,2.636,0,0,1-1.86-.6m3.972,0,.484-.659a2.181,2.181,0,0,0,1.376.5c.368,0,.639-.136.639-.388,0-.271-.213-.388-.756-.484-.756-.136-1.55-.31-1.55-1.24,0-.794.659-1.259,1.531-1.259a2.575,2.575,0,0,1,1.744.562l-.465.678a2.15,2.15,0,0,0-1.163-.426c-.349,0-.543.136-.543.349,0,.232.213.329.7.426.775.136,1.608.31,1.608,1.2,0,.949-.833,1.337-1.744,1.337a2.636,2.636,0,0,1-1.86-.6m4.321.543V.136h3.623V1.143h-2.4V2.48h1.724v.949H31.253V5.638H30.032ZM33.4,4.631c0-.911.775-1.414,2.519-1.569v-.1c0-.291-.155-.484-.543-.484a2.178,2.178,0,0,0-1.3.484l-.5-.678a2.8,2.8,0,0,1,1.976-.7c1.085,0,1.531.543,1.531,1.55V4.669a2.736,2.736,0,0,0,.116.969H36.019a1.654,1.654,0,0,1-.1-.581,1.758,1.758,0,0,1-1.376.639A1.059,1.059,0,0,1,33.4,4.631m2.5-.174V3.72c-.949.1-1.337.329-1.337.7,0,.252.174.388.446.388a1.3,1.3,0,0,0,.891-.349m1.821-.794a1.9,1.9,0,0,1,2-2.073,1.648,1.648,0,0,1,1.724,1.2l-1.008.329c-.155-.5-.388-.659-.736-.659-.484,0-.794.407-.794,1.2,0,.7.233,1.2.775,1.2.31,0,.6-.174.775-.7l.988.349a1.772,1.772,0,0,1-1.783,1.2,1.856,1.856,0,0,1-1.938-2.054m4.65.853V2.538h-.659V1.666h.659V.31h1.182V1.666h1.027v.872H43.556V4.263c0,.426.116.562.542.562a2,2,0,0,0,.388-.039v.853a6.433,6.433,0,0,1-.794.058c-1.143-.019-1.318-.426-1.318-1.182m2.577-.853a2.025,2.025,0,1,1,4.049,0,2.025,2.025,0,1,1-4.049,0m2.848,0c0-.659-.232-1.2-.833-1.2-.562,0-.833.484-.833,1.2,0,.659.233,1.2.833,1.2.562.019.833-.484.833-1.2m1.879,1.976V1.666h1.2v.659a1.51,1.51,0,0,1,1.337-.736h.039l-.019,1.066c-.039,0-.233-.019-.31-.019a1.276,1.276,0,0,0-1.046.543V5.638h-1.2ZM52.43,5.1l.484-.659a2.181,2.181,0,0,0,1.376.5c.368,0,.639-.136.639-.388,0-.271-.213-.388-.756-.484-.756-.136-1.55-.31-1.55-1.24,0-.794.659-1.259,1.531-1.259a2.575,2.575,0,0,1,1.744.562l-.465.678a2.151,2.151,0,0,0-1.163-.426c-.349,0-.543.136-.543.349,0,.232.213.329.7.426.775.136,1.608.31,1.608,1.2,0,.949-.833,1.337-1.744,1.337a2.636,2.636,0,0,1-1.86-.6" fill="#0083ca"/>
      </g>
    </g>
  </g>
</svg>
