<svg xmlns="http://www.w3.org/2000/svg" xmlns:xlink="http://www.w3.org/1999/xlink" width="96" height="96" viewBox="0 0 96 96">
  <defs>
    <clipPath id="clip-path">
      <rect id="Rectangle_186" data-name="Rectangle 186" width="59.199" height="53.36" transform="translate(0 0)" fill="none"/>
    </clipPath>
  </defs>
  <g id="sumologic" transform="translate(-180 -1285)">
    <circle id="Ellipse_92" data-name="Ellipse 92" cx="48" cy="48" r="48" transform="translate(180 1285)" fill="#009"/>
    <g id="sumologic-2" data-name="sumologic" transform="translate(198 1305.999)">
      <g id="Group_414" data-name="Group 414" transform="translate(0 0.001)" clip-path="url(#clip-path)">
        <path id="Path_741" data-name="Path 741" d="M19.133,3.341l-2.924,3.55C13.7,4.929,12.114,4.386,9.817,4.386c-1.8,0-3.082.572-3.47,1.505V7.1A2.5,2.5,0,0,0,8.064,8.187q.877.252,3.132.753c4.659,1.034,7.063,2.171,7.908,4.473,0,.776,0,3.817,0,4.53-1.02,2.935-4.175,4.782-8.791,4.782A14.014,14.014,0,0,1,0,18.672l3.132-3.508a16.275,16.275,0,0,0,3.845,2.506,8.4,8.4,0,0,0,3.466.669c1.772,0,3.126-.528,3.565-1.516V15.367a2.934,2.934,0,0,0-1.978-1.333c-.582-.124-1.629-.374-3.132-.71-4.557-1-6.689-2.09-7.475-4.164V4.6C2.436,1.937,5.449,0,9.943,0a12.94,12.94,0,0,1,9.19,3.34" transform="translate(0 -0.001)" fill="#fefefe"/>
        <path id="Path_742" data-name="Path 742" d="M1168.4,20.558V41.9h-4.974V39.647c-1.127,1.839-3.216,2.926-6.264,2.926-5.053,0-7.563-2.632-7.563-6.769V20.558h5.432V34.3a3.214,3.214,0,0,0,3.552,3.55c2.712,0,4.385-1.545,4.385-4.427V20.558Z" transform="translate(-1109.986 -19.85)" fill="#fefefe"/>
        <path id="Path_743" data-name="Path 743" d="M71.876,896.246v14.917H66.445V897.877c0-2.548-1.045-4.1-3.384-4.1-2.38,0-3.759,1.758-3.759,4.263v13.117H53.87V897.877c0-2.716-1.127-4.1-3.382-4.1-2.382,0-3.761,1.758-3.761,4.263v13.117H41.3V889.813h5.056V892.2a6.628,6.628,0,0,1,6.1-3.09,6.47,6.47,0,0,1,5.93,3.128,7.319,7.319,0,0,1,6.392-3.128c4.511,0,7.1,2.754,7.1,7.139" transform="translate(-39.874 -858.471)" fill="#fefefe"/>
        <path id="Path_744" data-name="Path 744" d="M1124.606,903.655a5.347,5.347,0,0,0,10.094,0v-6.331a5.326,5.326,0,0,0-10.094,0v6.331m15.362,1.312a11.182,11.182,0,0,1-20.63,0v-9a11.184,11.184,0,0,1,20.63,0Z" transform="translate(-1080.769 -858.472)" fill="#fefefe"/>
      </g>
    </g>
  </g>
</svg>
