<svg xmlns="http://www.w3.org/2000/svg" xmlns:xlink="http://www.w3.org/1999/xlink" width="96" height="96" viewBox="0 0 96 96">
  <defs>
    <clipPath id="clip-path">
      <rect id="Rectangle_272" data-name="Rectangle 272" width="63.25" height="57.807" fill="none"/>
    </clipPath>
  </defs>
  <g id="Talend" transform="translate(-297 -4284)">
    <circle id="Ellipse_128" data-name="Ellipse 128" cx="48" cy="48" r="48" transform="translate(297 4284)" fill="#0c2c4c"/>
    <g id="Group_888" data-name="Group 888" transform="translate(313 4303)">
      <g id="Group_887" data-name="Group 887" clip-path="url(#clip-path)">
        <path id="Path_936" data-name="Path 936" d="M53.452,17.5a9.919,9.919,0,0,0-5.9,2L35.3,4.475l.111-.111a2.3,2.3,0,1,0-3.229.445,2.647,2.647,0,0,0,2.561.223L46.994,20.063a10.665,10.665,0,0,0-2.227,2.784L9.918,6.7a5.592,5.592,0,0,0,.223-2.338,5.013,5.013,0,0,0-2-3.34,5.74,5.74,0,0,0-3.786-1,5.013,5.013,0,0,0-3.34,2,5.123,5.123,0,0,0,1,7.126,5.126,5.126,0,0,0,3.006,1h.668a5.013,5.013,0,0,0,3.34-2c.111-.223.334-.445.445-.668l34.85,16.033a10.494,10.494,0,0,0-.779,3.34H14.037a3.466,3.466,0,0,0-1.225-2.115A3.148,3.148,0,0,0,8.47,25.3a3.066,3.066,0,0,0,.668,4.342,3.148,3.148,0,0,0,4.342-.557,2.622,2.622,0,0,0,.557-1.447H43.654a8.034,8.034,0,0,0,.891,3.563l-7.571,3.674a1.961,1.961,0,0,0-1.336-.779,2.337,2.337,0,1,0,1.781,2.784,2.287,2.287,0,0,0,0-1.225l7.571-3.674a11.127,11.127,0,0,0,2.561,3.006l-9.8,13.472a4.882,4.882,0,0,0-3.563-.779,5.013,5.013,0,0,0-3.34,2,5.061,5.061,0,0,0,4.008,8.128h.668a5.013,5.013,0,0,0,3.34-2,5.74,5.74,0,0,0,1-3.786,4.43,4.43,0,0,0-1.559-3.006l9.8-13.472A9.707,9.707,0,0,0,53.452,37.1a9.8,9.8,0,1,0,0-19.6M8.47,7.7a4.53,4.53,0,0,1-2.784,1.67,4.4,4.4,0,0,1-3.118-.779,4.389,4.389,0,0,1-.891-6.012A4.228,4.228,0,0,1,4.462.8h.557a4.461,4.461,0,0,1,2.561.891A4.228,4.228,0,0,1,9.361,4.475,4.766,4.766,0,0,1,8.47,7.7M38.31,55.135a4.082,4.082,0,0,1-2.784,1.67,4.267,4.267,0,0,1-4.008-6.792,4.53,4.53,0,0,1,2.784-1.67h.557a4.461,4.461,0,0,1,2.561.891,4.53,4.53,0,0,1,1.67,2.784,3.921,3.921,0,0,1-.779,3.118" transform="translate(0 0)" fill="#82bd41"/>
      </g>
    </g>
  </g>
</svg>
