<svg id="tenable" xmlns="http://www.w3.org/2000/svg" width="96" height="96" viewBox="0 0 96 96">
  <circle id="Ellipse_105" data-name="Ellipse 105" cx="48" cy="48" r="48" fill="#041e42"/>
  <path id="Path_771" data-name="Path 771" d="M303.706,291.426l-6.395-18.979a4.028,4.028,0,0,0-3.052-2.668l-19.952-3.895a4.047,4.047,0,0,0-3.783,1.273l-13.529,15.168a4.042,4.042,0,0,0-.815,3.97l6.395,18.979a4.011,4.011,0,0,0,3.052,2.668l19.953,3.895a4.185,4.185,0,0,0,.768.075,4.047,4.047,0,0,0,3.015-1.348L302.891,295.4A4.037,4.037,0,0,0,303.706,291.426ZM295.982,272.9l4.2,12.481-8.932-14.091a3.564,3.564,0,0,0-.693-.8l3.436.674A2.614,2.614,0,0,1,295.982,272.9Zm-6.592,32.92-7.79.393,12.593-7.294a.2.2,0,0,0,.056-.037l-3.034,5.758A2.156,2.156,0,0,1,289.39,305.816Zm-19.569-.131-4.4-6.938c.084.056.169.112.262.169l12.7,7.35a1.631,1.631,0,0,0,.178.094l-6.769.346A2.2,2.2,0,0,1,269.821,305.685Zm.674-33.772,7.79-.393-12.593,7.294a.2.2,0,0,0-.056.037l3.034-5.758A2.155,2.155,0,0,1,270.5,271.913Zm19.569.122,4.4,6.938c-.084-.056-.169-.112-.262-.169l-12.7-7.35a1.628,1.628,0,0,0-.178-.094l6.769-.346A2.215,2.215,0,0,1,290.064,272.035Zm4.288,24.185a1.737,1.737,0,0,1-.852,1.489l-12.7,7.35a1.717,1.717,0,0,1-1.723,0l-12.7-7.35a1.726,1.726,0,0,1-.852-1.489V281.51a1.737,1.737,0,0,1,.852-1.489l12.7-7.35a1.7,1.7,0,0,1,1.723,0l12.7,7.35a1.726,1.726,0,0,1,.852,1.489Zm-30.177.562-3.689-5.814a2.2,2.2,0,0,1-.084-2.2l3.717-7.069v14.522Q264.133,296.5,264.176,296.781Zm31.534-15.842,3.689,5.814a2.2,2.2,0,0,1,.084,2.2l-3.726,7.069V281.51A3.809,3.809,0,0,0,295.71,280.939Zm-24.128-12.846a2.657,2.657,0,0,1,1.966-.88,2.968,2.968,0,0,1,.5.047l12.453,2.434-16.076.815a3.484,3.484,0,0,0-1.273.309Zm-13.539,15.168,8.951-10.028-7.837,14.878a3.7,3.7,0,0,0-.4,1.423l-1.245-3.689A2.632,2.632,0,0,1,258.043,283.261Zm5.861,21.563-4.2-12.481,8.932,14.091a3.781,3.781,0,0,0,.693.8l-3.436-.674A2.612,2.612,0,0,1,263.9,304.824Zm24.409,4.813a2.643,2.643,0,0,1-2.472.833l-12.453-2.434,16.076-.815a3.484,3.484,0,0,0,1.273-.309l-2.425,2.725Zm13.529-15.168L292.892,304.5l7.837-14.887a3.694,3.694,0,0,0,.4-1.423l1.245,3.689A2.644,2.644,0,0,1,301.843,294.469Z" transform="translate(-232.004 -240.922)" fill="#fff"/>
</svg>
