<svg xmlns="http://www.w3.org/2000/svg" xmlns:xlink="http://www.w3.org/1999/xlink" width="96" height="96" viewBox="0 0 96 96">
  <defs>
    <clipPath id="clip-path">
      <rect id="Rectangle_77" data-name="Rectangle 77" width="83.777" height="24.358" fill="none"/>
    </clipPath>
    <clipPath id="clip-path-2">
      <path id="Path_200" data-name="Path 200" d="M810.416,219.893l8.359,8.744h6.813l-8.827-8.744Z" transform="translate(-810.416 -219.893)" fill="none"/>
    </clipPath>
    <linearGradient id="linear-gradient" x1="-3.793" y1="1" x2="-3.788" y2="1" gradientUnits="objectBoundingBox">
      <stop offset="0" stop-color="#81bb27"/>
      <stop offset="0.316" stop-color="#81bb27"/>
      <stop offset="1" stop-color="#648d2e"/>
    </linearGradient>
  </defs>
  <g id="Thycotic" transform="translate(-468 -1265)">
    <circle id="Ellipse_59" data-name="Ellipse 59" cx="48" cy="48" r="48" transform="translate(468 1265)" fill="#3b3b3b"/>
    <g id="Group_163" data-name="Group 163" transform="translate(474.111 1303.821)">
      <g id="Group_158" data-name="Group 158">
        <g id="Group_157" data-name="Group 157" clip-path="url(#clip-path)">
          <path id="Path_199" data-name="Path 199" d="M60.33,0h3.531V1.517H60.33Zm0,2.51h3.586V13.3H60.33ZM57.985,0H54.427V2.51H52.909V3.862h1.518v9.407h3.558V3.862h1.269V2.51H57.985M74.95,5.986V4.5A1.653,1.653,0,0,0,73.9,3.034a7.282,7.282,0,0,0-3.448-.662,7.607,7.607,0,0,0-3.669.662,2.916,2.916,0,0,0-1.269,2.7v4.414a2.868,2.868,0,0,0,1.269,2.676,7.607,7.607,0,0,0,3.669.662,7.678,7.678,0,0,0,3.448-.634,1.672,1.672,0,0,0,1.048-1.49V9.875H71.722v1.49a.707.707,0,0,1-.359.524,1.764,1.764,0,0,1-.993.248c-.883,0-1.352-.248-1.352-.745V4.469c0-.5.441-.745,1.352-.745a1.763,1.763,0,0,1,.993.248.641.641,0,0,1,.359.524v1.49ZM26.344,11.448c0,.3-.441.469-1.3.469-1.021,0-1.545-.193-1.545-.552V2.483H19.862V11.42c0,1.3,1.159,1.958,3.5,1.958.3,0,.717-.028,1.241-.028.524-.027.855-.027,1.021-.027a2.266,2.266,0,0,0,.772-.138V15.7c0,.193-.138.359-.414.524a2.273,2.273,0,0,1-1.048.221,2.033,2.033,0,0,1-1.048-.248c-.276-.165-.414-.331-.414-.524v-1.49H19.861v1.49q0,.869,1.407,1.49a9.327,9.327,0,0,0,3.724.634,7.61,7.61,0,0,0,3.669-.662,2.917,2.917,0,0,0,1.269-2.7V2.483H26.344v8.965ZM5.324,0H1.766V2.51H0V3.862H1.766v9.407H5.324V3.862H7.09V2.51H5.324m11.255.027a11.021,11.021,0,0,0-2.565-.221,6.084,6.084,0,0,0-2.124.3V0H8.5V13.269h3.448V3.807h1.931c.552,0,.8.248.8.717v8.745h3.255V4c.028-.717-.441-1.214-1.352-1.462m23.337.5a7.283,7.283,0,0,0-3.448-.662,7.606,7.606,0,0,0-3.669.662,2.916,2.916,0,0,0-1.269,2.7v4.414A2.868,2.868,0,0,0,32.8,12.827a7.606,7.606,0,0,0,3.669.662,7.679,7.679,0,0,0,3.448-.634,1.672,1.672,0,0,0,1.048-1.49V9.875h-3.2v1.49c0,.193-.138.359-.359.524a1.766,1.766,0,0,1-.993.248c-.883,0-1.352-.248-1.352-.745V4.469c0-.5.442-.745,1.352-.745a1.764,1.764,0,0,1,.993.248.641.641,0,0,1,.359.524v1.49h3.2V4.5a1.653,1.653,0,0,0-1.048-1.462" fill="#fff"/>
        </g>
      </g>
      <g id="Group_160" data-name="Group 160" transform="translate(57.543 15.613)">
        <g id="Group_159" data-name="Group 159" clip-path="url(#clip-path-2)">
          <rect id="Rectangle_78" data-name="Rectangle 78" width="15.172" height="8.744" transform="translate(0 0)" fill="url(#linear-gradient)"/>
        </g>
      </g>
      <g id="Group_162" data-name="Group 162">
        <g id="Group_161" data-name="Group 161" clip-path="url(#clip-path)">
          <path id="Path_201" data-name="Path 201" d="M606.686,32.13a7.285,7.285,0,0,0-3.448-.662,7.6,7.6,0,0,0-3.669.662,2.916,2.916,0,0,0-1.269,2.7v4.414a2.868,2.868,0,0,0,1.269,2.676,7.606,7.606,0,0,0,3.669.662,7.682,7.682,0,0,0,3.448-.634,1.673,1.673,0,0,0,1.048-1.49V33.592a1.609,1.609,0,0,0-1.048-1.462m-2.152,7.089v1.241a.641.641,0,0,1-.359.524,1.764,1.764,0,0,1-.993.248c-.883,0-1.352-.248-1.352-.745V33.564c0-.5.442-.745,1.352-.745a1.763,1.763,0,0,1,.993.248.641.641,0,0,1,.359.524Z" transform="translate(-555.818 -29.234)" fill="#fff"/>
          <path id="Path_202" data-name="Path 202" d="M946.013,139.472h-6.565l1.711,1.71-13.02,12.744h6.813l9.324-9.655,1.738,1.71" transform="translate(-862.236 -129.569)" fill="#81bb27"/>
        </g>
      </g>
    </g>
  </g>
</svg>
