<svg xmlns="http://www.w3.org/2000/svg" width="96" height="96" viewBox="0 0 96 96">
  <g id="Tivoli" transform="translate(-2075 21)">
    <circle id="Ellipse_76" data-name="Ellipse 76" cx="48" cy="48" r="48" transform="translate(2075 -21)" fill="#0f62fe"/>
    <g id="Group_282" data-name="Group 282" transform="translate(1586 -672.426)">
      <g id="IBM_logo" transform="translate(502 677.426)">
        <g id="Group_279" data-name="Group 279">
          <path id="Rectangle-path" d="M0,373.217H13.559v1.941H0Z" transform="translate(0 -347.191)" fill="#fff"/>
          <path id="Rectangle-path_1_" d="M0,319.83H13.559v1.948H0Z" transform="translate(0 -297.527)" fill="#fff"/>
          <path id="Rectangle-path_2_" d="M55.468,266.541h5.816v1.948H55.468Z" transform="translate(-51.6 -247.954)" fill="#fff"/>
          <path id="Rectangle-path_3_" d="M55.468,213.253h5.816V215.2H55.468Z" transform="translate(-51.6 -198.382)" fill="#fff"/>
          <path id="Rectangle-path_4_" d="M55.468,159.964h5.816v1.948H55.468Z" transform="translate(-51.6 -148.809)" fill="#fff"/>
          <path id="Rectangle-path_5_" d="M55.468,106.577h5.816v1.948H55.468Z" transform="translate(-51.6 -99.145)" fill="#fff"/>
          <rect id="Rectangle-path_6_" width="13.559" height="1.948" transform="translate(0 3.716)" fill="#fff"/>
          <rect id="Rectangle-path_7_" width="13.559" height="1.948" fill="#fff"/>
        </g>
        <g id="Group_280" data-name="Group 280" transform="translate(15.493)">
          <path id="Shape_16_" d="M222.167,321.777H243.02a6.92,6.92,0,0,0,.774-1.948H222.167Z" transform="translate(-222.167 -297.526)" fill="#fff"/>
          <path id="Shape_17_" d="M293.089,213.253H277.734V215.2h16.978A7.793,7.793,0,0,0,293.089,213.253Z" transform="translate(-273.859 -198.382)" fill="#fff"/>
          <path id="Shape_18_" d="M277.734,159.964v1.948h15.355a7.247,7.247,0,0,0,1.623-1.948Z" transform="translate(-273.859 -148.809)" fill="#fff"/>
          <path id="Shape_19_" d="M243.02,53.288H222.167v1.948h21.626A8.43,8.43,0,0,0,243.02,53.288Z" transform="translate(-222.167 -49.572)" fill="#fff"/>
          <path id="Shape_20_" d="M236.61,0H222.167V1.948H241.59A7.332,7.332,0,0,0,236.61,0Z" transform="translate(-222.167)" fill="#fff"/>
          <rect id="Rectangle-path_8_" width="5.809" height="1.948" transform="translate(3.875 7.432)" fill="#fff"/>
          <path id="Shape_21_" d="M444.433,108.525h6.078a7.285,7.285,0,0,0,.262-1.948h-6.341v1.948Z" transform="translate(-428.933 -99.145)" fill="#fff"/>
          <path id="Rectangle-path_9_" d="M277.734,266.541h5.809v1.948h-5.809Z" transform="translate(-273.859 -247.954)" fill="#fff"/>
          <path id="Shape_22_" d="M444.433,266.541v1.948h6.341a7.284,7.284,0,0,0-.262-1.948Z" transform="translate(-428.933 -247.954)" fill="#fff"/>
          <path id="Shape_23_" d="M222.167,375.144l14.443.021a7.337,7.337,0,0,0,4.987-1.948h-19.43Z" transform="translate(-222.167 -347.191)" fill="#fff"/>
        </g>
        <g id="Group_281" data-name="Group 281" transform="translate(38.742)">
          <path id="Rectangle-path_10_" d="M555.567,373.217h9.684v1.941h-9.684Z" transform="translate(-555.567 -347.191)" fill="#fff"/>
          <path id="Rectangle-path_11_" d="M555.567,319.83h9.684v1.948h-9.684Z" transform="translate(-555.567 -297.527)" fill="#fff"/>
          <path id="Rectangle-path_12_" d="M611.034,266.541h5.816v1.948h-5.816Z" transform="translate(-607.166 -247.954)" fill="#fff"/>
          <path id="Rectangle-path_13_" d="M611.034,213.253h5.816V215.2h-5.816Z" transform="translate(-607.166 -198.382)" fill="#fff"/>
          <path id="Shape_24_" d="M567.945,53.288H555.567v1.948h13.048Z" transform="translate(-555.567 -49.572)" fill="#fff"/>
          <path id="Shape_25_" d="M566.66,0H555.567V1.948H567.33Z" transform="translate(-555.567)" fill="#fff"/>
          <path id="Rectangle-path_14_" d="M861.034,373.217h9.691v1.941h-9.691Z" transform="translate(-839.732 -347.191)" fill="#fff"/>
          <path id="Rectangle-path_15_" d="M861.034,319.83h9.691v1.948h-9.691Z" transform="translate(-839.732 -297.527)" fill="#fff"/>
          <path id="Rectangle-path_16_" d="M861.034,266.541h5.816v1.948h-5.816Z" transform="translate(-839.732 -247.954)" fill="#fff"/>
          <path id="Rectangle-path_17_" d="M861.034,213.253h5.816V215.2h-5.816Z" transform="translate(-839.732 -198.382)" fill="#fff"/>
          <path id="Shape_26_" d="M628.468,161.912h5.816v-1.948H623.2l-.546,1.575-.546-1.575H611.034v1.948h5.816v-1.789l.615,1.789h10.388l.615-1.789Z" transform="translate(-607.166 -148.809)" fill="#fff"/>
          <path id="Shape_27_" d="M804.838,106.577h-9.794l-.67,1.948h10.464Z" transform="translate(-777.721 -99.145)" fill="#fff"/>
          <path id="Shape_28_" d="M831.989,0l-.67,1.948h11.763V0Z" transform="translate(-812.089)" fill="#fff"/>
          <path id="Shape_29_" d="M768.8,375.144l.67-1.927h-1.34Z" transform="translate(-753.303 -347.191)" fill="#fff"/>
          <path id="Shape_30_" d="M750.189,321.778h2.569l.691-1.948H749.5Z" transform="translate(-735.981 -297.527)" fill="#fff"/>
          <path id="Shape_31_" d="M731.468,268.489h5.18l.684-1.948h-6.548Z" transform="translate(-718.565 -247.954)" fill="#fff"/>
          <path id="Shape_32_" d="M713.031,215.2h7.784l.663-1.948h-9.117Z" transform="translate(-701.427 -198.382)" fill="#fff"/>
          <path id="Shape_33_" d="M611.034,108.525H621.5l-.67-1.948h-9.794Z" transform="translate(-607.166 -99.145)" fill="#fff"/>
          <path id="Shape_34_" d="M812.9,55.236h13.048V53.288H813.559Z" transform="translate(-794.951 -49.572)" fill="#fff"/>
        </g>
      </g>
    </g>
    <text id="Security_DS" data-name="Security DS" transform="translate(2123 51)" fill="#fff" font-size="14" font-family="IBMPlexSans-Medm, IBM Plex Sans"><tspan x="-37" y="0">Security DS</tspan></text>
  </g>
</svg>
