<svg xmlns="http://www.w3.org/2000/svg" xmlns:xlink="http://www.w3.org/1999/xlink" width="96" height="96" viewBox="0 0 96 96">
  <defs>
    <clipPath id="clip-path">
      <rect id="Rectangle_195" data-name="Rectangle 195" width="96" height="96" fill="none"/>
    </clipPath>
  </defs>
  <g id="top_secret" transform="translate(0 0)">
    <g id="Group_433" data-name="Group 433" transform="translate(0 0)" clip-path="url(#clip-path)">
      <path id="Path_756" data-name="Path 756" d="M48,0A48,48,0,1,1,0,48,48,48,0,0,1,48,0" transform="translate(0 0.001)" fill="#cc092f"/>
      <path id="Path_757" data-name="Path 757" d="M88.807,47.216c-5.49-2.188-10.516-1.455-15.553,1.6,0,0-1.836,1.121-2.386,1.466-2.347,1.472-4.562,2.868-6.69,2.868-2.031,0-4.029-.544-4.875-4.473-1.319-6.129-4.535-21.189-5.939-28.648-.825-4.384-1.277-6.747-1.747-8.352-.828-2.82-2.341-4.355-4.491-4.6a5.266,5.266,0,0,0-.612-.047,5.617,5.617,0,0,0-.644.053c-2.129.254-3.633,1.789-4.455,4.594-.47,1.605-.922,3.968-1.747,8.352-1.4,7.459-4.621,22.52-5.939,28.648-.846,3.929-2.844,4.473-4.875,4.473-2.129,0-4.343-1.4-6.69-2.868-.55-.346-2.389-1.466-2.389-1.466-5.035-3.054-10.063-3.787-15.55-1.6-1.185.473-2.353,1-3.465,1.537a48.411,48.411,0,0,0,2.808,6.93,24.5,24.5,0,0,1,3.79-1.573,9.29,9.29,0,0,1,5.658.041,24.1,24.1,0,0,1,5.026,2.687c3.024,1.9,6.451,4.056,10.811,4.056,6.462,0,11-3.858,12.446-10.587,1.123-5.215,3.613-16.858,5.212-24.888,0,0,4.1,19.672,5.218,24.888C53.177,57.038,57.715,60.9,64.178,60.9c4.361,0,7.787-2.155,10.811-4.056a24.1,24.1,0,0,1,5.026-2.687,9.29,9.29,0,0,1,5.658-.041,24.482,24.482,0,0,1,3.787,1.576,48.107,48.107,0,0,0,2.808-6.933c-1.112-.535-2.276-1.064-3.462-1.537" transform="translate(1.485 13.753)" fill="#fff"/>
    </g>
  </g>
</svg>
