<svg xmlns="http://www.w3.org/2000/svg" xmlns:xlink="http://www.w3.org/1999/xlink" width="96" height="96" viewBox="0 0 96 96">
  <defs>
    <clipPath id="clip-path">
      <rect id="Rectangle_211" data-name="Rectangle 211" width="55" height="55" fill="#fff"/>
    </clipPath>
  </defs>
  <g id="uipath" transform="translate(-1476 -1468)">
    <circle id="Ellipse_107" data-name="Ellipse 107" cx="48" cy="48" r="48" transform="translate(1476 1468)" fill="#fa4616"/>
    <g id="Group_449" data-name="Group 449" transform="translate(1497 1489)">
      <g id="Group_448" data-name="Group 448" clip-path="url(#clip-path)">
        <path id="Path_797" data-name="Path 797" d="M0,0H55V55H0ZM49.29,49.29V5.71H5.71V49.263H49.29Zm-38.624-35.1V30.813c0,7.6,4.175,12.094,11.232,12.094,7.272,0,11.447-4.5,11.447-12.094V14.194h-5.71V30.813c0,4.283-1.858,6.707-5.6,6.707-3.959,0-5.71-2.532-5.71-6.707V14.194ZM40.7,17.588a3.385,3.385,0,0,0,3.528-3.421A3.351,3.351,0,0,0,40.7,10.639a3.475,3.475,0,1,0,0,6.949m-2.855,25h5.71V20.228h-5.71Z" fill="#fff"/>
      </g>
    </g>
  </g>
</svg>
