<svg xmlns="http://www.w3.org/2000/svg" xmlns:xlink="http://www.w3.org/1999/xlink" width="96" height="96" viewBox="0 0 96 96">
  <defs>
    <clipPath id="clip-path">
      <rect id="Rectangle_116" data-name="Rectangle 116" width="44.037" height="66.379" transform="translate(0 0)" fill="#fff"/>
    </clipPath>
  </defs>
  <g id="Ultipro" transform="translate(-1632 -16)">
    <circle id="Ellipse_73" data-name="Ellipse 73" cx="48" cy="48" r="48" transform="translate(1632 16)" fill="#4f9f46"/>
    <g id="Group_264" data-name="Group 264" transform="translate(1658 31)">
      <g id="Group_263" data-name="Group 263" clip-path="url(#clip-path)">
        <path id="Path_358" data-name="Path 358" d="M7.026,9.644c.012,10.781.04,21.561.024,32.342A26.158,26.158,0,0,0,7.756,48.5c1.953,7.672,7.915,11.828,15.887,11.142,7.247-.625,12.784-6.51,12.941-14.507.232-11.826.054-23.66.051-35.491h7.4q-.072,17.493-.149,34.985c-.064,10.75-6.156,18.7-16.35,21.062C12.471,69.173-.4,59.042.01,44.373.333,32.805.125,21.221.152,9.644Z" fill="#fff"/>
        <path id="Path_359" data-name="Path 359" d="M28.457,22.467c0,2.1.046,4.207-.015,6.308-.046,1.563.812,3.683-2.258,3.5-1.06-.062-.751,1.2-.756,1.917-.031,4.292-.119,8.589.031,12.877.068,1.973-.5,2.541-2.495,2.481-4.285-.13-4.288-.014-4.288-4.29,0-3.68-.035-7.36.018-11.039.019-1.305-.1-2.3-1.788-2.066-1.283.178-1.391-.616-1.387-1.609q.036-8.016.007-16.033a3,3,0,0,1,3.205-3.36c2.194-.1,4.4-.091,6.595,0a2.9,2.9,0,0,1,3.112,3.163c.017,2.716,0,5.432,0,8.148h.015" fill="#fff"/>
        <path id="Path_360" data-name="Path 360" d="M22.026,8.913a4.333,4.333,0,0,1-4.445-4.262A4.34,4.34,0,0,1,21.9,0a4.415,4.415,0,0,1,4.485,4.262,4.425,4.425,0,0,1-4.359,4.65" fill="#fff"/>
      </g>
    </g>
  </g>
</svg>
