<svg xmlns="http://www.w3.org/2000/svg" xmlns:xlink="http://www.w3.org/1999/xlink" width="96" height="96" viewBox="0 0 96 96">
  <defs>
    <linearGradient id="linear-gradient" x1="0.282" y1="0.224" x2="0.783" y2="1.074" gradientUnits="objectBoundingBox">
      <stop offset="0" stop-color="#b98309"/>
      <stop offset="1" stop-color="#382605"/>
    </linearGradient>
    <linearGradient id="linear-gradient-4" x1="0.134" y1="0.961" x2="0.69" y2="0.087" gradientUnits="objectBoundingBox">
      <stop offset="0" stop-color="#3e2a06"/>
      <stop offset="1" stop-color="#ad780a"/>
    </linearGradient>
    <radialGradient id="radial-gradient" cx="0.803" cy="0.725" r="0.355" gradientUnits="objectBoundingBox">
      <stop offset="0" stop-color="#fefefc"/>
      <stop offset="0.75" stop-color="#fefefc"/>
      <stop offset="1" stop-color="#d4d4d4"/>
    </radialGradient>
    <radialGradient id="radial-gradient-2" cx="0.809" cy="0.743" r="0.447" xlink:href="#radial-gradient"/>
    <radialGradient id="radial-gradient-3" cx="0.928" cy="0.324" r="1.043" gradientUnits="objectBoundingBox">
      <stop offset="0" stop-color="#d2940a"/>
      <stop offset="0.75" stop-color="#d89c08"/>
      <stop offset="0.87" stop-color="#b67e07"/>
      <stop offset="1" stop-color="#946106"/>
    </radialGradient>
    <linearGradient id="linear-gradient-9" x1="0.02" y1="0.516" x2="0.957" y2="0.502" gradientUnits="objectBoundingBox">
      <stop offset="0" stop-color="#ad780a"/>
      <stop offset="0.12" stop-color="#d89e08"/>
      <stop offset="0.25" stop-color="#edb80b"/>
      <stop offset="0.39" stop-color="#ebc80d"/>
      <stop offset="0.53" stop-color="#f5d838"/>
      <stop offset="0.77" stop-color="#f6d811"/>
      <stop offset="1" stop-color="#f5cd31"/>
    </linearGradient>
    <clipPath id="clip-path">
      <path id="Path_257" data-name="Path 257" d="M54.939,0a9.128,9.128,0,0,0-4.374,1.032,8.049,8.049,0,0,0-3.364,3.5,11.132,11.132,0,0,0-1.062,4.78,96.9,96.9,0,0,0,.323,9.872,10.983,10.983,0,0,1,.063,2.488c-.406,2.079-2.225,3.477-3.2,5.3C42.258,28.989,41.807,31.266,41,33.4c-.739,1.951-1.776,3.783-2.475,5.749a15.576,15.576,0,0,0-.626,8.615,14.914,14.914,0,0,0,2.911,5.945c-.2.361-.4.729-.6,1.087a16.334,16.334,0,0,0-1.8,3.394,4.08,4.08,0,0,0-.138,1.9,2.736,2.736,0,0,0,.939,1.636,2.873,2.873,0,0,0,1.135.526,5.24,5.24,0,0,0,1.253.108,20.415,20.415,0,0,0,4.687-.924c.917-.24,1.839-.453,2.763-.646a30.185,30.185,0,0,1,10.018.038q1.552.237,3.079.609a23.609,23.609,0,0,0,4.817.924,5.282,5.282,0,0,0,1.288-.1,2.877,2.877,0,0,0,1.165-.534,2.734,2.734,0,0,0,.942-1.638,4.071,4.071,0,0,0-.14-1.906A15.855,15.855,0,0,0,68.4,54.8c-.261-.438-.5-.884-.759-1.323a21.662,21.662,0,0,0,4.494-7.615,21.894,21.894,0,0,0,.767-9.614,32.992,32.992,0,0,0-2.783-9.281c-1.683-3.7-3.1-5.035-4.126-8.284-1.107-3.512-.193-7.668-1.017-10.852a11.133,11.133,0,0,0-1.365-3.064,10.5,10.5,0,0,0-2.668-2.873,10.267,10.267,0,0,0-6-1.889Z" transform="translate(-37.554 0)" fill="#020204"/>
    </clipPath>
    <radialGradient id="radial-gradient-5" cx="0.42" cy="0.827" r="0.66" gradientUnits="objectBoundingBox">
      <stop offset="0"/>
      <stop offset="1" stop-opacity="0.251"/>
    </radialGradient>
    <radialGradient id="radial-gradient-6" cx="0.725" cy="1.136" r="0.735" xlink:href="#radial-gradient-5"/>
    <radialGradient id="radial-gradient-7" cx="0.713" cy="1.234" r="0.468" xlink:href="#radial-gradient-5"/>
    <clipPath id="clip-path-8">
      <path id="Path_264" data-name="Path 264" d="M38.231,94.112A23.612,23.612,0,0,0,34.27,99.4a22.665,22.665,0,0,0-.922,2.989,22.536,22.536,0,0,1-1.288,3.312c-.468.99-.984,1.956-1.5,2.921a7.34,7.34,0,0,0-.887,2.207,4.5,4.5,0,0,0,.115,1.871,8.5,8.5,0,0,0,.7,1.749,17.2,17.2,0,0,0,5.233,6.03,18.6,18.6,0,0,0,3.151,1.841,4.832,4.832,0,0,0,1.894.529,2.283,2.283,0,0,0,.967-.18,1.721,1.721,0,0,0,.752-.624,1.793,1.793,0,0,0,.251-1.167,2.81,2.81,0,0,0-.413-1.135,8.176,8.176,0,0,0-2.114-2.067q-2.54-1.965-4.9-4.153a6.4,6.4,0,0,1-1.192-1.358,5.091,5.091,0,0,1-.574-1.661,9.21,9.21,0,0,1,.313-4.777c.213-.6.491-1.165.762-1.736a21.212,21.212,0,0,1,1.521-2.906,33.918,33.918,0,0,0,2.407-3.3,11.643,11.643,0,0,0,.942-3.307c.16-.887.463-1.754.619-2.64a24.821,24.821,0,0,1-1.879,2.272Z" transform="translate(-29.625 -91.84)" fill="#020204"/>
    </clipPath>
    <clipPath id="clip-path-9">
      <path id="Path_265" data-name="Path 265" d="M146.514,97.69a6.918,6.918,0,0,1,2.4,4.319,10.464,10.464,0,0,1-.223,3.913,31.622,31.622,0,0,1-1.195,3.758,7.391,7.391,0,0,0-.428,1.508,2.49,2.49,0,0,0,.223,1.531,2.327,2.327,0,0,0,1.4,1.062,3.351,3.351,0,0,0,1.759.023,6.2,6.2,0,0,0,2.014-.694c1.19-.924,1.473-2.53,1.756-3.938a12.35,12.35,0,0,0-.108-4.5,30.373,30.373,0,0,0-1.7-5.917,20.609,20.609,0,0,0-2.114-4c-.832-1.225-2.009-2.179-2.881-3.377-.3-.416-.666-.847-.962-1.268-.641-.907-.5-.736-.894-1.325a2.318,2.318,0,0,0-1.222-.757,2.431,2.431,0,0,0-1.513-.1,2.388,2.388,0,0,0-1.468,1.313,3.449,3.449,0,0,0-.223,1.992,7.089,7.089,0,0,0,.982,2.415,8.631,8.631,0,0,0,1.841,2.3C144.753,96.607,145.71,97.043,146.514,97.69Z" transform="translate(-141.084 -87.853)" fill="#020204"/>
    </clipPath>
    <clipPath id="clip-path-10">
      <path id="Path_266" data-name="Path 266" d="M8.763,174.917a1.964,1.964,0,0,1,1.1-.1,2.736,2.736,0,0,1,1.025.436,6.477,6.477,0,0,1,1.516,1.638c1.01,1.388,1.979,2.806,2.861,4.279.714,1.2,1.368,2.432,2.194,3.552.539.734,1.145,1.413,1.686,2.142a7.4,7.4,0,0,1,1.26,2.4,4.813,4.813,0,0,1-.351,3.444,4.538,4.538,0,0,1-1.678,1.8,4.307,4.307,0,0,1-2.292.619,11,11,0,0,1-3.838-1.2c-2.5-1-5.216-1.308-7.793-2.084-.792-.238-1.571-.521-2.367-.739a6.915,6.915,0,0,1-1.05-.336,1.8,1.8,0,0,1-.834-.694,1.624,1.624,0,0,1-.2-.817,2.425,2.425,0,0,1,.168-.832c.193-.534.506-1.017.716-1.546a6.494,6.494,0,0,0,.358-2.738c-.045-.924-.2-1.844-.258-2.768a4.671,4.671,0,0,1,.04-1.24,2.027,2.027,0,0,1,.551-1.09,2.045,2.045,0,0,1,1.015-.5,5.1,5.1,0,0,1,1.14-.073,10.91,10.91,0,0,0,1.145,0,2.6,2.6,0,0,0,1.095-.306,2.583,2.583,0,0,0,.787-.742,9.208,9.208,0,0,0,.564-.932,5.851,5.851,0,0,1,.591-.912,2.219,2.219,0,0,1,.852-.661Z" transform="translate(0 -174.78)" fill="url(#linear-gradient)"/>
    </clipPath>
    <linearGradient id="linear-gradient-11" x1="0.585" y1="0.55" x2="1.156" y2="1.142" gradientUnits="objectBoundingBox">
      <stop offset="0" stop-color="#ebc40c"/>
      <stop offset="1" stop-color="#ebc40c" stop-opacity="0"/>
    </linearGradient>
    <linearGradient id="linear-gradient-12" x1="0.158" y1="0.351" x2="0.211" y2="0.706" gradientUnits="objectBoundingBox">
      <stop offset="0"/>
      <stop offset="1" stop-opacity="0"/>
    </linearGradient>
    <clipPath id="clip-path-14">
      <path id="Path_270" data-name="Path 270" d="M159.544,190.1a6.663,6.663,0,0,1-2.137,1.516,41.725,41.725,0,0,0-3.976,2.1,16.312,16.312,0,0,0-2.345,1.886,18.869,18.869,0,0,1-1.906,1.731,5.467,5.467,0,0,1-2.375,1,4.9,4.9,0,0,1-.716.053,5.972,5.972,0,0,1-2.37-.521A3.7,3.7,0,0,1,142,196.527a4.041,4.041,0,0,1-.481-2.144,22.322,22.322,0,0,1,.468-3.9c.19-1.075.371-2.149.488-3.234a33.355,33.355,0,0,0,.07-5.94,4.379,4.379,0,0,1,0-.992,1.422,1.422,0,0,1,.436-.872,1.4,1.4,0,0,1,.852-.306,4.491,4.491,0,0,1,.914.075,19.2,19.2,0,0,1,2.134.371c.441.115.872.271,1.31.391a6.054,6.054,0,0,0,2.26.205,17.544,17.544,0,0,1,2.425-.381,3.509,3.509,0,0,1,.99.173,2.111,2.111,0,0,1,.889.5,1.933,1.933,0,0,1,.406.661,3.99,3.99,0,0,1,.253,1.132,9.413,9.413,0,0,0,.088,1.03,3.405,3.405,0,0,0,.762,1.5,9.513,9.513,0,0,0,1.23,1.167c.433.363.867.724,1.333,1.042.218.15.443.291.651.453a2.069,2.069,0,0,1,.529.586,1.366,1.366,0,0,1,.173.664,1.318,1.318,0,0,1-.058.391A3.038,3.038,0,0,1,159.544,190.1Z" transform="translate(-141.52 -179.135)" fill="url(#linear-gradient-4)"/>
    </clipPath>
    <linearGradient id="linear-gradient-14" x1="0.327" y1="0.141" x2="0.301" y2="1.571" gradientUnits="objectBoundingBox">
      <stop offset="0" stop-color="#f3cd0c"/>
      <stop offset="1" stop-color="#f3cd0c" stop-opacity="0"/>
    </linearGradient>
    <radialGradient id="radial-gradient-8" cx="0.679" cy="0.928" r="0.782" gradientUnits="objectBoundingBox">
      <stop offset="0" stop-color="#110800"/>
      <stop offset="0.59" stop-color="#a65a00" stop-opacity="0.8"/>
      <stop offset="1" stop-color="#ff921e" stop-opacity="0"/>
    </radialGradient>
    <radialGradient id="radial-gradient-9" cx="0.793" cy="0.816" r="1.086" xlink:href="#radial-gradient-8"/>
    <clipPath id="clip-path-19">
      <path id="Path_275" data-name="Path 275" d="M166.5,173.484a1.591,1.591,0,0,0-.431-.619,2.315,2.315,0,0,0-.644-.4,6.987,6.987,0,0,0-1.475-.366c-.468-.088-.937-.2-1.408-.276a3.84,3.84,0,0,0-1.483-.028,2.53,2.53,0,0,0-1.137.609,3.248,3.248,0,0,0-.752,1.055,4.569,4.569,0,0,0-.358,2.247,2.71,2.71,0,0,0,.564,1.583,2.453,2.453,0,0,0,1.172.7,3.98,3.98,0,0,0,2.345-.033,6.187,6.187,0,0,0,3.094-2.327,3.445,3.445,0,0,0,.551-1.167A1.742,1.742,0,0,0,166.5,173.484Z" transform="translate(-158.794 -171.734)" fill="#020204"/>
    </clipPath>
    <radialGradient id="radial-gradient-10" cx="0.945" cy="0.599" r="0.494" gradientUnits="objectBoundingBox">
      <stop offset="0" stop-color="#7c7c7c"/>
      <stop offset="1" stop-color="#7c7c7c" stop-opacity="0.329"/>
    </radialGradient>
    <linearGradient id="linear-gradient-15" x1="0.23" y1="0.18" x2="0.316" y2="0.172" xlink:href="#radial-gradient-10"/>
    <clipPath id="clip-path-21">
      <path id="Path_277" data-name="Path 277" d="M80.591,47.46a2.92,2.92,0,0,0,.083,1.455,2.444,2.444,0,0,0,.514.822,1.707,1.707,0,0,0,.5.388.938.938,0,0,0,.621.08.912.912,0,0,0,.478-.323,1.562,1.562,0,0,0,.263-.524,2.889,2.889,0,0,0-.028-1.711,2.218,2.218,0,0,0-.651-1.062,1.291,1.291,0,0,0-.531-.278.921.921,0,0,0-.591.048,1.018,1.018,0,0,0-.463.466,2.168,2.168,0,0,0-.193.639Z" transform="translate(-80.538 -46.28)" fill="#020204"/>
    </clipPath>
    <linearGradient id="linear-gradient-16" x1="-0.1" y1="-0.231" x2="1.011" y2="1.007" gradientUnits="objectBoundingBox">
      <stop offset="0" stop-color="#757574" stop-opacity="0"/>
      <stop offset="0.25" stop-color="#757574"/>
      <stop offset="0.5" stop-color="#757574"/>
      <stop offset="1" stop-color="#757574" stop-opacity="0"/>
    </linearGradient>
    <clipPath id="clip-path-22">
      <path id="Path_278" data-name="Path 278" d="M79.017,38.274a1.664,1.664,0,0,0-1.032.461,2.344,2.344,0,0,0-.6.972A5.918,5.918,0,0,0,77.248,42a6.739,6.739,0,0,0,.363,2.049,2.689,2.689,0,0,0,.556.879,1.9,1.9,0,0,0,.889.524,1.787,1.787,0,0,0,.967-.033,2.141,2.141,0,0,0,.832-.506,2.791,2.791,0,0,0,.7-1.227,4.82,4.82,0,0,0,.163-1.418,5.984,5.984,0,0,0-.273-1.761,4,4,0,0,0-.9-1.531,2.521,2.521,0,0,0-.689-.516A1.721,1.721,0,0,0,79.017,38.274Z" transform="translate(-77.201 -38.272)" fill="url(#radial-gradient)"/>
    </clipPath>
    <radialGradient id="radial-gradient-12" cx="0.647" cy="0.708" r="0.223" gradientUnits="objectBoundingBox">
      <stop offset="0" stop-color="#c8c8c8"/>
      <stop offset="1" stop-color="#797978"/>
    </radialGradient>
    <linearGradient id="linear-gradient-17" x1="0.004" y1="-0.033" x2="0.906" y2="0.991" gradientUnits="objectBoundingBox">
      <stop offset="0" stop-color="#646464" stop-opacity="0"/>
      <stop offset="0.31" stop-color="#646464" stop-opacity="0.58"/>
      <stop offset="0.47" stop-color="#646464"/>
      <stop offset="0.73" stop-color="#646464" stop-opacity="0.259"/>
      <stop offset="1" stop-color="#646464" stop-opacity="0"/>
    </linearGradient>
    <clipPath id="clip-path-23">
      <path id="Path_279" data-name="Path 279" d="M112.621,45.51a1.393,1.393,0,0,0-.639.213,1.656,1.656,0,0,0-.481.471,2.41,2.41,0,0,0-.388,1.283,2.72,2.72,0,0,0,.138,1,1.876,1.876,0,0,0,.564.834,1.6,1.6,0,0,0,1.939.09,1.748,1.748,0,0,0,.541-.621,2.283,2.283,0,0,0,.246-.789,2.436,2.436,0,0,0-.233-1.425,1.986,1.986,0,0,0-1.062-.962A1.522,1.522,0,0,0,112.621,45.51Z" transform="translate(-111.111 -45.507)" fill="#020204"/>
    </clipPath>
    <linearGradient id="linear-gradient-18" x1="0.145" y1="-0.043" x2="1.108" y2="1.115" gradientUnits="objectBoundingBox">
      <stop offset="0" stop-color="#949494" stop-opacity="0.388"/>
      <stop offset="0.5" stop-color="#949494"/>
      <stop offset="1" stop-color="#949494" stop-opacity="0.388"/>
    </linearGradient>
    <clipPath id="clip-path-24">
      <path id="Path_280" data-name="Path 280" d="M107.03,36.854a3.531,3.531,0,0,0-1.348,1.673,4.094,4.094,0,0,0,.108,2.7,4.471,4.471,0,0,0,1.593,2.27,2.894,2.894,0,0,0,1.3.506,2.4,2.4,0,0,0,1.37-.238,2.654,2.654,0,0,0,1.135-1.248,4.587,4.587,0,0,0,.376-1.668,5.617,5.617,0,0,0-.271-2.157,3.624,3.624,0,0,0-1.4-1.871,2.724,2.724,0,0,0-1.1-.418,2.356,2.356,0,0,0-1.17.13A3.033,3.033,0,0,0,107.03,36.854Z" transform="translate(-105.5 -36.377)" fill="url(#radial-gradient-2)"/>
    </clipPath>
    <linearGradient id="linear-gradient-19" x1="0.273" y1="0.472" x2="0.712" y2="0.833" gradientUnits="objectBoundingBox">
      <stop offset="0" stop-color="#747474"/>
      <stop offset="0.13" stop-color="#8c8c8c"/>
      <stop offset="0.25" stop-color="#a4a4a4"/>
      <stop offset="0.5" stop-color="#d4d4d4"/>
      <stop offset="0.62" stop-color="#d4d4d4"/>
      <stop offset="1" stop-color="#7c7c7c"/>
    </linearGradient>
    <linearGradient id="linear-gradient-20" x1="0.023" y1="0.031" x2="0.95" y2="0.98" xlink:href="#linear-gradient-17"/>
    <radialGradient id="radial-gradient-14" cx="0.668" cy="0.571" r="0.59" gradientUnits="objectBoundingBox">
      <stop offset="0" stop-color="#020204"/>
      <stop offset="0.73" stop-color="#020204"/>
      <stop offset="1" stop-color="#5c5c5c"/>
    </radialGradient>
    <clipPath id="clip-path-27">
      <path id="Path_283" data-name="Path 283" d="M77.14,68.132a.674.674,0,0,0,.07.183.843.843,0,0,0,.233.238c.09.068.188.123.283.18a5.157,5.157,0,0,1,1.28,1.232,7.991,7.991,0,0,0,1.576,1.789,3.31,3.31,0,0,0,1.573.566,5.166,5.166,0,0,0,1.961-.228,6.832,6.832,0,0,0,1.678-.739,17.771,17.771,0,0,1,2.918-1.911c.238-.088.486-.15.716-.258a1.137,1.137,0,0,0,.559-.5,2.454,2.454,0,0,0,.135-.719c.038-.258.12-.509.165-.767a1.306,1.306,0,0,0-.06-.772,1,1,0,0,0-.453-.448,1.512,1.512,0,0,0-.629-.155,9.455,9.455,0,0,0-1.293.13c-.571.053-1.147-.023-1.721-.005-.714.023-1.418.183-2.132.218-.814.038-1.626-.088-2.44-.12a4.973,4.973,0,0,0-1.057.05,2.416,2.416,0,0,0-.979.378,9.468,9.468,0,0,0-.769.686,1.97,1.97,0,0,1-.426.291,1.064,1.064,0,0,1-.5.118.838.838,0,0,0-.263.01.39.39,0,0,0-.14.088.839.839,0,0,0-.1.13,2.094,2.094,0,0,0-.188.336Z" transform="translate(-77.14 -65.82)" fill="url(#radial-gradient-3)"/>
    </clipPath>
    <clipPath id="clip-path-29">
      <path id="Path_285" data-name="Path 285" d="M78.783,57.792a5.2,5.2,0,0,0-1.11,1.012,2.416,2.416,0,0,0-.436.736,5.4,5.4,0,0,0-.143.664,1.061,1.061,0,0,0-.035.251.444.444,0,0,0,.018.125.29.29,0,0,0,.063.108.373.373,0,0,0,.185.093c.07.013.14.015.21.023a1.955,1.955,0,0,1,.862.368c.261.178.5.388.769.556a4.008,4.008,0,0,0,1.992.566,8.832,8.832,0,0,0,2.079-.215,9.292,9.292,0,0,0,1.6-.441,9.592,9.592,0,0,0,2.184-1.3,9.011,9.011,0,0,0,.894-.736c.093-.093.185-.185.286-.271a1.038,1.038,0,0,1,.338-.2,1.284,1.284,0,0,1,.594-.01,2.235,2.235,0,0,0,.446.053.735.735,0,0,0,.22-.045.424.424,0,0,0,.278-.4.561.561,0,0,0-.08-.283.961.961,0,0,0-.453-.366,4.634,4.634,0,0,0-.779-.228A11.091,11.091,0,0,1,86.426,57c-.371-.183-.731-.386-1.095-.581a6.691,6.691,0,0,0-1.162-.519,4.569,4.569,0,0,0-2.8.128,5.982,5.982,0,0,0-2.583,1.766Z" transform="translate(-77.059 -55.734)" fill="url(#linear-gradient-9)"/>
    </clipPath>
    <radialGradient id="radial-gradient-16" cx="0.893" cy="0.723" r="0.612" gradientUnits="objectBoundingBox">
      <stop offset="0" stop-color="#3a2903"/>
      <stop offset="0.55" stop-color="#735208"/>
      <stop offset="1" stop-color="#ac8c04"/>
    </radialGradient>
    <radialGradient id="radial-gradient-17" cx="0.714" cy="0.754" r="1.083" xlink:href="#radial-gradient-16"/>
    <clipPath id="clip-path-30">
      <path id="Union_1" data-name="Union 1" d="M5.036,9.027a3.312,3.312,0,0,1-1.573-.566A8,8,0,0,1,1.887,6.673,5.156,5.156,0,0,0,.606,5.44c-.1-.058-.193-.113-.283-.18A.846.846,0,0,1,.09,5.022.668.668,0,0,1,.031,4.88a.274.274,0,0,1-.013-.034A.441.441,0,0,1,0,4.721a1.057,1.057,0,0,1,.035-.25,5.408,5.408,0,0,1,.143-.664A2.417,2.417,0,0,1,.614,3.07a5.2,5.2,0,0,1,1.11-1.012A5.982,5.982,0,0,1,4.306.292,4.568,4.568,0,0,1,7.11.164,6.682,6.682,0,0,1,8.272.683c.363.2.724.4,1.095.581a11.078,11.078,0,0,0,2.34.854,4.632,4.632,0,0,1,.779.228.961.961,0,0,1,.453.366.564.564,0,0,1,.08.272.866.866,0,0,1,.09.149,1.305,1.305,0,0,1,.06.772c-.045.258-.128.509-.165.767a2.454,2.454,0,0,1-.135.719,1.137,1.137,0,0,1-.559.5c-.23.108-.478.17-.717.258A17.777,17.777,0,0,0,8.675,8.06,6.838,6.838,0,0,1,7,8.8a5.549,5.549,0,0,1-1.562.247C5.3,9.047,5.168,9.041,5.036,9.027Z" transform="translate(0 0)" fill="none"/>
    </clipPath>
    <linearGradient id="linear-gradient-22" x1="0.487" y1="0.228" x2="0.487" y2="0.819" gradientUnits="objectBoundingBox">
      <stop offset="0" stop-color="#f5ce2d"/>
      <stop offset="1" stop-color="#d79b08"/>
    </linearGradient>
  </defs>
  <g id="Unix" transform="translate(-468 -755)">
    <circle id="Ellipse_28" data-name="Ellipse 28" cx="48" cy="48" r="48" transform="translate(468 755)" fill="#acddf7"/>
    <g id="tux" transform="translate(489 771)">
      <g id="body" transform="translate(9.408 0)">
        <path id="body_base" d="M54.939,0a9.128,9.128,0,0,0-4.374,1.032,8.049,8.049,0,0,0-3.364,3.5,11.132,11.132,0,0,0-1.062,4.78,96.9,96.9,0,0,0,.323,9.872,10.983,10.983,0,0,1,.063,2.488c-.406,2.079-2.225,3.477-3.2,5.3C42.258,28.989,41.807,31.266,41,33.4c-.739,1.951-1.776,3.783-2.475,5.749a15.576,15.576,0,0,0-.626,8.615,14.914,14.914,0,0,0,2.911,5.945c-.2.361-.4.729-.6,1.087a16.334,16.334,0,0,0-1.8,3.394,4.08,4.08,0,0,0-.138,1.9,2.736,2.736,0,0,0,.939,1.636,2.873,2.873,0,0,0,1.135.526,5.24,5.24,0,0,0,1.253.108,20.415,20.415,0,0,0,4.687-.924c.917-.24,1.839-.453,2.763-.646a30.185,30.185,0,0,1,10.018.038q1.552.237,3.079.609a23.609,23.609,0,0,0,4.817.924,5.282,5.282,0,0,0,1.288-.1,2.877,2.877,0,0,0,1.165-.534,2.734,2.734,0,0,0,.942-1.638,4.071,4.071,0,0,0-.14-1.906A15.855,15.855,0,0,0,68.4,54.8c-.261-.438-.5-.884-.759-1.323a21.662,21.662,0,0,0,4.494-7.615,21.894,21.894,0,0,0,.767-9.614,32.992,32.992,0,0,0-2.783-9.281c-1.683-3.7-3.1-5.035-4.126-8.284-1.107-3.512-.193-7.668-1.017-10.852a11.133,11.133,0,0,0-1.365-3.064,10.5,10.5,0,0,0-2.668-2.873,10.267,10.267,0,0,0-6-1.889Z" transform="translate(-37.554 0)" fill="#020204"/>
        <path id="belly" d="M58.524,71.086a2.59,2.59,0,0,0-.461.974,5.349,5.349,0,0,0-.135,1.077,9.41,9.41,0,0,1-.175,2.159,6.644,6.644,0,0,1-1.112,2.024,12.247,12.247,0,0,0-1.949,3.5,6.215,6.215,0,0,0-.228,2.41,25.7,25.7,0,0,0-2.25,4.053A22.168,22.168,0,0,0,50.39,94.05a17.25,17.25,0,0,0,1.215,8.44,13.793,13.793,0,0,0,3.6,5.02,12.312,12.312,0,0,0,2.63,1.746,11.789,11.789,0,0,0,10.571-.1,20.517,20.517,0,0,0,4.487-3.545,15.74,15.74,0,0,0,2.282-2.585,14.518,14.518,0,0,0,1.9-6.313c.458-3.848.473-7.916-1.215-11.406a12.567,12.567,0,0,0-2.285-3.269,17.843,17.843,0,0,0-1.443-4.865C71.623,76.056,71,75,70.523,73.869c-.2-.463-.366-.939-.581-1.393a4.173,4.173,0,0,0-.849-1.238,3.464,3.464,0,0,0-1.323-.769,5.674,5.674,0,0,0-1.518-.261c-1.03-.053-2.059.083-3.089.04-.819-.033-1.636-.175-2.455-.128a3.775,3.775,0,0,0-1.2.253A2.4,2.4,0,0,0,58.524,71.086Z" transform="translate(-47.107 -52.548)" fill="#fdfdfb"/>
        <g id="body_self_shadows">
          <g id="Group_191" data-name="Group 191" clip-path="url(#clip-path)">
            <path id="belly_shadow_left" d="M60.493,108.577c.218.328-.138,1.463,4.975.736a17.253,17.253,0,0,0-1.784.3,12.8,12.8,0,0,0-3.5,1.656c-.914.676-1.586,1.556-2.425,2.31,0,0,1.36-2.485,1.7-3.234s-.055-.714.213-1.816a8.65,8.65,0,0,1,.924-2.162S60.06,107.928,60.493,108.577Z" transform="translate(-52.698 -79.724)" opacity="0.25" fill="url(#radial-gradient-5)"/>
          </g>
          <g id="Group_192" data-name="Group 192" clip-path="url(#clip-path)">
            <path id="belly_shadow_right" d="M111.54,106.585a4.99,4.99,0,0,1-2.916.782c-1.265.143-4.684.09-4.684.09a9.281,9.281,0,0,1,1.593.2,30.71,30.71,0,0,1,4.594.879,11.992,11.992,0,0,1,2.488,1.1c1.09.689,1.891,1.769,2.933,2.525a3.732,3.732,0,0,0-.371-1.751,16.278,16.278,0,0,1-1.886-3.031,20.836,20.836,0,0,1-.491-3.267,4.042,4.042,0,0,1-1.26,2.475Z" transform="translate(-87.31 -78.03)" opacity="0.42" fill="url(#radial-gradient-6)"/>
          </g>
          <g id="Group_193" data-name="Group 193" clip-path="url(#clip-path)">
            <path id="belly_shadow_middle" d="M87.96,107.81c-.04.313-.09.626-.15.937a2.782,2.782,0,0,1-.12.451,1.02,1.02,0,0,1-.256.388,1.354,1.354,0,0,1-.351.213,5.368,5.368,0,0,1-1.533.436c.21.015.421.035.634.058a2.924,2.924,0,0,1,.393.063,1.12,1.12,0,0,1,.366.163,1.011,1.011,0,0,1,.281.336,2.15,2.15,0,0,1,.208.844,6.935,6.935,0,0,1,.008,1.117,3.457,3.457,0,0,1,.155-.731,3.215,3.215,0,0,1,.674-1.165,2.7,2.7,0,0,1,.4-.356,2.219,2.219,0,0,1,1.563-.378,2.434,2.434,0,0,1-1.553-.483,2.015,2.015,0,0,1-.556-.626A1.751,1.751,0,0,1,87.96,107.81Z" transform="translate(-73.527 -80.803)" opacity="0.2" fill="url(#radial-gradient-7)"/>
          </g>
          <g id="Group_194" data-name="Group 194" clip-path="url(#clip-path)">
            <path id="belly_shadow_lower" d="M87.341,137.14a18.88,18.88,0,0,0-.544,3.084c-.138,1.47-.105,2.951-.185,4.426a16.612,16.612,0,0,0,.005,3.75,6.33,6.33,0,0,0,.551,1.7,5.754,5.754,0,0,0,.09-.619,20.161,20.161,0,0,0-.133-3.009,46.476,46.476,0,0,1,.243-5.276A32.222,32.222,0,0,0,87.341,137.14Z" transform="translate(-74.24 -102.785)" opacity="0.11"/>
          </g>
        </g>
        <g id="body_glare">
          <g id="Group_195" data-name="Group 195" clip-path="url(#clip-path)">
            <path id="belly_glare" d="M158.489,131.227c.258-.04,1.839,1.305,1.623,1.806s-.624.2-.914.2-1.085.366-1.217.138.351-.759.6-1.2C158.789,131.809,158.233,131.267,158.489,131.227Z" transform="translate(-127.795 -98.353)" fill="#7c7c7c" opacity="0.75"/>
          </g>
          <g id="Group_196" data-name="Group 196" clip-path="url(#clip-path)">
            <path id="head_glare" d="M119.706,11.006c-.554.391-.313.879-.075,1.368s-.524,1.9-.531,1.961a6.525,6.525,0,0,0,1.909-1.22c.486-.594,1.711.807,1.643.594C122.655,13.329,120.26,10.618,119.706,11.006Z" transform="translate(-98.672 -8.221)" fill="#7c7c7c"/>
          </g>
          <g id="Group_197" data-name="Group 197" clip-path="url(#clip-path)">
            <path id="neck_glare" d="M137.8,76.381c-.466.426.22,1.065.544,1.814.2.466.762,1.125,1.3,1.02.408-.08.659-.666.621-1.077-.075-.8-.747-.984-1.235-1.258C138.646,76.664,138.128,76.083,137.8,76.381Z" transform="translate(-112.569 -57.184)" fill="#838384"/>
          </g>
        </g>
      </g>
      <g id="wings" transform="translate(7.421 22.008)">
        <g id="wing_left" transform="translate(0 0.999)">
          <path id="wing_left_base" d="M38.231,94.112A23.612,23.612,0,0,0,34.27,99.4a22.665,22.665,0,0,0-.922,2.989,22.536,22.536,0,0,1-1.288,3.312c-.468.99-.984,1.956-1.5,2.921a7.34,7.34,0,0,0-.887,2.207,4.5,4.5,0,0,0,.115,1.871,8.5,8.5,0,0,0,.7,1.749,17.2,17.2,0,0,0,5.233,6.03,18.6,18.6,0,0,0,3.151,1.841,4.832,4.832,0,0,0,1.894.529,2.283,2.283,0,0,0,.967-.18,1.721,1.721,0,0,0,.752-.624,1.793,1.793,0,0,0,.251-1.167,2.81,2.81,0,0,0-.413-1.135,8.176,8.176,0,0,0-2.114-2.067q-2.54-1.965-4.9-4.153a6.4,6.4,0,0,1-1.192-1.358,5.091,5.091,0,0,1-.574-1.661,9.21,9.21,0,0,1,.313-4.777c.213-.6.491-1.165.762-1.736a21.212,21.212,0,0,1,1.521-2.906,33.918,33.918,0,0,0,2.407-3.3,11.643,11.643,0,0,0,.942-3.307c.16-.887.463-1.754.619-2.64a24.821,24.821,0,0,1-1.879,2.272Z" transform="translate(-29.625 -91.84)" fill="#020204"/>
          <g id="Group_198" data-name="Group 198" clip-path="url(#clip-path-8)">
            <path id="wing_left_glare" d="M44.024,124.74a7.108,7.108,0,0,0-1.285,1.581A21.74,21.74,0,0,0,41.4,129.4a7.608,7.608,0,0,0-.716,2.387c-.023.428.04.857.055,1.285a2.361,2.361,0,0,1-.235,1.248A1.515,1.515,0,0,1,39.7,135a2.391,2.391,0,0,1,1.152.834c.24.326.4.7.6,1.047a2.75,2.75,0,0,0,.636.744,1.787,1.787,0,0,0,.887.391,1.562,1.562,0,0,0,1.245-.4,29.2,29.2,0,0,1,1.112-11.616,3.405,3.405,0,0,0,.168-.719,1.035,1.035,0,0,0-.18-.7.749.749,0,0,0-.694-.293.765.765,0,0,0-.363.143.781.781,0,0,0-.243.306Z" transform="translate(-37.176 -116.157)" fill="#7c7c7c" opacity="0.95"/>
          </g>
        </g>
        <g id="wing_right" transform="translate(27.921)">
          <path id="wing_right_base" d="M146.514,97.69a6.918,6.918,0,0,1,2.4,4.319,10.464,10.464,0,0,1-.223,3.913,31.622,31.622,0,0,1-1.195,3.758,7.391,7.391,0,0,0-.428,1.508,2.49,2.49,0,0,0,.223,1.531,2.327,2.327,0,0,0,1.4,1.062,3.351,3.351,0,0,0,1.759.023,6.2,6.2,0,0,0,2.014-.694c1.19-.924,1.473-2.53,1.756-3.938a12.35,12.35,0,0,0-.108-4.5,30.373,30.373,0,0,0-1.7-5.917,20.609,20.609,0,0,0-2.114-4c-.832-1.225-2.009-2.179-2.881-3.377-.3-.416-.666-.847-.962-1.268-.641-.907-.5-.736-.894-1.325a2.318,2.318,0,0,0-1.222-.757,2.431,2.431,0,0,0-1.513-.1,2.388,2.388,0,0,0-1.468,1.313,3.449,3.449,0,0,0-.223,1.992,7.089,7.089,0,0,0,.982,2.415,8.631,8.631,0,0,0,1.841,2.3C144.753,96.607,145.71,97.043,146.514,97.69Z" transform="translate(-141.084 -87.853)" fill="#020204"/>
          <g id="Group_199" data-name="Group 199" clip-path="url(#clip-path-9)">
            <path id="wing_right_glare" d="M150.42,118.99c.105.1.215.2.328.3.807.659,1.235,1.4,2.054,2.044a8.183,8.183,0,0,1,2.956,4.547,8.392,8.392,0,0,1-.4,3.537,53.751,53.751,0,0,1-1.776,5.18c-.2.589.411.346.331.967a3.644,3.644,0,0,0-.008.919c.005-.058.008-.12.015-.178a11.286,11.286,0,0,1,.639-2.46c.544-1.536,1.167-3.044,1.6-4.622a8.63,8.63,0,0,0,.158-4.066,6.851,6.851,0,0,0-2.678-4.319c-.995-.734-2.164-1.2-3.221-1.849Z" transform="translate(-148.081 -111.19)" fill="#838384"/>
          </g>
        </g>
      </g>
      <g id="feet" transform="translate(0 0)">
        <g id="foot_left" transform="translate(0 43.784)">
          <path id="foot_left_base" d="M8.763,174.917a1.964,1.964,0,0,1,1.1-.1,2.736,2.736,0,0,1,1.025.436,6.477,6.477,0,0,1,1.516,1.638c1.01,1.388,1.979,2.806,2.861,4.279.714,1.2,1.368,2.432,2.194,3.552.539.734,1.145,1.413,1.686,2.142a7.4,7.4,0,0,1,1.26,2.4,4.813,4.813,0,0,1-.351,3.444,4.538,4.538,0,0,1-1.678,1.8,4.307,4.307,0,0,1-2.292.619,11,11,0,0,1-3.838-1.2c-2.5-1-5.216-1.308-7.793-2.084-.792-.238-1.571-.521-2.367-.739a6.915,6.915,0,0,1-1.05-.336,1.8,1.8,0,0,1-.834-.694,1.624,1.624,0,0,1-.2-.817,2.425,2.425,0,0,1,.168-.832c.193-.534.506-1.017.716-1.546a6.494,6.494,0,0,0,.358-2.738c-.045-.924-.2-1.844-.258-2.768a4.671,4.671,0,0,1,.04-1.24,2.027,2.027,0,0,1,.551-1.09,2.045,2.045,0,0,1,1.015-.5,5.1,5.1,0,0,1,1.14-.073,10.91,10.91,0,0,0,1.145,0,2.6,2.6,0,0,0,1.095-.306,2.583,2.583,0,0,0,.787-.742,9.208,9.208,0,0,0,.564-.932,5.851,5.851,0,0,1,.591-.912,2.219,2.219,0,0,1,.852-.661Z" transform="translate(0 -174.78)" fill="url(#linear-gradient)"/>
          <g id="Group_200" data-name="Group 200" clip-path="url(#clip-path-10)">
            <path id="foot_left_layer_1" d="M11.765,177.369a1.694,1.694,0,0,1,1-.065,2.315,2.315,0,0,1,.9.443,5.7,5.7,0,0,1,1.265,1.568c.857,1.388,1.693,2.793,2.485,4.224a28.12,28.12,0,0,0,1.909,3.169c.488.656,1.047,1.26,1.546,1.909a6.428,6.428,0,0,1,1.162,2.144,4.216,4.216,0,0,1-.321,3.071,4.1,4.1,0,0,1-1.553,1.623,3.991,3.991,0,0,1-2.177.536,12.2,12.2,0,0,1-3.449-1.067c-2.182-.792-4.544-.9-6.784-1.516-.8-.218-1.583-.509-2.387-.711a7.248,7.248,0,0,1-1.06-.308,1.725,1.725,0,0,1-.842-.681,1.515,1.515,0,0,1-.183-.789,2.512,2.512,0,0,1,.175-.8c.2-.511.5-.972.7-1.483a5.723,5.723,0,0,0,.281-2.445c-.055-.824-.2-1.643-.251-2.467a4.284,4.284,0,0,1,.05-1.1,1.9,1.9,0,0,1,.5-.974,1.937,1.937,0,0,1,1.075-.5,5.039,5.039,0,0,1,1.2,0,8.4,8.4,0,0,0,1.2.058,2.262,2.262,0,0,0,1.137-.348,2.279,2.279,0,0,0,.7-.819,8.981,8.981,0,0,0,.428-1,4.692,4.692,0,0,1,.478-.974,1.9,1.9,0,0,1,.822-.7Z" transform="translate(-2.456 -176.637)" fill="#d99a03"/>
          </g>
          <g id="Group_201" data-name="Group 201" clip-path="url(#clip-path-10)">
            <path id="foot_left_layer_2" d="M13.426,174.13a1.569,1.569,0,0,1,1-.113,2.135,2.135,0,0,1,.907.443,4.982,4.982,0,0,1,1.17,1.631,44.558,44.558,0,0,0,2.23,4.056c.621.934,1.335,1.8,1.961,2.736a11.333,11.333,0,0,1,1.826,4.133,4.537,4.537,0,0,1-.3,2.981,3.312,3.312,0,0,1-1.44,1.383,3.71,3.71,0,0,1-1.984.368,12.194,12.194,0,0,1-3.046-.987c-1.786-.649-3.718-.807-5.556-1.3-.774-.205-1.536-.473-2.32-.636a6.816,6.816,0,0,1-1.032-.251,1.527,1.527,0,0,1-.814-.639,1.291,1.291,0,0,1-.14-.711,2.282,2.282,0,0,1,.185-.709c.193-.451.476-.867.624-1.333a4.022,4.022,0,0,0-.035-2.137,17.042,17.042,0,0,1-.473-2.107,2.856,2.856,0,0,1,.043-.957,1.676,1.676,0,0,1,.453-.837,1.9,1.9,0,0,1,1.142-.473,5.28,5.28,0,0,1,1.255.075,6.616,6.616,0,0,0,1.255.105,2.036,2.036,0,0,0,1.177-.386,2.023,2.023,0,0,0,.649-1.025,7.027,7.027,0,0,0,.2-1.207,4.419,4.419,0,0,1,.266-1.195A1.751,1.751,0,0,1,13.426,174.13Z" transform="translate(-4.41 -174.183)" fill="#f5bd0c"/>
          </g>
          <g id="Group_202" data-name="Group 202" clip-path="url(#clip-path-10)">
            <path id="foot_left_glare" d="M51.2,188.21c.564,1.017.907,2.184,1.465,3.212.514.944,1.1,1.916,1.618,2.786.233.388.774.984,1.32,1.909.5.837,1,2.007,1.278,2.4-.16-.461-.491-1.7-.887-2.575a12.541,12.541,0,0,0-1.062-1.734c-.521-.869-1.085-1.653-1.621-2.483C52.573,190.58,52.009,189.3,51.2,188.21Z" transform="translate(-38.374 -184.846)" fill="url(#linear-gradient-11)"/>
          </g>
        </g>
        <g id="foot_right" transform="translate(9.408)">
          <g id="Group_203" data-name="Group 203" clip-path="url(#clip-path)">
            <path id="foot_right_shadow" d="M152.623,195.255a3.57,3.57,0,0,1-.453.952,6.567,6.567,0,0,1-1.713,1.591c-1.085.769-2.217,1.475-3.229,2.35a16.233,16.233,0,0,0-1.866,1.936,18.472,18.472,0,0,1-1.508,1.739,5.26,5.26,0,0,1-1.939,1.195,4.7,4.7,0,0,1-2.623.055,2.714,2.714,0,0,1-1.523-.884,3.194,3.194,0,0,1-.524-1.739,19.488,19.488,0,0,1,.178-3.362c.1-.934.193-1.869.23-2.8a28.38,28.38,0,0,0-.273-5.023,3.768,3.768,0,0,1-.058-.839,1.219,1.219,0,0,1,1.017-1.182,3.838,3.838,0,0,1,.774-.07,15.688,15.688,0,0,1,1.816,0c.378.033.749.1,1.125.138a5.072,5.072,0,0,0,1.914-.155,15.628,15.628,0,0,1,2.017-.676,2.872,2.872,0,0,1,.842,0,1.558,1.558,0,0,1,.777.288,1.4,1.4,0,0,1,.378.5,3.194,3.194,0,0,1,.276.922,7.979,7.979,0,0,0,.133.854,2.51,2.51,0,0,0,.724,1.152,7.134,7.134,0,0,0,1.1.807,12.524,12.524,0,0,0,1.177.684c.193.1.391.18.574.288a1.509,1.509,0,0,1,.478.418,1.182,1.182,0,0,1,.18.859Z" transform="translate(-112.255 -141.243)" opacity="0.2" fill="url(#linear-gradient-12)"/>
          </g>
          <path id="foot_right_base" d="M159.544,190.1a6.663,6.663,0,0,1-2.137,1.516,41.725,41.725,0,0,0-3.976,2.1,16.312,16.312,0,0,0-2.345,1.886,18.869,18.869,0,0,1-1.906,1.731,5.467,5.467,0,0,1-2.375,1,4.9,4.9,0,0,1-.716.053,5.972,5.972,0,0,1-2.37-.521A3.7,3.7,0,0,1,142,196.527a4.041,4.041,0,0,1-.481-2.144,22.322,22.322,0,0,1,.468-3.9c.19-1.075.371-2.149.488-3.234a33.355,33.355,0,0,0,.07-5.94,4.379,4.379,0,0,1,0-.992,1.422,1.422,0,0,1,.436-.872,1.4,1.4,0,0,1,.852-.306,4.491,4.491,0,0,1,.914.075,19.2,19.2,0,0,1,2.134.371c.441.115.872.271,1.31.391a6.054,6.054,0,0,0,2.26.205,17.544,17.544,0,0,1,2.425-.381,3.509,3.509,0,0,1,.99.173,2.111,2.111,0,0,1,.889.5,1.933,1.933,0,0,1,.406.661,3.99,3.99,0,0,1,.253,1.132,9.413,9.413,0,0,0,.088,1.03,3.405,3.405,0,0,0,.762,1.5,9.513,9.513,0,0,0,1.23,1.167c.433.363.867.724,1.333,1.042.218.15.443.291.651.453a2.069,2.069,0,0,1,.529.586,1.366,1.366,0,0,1,.173.664,1.318,1.318,0,0,1-.058.391A3.038,3.038,0,0,1,159.544,190.1Z" transform="translate(-115.476 -134.26)" fill="url(#linear-gradient-4)"/>
          <g id="Group_204" data-name="Group 204" transform="translate(26.044 44.875)" clip-path="url(#clip-path-14)">
            <path id="foot_right_layer_1" d="M162.3,189.362a3.256,3.256,0,0,1-.556.919,6.039,6.039,0,0,1-1.949,1.363,38.31,38.31,0,0,0-3.632,1.884,14.87,14.87,0,0,0-2.142,1.7,16.782,16.782,0,0,1-1.741,1.556,5.035,5.035,0,0,1-2.167.9,5.273,5.273,0,0,1-2.818-.418,3.37,3.37,0,0,1-1.571-1.21,3.589,3.589,0,0,1-.438-1.926,19.28,19.28,0,0,1,.428-3.507c.175-.964.341-1.931.446-2.906a30.669,30.669,0,0,0,.063-5.341,4.1,4.1,0,0,1,0-.894,1.14,1.14,0,0,1,1.172-1.06,4.267,4.267,0,0,1,.834.07,18.2,18.2,0,0,1,1.949.333c.4.105.8.245,1.2.351a5.534,5.534,0,0,0,2.064.185,16.414,16.414,0,0,1,2.212-.343,3.356,3.356,0,0,1,.9.155,1.951,1.951,0,0,1,.814.446,1.88,1.88,0,0,1,.371.6,2.809,2.809,0,0,1,.228,1.02,9.989,9.989,0,0,0-.023,1.095,2.067,2.067,0,0,0,.326.822,6.131,6.131,0,0,0,.544.7,7.046,7.046,0,0,0,1.207,1.22c.529.383,1.157.609,1.7.964a1.648,1.648,0,0,1,.436.386A1.025,1.025,0,0,1,162.3,189.362Z" transform="translate(-144.345 -180.097)" fill="#cd8907"/>
          </g>
          <g id="Group_205" data-name="Group 205" transform="translate(26.044 44.875)" clip-path="url(#clip-path-14)">
            <path id="foot_right_layer_2" d="M164.313,185.086a4.079,4.079,0,0,1-.571.929,4.728,4.728,0,0,1-2,1.375c-1.245.471-2.6.534-3.823,1.07a13.114,13.114,0,0,0-2.094,1.283,10.448,10.448,0,0,1-1.708,1,8.771,8.771,0,0,1-2.129.581,6.692,6.692,0,0,1-1.4.1,3,3,0,0,1-1.345-.373,1.89,1.89,0,0,1-.759-.777,2.778,2.778,0,0,1-.213-1.238c.013-1.127.256-2.245.248-3.374-.008-.985-.2-1.954-.258-2.936-.108-1.889.3-3.808-.06-5.659a4.752,4.752,0,0,1-.13-.9,1.332,1.332,0,0,1,.078-.443.866.866,0,0,1,.253-.356.8.8,0,0,1,.328-.14,1.114,1.114,0,0,1,.353,0,5.572,5.572,0,0,1,.684.2c.651.2,1.34.19,2,.338.416.09.817.243,1.23.353a5.563,5.563,0,0,0,2.119.188,16.068,16.068,0,0,1,2.272-.346,3.557,3.557,0,0,1,.929.155,1.91,1.91,0,0,1,.837.451,1.988,1.988,0,0,1,.378.6,2.528,2.528,0,0,1,.238,1.03c0,.185-.03.368-.048.554a1.763,1.763,0,0,0,.023.551,1.477,1.477,0,0,0,.243.491c.105.148.225.281.336.426a9.372,9.372,0,0,1,.764,1.328,4.125,4.125,0,0,0,.884,1.23,12.408,12.408,0,0,0,1.751.974,1.47,1.47,0,0,1,.446.388,1.034,1.034,0,0,1,.183.453A1.122,1.122,0,0,1,164.313,185.086Z" transform="translate(-146.429 -176.199)" fill="#f5c021"/>
          </g>
          <g id="Group_206" data-name="Group 206" transform="translate(26.044 44.875)" clip-path="url(#clip-path-14)">
            <path id="foot_right_glare" d="M147.5,180.086c.706-.19,1.308.346,1.821.749a1.879,1.879,0,0,0,1.217.225c.674-.023,1.343.113,2.017.03,1.328-.113,2.628-.438,3.961-.493a3.02,3.02,0,0,1,1.9.293c.223.155.551.809.769.564a1.858,1.858,0,0,0-1.28-1.533c-.536-.085-1.077.063-1.618.015-1.6-.038-3.194-.336-4.8-.251-1.117.01-2.232-.043-3.349-.085-.438-.09-.594.3-.832.448A.174.174,0,0,0,147.5,180.086Z" transform="translate(-145.86 -179.473)" fill="url(#linear-gradient-14)"/>
          </g>
        </g>
      </g>
      <g id="wing_tip_right" transform="translate(35.452 43.02)">
        <g id="wing_tip_right_shadow" transform="translate(0 1.854)">
          <g id="Group_207" data-name="Group 207" clip-path="url(#clip-path-14)">
            <path id="wing_tip_right_shadow_lower" d="M163.856,184.689a1.138,1.138,0,0,0-.589-.519,1.983,1.983,0,0,0-.784-.135c-.534,0-1.065.143-1.6.1a8.935,8.935,0,0,1-1.313-.316,2.783,2.783,0,0,0-1.383-.03,2.033,2.033,0,0,0-1.17.874,2.722,2.722,0,0,0-.381,1.248,7.221,7.221,0,0,0,.048,1.315,6.6,6.6,0,0,0,.143.939,2.538,2.538,0,0,0,.381.867,2.338,2.338,0,0,0,1.095.794,3.048,3.048,0,0,0,2.187-.038,6.03,6.03,0,0,0,2.886-2.655,5.587,5.587,0,0,0,.516-1.33,2.39,2.39,0,0,0,.08-.564A1.153,1.153,0,0,0,163.856,184.689Z" transform="translate(-152.841 -182.566)" opacity="0.35" fill="url(#radial-gradient-8)"/>
          </g>
          <g id="Group_208" data-name="Group 208" clip-path="url(#clip-path-14)">
            <path id="wing_tip_right_shadow_upper" d="M163.856,182.779a1.1,1.1,0,0,0-.589-.376,2.706,2.706,0,0,0-.784-.1c-.534.005-1.065.105-1.6.07a12.175,12.175,0,0,1-1.313-.225,3.777,3.777,0,0,0-1.383-.023,2.083,2.083,0,0,0-1.17.631,1.61,1.61,0,0,0-.381.9,3.777,3.777,0,0,0,.048.949,3.588,3.588,0,0,0,.143.681,1.625,1.625,0,0,0,.381.626,2.462,2.462,0,0,0,1.095.574,4.127,4.127,0,0,0,2.187-.028,5.722,5.722,0,0,0,2.886-1.919,3.487,3.487,0,0,0,.516-.962,1.3,1.3,0,0,0,.08-.406A.646.646,0,0,0,163.856,182.779Z" transform="translate(-152.841 -181.337)" opacity="0.35" fill="url(#radial-gradient-9)"/>
          </g>
        </g>
        <path id="wing_tip_right_base" d="M166.5,173.484a1.591,1.591,0,0,0-.431-.619,2.315,2.315,0,0,0-.644-.4,6.987,6.987,0,0,0-1.475-.366c-.468-.088-.937-.2-1.408-.276a3.84,3.84,0,0,0-1.483-.028,2.53,2.53,0,0,0-1.137.609,3.248,3.248,0,0,0-.752,1.055,4.569,4.569,0,0,0-.358,2.247,2.71,2.71,0,0,0,.564,1.583,2.453,2.453,0,0,0,1.172.7,3.98,3.98,0,0,0,2.345-.033,6.187,6.187,0,0,0,3.094-2.327,3.445,3.445,0,0,0,.551-1.167A1.742,1.742,0,0,0,166.5,173.484Z" transform="translate(-154.467 -171.734)" fill="#020204"/>
        <g id="wing_tip_right_glare" transform="translate(4.327)">
          <g id="Group_209" data-name="Group 209" clip-path="url(#clip-path-19)">
            <path id="wing_tip_right_glare_1" d="M161.3,171.053a2.794,2.794,0,0,0-.351.043,2.641,2.641,0,0,0-2.179,2.806,2.432,2.432,0,0,1,.3-1.072,2.2,2.2,0,0,1,1.5-1.095,3.917,3.917,0,0,1,1.172.02c.376.048.752.1,1.12.175a4.472,4.472,0,0,1,1.613.649,1.554,1.554,0,0,1,.3.271.806.806,0,0,1,.183.356.858.858,0,0,1-.115.574,2.152,2.152,0,0,1-.371.466c-.115.115-.235.223-.358.331a4.083,4.083,0,0,0,1.573-.579,1.614,1.614,0,0,0,.486-.506.976.976,0,0,0,.108-.689,1.042,1.042,0,0,0-.23-.418,2.052,2.052,0,0,0-.363-.311,4.325,4.325,0,0,0-1.956-.749q-.676-.124-1.358-.208A5.913,5.913,0,0,0,161.3,171.053Z" transform="translate(-158.771 -171.22)" fill="url(#radial-gradient-10)"/>
          </g>
          <g id="Group_210" data-name="Group 210" clip-path="url(#clip-path-19)">
            <path id="wing_tip_right_glare_2" d="M161.3,171.053a2.794,2.794,0,0,0-.351.043,2.641,2.641,0,0,0-2.179,2.806,2.432,2.432,0,0,1,.3-1.072,2.2,2.2,0,0,1,1.5-1.095,3.917,3.917,0,0,1,1.172.02c.376.048.752.1,1.12.175a4.472,4.472,0,0,1,1.613.649,1.554,1.554,0,0,1,.3.271.806.806,0,0,1,.183.356.858.858,0,0,1-.115.574,2.152,2.152,0,0,1-.371.466c-.115.115-.235.223-.358.331a4.083,4.083,0,0,0,1.573-.579,1.614,1.614,0,0,0,.486-.506.976.976,0,0,0,.108-.689,1.042,1.042,0,0,0-.23-.418,2.052,2.052,0,0,0-.363-.311,4.325,4.325,0,0,0-1.956-.749q-.676-.124-1.358-.208A5.913,5.913,0,0,0,161.3,171.053Z" transform="translate(-158.771 -171.22)" fill="url(#linear-gradient-15)"/>
          </g>
        </g>
      </g>
      <g id="face" transform="translate(9.408 0)">
        <g id="eyes" transform="translate(9.932 7.811)">
          <g id="eye_left" transform="translate(0 0.424)">
            <path id="eyeball_left" d="M79.017,38.274a1.664,1.664,0,0,0-1.032.461,2.344,2.344,0,0,0-.6.972A5.918,5.918,0,0,0,77.248,42a6.739,6.739,0,0,0,.363,2.049,2.689,2.689,0,0,0,.556.879,1.9,1.9,0,0,0,.889.524,1.787,1.787,0,0,0,.967-.033,2.141,2.141,0,0,0,.832-.506,2.791,2.791,0,0,0,.7-1.227,4.82,4.82,0,0,0,.163-1.418,5.984,5.984,0,0,0-.273-1.761,4,4,0,0,0-.9-1.531,2.521,2.521,0,0,0-.689-.516A1.721,1.721,0,0,0,79.017,38.274Z" transform="translate(-77.201 -36.919)" fill="url(#radial-gradient)"/>
            <g id="pupil_left" transform="translate(0.836 3.359)">
              <path id="pupil_left_base" d="M80.591,47.46a2.92,2.92,0,0,0,.083,1.455,2.444,2.444,0,0,0,.514.822,1.707,1.707,0,0,0,.5.388.938.938,0,0,0,.621.08.912.912,0,0,0,.478-.323,1.562,1.562,0,0,0,.263-.524,2.889,2.889,0,0,0-.028-1.711,2.218,2.218,0,0,0-.651-1.062,1.291,1.291,0,0,0-.531-.278.921.921,0,0,0-.591.048,1.018,1.018,0,0,0-.463.466,2.168,2.168,0,0,0-.193.639Z" transform="translate(-80.538 -46.28)" fill="#020204"/>
              <g id="Group_211" data-name="Group 211" clip-path="url(#clip-path-21)">
                <path id="pupil_left_glare" d="M84.768,48.637c.053.138.228.188.326.3a1.257,1.257,0,0,1,.243.351c.1.253-.1.629.108.809a.214.214,0,0,0,.256,0c.248-.225.193-.679.1-1a1.218,1.218,0,0,0-.579-.7c-.125-.065-.313-.118-.421-.028A.26.26,0,0,0,84.768,48.637Z" transform="translate(-83.69 -47.807)" fill="url(#linear-gradient-16)"/>
              </g>
            </g>
            <g id="Group_212" data-name="Group 212" transform="translate(0 1.353)" clip-path="url(#clip-path-22)">
              <path id="eyelid_left" d="M57.341,30.8A3.241,3.241,0,0,1,59.3,30.44a11.908,11.908,0,0,1,1.971.438,8.6,8.6,0,0,1,1.41.461,2.461,2.461,0,0,1,1.11.952c.04.068.073.14.115.208a.662.662,0,0,0,.155.178.341.341,0,0,0,.22.075.246.246,0,0,0,.113-.033.208.208,0,0,0,.083-.085A.268.268,0,0,0,64.5,32.5a.642.642,0,0,0-.025-.135,8.316,8.316,0,0,0-.839-1.641c-.175-.326-.321-.666-.5-.992A6.326,6.326,0,0,0,60.4,27.176a9.384,9.384,0,0,0-3.67-.914,18.838,18.838,0,0,0-4.386.343,5.632,5.632,0,0,0-1.821.554,2.441,2.441,0,0,0-.731.606,1.813,1.813,0,0,0-.388.862,1.867,1.867,0,0,0,.11.907,2.734,2.734,0,0,0,.466.789,11.431,11.431,0,0,0,1.343,1.26,12.684,12.684,0,0,0,1.4,1.2,2.93,2.93,0,0,0,.829.393,1.938,1.938,0,0,0,.912.043,2.1,2.1,0,0,0,.854-.411,4.614,4.614,0,0,0,.679-.666,5.947,5.947,0,0,1,1.35-1.338Z" transform="translate(-56.354 -29.253)" fill="url(#radial-gradient-12)"/>
            </g>
            <path id="eyebrow_left" d="M85.354,33.8a5.12,5.12,0,0,1,1.215,1.794,3.066,3.066,0,0,0-.784-1.794,3.666,3.666,0,0,0-1-.681,2.659,2.659,0,0,0-.9-.243,2.815,2.815,0,0,0-.3,0c-.045,0-.078,0,.058.02a3.1,3.1,0,0,1,.764.243A3.624,3.624,0,0,1,85.354,33.8Z" transform="translate(-81.955 -32.871)" fill="url(#linear-gradient-17)"/>
          </g>
          <g id="eye_right" transform="translate(7.089)">
            <path id="eyeball_right" d="M107.03,36.854a3.531,3.531,0,0,0-1.348,1.673,4.094,4.094,0,0,0,.108,2.7,4.471,4.471,0,0,0,1.593,2.27,2.894,2.894,0,0,0,1.3.506,2.4,2.4,0,0,0,1.37-.238,2.654,2.654,0,0,0,1.135-1.248,4.587,4.587,0,0,0,.376-1.668,5.617,5.617,0,0,0-.271-2.157,3.624,3.624,0,0,0-1.4-1.871,2.724,2.724,0,0,0-1.1-.418,2.356,2.356,0,0,0-1.17.13A3.033,3.033,0,0,0,107.03,36.854Z" transform="translate(-105.5 -35.075)" fill="url(#radial-gradient-2)"/>
            <g id="pupil_right" transform="translate(1.406 3.589)">
              <path id="pupil_right_base" d="M112.621,45.51a1.393,1.393,0,0,0-.639.213,1.656,1.656,0,0,0-.481.471,2.41,2.41,0,0,0-.388,1.283,2.72,2.72,0,0,0,.138,1,1.876,1.876,0,0,0,.564.834,1.6,1.6,0,0,0,1.939.09,1.748,1.748,0,0,0,.541-.621,2.283,2.283,0,0,0,.246-.789,2.436,2.436,0,0,0-.233-1.425,1.986,1.986,0,0,0-1.062-.962A1.522,1.522,0,0,0,112.621,45.51Z" transform="translate(-111.111 -45.507)" fill="#020204"/>
              <g id="Group_213" data-name="Group 213" clip-path="url(#clip-path-23)">
                <path id="pupil_right_glare" d="M118.428,48.972c.251-.251-.178-.914-.514-1.187-.243-.2-.947-.4-.917-.188s.348.488.559.7C117.819,48.554,118.307,49.092,118.428,48.972Z" transform="translate(-115.522 -47.005)" fill="url(#linear-gradient-18)"/>
              </g>
            </g>
            <g id="Group_214" data-name="Group 214" transform="translate(0 1.302)" clip-path="url(#clip-path-24)">
              <path id="eyelid_right" d="M101.749,28.382a5.131,5.131,0,0,1,1.754-.952,4.831,4.831,0,0,1,3.968.493,13.383,13.383,0,0,1,1.132.864,4.312,4.312,0,0,0,1.215.726,1.738,1.738,0,0,0,.757.108,1.391,1.391,0,0,0,.644-.24,1.682,1.682,0,0,0,.471-.506,2.2,2.2,0,0,0,.276-1.338,7,7,0,0,0-1.04-2.558,7.738,7.738,0,0,0-.433-.754,4.174,4.174,0,0,0-2.154-1.5,13.405,13.405,0,0,0-2.62-.5,4.85,4.85,0,0,0-1.187-.055,10.725,10.725,0,0,0-1.323.351c-.21.055-.423.093-.631.153a1.674,1.674,0,0,0-.584.278,1.419,1.419,0,0,0-.468.8,2.547,2.547,0,0,0,0,.944,10,10,0,0,1,.311,1.869c-.015.433-.153.862-.135,1.3a5.021,5.021,0,0,0,.053.514Z" transform="translate(-102.486 -25.718)" fill="url(#linear-gradient-19)"/>
            </g>
            <path id="eyebrow_right" d="M119.128,31.18a2.183,2.183,0,0,0-.268.426,3.808,3.808,0,0,1,1.3.554,5.237,5.237,0,0,1,1.756,2.077,2.182,2.182,0,0,0,.256-.343,5.294,5.294,0,0,0-1.794-2.167A3.871,3.871,0,0,0,119.128,31.18Z" transform="translate(-115.513 -31.18)" fill="url(#linear-gradient-20)"/>
          </g>
        </g>
        <g id="beak">
          <g id="beak_shadow">
            <g id="Group_215" data-name="Group 215" clip-path="url(#clip-path)">
              <path id="beak_shadow_lower" d="M78.389,75.41A6.092,6.092,0,0,0,80.373,78.1a4.207,4.207,0,0,0,.942.609,2.2,2.2,0,0,0,1.092.21,2.574,2.574,0,0,0,1.035-.356c.321-.18.616-.4.927-.594.531-.338,1.1-.611,1.653-.912a9.5,9.5,0,0,0,1.869-1.288,8.8,8.8,0,0,1,.779-.689,1.519,1.519,0,0,1,.969-.323,5.4,5.4,0,0,1,.759.183,1.066,1.066,0,0,0,.388.02.557.557,0,0,0,.5-.609,1.047,1.047,0,0,0-.135-.453,5.936,5.936,0,0,1-.473-.829,2.448,2.448,0,0,1-.065-.844,1.709,1.709,0,0,0-.128-.834,1.087,1.087,0,0,0-.458-.443,1.625,1.625,0,0,0-.621-.175,9,9,0,0,0-1.3.068c-.571.033-1.147-.038-1.721-.005-.714.045-1.415.251-2.132.253a16.015,16.015,0,0,0-2.44-.138,6.375,6.375,0,0,0-1.01.291,3.1,3.1,0,0,1-1.027.205c-.4-.008-.784-.145-1.182-.173a1.382,1.382,0,0,0-.589.07.824.824,0,0,0-.446.376.785.785,0,0,0-.083.328,1.206,1.206,0,0,0,.038.341,5.3,5.3,0,0,0,.24.639c.3.769.366,1.608.634,2.387Z" transform="translate(-67.476 -53.032)" fill="rgba(0,0,0,0.26)"/>
            </g>
            <g id="Group_216" data-name="Group 216" clip-path="url(#clip-path)">
              <path id="beak_shadow_upper" d="M77,70.567a8.34,8.34,0,0,1,1.894,1.6,8.06,8.06,0,0,0,1.576,1.648,3.469,3.469,0,0,0,1.573.521,5.586,5.586,0,0,0,1.961-.21,7.166,7.166,0,0,0,1.678-.679A17.893,17.893,0,0,1,88.6,71.687c.238-.083.486-.14.716-.24a1.1,1.1,0,0,0,.559-.458,2.116,2.116,0,0,0,.135-.661c.038-.24.12-.471.165-.709a1.108,1.108,0,0,0-.06-.709.978.978,0,0,0-.453-.416,1.669,1.669,0,0,0-.629-.14,10.282,10.282,0,0,0-1.293.118c-.571.048-1.147-.02-1.721,0-.714.02-1.418.168-2.132.2-.814.035-1.626-.085-2.44-.11a5.289,5.289,0,0,0-1.055.05,2.669,2.669,0,0,0-.982.343,8.389,8.389,0,0,0-.779.614,2.3,2.3,0,0,1-.421.268,1.332,1.332,0,0,1-.491.128,2.289,2.289,0,0,0-.263.01.566.566,0,0,0-.368.208.485.485,0,0,0-.09.388Z" transform="translate(-67.112 -51.228)" opacity="0.3"/>
            </g>
          </g>
          <path id="beak_base" d="M88.623,52.063c.383-.428.644-.952,1.01-1.393a2.437,2.437,0,0,1,.644-.566,1.425,1.425,0,0,1,.824-.2,1.452,1.452,0,0,1,.849.4,2.578,2.578,0,0,1,.544.782,4.111,4.111,0,0,0,.428.812,4.2,4.2,0,0,0,.744.631,2.039,2.039,0,0,1,.353.336,1.064,1.064,0,0,1,.215.436.926.926,0,0,1-.04.488,1.1,1.1,0,0,1-.273.411,1.585,1.585,0,0,1-.892.4,17.6,17.6,0,0,1-1.984-.085c-.669.02-1.325.256-2,.233a1.788,1.788,0,0,1-.949-.286,1.257,1.257,0,0,1-.346-.363,1.027,1.027,0,0,1-.145-.476,1.067,1.067,0,0,1,.1-.466,1.748,1.748,0,0,1,.253-.406c.2-.248.451-.453.664-.694Z" transform="translate(-75.069 -37.401)" fill="url(#radial-gradient-14)"/>
          <g id="mandible_lower" transform="translate(9.916 16.488)">
            <path id="mandible_lower_base" d="M77.14,68.132a.674.674,0,0,0,.07.183.843.843,0,0,0,.233.238c.09.068.188.123.283.18a5.157,5.157,0,0,1,1.28,1.232,7.991,7.991,0,0,0,1.576,1.789,3.31,3.31,0,0,0,1.573.566,5.166,5.166,0,0,0,1.961-.228,6.832,6.832,0,0,0,1.678-.739,17.771,17.771,0,0,1,2.918-1.911c.238-.088.486-.15.716-.258a1.137,1.137,0,0,0,.559-.5,2.454,2.454,0,0,0,.135-.719c.038-.258.12-.509.165-.767a1.306,1.306,0,0,0-.06-.772,1,1,0,0,0-.453-.448,1.512,1.512,0,0,0-.629-.155,9.455,9.455,0,0,0-1.293.13c-.571.053-1.147-.023-1.721-.005-.714.023-1.418.183-2.132.218-.814.038-1.626-.088-2.44-.12a4.973,4.973,0,0,0-1.057.05,2.416,2.416,0,0,0-.979.378,9.468,9.468,0,0,0-.769.686,1.97,1.97,0,0,1-.426.291,1.064,1.064,0,0,1-.5.118.838.838,0,0,0-.263.01.39.39,0,0,0-.14.088.839.839,0,0,0-.1.13,2.094,2.094,0,0,0-.188.336Z" transform="translate(-77.14 -65.82)" fill="url(#radial-gradient-3)"/>
            <g id="Group_217" data-name="Group 217" clip-path="url(#clip-path-27)">
              <path id="mandible_lower_glare" d="M89.784,77.276a1.433,1.433,0,0,0,.939,1.693,1.7,1.7,0,0,0,1.305-.135,1.4,1.4,0,0,0,.576-.516.946.946,0,0,0,.133-.366.843.843,0,0,0-.04-.386.865.865,0,0,0-.248-.343,1.122,1.122,0,0,0-.376-.205,3.825,3.825,0,0,0-.979-.17C90.588,76.838,89.866,76.933,89.784,77.276Z" transform="translate(-86.587 -74.085)" fill="#d9b30d"/>
            </g>
          </g>
          <g id="mandible_upper" transform="translate(9.896 13.962)">
            <g id="Group_218" data-name="Group 218" transform="translate(0.02 2.527)" clip-path="url(#clip-path-27)">
              <path id="mandible_upper_shadow" d="M80.365,64.465c-.291.17-.569.358-.842.551a1.043,1.043,0,0,0-.363.368.869.869,0,0,0-.068.358,2.609,2.609,0,0,1-.01.371c-.01.083-.033.165-.035.248a.417.417,0,0,0,.01.125.3.3,0,0,0,.06.11.3.3,0,0,0,.14.08c.053.015.105.023.16.035a1.556,1.556,0,0,1,.666.391c.193.173.368.371.571.534a3.188,3.188,0,0,0,1.976.641,8.867,8.867,0,0,0,2.094-.291,12.5,12.5,0,0,0,1.6-.441,7.051,7.051,0,0,0,2.184-1.3,7.59,7.59,0,0,1,.894-.736c.288-.183.611-.3.907-.476a.56.56,0,0,0,.075-.05.264.264,0,0,0,.06-.07.221.221,0,0,0,.008-.155.443.443,0,0,0-.078-.138,1.158,1.158,0,0,0-.123-.125,1.954,1.954,0,0,0-1.13-.391c-.4-.03-.812-.008-1.21-.075a8.031,8.031,0,0,1-1.095-.318,8.1,8.1,0,0,0-1.162-.283,7.7,7.7,0,0,0-2.8.068,8.189,8.189,0,0,0-2.49.969Z" transform="translate(-78.569 -63.954)" fill="#604405"/>
            </g>
            <path id="mandible_upper_base" d="M78.783,57.792a5.2,5.2,0,0,0-1.11,1.012,2.416,2.416,0,0,0-.436.736,5.4,5.4,0,0,0-.143.664,1.061,1.061,0,0,0-.035.251.444.444,0,0,0,.018.125.29.29,0,0,0,.063.108.373.373,0,0,0,.185.093c.07.013.14.015.21.023a1.955,1.955,0,0,1,.862.368c.261.178.5.388.769.556a4.008,4.008,0,0,0,1.992.566,8.832,8.832,0,0,0,2.079-.215,9.292,9.292,0,0,0,1.6-.441,9.592,9.592,0,0,0,2.184-1.3,9.011,9.011,0,0,0,.894-.736c.093-.093.185-.185.286-.271a1.038,1.038,0,0,1,.338-.2,1.284,1.284,0,0,1,.594-.01,2.235,2.235,0,0,0,.446.053.735.735,0,0,0,.22-.045.424.424,0,0,0,.278-.4.561.561,0,0,0-.08-.283.961.961,0,0,0-.453-.366,4.634,4.634,0,0,0-.779-.228A11.091,11.091,0,0,1,86.426,57c-.371-.183-.731-.386-1.095-.581a6.691,6.691,0,0,0-1.162-.519,4.569,4.569,0,0,0-2.8.128,5.982,5.982,0,0,0-2.583,1.766Z" transform="translate(-77.059 -55.734)" fill="url(#linear-gradient-9)"/>
            <g id="Group_219" data-name="Group 219" clip-path="url(#clip-path-29)">
              <path id="mandible_upper_glare" d="M101.531,64.313a.411.411,0,0,0-.2-.128.522.522,0,0,0-.233-.01,1.109,1.109,0,0,0-.426.2,4.831,4.831,0,0,0-.979.912,3.517,3.517,0,0,0-.792,1.571,1.085,1.085,0,0,0-.018.3.444.444,0,0,0,.123.268.4.4,0,0,0,.23.113.574.574,0,0,0,.261-.028,1.348,1.348,0,0,0,.436-.288,5.156,5.156,0,0,0,1.631-2.35,1.1,1.1,0,0,0,.048-.286A.442.442,0,0,0,101.531,64.313Z" transform="translate(-93.417 -62.054)" fill="#f6da4a"/>
            </g>
            <path id="naris_left" d="M91.446,59.037c-.193-.063-.509.276-.406.448.028.048.115.108.175.075.088-.048.16-.223.256-.291C91.533,59.225,91.521,59.06,91.446,59.037Z" transform="translate(-87.523 -58.204)" opacity="0.8" fill="url(#radial-gradient-16)"/>
            <path id="naris_right" d="M102.552,58.786c.05.16.308.133.458.21.13.068.235.215.383.22s.361-.05.378-.19c.023-.183-.245-.3-.418-.368a.893.893,0,0,0-.716-.015C102.59,58.67,102.537,58.733,102.552,58.786Z" transform="translate(-96.164 -57.862)" opacity="0.8" fill="url(#radial-gradient-17)"/>
          </g>
          <g id="Group_220" data-name="Group 220" transform="translate(9.896 13.962)" clip-path="url(#clip-path-30)">
            <path id="beak_corner" d="M125.558,66.864a.805.805,0,0,1-.7.762c-.34,0-.578-.34-.531-.762a.966.966,0,0,1,.242-.541.638.638,0,0,1,.462-.223.5.5,0,0,1,.411.224A.794.794,0,0,1,125.558,66.864Z" transform="translate(-112.478 -63.503)" fill="url(#linear-gradient-22)"/>
          </g>
        </g>
      </g>
    </g>
  </g>
</svg>
