<svg xmlns="http://www.w3.org/2000/svg" width="96" height="96" viewBox="0 0 96 96">
  <g id="vault" transform="translate(-782 -374)">
    <circle id="Ellipse_76" data-name="Ellipse 76" cx="48" cy="48" r="48" transform="translate(782 374)"/>
    <path id="vault-enterprise" d="M29.63,29a1.655,1.655,0,1,0-1.655-1.655A1.665,1.665,0,0,0,29.63,29Zm-4.965-4.571a1.665,1.665,0,0,0,1.655-1.655,1.616,1.616,0,0,0-1.655-1.655,1.665,1.665,0,0,0-1.655,1.655A1.616,1.616,0,0,0,24.666,24.429Zm4.965,0a1.665,1.665,0,0,0,1.655-1.655A1.616,1.616,0,0,0,29.63,21.12a1.665,1.665,0,0,0-1.655,1.655A1.616,1.616,0,0,0,29.63,24.429Zm4.965,0a1.665,1.665,0,0,0,1.655-1.655A1.616,1.616,0,0,0,34.6,21.12a1.655,1.655,0,1,0,0,3.31Zm-9.929-4.492a1.665,1.665,0,0,0,1.655-1.655,1.616,1.616,0,0,0-1.655-1.655,1.665,1.665,0,0,0-1.655,1.655A1.616,1.616,0,0,0,24.666,19.938Zm4.965,0a1.665,1.665,0,0,0,1.655-1.655,1.616,1.616,0,0,0-1.655-1.655,1.665,1.665,0,0,0-1.655,1.655A1.616,1.616,0,0,0,29.63,19.938Zm4.965,0a1.665,1.665,0,0,0,1.655-1.655A1.616,1.616,0,0,0,34.6,16.628a1.655,1.655,0,0,0,0,3.31ZM29.63,15.446a1.665,1.665,0,0,0,1.655-1.655,1.616,1.616,0,0,0-1.655-1.655,1.655,1.655,0,0,0,0,3.31Zm4.965,0a1.665,1.665,0,0,0,1.655-1.655A1.616,1.616,0,0,0,34.6,12.136a1.665,1.665,0,0,0-1.655,1.655A1.719,1.719,0,0,0,34.6,15.446Zm-9.929,0a1.665,1.665,0,0,0,1.655-1.655,1.616,1.616,0,0,0-1.655-1.655,1.655,1.655,0,1,0,0,3.31ZM29,56.739,0,0H58Z" transform="translate(801 394)" fill="#fff"/>
  </g>
</svg>
