<svg xmlns="http://www.w3.org/2000/svg" xmlns:xlink="http://www.w3.org/1999/xlink" width="96" height="96" viewBox="0 0 96 96">
  <defs>
    <linearGradient id="linear-gradient" x1="0.968" y1="0.251" x2="-0.261" y2="1.158" gradientUnits="objectBoundingBox">
      <stop offset="0" stop-color="#60f05a"/>
      <stop offset="1" stop-color="#28e9f1"/>
    </linearGradient>
  </defs>
  <g id="Webex" transform="translate(-1023 -391)">
    <circle id="Ellipse_24" data-name="Ellipse 24" cx="48" cy="48" r="48" transform="translate(1023 391)"/>
    <g id="Group_398" data-name="Group 398" transform="translate(1041.429 417.385)">
      <g id="Group_406" data-name="Group 406" transform="translate(0 0)">
        <path id="Path_726" data-name="Path 726" d="M34.921,1.782A13.532,13.532,0,0,0,30.14,5.795L24.078,22.017a13.645,13.645,0,0,1-.427,1.793c-.085.342-.171.6-.256.939A48.816,48.816,0,0,1,21.6,29.7c-.512.939-1.281,2.049-2.647,1.793l-.512-.256a6.193,6.193,0,0,1-1.964-2.476,32.863,32.863,0,0,1-2.732-6.745,52.1,52.1,0,0,1-1.793-8.965,7.774,7.774,0,0,0-1.11-3.928A5.955,5.955,0,0,0,9.136,7.588a6.015,6.015,0,0,0-2.9-.854,6.81,6.81,0,0,0-3.159.683,5.555,5.555,0,0,0-2.22,2.22A5.3,5.3,0,0,0,0,12.625a6.155,6.155,0,0,0,.171,1.2c.342,3.415,1.793,14,6.66,22.029,0,0,4.013,7.77,12.636,7.6A14.656,14.656,0,0,0,25.444,42a13.067,13.067,0,0,0,4.781-3.842l3.5-7.77,2.561-8.2.256-1.281a39.01,39.01,0,0,1,2.049-6.318,4.767,4.767,0,0,1,1.451-2.135l.085-.085a1.714,1.714,0,0,1,1.878.256,2.421,2.421,0,0,1,.768.854c.256.342.427.683.683,1.025a16.771,16.771,0,0,1,1.11,2.134,10.928,10.928,0,0,0,.939,1.708.084.084,0,0,1,.085.085,7.17,7.17,0,0,0,2.049,1.537,5.053,5.053,0,0,0,2.476.6,6.9,6.9,0,0,0,2.305-.427,5.234,5.234,0,0,0,1.964-1.281,9.691,9.691,0,0,0,1.281-1.964,7.319,7.319,0,0,0,.427-2.305,6.124,6.124,0,0,0-.512-2.476s-2.305-5.977-6.318-8.965A13.639,13.639,0,0,0,40.9.245a11.984,11.984,0,0,0-5.977,1.537" transform="translate(0 -0.222)" fill="url(#linear-gradient)"/>
        <path id="Path_728" data-name="Path 728" d="M124.718,6.513ZM89.743,0A13.3,13.3,0,0,0,87.406.2a14.476,14.476,0,0,0-9.392,6.489,5.456,5.456,0,0,1,1.622.683A5.953,5.953,0,0,1,81.344,8.9a7.773,7.773,0,0,1,1.11,3.928,61.523,61.523,0,0,0,1.708,8.794c1.793-6.062,4.013-8.88,4.013-8.88a2.421,2.421,0,0,1,.854-.768,1.234,1.234,0,0,1,.6-.171,2.028,2.028,0,0,1,1.025.256c.085,0,.085.085.171.085A7.7,7.7,0,0,1,91.59,13a23.512,23.512,0,0,1,1.2,2.561c.683,1.878,1.281,4.269,1.281,4.269l1.708,6.831a49.3,49.3,0,0,0,2.305,6.916c2.647,6.062,6.66,7.77,6.66,7.77a15.221,15.221,0,0,0,6.4,1.708,12.653,12.653,0,0,0,6.147-1.281,16.586,16.586,0,0,0,5.379-4.355,30.555,30.555,0,0,0,2.391-3.842,46.1,46.1,0,0,0,3.671-9.9,54.685,54.685,0,0,0,1.366-6.489c.171-1.11.342-2.135.427-3.245a7.465,7.465,0,0,0-.085-3.074c-.085-.171-.085-.342-.171-.512a6.023,6.023,0,0,0-2.647-2.988,5.028,5.028,0,0,0-2.9-.854,7.523,7.523,0,0,0-1.451.171,29.941,29.941,0,0,1,2.818,5.123,6.125,6.125,0,0,1,.512,2.476,7.319,7.319,0,0,1-.427,2.305,9.7,9.7,0,0,1-1.281,1.964,4.381,4.381,0,0,1-1.964,1.281,6.9,6.9,0,0,1-2.305.427,5.3,5.3,0,0,1-2.988-.854l-.6,2.305a28.179,28.179,0,0,1-1.878,5.123,18.877,18.877,0,0,1-1.537,2.9A3.792,3.792,0,0,1,112,31.189a2.363,2.363,0,0,1-.768.085,1.377,1.377,0,0,1-.768-.256,4.345,4.345,0,0,1-1.11-1.366,17.085,17.085,0,0,1-.854-1.793c-.512-1.281-1.366-4.44-1.366-4.44l-.854-3.33-.854-3.33-.6-2.22A25.428,25.428,0,0,0,101.067,6a14.4,14.4,0,0,0-7-5.294A12.538,12.538,0,0,0,89.809,0Z" transform="translate(-70.5 -0.001)" fill="#3c7eff"/>
      </g>
    </g>
  </g>
</svg>
