<svg xmlns="http://www.w3.org/2000/svg" xmlns:xlink="http://www.w3.org/1999/xlink" width="96" height="96" viewBox="0 0 96 96">
  <defs>
    <clipPath id="clip-path">
      <rect id="Rectangle_59" data-name="Rectangle 59" width="57.784" height="57.586" fill="#fff"/>
    </clipPath>
  </defs>
  <g id="windows" transform="translate(-1070 -195)">
    <circle id="Ellipse_39" data-name="Ellipse 39" cx="48" cy="48" r="48" transform="translate(1070 195)" fill="#00aaf2"/>
    <g id="Group_127" data-name="Group 127" transform="translate(820 -207.226)">
      <g id="Group_126" data-name="Group 126" transform="translate(269 421.226)">
        <g id="Group_125" data-name="Group 125" clip-path="url(#clip-path)">
          <path id="Path_110" data-name="Path 110" d="M221.751,228.66v12.117c0,1.419-.437,1.71-1.783,1.492-9.024-1.346-18.158-2.584-27.254-3.857-1.637-.218-2.22-.8-2.22-2.584.146-6.441.073-12.918,0-19.431,0-1.419.437-1.856,1.856-1.856,9.315.073,18.485.073,27.618.073,1.492,0,1.856.582,1.856,1.928C221.678,220.618,221.751,224.62,221.751,228.66Z" transform="translate(-164.04 -184.748)" fill="#fff"/>
          <path id="Path_111" data-name="Path 111" d="M206.511,27.537c-4.585,0-9.17-.073-13.755,0-1.419,0-2-.291-2-1.928.073-6.586.073-13.063,0-19.577,0-1.274.437-1.71,1.638-1.928,9.388-1.346,18.776-2.656,28.164-4.075C222.194-.191,221.9.9,221.9,1.811c0,5.822.073,11.753,0,17.575,0,2.147-.073,4.294,0,6.441.073,1.346-.437,1.71-1.71,1.71C215.681,27.464,211.1,27.537,206.511,27.537Z" transform="translate(-164.265 0)" fill="#fff"/>
          <path id="Path_112" data-name="Path 112" d="M11.9,215.174H22.16c1.092,0,1.565.364,1.565,1.492V236.9c0,1.164-.51,1.274-1.565,1.164q-10.207-1.528-20.377-2.947C.437,234.9,0,234.46,0,233.04c.073-5.385.073-10.771,0-16.265,0-1.346.364-1.71,1.71-1.71C5.167,215.174,8.478,215.174,11.9,215.174Z" transform="translate(0 -185.199)" fill="#fff"/>
          <path id="Path_113" data-name="Path 113" d="M12.35,57.643H2.234c-1.273,0-1.71-.437-1.71-1.783C.6,50.548.6,45.235.524,39.886c0-1.274.364-1.71,1.71-1.929q10.207-1.31,20.377-2.947c1.565-.218,1.71.291,1.71,1.565V55.933c0,1.419-.582,1.637-1.856,1.637C19.082,57.571,15.661,57.643,12.35,57.643Z" transform="translate(-0.451 -30.106)" fill="#fff"/>
        </g>
      </g>
    </g>
  </g>
</svg>
