<svg xmlns="http://www.w3.org/2000/svg" width="96" height="96" viewBox="0 0 96 96">
  <g id="workday" transform="translate(-2 -2)">
    <g id="Group_3" data-name="Group 3">
      <g id="Group_2" data-name="Group 2">
        <circle id="Ellipse_2" data-name="Ellipse 2" cx="48" cy="48" r="48" transform="translate(2 2)" fill="#005cb9"/>
        <path id="Path_5" data-name="Path 5" d="M72.786,37.475a23.973,23.973,0,0,0-44.833,0,2.525,2.525,0,0,0,.212,2.432,3.084,3.084,0,0,0,5.305-.66,18.132,18.132,0,0,1,33.8,0,3.084,3.084,0,0,0,5.3.66,2.518,2.518,0,0,0,.214-2.432" fill="#f37d02"/>
        <path id="Path_6" data-name="Path 6" d="M65.453,76.83A1.616,1.616,0,0,1,63.727,78H58.246c-.9,0-1.35-.26-1.57-1.17L51.494,56.959a58.091,58.091,0,0,1-1.056-6.7,42.323,42.323,0,0,1-1.045,6.7l-5.175,19.87A1.557,1.557,0,0,1,42.5,78H36.938c-.9,0-1.353-.26-1.577-1.17L27.787,48.256a1.176,1.176,0,0,1,1.2-1.567h3.527a1.5,1.5,0,0,1,1.724,1.305l4.805,20.4a59.226,59.226,0,0,1,.9,6.947c.376-2.141.674-4.673,1.27-6.883l5.333-20.524a1.68,1.68,0,0,1,1.8-1.242H52.7a1.815,1.815,0,0,1,1.876,1.305l5.4,20.461a55,55,0,0,1,1.2,6.883c.3-2.141.6-4.673,1.054-6.883l4.424-20.524a1.627,1.627,0,0,1,1.8-1.242h3.3a1.125,1.125,0,0,1,1.2,1.5l-7.5,28.64" fill="#fff"/>
      </g>
    </g>
  </g>
</svg>
