<svg xmlns="http://www.w3.org/2000/svg" xmlns:xlink="http://www.w3.org/1999/xlink" width="96" height="96" viewBox="0 0 96 96">
  <defs>
    <clipPath id="clip-path">
      <ellipse id="Ellipse_27" data-name="Ellipse 27" cx="48" cy="48" rx="48" ry="48"/>
    </clipPath>
    <clipPath id="clip-path-2">
      <path id="Path_109" data-name="Path 109" d="M-505.162-41.955l13.253-9.682c1.151-.952,2.044-.714,2.044,1.012V-21.1c0,1.964-1.091,1.726-2.044,1.012l-13.253-9.662ZM-550-50.546v22.022a9.013,9.013,0,0,0,9.047,8.968h32.1a1.638,1.638,0,0,0,1.647-1.627V-43.2a9.013,9.013,0,0,0-9.047-8.968h-32.1A1.639,1.639,0,0,0-550-50.546Z" transform="translate(550 52.191)"/>
    </clipPath>
  </defs>
  <g id="Zoom" transform="translate(-1152.276 -378.46)">
    <g id="Group_107" data-name="Group 107" transform="translate(1152.276 378.46)">
      <g id="Group_106" data-name="Group 106" transform="translate(0 0)" clip-path="url(#clip-path)">
        <path id="Path_107" data-name="Path 107" d="M-645-219h101.243v101.243H-645Z" transform="translate(642.378 216.378)" fill="#4a8cff"/>
      </g>
    </g>
    <g id="Group_109" data-name="Group 109" transform="translate(1169.669 410.133)">
      <g id="Group_108" data-name="Group 108" transform="translate(0 0)" clip-path="url(#clip-path-2)">
        <path id="Path_108" data-name="Path 108" d="M-562.8-64.9h65.214v37.7H-562.8Z" transform="translate(560.261 62.378)" fill="#fff"/>
      </g>
    </g>
  </g>
</svg>
