<svg xmlns="http://www.w3.org/2000/svg" width="96" height="96" viewBox="0 0 96 96">
  <g id="Zscaler_ZIA" data-name="Zscaler ZIA" transform="translate(-501 -23)">
    <circle id="Ellipse_4" data-name="Ellipse 4" cx="48" cy="48" r="48" transform="translate(501 23)" fill="#0075bd"/>
    <g id="Layer_3" data-name="Layer 3" transform="translate(515.005 -46.17)">
      <g id="Navigation" transform="translate(-0.005 89.17)">
        <path id="Path_4" data-name="Path 4" d="M68.221,111.524c1.116,7.059-4.8,11.04-10.719,11.463-3.017,5.6-9.232,10.145-18.21,10.145a21.129,21.129,0,0,1-10.576-2.4,13.553,13.553,0,0,1-2.409.22c-3.136,0-5.275-.727-7.363-3.2,4.226-5.689,17.09-15.917,32.766-10.634,8.378,2.815,10.559-3.8,8.455-6.281-7.9-9.359-25.75-.938-26.388-.228C40.754,99.411,65.828,96.282,68.221,111.524ZM44.2,98.672c.051,0-5.69-2.122-13.722,1.5a9.863,9.863,0,0,1-.946-.457c7.718-5.332,14.493-7.609,20.288-6.762-3.737-3.29-7.827-3.779-13.8-3.779a22.081,22.081,0,0,0-16.207,6.611,15.842,15.842,0,0,0-3.508-.372c-8.969,0-16.755,8.465-16.291,18.075s10.551,15.608,16.291,13.994a1.162,1.162,0,0,1,.424,0C18,121.12,23.179,106.334,44.2,98.675Z" transform="translate(0.005 -89.17)" fill="#fff"/>
      </g>
    </g>
    <text id="ZIA" transform="translate(537 106)" fill="#fff" font-size="16" font-family="Rubik-Regular, Rubik"><tspan x="0" y="0">ZIA</tspan></text>
  </g>
</svg>
